<svg xmlns="http://www.w3.org/2000/svg" width="35.386" height="373.01" viewBox="0 0 35.386 373.01">
  <g id="グループ_164" data-name="グループ 164" transform="translate(-1867.2 -931.14)">
    <path id="パス_328" data-name="パス 328" d="M7.87-3.43A3.2,3.2,0,0,1,6.62-.77,3.806,3.806,0,0,1,5.5-.175,3.816,3.816,0,0,1,4.25.05,3.773,3.773,0,0,1,3.005-.175,3.819,3.819,0,0,1,1.89-.77,3.207,3.207,0,0,1,.64-3.42,3.494,3.494,0,0,1,1.695-6.005,3.557,3.557,0,0,1,4.3-7.05,3.408,3.408,0,0,1,6.825-5.985,3.518,3.518,0,0,1,7.87-3.43Zm-.35.05a3.234,3.234,0,0,0-.97-2.36,3.161,3.161,0,0,0-2.33-.98,3.058,3.058,0,0,0-2.27.99A3.249,3.249,0,0,0,.99-3.39a2.923,2.923,0,0,0,.955,2.2A3.243,3.243,0,0,0,4.26-.28a3.23,3.23,0,0,0,2.3-.905A2.912,2.912,0,0,0,7.52-3.38Zm-1.64.61a.421.421,0,0,1-.01.1,3.91,3.91,0,0,0-.04.59q0,.2.03.5a.421.421,0,0,1,.01.1q0,.07-.06.07-.02,0-.07-.06a.623.623,0,0,0-.28-.28,1.59,1.59,0,0,1-1.02.38A2.071,2.071,0,0,1,2.92-2a2.083,2.083,0,0,1-.63-1.53A2.075,2.075,0,0,1,2.9-5.06a2.063,2.063,0,0,1,1.52-.61,1.541,1.541,0,0,1,.75.18.643.643,0,0,0,.27.1.259.259,0,0,0,.21-.12q.08-.08.1-.08a.044.044,0,0,1,.05.05.164.164,0,0,1-.01.04,4.865,4.865,0,0,0-.03.67v.37a.792.792,0,0,1,.01.13q0,.11-.09.11-.07,0-.12-.21-.22-1-1.01-1a.716.716,0,0,0-.65.33,3.063,3.063,0,0,0-.37,1.66,2.678,2.678,0,0,0,.28,1.335.857.857,0,0,0,.77.485q.84,0,1.11-1.06.04-.17.11-.17A.071.071,0,0,1,5.88-2.77Zm11.21.56a1.084,1.084,0,0,1-.02.19A19.475,19.475,0,0,0,16.84.03q-1.2-.05-2.34-.05-.06,0-.24.01-.24.01-.4.01L12.53.03a1.213,1.213,0,0,0-.15.01H12.3q-.36,0-.36-.12,0-.08.15-.2a17.248,17.248,0,0,0,2.065-1.9A3.366,3.366,0,0,0,15-4.53a2.083,2.083,0,0,0-.45-1.44,1.108,1.108,0,0,0-.86-.35,1.1,1.1,0,0,0-.745.255.718.718,0,0,0-.3.535.185.185,0,0,0,.14.2q.05.01.29.03a.716.716,0,0,1,.5.225.728.728,0,0,1,.19.515.715.715,0,0,1-.18.505.61.61,0,0,1-.47.195.754.754,0,0,1-.615-.29,1.186,1.186,0,0,1-.235-.77,1.586,1.586,0,0,1,.555-1.285A2.3,2.3,0,0,1,14.35-6.67a2.375,2.375,0,0,1,1.63.555,1.824,1.824,0,0,1,.63,1.435q0,1.73-3.19,3.48l.33-.01.91-.01q1.09-.01,1.41-.05a.916.916,0,0,0,.58-.2,1.3,1.3,0,0,0,.19-.54q.06-.34.16-.34T17.09-2.21Zm5.84-1.01a3.872,3.872,0,0,1-.71,2.4,2.168,2.168,0,0,1-1.8.94,2.292,2.292,0,0,1-1.86-.99,3.776,3.776,0,0,1-.77-2.39,3.6,3.6,0,0,1,1.17-2.88,2.138,2.138,0,0,1,1.45-.53,2.045,2.045,0,0,1,1.29.41,3,3,0,0,1,.9,1.26A4.662,4.662,0,0,1,22.93-3.22Zm-1.65-.17a7.538,7.538,0,0,0-.31-2.74.605.605,0,0,0-.58-.36q-.51,0-.72.7a8.392,8.392,0,0,0-.23,2.26,7,7,0,0,0,.44,3.1.639.639,0,0,0,.55.37q.5,0,.67-.71A12.892,12.892,0,0,0,21.28-3.39ZM27.93-.07q0,.08-.26.08h-.24q-.14-.02-1.1-.01L25.08.01q-.12,0-.28.01h-.16q-.25,0-.25-.09a.062.062,0,0,1,.05-.07,3.767,3.767,0,0,1,.39-.01.916.916,0,0,0,.54-.11.491.491,0,0,0,.06-.27V-4.25q0-1.19-.02-1.29-.03-.16-.28-.16l-.51.01q-.26.01-.26-.08,0-.06.33-.09a3.4,3.4,0,0,0,1.45-.42l.36-.23.38-.23.04.15q0,.03-.01.16v4.85q0,.91.02,1.03.01.4.39.39Q27.93-.18,27.93-.07Zm6.25-3.67A3.962,3.962,0,0,1,33.6-1.62,3.74,3.74,0,0,1,31.98-.18a4.764,4.764,0,0,1-2.05.39q-.21,0-.21-.07T29.9.07a2.542,2.542,0,0,0,1.06-.29,2.756,2.756,0,0,0,1.09-1.03,3.321,3.321,0,0,0,.53-1.51,1.828,1.828,0,0,1-1.19.48A2.021,2.021,0,0,1,29.9-2.86a1.983,1.983,0,0,1-.585-1.47,2.277,2.277,0,0,1,.655-1.665A2.2,2.2,0,0,1,31.61-6.66a2.522,2.522,0,0,1,1.42.43A2.777,2.777,0,0,1,34.18-3.74Zm-1.57-.32a5.948,5.948,0,0,0-.18-1.57q-.23-.85-.78-.85a.561.561,0,0,0-.55.4,4.091,4.091,0,0,0-.16,1.37q0,2.1.91,2.1a.6.6,0,0,0,.58-.425A2.623,2.623,0,0,0,32.61-4.06Zm9.38-2.77q0,.09-.12.09h-.01q-.1-.01-.25-.01-.33,0-.39.13a2.568,2.568,0,0,0-.03.58v4.49A7.24,7.24,0,0,1,41.1-.09,1.964,1.964,0,0,1,40.22.93a2.078,2.078,0,0,1-1.17.4,1.153,1.153,0,0,1-.76-.24A.778.778,0,0,1,38,.46a.667.667,0,0,1,.69-.69.6.6,0,0,1,.435.17A.574.574,0,0,1,39.3.37a.908.908,0,0,1-.21.54.247.247,0,0,0-.06.14q0,.11.18.11.45,0,.5-.81.01-.16.01-2.25V-6.29l-.01-.16a.258.258,0,0,0-.14-.225,1.451,1.451,0,0,0-.48-.065,2.294,2.294,0,0,1-.27-.02q-.04-.01-.04-.07,0-.09.15-.09l1.25.01.41-.01q.46-.01.94-.01h.29Q41.99-6.93,41.99-6.83ZM49-3.45a3.644,3.644,0,0,1-.935,2.535A2.974,2.974,0,0,1,45.77.12,2.97,2.97,0,0,1,43.49-.93a3.639,3.639,0,0,1-.95-2.53A3.6,3.6,0,0,1,43.485-6,3.067,3.067,0,0,1,45.83-7.02a2.9,2.9,0,0,1,2.26,1.025A3.694,3.694,0,0,1,49-3.45Zm-1.76.16a6.957,6.957,0,0,0-.47-2.94,1.028,1.028,0,0,0-.98-.62q-.68,0-1.085.87a5.591,5.591,0,0,0-.4,2.33,5.644,5.644,0,0,0,.72,3.17.988.988,0,0,0,.87.44.945.945,0,0,0,.93-.63A6.765,6.765,0,0,0,47.24-3.29Zm6.24-3.54q0,.09-.12.09h-.01q-.1-.01-.25-.01-.33,0-.39.13a2.568,2.568,0,0,0-.03.58v4.49a7.24,7.24,0,0,1-.09,1.46A1.964,1.964,0,0,1,51.71.93a2.078,2.078,0,0,1-1.17.4,1.153,1.153,0,0,1-.76-.24.778.778,0,0,1-.29-.63.667.667,0,0,1,.69-.69.6.6,0,0,1,.435.17.574.574,0,0,1,.175.43.908.908,0,0,1-.21.54.247.247,0,0,0-.06.14q0,.11.18.11.45,0,.5-.81.01-.16.01-2.25V-6.29l-.01-.16a.258.258,0,0,0-.14-.225,1.451,1.451,0,0,0-.48-.065,2.294,2.294,0,0,1-.27-.02q-.04-.01-.04-.07,0-.09.15-.09l1.25.01.41-.01q.46-.01.94-.01h.29Q53.48-6.93,53.48-6.83ZM56.97-.07q0,.08-.13.08A.792.792,0,0,1,56.71,0q-.6-.03-1.03-.03-.45,0-1.32.03-.29.01-.43.01t-.15-.09a.057.057,0,0,1,.055-.06q.055-.01.385-.02.31-.06.36-.185a3.421,3.421,0,0,0,.05-.8V-6.33q-.01-.18-.01-.17,0-.25-.5-.25-.28,0-.28-.07t.04-.08a1.766,1.766,0,0,1,.26-.01q-.1,0,.36.01t.79.01h.51q.16,0,.455-.015t.415-.015h.1q.13,0,.13.08a.069.069,0,0,1-.045.075,1.827,1.827,0,0,1-.305.025q-.31.02-.38.13l-.03.19V-.77q0,.43.1.51a1.529,1.529,0,0,0,.645.11Q56.97-.14,56.97-.07Zm9.69,0q0,.1-.2.1h-.07q-.22,0-.775-.01T64.79.01q-.11,0-.46.01H63.16q-.14,0-.14-.09t.14-.09l.34.01q.46.01.56-.16a2.731,2.731,0,0,0,.03-.6l-.01-5.42q-.32.83-.84,2.64L62.37-.63q-.16.56-.26.56t-.2-.28l-.64-1.92q-.23-.69-1.25-3.87V-.97q0,.45.01.535a.209.209,0,0,0,.09.145.749.749,0,0,0,.51.12q.36-.01.36.11,0,.07-.15.07l-.89-.02a4.882,4.882,0,0,0-.53.01q-.4.02-.54.02-.21,0-.21-.09t.17-.08q.4,0,.48-.01.31-.04.36-.23a2.58,2.58,0,0,0,.03-.5V-5.66a2.428,2.428,0,0,0-.1-.935Q59.52-6.73,58.9-6.73q-.16,0-.16-.09t.17-.09l.27.01,1.89-.01a1.065,1.065,0,0,1,.11.01q.85,2.77,1.44,4.6l1.35-4.61h.21l1.32.01h.17q.15-.01.27-.01h.46q.2,0,.2.09t-.12.09l-.23-.01a1,1,0,0,0-.565.08.445.445,0,0,0-.145.39q0,.08.01.35t.01,2.51V-.62q0,.36.185.415a1.879,1.879,0,0,0,.55.045Q66.66-.17,66.66-.07ZM73.59-.1a.086.086,0,0,1-.075.095A2.8,2.8,0,0,1,73.13.01q-.08,0-.45-.01-.74-.02-1.02-.02-.33,0-.58.01-.5.02-.68.02-.27,0-.27-.1T70.7-.2a.82.82,0,0,0,.21-.02q.16-.02.16-.12a2.949,2.949,0,0,0-.12-.42l-.21-.65q-.06-.22-.26-.81H70.3l-.78-.01q-.42-.01-.89.01-.09.2-.34.9l-.22.65a.807.807,0,0,0-.05.24q0,.17.22.22.05.01.49.04.14.01.14.09t-.18.09L67.04,0a.792.792,0,0,1-.13.01q-.14,0-.14-.1,0-.06.31-.08a.739.739,0,0,0,.51-.15,3.766,3.766,0,0,0,.36-.84q.19-.5.55-1.48l1.21-3.33q.09-.22.25-.69.11-.34.17-.34t.22.46q.2.59,1.76,4.66.2.52.4,1.06a1.111,1.111,0,0,0,.34.56,1.4,1.4,0,0,0,.62.07Q73.59-.19,73.59-.1ZM70.41-2.44q-.01-.03-.07-.19-.4-1.16-.58-1.63-.05-.13-.14-.38l-.06-.18q-.18.43-.44,1.19-.29.85-.42,1.19.09,0,.22-.01h.78Q69.93-2.45,70.41-2.44Zm9.88-4.37q0,.05-.075.06t-.535.03q-.27.01-.31.11a2.326,2.326,0,0,0-.03.64l.01,1.16q.01,1.16.01,3.03v1.7q0,.17-.07.17a11.522,11.522,0,0,1-1.455-1.655Q76.49-3.22,74.88-5.35v.74q0,.38.01.66V-.5q0,.21.13.26a1.373,1.373,0,0,0,.49.08q.33,0,.37.05a.058.058,0,0,1,.01.04q0,.08-.15.08A.936.936,0,0,1,75.59,0q-.6-.02-.75-.02-.35,0-.92.02-.28.01-.24.01-.15,0-.15-.08t.44-.1q.51-.04.59-.16a2.518,2.518,0,0,0,.05-.72V-5.16q0-.63-.02-.76a.875.875,0,0,0-.35-.64,1.67,1.67,0,0,0-.82-.17q-.16-.01-.16-.09t.14-.09q.06,0,.43.02.18.01.54.01.74,0,1.2-.02l3.51,4.51V-6.35q0-.24-.08-.3a.632.632,0,0,0-.34-.075l-.43-.02q-.12-.01-.12-.07,0-.08.18-.08h.22q.06,0,.2-.01h.23q1.01,0,1.18.01T80.29-6.81ZM87.17-.1a.086.086,0,0,1-.075.095A2.8,2.8,0,0,1,86.71.01q-.08,0-.45-.01-.74-.02-1.02-.02-.33,0-.58.01-.5.02-.68.02-.27,0-.27-.1t.57-.11a.82.82,0,0,0,.21-.02q.16-.02.16-.12a2.949,2.949,0,0,0-.12-.42l-.21-.65q-.06-.22-.26-.81h-.18l-.78-.01q-.42-.01-.89.01-.09.2-.34.9l-.22.65a.807.807,0,0,0-.05.24q0,.17.22.22.05.01.49.04.14.01.14.09t-.18.09L80.62,0a.792.792,0,0,1-.13.01q-.14,0-.14-.1,0-.06.31-.08a.739.739,0,0,0,.51-.15,3.766,3.766,0,0,0,.36-.84q.19-.5.55-1.48l1.21-3.33q.09-.22.25-.69.11-.34.17-.34t.22.46q.2.59,1.76,4.66.2.52.4,1.06a1.111,1.111,0,0,0,.34.56,1.4,1.4,0,0,0,.62.07Q87.17-.19,87.17-.1ZM83.99-2.44q-.01-.03-.07-.19-.4-1.16-.58-1.63-.05-.13-.14-.38l-.06-.18q-.18.43-.44,1.19-.29.85-.42,1.19.09,0,.22-.01h.78Q83.51-2.45,83.99-2.44Zm8.95.64a1.586,1.586,0,0,1-.38,1.065,1.869,1.869,0,0,1-1.05.6,5.624,5.624,0,0,1-1,.14q-.47.02-2.76.02a3.794,3.794,0,0,1-.38-.01.064.064,0,0,1-.06-.07q0-.09.325-.09t.4-.095a.839.839,0,0,0,.08-.465l-.01-5.72q0-.29-.46-.3-.35-.01-.35-.09t.22-.09q.21.02.41.02h2.4q2.31,0,2.31,1.58,0,1.31-1.72,1.62l-.02.04a3.405,3.405,0,0,1,1.4.53A1.647,1.647,0,0,1,92.94-1.8ZM91.16-5.27q0-1.45-.9-1.45a1.971,1.971,0,0,0-.43.03.3.3,0,0,0-.22.31v2.64a1.8,1.8,0,0,0,1.22-.31A1.681,1.681,0,0,0,91.16-5.27Zm.18,3.42q0-1.41-.81-1.64a3.594,3.594,0,0,0-.92-.09l.02.58q0,.25-.02.71-.01.23-.01.86a4.789,4.789,0,0,0,.06,1.15q.08.11.45.11Q91.34-.17,91.34-1.85Zm7.83.1q0,.02-.01.93-.01.48-.015.69t0,.2Q96.5-.05,94.52,0l-.84.02q-.18,0-.18-.08,0-.06.045-.07t.305-.03q.47-.03.51-.27a1.918,1.918,0,0,0,.02-.29V-5.79q0-.6-.01-.66a.267.267,0,0,0-.1-.22.752.752,0,0,0-.37-.06q-.31,0-.31-.09t.275-.1q.275,0,.765-.01,1.84-.04,3.01-.02l.68.01a4.474,4.474,0,0,0,.54-.04l.09,1.09q.05.52.05.64a.088.088,0,0,1-.1.1q-.1,0-.13-.26a1.352,1.352,0,0,0-.555-1.005A2.46,2.46,0,0,0,96.84-6.73q-.28,0-.96.03v2.95a3.414,3.414,0,0,0,1.385-.155q.285-.165.385-.855.05-.37.15-.37t.09.18q0,.18-.03.74-.01.19-.01.51,0,.86.02,1.3a.937.937,0,0,1,.01.15q0,.12-.09.12a.088.088,0,0,1-.09-.045,2.08,2.08,0,0,1-.06-.325,1.767,1.767,0,0,0-.275-.885,1.228,1.228,0,0,0-.805-.175h-.68V-.19l.64-.01q1.1-.02,1.34-.05a1.411,1.411,0,0,0,.58-.22,1.1,1.1,0,0,0,.345-.43,4.746,4.746,0,0,0,.205-.85q.03-.15.1-.15T99.17-1.75Z" transform="translate(1891.5 930.5) rotate(90)"/>
    <g id="グループ_163" data-name="グループ 163">
      <path id="パス_325" data-name="パス 325" d="M26.3-11.05a5.42,5.42,0,0,1-.1.95A97.377,97.377,0,0,0,25.05.15q-6-.25-11.7-.25-.3,0-1.2.05-1.2.05-2,.05L3.5.15A6.065,6.065,0,0,0,2.75.2h-.4Q.55.2.55-.4q0-.4.75-1a86.24,86.24,0,0,0,10.325-9.525A16.83,16.83,0,0,0,15.85-22.65q0-4.7-2.25-7.2A5.541,5.541,0,0,0,9.3-31.6a5.493,5.493,0,0,0-3.725,1.275A3.589,3.589,0,0,0,4.1-27.65a.926.926,0,0,0,.7,1q.25.05,1.45.15a3.582,3.582,0,0,1,2.5,1.125A3.642,3.642,0,0,1,9.7-22.8a3.576,3.576,0,0,1-.9,2.525,3.049,3.049,0,0,1-2.35.975,3.768,3.768,0,0,1-3.075-1.45A5.93,5.93,0,0,1,2.2-24.6a7.929,7.929,0,0,1,2.775-6.425A11.514,11.514,0,0,1,12.6-33.35a11.875,11.875,0,0,1,8.15,2.775A9.119,9.119,0,0,1,23.9-23.4Q23.9-14.75,7.95-6L9.6-6.05l4.55-.05q5.45-.05,7.05-.25a4.578,4.578,0,0,0,2.9-1,6.508,6.508,0,0,0,.95-2.7q.3-1.7.8-1.7Q26.3-11.75,26.3-11.05ZM57-16.1q0,7.3-3.55,12a10.841,10.841,0,0,1-9,4.7Q39,.6,35.15-4.35A18.878,18.878,0,0,1,31.3-16.3q0-9.35,5.85-14.4a10.69,10.69,0,0,1,7.25-2.65,10.225,10.225,0,0,1,6.45,2.05A15,15,0,0,1,55.325-25,23.308,23.308,0,0,1,57-16.1Zm-8.25-.85q0-10.55-1.55-13.7a3.025,3.025,0,0,0-2.9-1.8q-2.55,0-3.6,3.5a41.962,41.962,0,0,0-1.15,11.3q0,11.85,2.2,15.5A3.193,3.193,0,0,0,44.5-.3q2.5,0,3.35-3.55Q48.75-7.6,48.75-16.95ZM83.5-.35q0,.4-1.3.4H81q-.7-.1-5.5-.05L69.25.05q-.6,0-1.4.05h-.8Q65.8.1,65.8-.35a.308.308,0,0,1,.25-.35A18.836,18.836,0,0,1,68-.75q2.2-.05,2.7-.55A2.455,2.455,0,0,0,71-2.65v-18.6q0-5.95-.1-6.45-.15-.8-1.4-.8l-2.55.05q-1.3.05-1.3-.4,0-.3,1.65-.45a17,17,0,0,0,7.25-2.1q.15-.1,1.8-1.15l1.9-1.15.2.75q0,.15-.05.8V-7.9q0,4.55.1,5.15.05,2,1.95,1.95Q83.5-.9,83.5-.35ZM116.25-18.7a19.812,19.812,0,0,1-2.925,10.6A18.7,18.7,0,0,1,105.25-.9,23.822,23.822,0,0,1,95,1.05q-1.05,0-1.05-.35t.9-.35a12.709,12.709,0,0,0,5.3-1.45,13.779,13.779,0,0,0,5.45-5.15,16.606,16.606,0,0,0,2.65-7.55,9.142,9.142,0,0,1-5.95,2.4,10.106,10.106,0,0,1-7.425-2.9,9.915,9.915,0,0,1-2.925-7.35,11.384,11.384,0,0,1,3.275-8.325A11.007,11.007,0,0,1,103.4-33.3a12.609,12.609,0,0,1,7.1,2.15Q116.25-27.3,116.25-18.7Zm-7.85-1.6a29.739,29.739,0,0,0-.9-7.85q-1.15-4.25-3.9-4.25a2.8,2.8,0,0,0-2.75,2,20.454,20.454,0,0,0-.8,6.85q0,10.5,4.55,10.5a3.023,3.023,0,0,0,2.9-2.125A13.116,13.116,0,0,0,108.4-20.3ZM131-3.1a3.454,3.454,0,0,1-1,2.55,3.454,3.454,0,0,1-2.55,1,3.576,3.576,0,0,1-2.6-1.025A3.39,3.39,0,0,1,123.8-3.1a3.531,3.531,0,0,1,1.05-2.6,3.531,3.531,0,0,1,2.6-1.05,3.414,3.414,0,0,1,2.5,1.05A3.531,3.531,0,0,1,131-3.1Zm32.2-13q0,7.3-3.55,12a10.841,10.841,0,0,1-9,4.7q-5.45,0-9.3-4.95A18.878,18.878,0,0,1,137.5-16.3q0-9.35,5.85-14.4a10.69,10.69,0,0,1,7.25-2.65,10.225,10.225,0,0,1,6.45,2.05,15,15,0,0,1,4.475,6.3A23.308,23.308,0,0,1,163.2-16.1Zm-8.25-.85q0-10.55-1.55-13.7a3.025,3.025,0,0,0-2.9-1.8q-2.55,0-3.6,3.5a41.962,41.962,0,0,0-1.15,11.3q0,11.85,2.2,15.5A3.193,3.193,0,0,0,150.7-.3q2.5,0,3.35-3.55Q154.95-7.6,154.95-16.95Zm37.75,5.9a5.421,5.421,0,0,1-.1.95A97.375,97.375,0,0,0,191.45.15q-6-.25-11.7-.25-.3,0-1.2.05-1.2.05-2,.05L169.9.15a6.065,6.065,0,0,0-.75.05h-.4q-1.8,0-1.8-.6,0-.4.75-1a86.24,86.24,0,0,0,10.325-9.525A16.83,16.83,0,0,0,182.25-22.65q0-4.7-2.25-7.2a5.541,5.541,0,0,0-4.3-1.75,5.493,5.493,0,0,0-3.725,1.275A3.589,3.589,0,0,0,170.5-27.65a.926.926,0,0,0,.7,1q.25.05,1.45.15a3.582,3.582,0,0,1,2.5,1.125,3.642,3.642,0,0,1,.95,2.575,3.576,3.576,0,0,1-.9,2.525,3.049,3.049,0,0,1-2.35.975,3.768,3.768,0,0,1-3.075-1.45A5.93,5.93,0,0,1,168.6-24.6a7.929,7.929,0,0,1,2.775-6.425A11.514,11.514,0,0,1,179-33.35a11.875,11.875,0,0,1,8.15,2.775A9.12,9.12,0,0,1,190.3-23.4q0,8.65-15.95,17.4L176-6.05l4.55-.05q5.45-.05,7.05-.25a4.578,4.578,0,0,0,2.9-1,6.508,6.508,0,0,0,.95-2.7q.3-1.7.8-1.7Q192.7-11.75,192.7-11.05ZM207.1-3.1a3.454,3.454,0,0,1-1,2.55,3.454,3.454,0,0,1-2.55,1,3.576,3.576,0,0,1-2.6-1.025A3.39,3.39,0,0,1,199.9-3.1a3.531,3.531,0,0,1,1.05-2.6,3.531,3.531,0,0,1,2.6-1.05,3.414,3.414,0,0,1,2.5,1.05A3.531,3.531,0,0,1,207.1-3.1ZM235.7-.35q0,.4-1.3.4h-1.2q-.7-.1-5.5-.05l-6.25.05q-.6,0-1.4.05h-.8Q218,.1,218-.35a.308.308,0,0,1,.25-.35,18.836,18.836,0,0,1,1.95-.05q2.2-.05,2.7-.55a2.455,2.455,0,0,0,.3-1.35v-18.6q0-5.95-.1-6.45-.15-.8-1.4-.8l-2.55.05q-1.3.05-1.3-.4,0-.3,1.65-.45a17,17,0,0,0,7.25-2.1q.15-.1,1.8-1.15l1.9-1.15.2.75q0,.15-.05.8V-7.9q0,4.55.1,5.15.05,2,1.95,1.95Q235.7-.9,235.7-.35ZM269.4-16.1q0,7.3-3.55,12a10.841,10.841,0,0,1-9,4.7q-5.45,0-9.3-4.95A18.878,18.878,0,0,1,243.7-16.3q0-9.35,5.85-14.4a10.69,10.69,0,0,1,7.25-2.65,10.225,10.225,0,0,1,6.45,2.05,15,15,0,0,1,4.475,6.3A23.308,23.308,0,0,1,269.4-16.1Zm-8.25-.85q0-10.55-1.55-13.7a3.025,3.025,0,0,0-2.9-1.8q-2.55,0-3.6,3.5a41.962,41.962,0,0,0-1.15,11.3q0,11.85,2.2,15.5A3.193,3.193,0,0,0,256.9-.3q2.5,0,3.35-3.55Q261.15-7.6,261.15-16.95Z" transform="translate(1868.5 1034.5) rotate(90)" stroke="#000" stroke-width="0.5" opacity="0.799"/>
    </g>
  </g>
</svg>
