<svg xmlns="http://www.w3.org/2000/svg" viewBox="0 0 45 261"><title>phraseImg</title><path d="M8.09,10.69Q10.7,12.22,11,13.75a26.58,26.58,0,0,0-.12-3.09c.78.09,1.38.12,1.74.15,1.65.12,2.37.33,2.37.66s-.27.42-1,.69V22.33H25A10.22,10.22,0,0,0,26.33,21a5.18,5.18,0,0,1-1.23.12c-.57,0-.75-.09-.81-.48v-.54H18.8v.66a.82.82,0,0,1-.15.42,4,4,0,0,1-1.74.24c-.84,0-1-.09-1.05-.57.06-3.66.09-4.32.09-6.06,0-2.94-.06-4.71-.15-5.82a21.51,21.51,0,0,1,3.27,1.41h4.86c.72-.66,1-.87,1.68-1.47,1,.63,1.26.81,2.16,1.5.21.18.3.27.3.42s0,.24-.9.81v1.92c0,1.77.06,5.94.09,6.75,0,.27-.06.36-.21.45,1.23,1,2,1.59,2.4,1.89.09.09.15.15.15.18s-.15.18-.36.18H13.94v.3a.66.66,0,0,1-.21.39,3.86,3.86,0,0,1-1.8.3c-.93,0-1.08-.09-1.11-.57.09-2.37.15-6,.15-8.67-.21,1.14-.72,1.89-1.26,1.89-.36,0-.54-.3-.57-.9a10.12,10.12,0,0,0-1.05-4.38v3.3c0,4.26,0,6.21.15,13.14a.53.53,0,0,1-.18.39,5.06,5.06,0,0,1-1.92.27c-.81,0-1-.12-1.08-.6,0-2.19,0-2.19.09-4.14s0-2.52,0-3.12V17L5.27,15a19.56,19.56,0,0,1-4,6.42L1,21.31A43.17,43.17,0,0,0,4.79,8.17H3.14a7.8,7.8,0,0,0-1.5.12l-.18-1a5.82,5.82,0,0,0,1.68.24h2V3.64c0-.84-.06-1.44-.06-1.83A3.92,3.92,0,0,0,5,.79C5.9.88,6.59.94,7,1c1.68.09,2.37.27,2.37.63s-.39.51-1.29.72V7.54h.51c.6-.87.81-1.14,1.38-1.92,1,.87,1.29,1.14,2.25,2a.62.62,0,0,1,.15.27c0,.15-.15.24-.39.24H8.09ZM9.14,28.18a26.68,26.68,0,0,0,4.32-2.52,10,10,0,0,0,2.22-2.13c3.42,1.17,3.87,1.38,3.87,1.71s-.24.45-.63.45c-.15,0-.54,0-.87-.06a27.27,27.27,0,0,1-8.79,2.88ZM15.59,4.06A26.8,26.8,0,0,0,19,3.1,18.53,18.53,0,0,0,23.75,1c.6.45,1.08.78,1.38,1,.63.48,1.05.78,1.11.84q.45.31.45.54c0,.15-.15.24-.39.24a6,6,0,0,1-1.14-.15,49,49,0,0,1-9.57,1.38v.63c0,.51,0,.6.3.66a17.16,17.16,0,0,0,2.19.09H20.9c3.78,0,3.93,0,4.41-.42s.81-.84,1.83-3.06l.33,0L27.41,4.9l0,.33c0,.24.12.39.39.51.69.27.9.54.9,1.08,0,.75-.51,1.17-1.59,1.41a54.41,54.41,0,0,1-6,.21c-6,0-6.93-.06-7.71-.42-.51-.24-.66-.6-.72-1.53v-4A7.68,7.68,0,0,0,12.5,1c3.9.45,4.26.51,4.26.9s-.36.45-1.17.66Zm8.7,6.9H18.8v2.31h5.49ZM18.8,13.9v2.4h5.49V13.9Zm0,3v2.49h5.49V16.93Zm2.25,7c3.81.15,5.67.45,6.66,1a2.09,2.09,0,0,1,1,1.83c0,1.11-.45,1.89-1.05,1.89-.33,0-.51-.12-1.32-.93A17.24,17.24,0,0,0,21,24.19Z"/><path d="M19.76,54.4c0,1.35,0,2.31.06,4.38a2.23,2.23,0,0,1-1,2.13,7.68,7.68,0,0,1-3.24.93c-.24,0-.33-.09-.36-.39a2.38,2.38,0,0,0-.42-1.2,2.74,2.74,0,0,0-1.65-1l-1.29-.36a8.28,8.28,0,0,1-.81-.24l0-.36c1.77.12,2.4.15,4.92.21h.12c.33,0,.42-.12.42-.48V50.17h-3.3v.51c0,.3-.09.45-.24.54a5.21,5.21,0,0,1-1.95.24c-.84,0-1-.12-1-.66.09-2.43.12-5.1.12-7.56,0-1.65,0-2.64-.12-4.05a36.86,36.86,0,0,1,3.45,1.71h1.8a29.88,29.88,0,0,0,.75-3.84H7.79c0,8.13-.21,11.1-.75,14.1a20.61,20.61,0,0,1-3,7.89,21.85,21.85,0,0,1-2.25,2.82l-.27-.21a24,24,0,0,0,2.19-7.5,76.23,76.23,0,0,0,.69-11.64c0-4.14-.06-6.21-.21-8,1.83.78,2.4,1,4.2,1.92H23.69c1-1,1.26-1.35,2.19-2.34,1.53,1,2,1.38,3.45,2.52q.18.18.18.27c0,.12-.12.18-.33.18H20.24a27.78,27.78,0,0,1-3.69,3.84h6.06c.78-.78,1-1,1.77-1.74,1.14.72,1.47,1,2.52,1.74.27.21.39.36.39.48s-.21.45-1.11.87V44c0,.48,0,2.25.09,6.51a.67.67,0,0,1-.24.6A4.88,4.88,0,0,1,24,51.4c-.78,0-1-.09-1-.57v-.66H19.76ZM5.42,60.61a26.68,26.68,0,0,0,3.93-5.28,18.73,18.73,0,0,0,1.47-3.12c.84.24,1.47.45,1.89.57,1.68.48,2.31.75,2.31,1s-.39.48-1.44.51a21.38,21.38,0,0,1-8,6.54ZM23,45V41.53H13.28V45Zm-9.69.63v3.87H23V45.67Zm8.28,6.87a26.55,26.55,0,0,1,5.19,2.7c1.23.84,1.68,1.5,1.68,2.49,0,1.26-.93,2.55-1.86,2.55-.54,0-.72-.21-1.32-1.71a18.31,18.31,0,0,0-3.9-5.76Z"/><path d="M13,77.77l1.47-1.62c1,.69,1.32.93,2.31,1.62.18.21.24.33.24.45a.59.59,0,0,1-.18.36,6.53,6.53,0,0,1-.66.51c-.21,8-.78,12.63-1.8,14.43a4.53,4.53,0,0,1-3.84,1.86c-.27,0-.33-.06-.36-.39a2.4,2.4,0,0,0-.24-1.17c-.33-.72-.69-1-1.77-1.35l-1.5-.42,0-.27,4.41.18c.66,0,.87-.15,1.08-.78.54-1.62,1-7.11,1-12.78H7a11.65,11.65,0,0,1-1.59,2.13c.33.3.66.54.9.72h2l1.26-1.44c.93.69,1.2.9,2.07,1.59q.27.22.27.36c0,.27-.21.45-.78.75,0,.87,0,1.5,0,2s0,.51,0,2.31c.06,1.35.06,1.35.06,2.55,0,.48-.18.57-1.26.6L9.23,90H9.11c-.39,0-.54-.12-.6-.48V88.24H6.35V90c-.09.69-.24.75-2.25.75-.39,0-.54-.15-.57-.54q.09-3.37.09-4.32c0-1,0-1.68,0-3.39a14.73,14.73,0,0,1-2.28,1.74l-.21-.18a26.24,26.24,0,0,0,3.15-6,11.12,11.12,0,0,0,.78-3c.84.15,1.5.3,1.89.36,2,.39,2.31.48,2.31.75s-.3.42-1.17.54c-.27.39-.27.39-.63,1ZM10.79,72a15,15,0,0,0-.18-3.63c3.66.33,4.14.42,4.14.81,0,.24-.18.36-1,.63l0,1.53a6.1,6.1,0,0,0,0,.66h.6a23,23,0,0,1,1.59-2c1,.87,1.32,1.17,2.25,2.07a.55.55,0,0,1,.18.3c0,.15-.15.24-.39.24H13.76c0,.84,0,1.2.06,2.49-.06.51-.33.63-1.47.69-.45,0-.78,0-.93.06h-.15c-.39,0-.54-.12-.54-.48.06-1.17.06-1.17.06-2.76H8.15c0,.84,0,.84,0,1.47,0,.24-.06.36-.18.45a8.38,8.38,0,0,1-2.43.21c-.33,0-.45-.12-.45-.45.06-.78.06-1,.09-1.68H3.89a12.69,12.69,0,0,0-2.07.18l-.21-1A12.59,12.59,0,0,0,3.92,72H5.21v-1.2A10.84,10.84,0,0,0,5,68.44c.81.09,1.41.15,1.83.18,1.77.15,2.31.3,2.31.63s-.09.3-1.05.6c0,.27,0,1,0,2.19ZM6.35,87.61H8.51V81.88H6.35ZM27.44,76c-.6,5.49-1.65,8.94-3.69,12.24C25.7,90,27,90.73,30.29,91.84v.24A4.19,4.19,0,0,0,27.83,95c-.06.24-.12.33-.27.33a3.88,3.88,0,0,1-1.23-.75,16.51,16.51,0,0,1-4.11-4.38,17.41,17.41,0,0,1-8.13,5.49L14,95.5A20.29,20.29,0,0,0,21,88a21.4,21.4,0,0,1-2.13-7.53,20.91,20.91,0,0,1-2.43,3.27l-.21-.18a32.8,32.8,0,0,0,2.28-7.41,34.64,34.64,0,0,0,1.05-7.86c4.11.69,4.83.9,4.83,1.32s-.27.45-1.32.72l-.9,2.88c-.06.21-.27.78-.78,2.1h3.78c1-1.17,1-1.17,1.92-2.31,1.29,1,1.68,1.35,2.94,2.37.12.15.18.24.18.33S30,76,29.72,76Zm-6.33,0a24.56,24.56,0,0,1-1.86,3.81,15,15,0,0,0,2.67,6.33A29.52,29.52,0,0,0,24.11,76Z"/><path d="M21.44,108.19c1-.87,1.23-1.14,2.19-2,1.47,1.17,1.92,1.53,3.42,2.88.24.21.33.33.33.48s-.39.45-1.92.66a50,50,0,0,1-16.2,12.36c1.5,1.8,3.57,2.4,8.46,2.4a117.18,117.18,0,0,0,12-.72v.33a3.58,3.58,0,0,0-2.34,3.18.39.39,0,0,1-.36.36c-.27,0-1.92.06-3.06.06a57.79,57.79,0,0,1-9-.51,8.65,8.65,0,0,1-6.33-4.17,14.93,14.93,0,0,1-1.2-3,51,51,0,0,1-2.76,6.27,6.43,6.43,0,0,1,.09.75c0,.33-.18.63-.39.63s-.87-.87-2.34-3.63a16,16,0,0,0,3.6-2.91c1.32-1.29,1.47-1.5,1.47-1.95A3,3,0,0,0,7,119v-.12c0-.15.12-.18.57-.18s.6.09.6.27a2.62,2.62,0,0,1-.15.39,1.6,1.6,0,0,0-.12.48,4.87,4.87,0,0,0,.9,2.1,37.17,37.17,0,0,0,5.13-4.08,40.7,40.7,0,0,0,7.65-9H6.2a12.17,12.17,0,0,0-2.19.24l-.24-1.14a11.59,11.59,0,0,0,2.43.27H13v-3.45c-.06-2.37-.06-2.37-.12-2.91,3.21.3,4.5.51,4.74.72a.51.51,0,0,1,.18.36c0,.15-.63.51-1.29.72v4.56Z"/><path d="M39,4.94c-1.32,0-1.6.18-1.65,1h-.27V3.47h.27c0,.85.37,1.06,1.73,1.06h4c1,0,1.19-.17,1.25-1h.26V5.65L38.84,9.73H42.6A2.76,2.76,0,0,0,44,9.54c.26-.15.35-.36.38-.87h.27V11.2h-.27c0-.48-.12-.69-.38-.85a2.56,2.56,0,0,0-1.28-.21H37.08V9.4l6.38-4.46Z"/><path d="M41.78,12.54a2.57,2.57,0,0,1,.71,1.87A2.5,2.5,0,0,1,39.75,17a3,3,0,0,1-2-.66,2.66,2.66,0,0,1-.81-2,2.55,2.55,0,0,1,.76-1.88,3,3,0,0,1,2-.69A3.08,3.08,0,0,1,41.78,12.54ZM37.19,14.4c0,.87.78,1.26,2.52,1.26s2.55-.4,2.55-1.27a1,1,0,0,0-.58-.93,4.42,4.42,0,0,0-1.94-.32C38,13.14,37.19,13.54,37.19,14.4Z"/><path d="M42.47,19.61l-.81,0h-.3a1.78,1.78,0,0,1,1.13,1.48.79.79,0,0,1-.76.85.64.64,0,0,1-.61-.72.41.41,0,0,1,.32-.47c.28-.08.35-.13.35-.29v0c0-.19-.18-.39-.47-.56a2.25,2.25,0,0,0-1.11-.24H38.36c-.9,0-1,.06-1,.8h-.24V17.69h.24c0,.69.11.76,1,.76h2.77c.85,0,1-.09,1-.72h.24Z"/><path d="M42.47,24.31c-.6,0-1.3-.06-1.94-.06H38.36c-.89,0-1,.07-1,.78h-.24V22.25h.24c0,.71.11.78,1,.78h2.77c.89,0,1-.05,1-.75h.24Zm2.3-.66a.72.72,0,1,1-.72-.72A.72.72,0,0,1,44.77,23.65Z"/><path d="M40.79,29.55a1.82,1.82,0,0,0,.7.17c.41,0,.59-.23.62-.79h.23v2.18h-.23c-.08-.56-.37-.81-1.5-1.26l-4.32-1.7c-1-.41-1.4-.77-1.4-1.39s.23-.73.69-.73.52.14.52.4a2,2,0,0,1-.05.4,1.89,1.89,0,0,0-.06.42c0,.31.13.45.59.64L37,28l4.18-1.75c.8-.34.91-.43,1-.9h.23v2.67H42.1c0-.43-.12-.6-.39-.6a1.54,1.54,0,0,0-.58.15l-2.7,1Z"/><path d="M37,35.4a9.82,9.82,0,0,1,1,0A2.17,2.17,0,0,1,37,33.51a1.36,1.36,0,0,1,.75-1.29A2.88,2.88,0,0,1,39,32h.14l2,0h.08a1.4,1.4,0,0,0,.73-.11c.12-.09.15-.17.16-.62h.24l.13,2c-.72-.05-1.1-.07-2-.08H39.23a3.4,3.4,0,0,0-1.22.13.67.67,0,0,0-.49.7,1.21,1.21,0,0,0,.84,1.08,2.82,2.82,0,0,0,1.19.19h1.58c.55,0,.75,0,.86-.15s.1-.16.11-.58h.24l.13,2c-1.37-.06-1.37-.06-2-.06H38.39c-.87,0-1,.1-1,.65h-.23Z"/><path d="M38.36,39.66c-.9,0-1,.07-1,.75h-.24V37.7h.24c0,.68.11.75,1,.75h5c.88,0,1-.07,1-.76h.23l.11,2c-.74,0-1.38-.06-2.05-.06H39.51L41.05,41a1.08,1.08,0,0,0,.63.31c.27,0,.4-.21.43-.69h.23V43.2h-.23a2.23,2.23,0,0,0-.26-.84,3.2,3.2,0,0,0-.81-1L40.63,41l-2.39,1.39c-.62.37-.8.58-.9,1h-.22V41.62l.89-.44,1.72-1-.63-.56Z"/><path d="M42.47,45.87c-.6,0-1.3-.06-1.94-.06H38.36c-.89,0-1,.07-1,.78h-.24V43.81h.24c0,.71.11.78,1,.78h2.77c.89,0,1-.05,1-.75h.24Zm2.3-.66a.72.72,0,1,1-.72-.72A.72.72,0,0,1,44.77,45.21Z"/><path d="M39.11,51.81a3,3,0,0,0-1.35.18c-.26.16-.35.36-.38.86h-.26V50.36h.26c0,.84.39,1,1.73,1h4.21c.54,0,.74,0,.87-.22s.14-.26.15-.65h.26v2.39L39,55.11l5.64,2.22v2.29h-.26c0-.8-.12-.87-1.05-.87H38.41c-.91,0-1,.08-1,.89h-.26V56.56h.26c0,.81.12.9,1,.9h5.52l-6.62-2.58v-.52l6.54-2.55Z"/><path d="M37.15,65.41C37.08,64.82,37,64.29,37,64s.15-.42.76-.47A2.23,2.23,0,0,1,37,61.85a1.4,1.4,0,0,1,1.47-1.54c.86,0,1.39.53,1.6,1.6a12.16,12.16,0,0,1,.19,1.64h.65c1.06,0,1.37-.18,1.37-.78a.69.69,0,0,0-.34-.67,1.51,1.51,0,0,0-.71-.16c-.36,0-.49-.19-.49-.61s.16-.7.46-.7a1.15,1.15,0,0,1,.93.62,3.06,3.06,0,0,1,.38,1.64,2.13,2.13,0,0,1-.41,1.48,1.58,1.58,0,0,1-1.24.39H38.56c-1.1,0-1.16,0-1.17.68ZM40,63.55c-.11-1.45-.48-2-1.41-2-.71,0-1.18.32-1.18.81a1.09,1.09,0,0,0,.66,1,2.56,2.56,0,0,0,1.16.18Z"/><path d="M38.36,67.89c-.9,0-1,.07-1,.75h-.24V65.93h.24c0,.68.11.75,1,.75h5c.88,0,1-.07,1-.76h.23l.11,2c-.74,0-1.38-.06-2.05-.06H39.51l1.54,1.34a1.08,1.08,0,0,0,.63.31c.27,0,.4-.21.43-.69h.23v2.58h-.23a2.23,2.23,0,0,0-.26-.84,3.2,3.2,0,0,0-.81-1l-.41-.37-2.39,1.39c-.62.37-.8.58-.9,1h-.22V69.85l.89-.44,1.72-1-.63-.56Z"/><path d="M42.47,74.1c-.6,0-1.3-.06-1.94-.06H38.36c-.89,0-1,.07-1,.78h-.24V72h.24c0,.71.11.78,1,.78h2.77c.89,0,1,0,1-.75h.24Zm2.3-.66a.72.72,0,1,1-.72-.72A.72.72,0,0,1,44.77,73.44Z"/><path d="M41.48,77.3a1.94,1.94,0,0,1,1,1.82,1.47,1.47,0,0,1-.7,1.44,2.62,2.62,0,0,1-1.23.22h-2.2c-.9,0-1,.07-1,.76h-.24V78.81h.24c0,.68.1.75,1,.75h2.13a2.75,2.75,0,0,0,1.08-.14.76.76,0,0,0,.46-.77,1.2,1.2,0,0,0-.69-1.08,2,2,0,0,0-1.06-.27H38.36c-.89,0-1,.07-1,.75h-.24V75.32h.24c0,.69.1.76,1,.76h5c.88,0,1-.07,1-.77h.23l.11,2c-.77,0-1.25-.06-2.05-.06Z"/><path d="M37.15,87.22c-.07-.59-.12-1.12-.12-1.38s.15-.42.76-.47A2.23,2.23,0,0,1,37,83.66a1.4,1.4,0,0,1,1.47-1.54c.86,0,1.39.53,1.6,1.6a12.16,12.16,0,0,1,.19,1.64h.65c1.06,0,1.37-.18,1.37-.78a.69.69,0,0,0-.34-.67,1.51,1.51,0,0,0-.71-.16c-.36,0-.49-.19-.49-.61s.16-.7.46-.7a1.15,1.15,0,0,1,.93.62,3.06,3.06,0,0,1,.38,1.64,2.13,2.13,0,0,1-.41,1.48,1.58,1.58,0,0,1-1.24.39H38.56c-1.1,0-1.16,0-1.17.68ZM40,85.36c-.11-1.45-.48-2-1.41-2-.71,0-1.18.32-1.18.81a1.09,1.09,0,0,0,.66,1,2.56,2.56,0,0,0,1.16.18Z"/><path d="M42.47,89.69l-.81,0h-.3a1.78,1.78,0,0,1,1.13,1.48.79.79,0,0,1-.76.85.64.64,0,0,1-.61-.72.41.41,0,0,1,.32-.47c.28-.08.35-.13.35-.29v0c0-.19-.18-.39-.47-.56a2.25,2.25,0,0,0-1.11-.24H38.36c-.9,0-1,.06-1,.8h-.24V87.77h.24c0,.69.11.76,1,.76h2.77c.85,0,1-.09,1-.72h.24Z"/><path d="M37.15,97.52c-.07-.59-.12-1.12-.12-1.38s.15-.42.76-.47A2.23,2.23,0,0,1,37,94a1.4,1.4,0,0,1,1.47-1.54c.86,0,1.39.53,1.6,1.6a12.16,12.16,0,0,1,.19,1.64h.65c1.06,0,1.37-.18,1.37-.78a.69.69,0,0,0-.34-.67,1.51,1.51,0,0,0-.71-.16c-.36,0-.49-.19-.49-.61s.16-.7.46-.7a1.15,1.15,0,0,1,.93.62A3.06,3.06,0,0,1,42.49,95a2.13,2.13,0,0,1-.41,1.48,1.58,1.58,0,0,1-1.24.39H38.56c-1.1,0-1.16,0-1.17.68ZM40,95.66c-.11-1.45-.48-2-1.41-2-.71,0-1.18.32-1.18.81a1.09,1.09,0,0,0,.66,1,2.56,2.56,0,0,0,1.16.18Z"/></svg>