<svg xmlns="http://www.w3.org/2000/svg" viewBox="0 0 45 261"><title>phraseImg</title><path d="M25,7.57q.18.18.18.27c0,.09-.12.15-.3.15H9a10,10,0,0,0-1.92.15L6.8,7.09A17.51,17.51,0,0,0,9,7.36H20.63c.75-.81,1-1.05,1.74-1.86.93.69,1.05.78,1.86,1.44.24-.66.39-1.11.69-2.19H6.29a7.59,7.59,0,0,1,0,.81c0,2.64-1.11,4.62-2.58,4.62A2.05,2.05,0,0,1,1.91,8c0-.78.12-.93,1.2-1.62,1.56-1,2.07-1.86,2.34-4.11h.33A9.79,9.79,0,0,1,6.2,4.12h7.56V2.68A13.67,13.67,0,0,0,13.61.49c4.38.3,4.89.39,4.89.84,0,.3-.24.42-1.32.75v2H24.5c.69-.75.9-1,1.62-1.71,1.5,1,1.95,1.38,3.36,2.49.24.24.33.36.33.51s-.51.51-1.2.51a1.24,1.24,0,0,1-.3,0,24,24,0,0,1-3,1.38,1.46,1.46,0,0,0-.45.18ZM23.3,17.68c.66-.69.9-.93,1.59-1.62,1.14.69,1.47.93,2.49,1.62.3.24.42.39.42.54s-.15.36-1.08,1v2.46c0,1.95,0,3.87.09,6.18-.06.54-.54.69-2.25.69-.84,0-1-.09-1-.48V26.8H8v1.05c-.06.33-.18.45-.63.54a9.87,9.87,0,0,1-1.53.12c-1,0-1.14-.06-1.2-.51.15-3,.18-4.32.18-5.73,0-3.48,0-5-.12-6.36a27,27,0,0,1,3.75,1.77ZM20.66,10.3c.6-.66.78-.87,1.44-1.56,1.11.75,1.44,1,2.49,1.68.24.24.33.36.33.45s-.3.45-1,.81c0,.72,0,1.41,0,1.8,0,1.17,0,1.38,0,2.22-.06.54-.36.63-1.95.63-1.08,0-1.23-.06-1.26-.45v-.63H10.67v.66c-.06.27-.18.36-.48.45a12.54,12.54,0,0,1-1.77.12c-.66,0-.87-.12-1-.45.09-2,.09-2.49.09-3.33,0-1.41,0-3-.09-4a24.93,24.93,0,0,1,3.39,1.56ZM14,21.76V18.31H8v3.45ZM8,26.17h6V22.39H8Zm2.7-11.55H20.75V10.93H10.67Zm12.84,3.69H17.15v3.45h6.36Zm-6.36,4.08v3.78h6.36V22.39Z"/><path d="M23.15,45.22c1.14-1.32,1.5-1.71,2.61-3,1.65,1.29,2.16,1.71,3.72,3.09.15.15.21.24.21.3s-.15.21-.39.21H17.06V59.38h5l2.55-3c1.59,1.32,2.1,1.74,3.66,3.09.12.15.18.24.18.3s-.15.21-.42.21H5.75a10.72,10.72,0,0,0-2.28.21l-.21-1.11a11.72,11.72,0,0,0,2.49.27H13.4V45.85H4.19A11.4,11.4,0,0,0,2,46L1.88,45a8.33,8.33,0,0,0,2.28.27H13.4V39.34a39.77,39.77,0,0,0-.21-4.5c4.86.54,5.37.63,5.37,1.08,0,.3-.3.45-1.5.78v8.52Z"/><path d="M24.05,91.63V77.47c0-1.2-.06-2.58-.18-3.75l2.25.27c2,.21,2.61.39,2.61.75s-.36.57-1.23.84c0,2.07,0,3.75,0,4.77,0,5.1.06,9.93.18,13.74a.74.74,0,0,1-.51.81,7.75,7.75,0,0,1-2,.24c-.87,0-1-.09-1.08-.69V92.26H7V94c0,.39-.06.57-.27.72a4.56,4.56,0,0,1-2.13.36c-1,0-1.2-.15-1.2-.87.12-4.14.18-7.59.18-11.91,0-4.89,0-6.75-.21-8.61,3.87.48,4.05.48,4.41.63s.36.24.36.42c0,.33-.27.51-1.14.78V91.63h6.54V73.42c0-1.71-.09-3.72-.21-5,4.62.45,5.1.54,5.1,1s-.33.57-1.32.84V91.63Z"/><path d="M14.36,124.81a15.55,15.55,0,0,0,7.26-4.26,11.16,11.16,0,0,0,3-7.89c0-5.13-3.12-8.19-8.28-8.19a9.33,9.33,0,0,0-1.2.06,4.46,4.46,0,0,1,1.38,3.21c0,2.4-1.53,6.6-3.69,10.23-1.95,3.24-3.69,4.89-5.19,4.89A2,2,0,0,1,6,122a7.4,7.4,0,0,1-.69-2A5.17,5.17,0,0,0,4,117.79a5.76,5.76,0,0,1-1.17-3.45,9.9,9.9,0,0,1,2.52-6,14.9,14.9,0,0,1,11.31-4.92c6.69,0,11.46,4.23,11.46,10.17,0,4.35-2.4,7.83-6.75,9.84a22.32,22.32,0,0,1-6.93,1.8ZM8.75,107.74a10.23,10.23,0,0,0-3.21,7.14c0,2.07,1,4.2,2,4.2s3-2.49,4.92-6.18c1.5-2.82,2.4-5.31,2.4-6.63a3.45,3.45,0,0,0-.12-1,2.87,2.87,0,0,0-.24-.66A10.88,10.88,0,0,0,8.75,107.74Z"/><path d="M9.65,158.08c0,.69-.42.81-2.49.81-1.08,0-1.23-.09-1.23-.72.18-5.34.21-8.58.21-15.42,0-6.15,0-7.62-.18-10.17a31.41,31.41,0,0,1,4,2H21.41l1.89-2c1.2.87,1.56,1.14,2.64,2,.3.24.42.39.42.57s-.24.48-1.14,1l0,4.8c0,9,0,10.92.21,16.83,0,.36-.06.51-.21.63a5,5,0,0,1-2.25.33c-1,0-1.26-.09-1.26-.57v-1.89h-12Zm12-22.86h-12v9.42h12Zm-12,10.05v10.35h12V145.27Z"/><path d="M39.11,4.93a3,3,0,0,0-1.35.18c-.26.16-.35.36-.38.86h-.26V3.48h.26c0,.84.39,1,1.73,1h4.21c.54,0,.74,0,.87-.22s.14-.26.15-.65h.26V6L39,8.23l5.64,2.22v2.29h-.26c0-.8-.12-.87-1.05-.87H38.41c-.91,0-1,.08-1,.9h-.26V9.68h.26c0,.81.12.9,1,.9h5.52L37.31,8V7.48l6.54-2.55Z"/><path d="M38.68,15.25a2.76,2.76,0,0,0-.9.1.54.54,0,0,0-.37.49,1.19,1.19,0,0,0,.31.7l-.25.14a2.05,2.05,0,0,1-.5-1.37,1.2,1.2,0,0,1,.55-1.13A3.07,3.07,0,0,1,38.9,14H42v-.57h.3a1.06,1.06,0,0,0,.53.95,2.71,2.71,0,0,0,1.07.37l0,.5c-.41,0-.72,0-1.63,0v1.21H42V15.25Z"/><path d="M37.81,19.18a.85.85,0,1,1,0-1.69.85.85,0,0,1,0,1.69Z"/><path d="M38.42,25.76c-.91,0-1,.1-1,.94h-.26V23.57h.26c0,.82.12.9,1,.9H43.3c.92,0,1-.1,1-.9h.26v5.49l-2.07.15,0-.35c1.35-.24,1.81-.79,1.81-2.17v-.93H41.15v.77c0,1.06.22,1.34,1.15,1.44v.32H39.69V28c1-.12,1.17-.36,1.17-1.44v-.77Z"/><path d="M37,33.72a9.82,9.82,0,0,1,1,0A2.17,2.17,0,0,1,37,31.83a1.36,1.36,0,0,1,.75-1.29A2.88,2.88,0,0,1,39,30.35h.14l2,0h.08a1.4,1.4,0,0,0,.73-.11c.12-.09.15-.17.16-.62h.24l.13,2c-.72-.05-1.1-.07-2-.08H39.23A3.4,3.4,0,0,0,38,31.7a.67.67,0,0,0-.49.7,1.21,1.21,0,0,0,.84,1.08,2.82,2.82,0,0,0,1.19.19h1.58c.55,0,.75,0,.86-.15s.1-.16.11-.58h.24l.13,2c-1.37-.06-1.37-.06-2-.06H38.39c-.87,0-1,.1-1,.65h-.23Z"/><path d="M42.47,38.12c-.73,0-1.36-.06-2-.06H37.75A6.47,6.47,0,0,1,36,38a1.73,1.73,0,0,1-1.09-1.75c0-.8.34-1.39.79-1.39s.56.34.56.78a.43.43,0,0,1-.17.4c-.08,0-.08,0-.48.09s-.44.15-.44.35.24.43.75.43h5.19c.9,0,1-.05,1-.78h.24Zm2.3-.66a.7.7,0,0,1-.72.72.72.72,0,1,1,.72-.72Z"/><path d="M42.47,41.37c-.6,0-1.3-.06-1.94-.06H38.36c-.89,0-1,.07-1,.78h-.24V39.31h.24c0,.71.11.78,1,.78h2.77c.89,0,1-.05,1-.75h.24Zm2.3-.66a.72.72,0,1,1-.72-.72A.72.72,0,0,1,44.77,40.71Z"/><path d="M37.38,46c0,.81.12.9,1,.9H43.3c.92,0,1-.1,1-.9h.26v3a5,5,0,0,1-.55,2.62A3.24,3.24,0,0,1,41,53.08a3.51,3.51,0,0,1-3.33-1.54,5.32,5.32,0,0,1-.53-2.66V46Zm0,2.91a2.71,2.71,0,0,0,.69,2,3.9,3.9,0,0,0,2.71.79A4.4,4.4,0,0,0,43.38,51a2.56,2.56,0,0,0,.93-2.25v-.6h-6.9Z"/><path d="M37.15,59.13C37.08,58.54,37,58,37,57.75s.15-.42.76-.47A2.23,2.23,0,0,1,37,55.57,1.4,1.4,0,0,1,38.45,54c.86,0,1.39.53,1.6,1.6a12.16,12.16,0,0,1,.19,1.64h.65c1.06,0,1.37-.18,1.37-.78a.69.69,0,0,0-.34-.67,1.51,1.51,0,0,0-.71-.16c-.36,0-.49-.19-.49-.61s.16-.7.46-.7a1.15,1.15,0,0,1,.93.62,3.06,3.06,0,0,1,.38,1.64,2.13,2.13,0,0,1-.41,1.48,1.58,1.58,0,0,1-1.24.39H38.56c-1.1,0-1.16,0-1.17.68ZM40,57.27c-.11-1.45-.48-2-1.41-2-.71,0-1.18.32-1.18.81a1.09,1.09,0,0,0,.66,1,2.56,2.56,0,0,0,1.16.18Z"/><path d="M40.79,63.66a1.82,1.82,0,0,0,.7.17c.41,0,.59-.23.62-.79h.23v2.18h-.23c-.08-.56-.37-.81-1.5-1.26l-4.32-1.7c-1-.41-1.4-.77-1.4-1.39s.23-.73.69-.73.52.14.52.4a2,2,0,0,1-.05.4,1.89,1.89,0,0,0-.06.42c0,.31.13.45.59.64l.4.15,4.18-1.75c.8-.34.91-.43,1-.9h.23v2.67H42.1c0-.43-.12-.6-.39-.6a1.54,1.54,0,0,0-.58.15l-2.7,1Z"/></svg>