<svg xmlns="http://www.w3.org/2000/svg" viewBox="0 0 45 261"><title>phraseImg</title><path d="M4.25,15.82A36.48,36.48,0,0,0,12,6.55a7,7,0,0,0,1.29-3,1.47,1.47,0,0,0-.42-1,3.12,3.12,0,0,0-1.44-1,1.7,1.7,0,0,1,.78-.18,7.8,7.8,0,0,1,4,1.59,1.93,1.93,0,0,1,1,1.38c0,.42-.06.54-.81,1.5l-.84,1.11c.27,0,.48.06.6.06a28.5,28.5,0,0,0,3.12-.42,6,6,0,0,0,2.07-.66c.54-.27.66-.33.9-.33a3.79,3.79,0,0,1,2.07,1.26c.78.75,1.17,1.35,1.17,1.83a1.16,1.16,0,0,1-.57,1c-.63.45-.66.48-1.53,1.95A36.13,36.13,0,0,1,18,18.76a29.26,29.26,0,0,1-13,8l-.15-.33A25.45,25.45,0,0,0,9.2,23.56a40.57,40.57,0,0,0,9-9.9A35.24,35.24,0,0,0,21,8.47a3.83,3.83,0,0,0,.12-.39.51.51,0,0,0,.06-.15.26.26,0,0,0-.09-.15H21a.23.23,0,0,1-.12,0s-.06,0-.12.06a2.24,2.24,0,0,1-.33.06,16.66,16.66,0,0,0-2.28.51c-.63.21-.63.21-1.14.36a3.15,3.15,0,0,1-.39.06,2.92,2.92,0,0,1-1.86-1A27.54,27.54,0,0,1,4.46,16.12Z"/><path d="M2.21,55.9A15.77,15.77,0,0,0,5,52.09a26.59,26.59,0,0,0,3-8.52,19.64,19.64,0,0,0,.36-3.06c0-1.29-.66-2.07-2.22-2.61a1.71,1.71,0,0,1,1.14-.3,8.12,8.12,0,0,1,3.36,1.23c1,.63,1.56,1.23,1.56,1.77a2.51,2.51,0,0,1-.36,1.14,23.72,23.72,0,0,0-1.17,3.81,18.17,18.17,0,0,1-4.56,7.89,18,18,0,0,1-3.63,2.73ZM29.78,42.52a22.55,22.55,0,0,1-3.54,5.25,41.57,41.57,0,0,1-6.54,5.64,7.88,7.88,0,0,0-1.56,1.26,1.24,1.24,0,0,1-.87.45c-1,0-2.61-2.1-2.61-3.39a1.35,1.35,0,0,1,.15-.63c.3-.84.36-1.92.36-8.52,0-2.82-.12-5.7-.24-6.57a2.68,2.68,0,0,0-2.31-2.19,1.28,1.28,0,0,1,1.08-.45,8.89,8.89,0,0,1,3.63,1.08C18.47,35,19,35.59,19,36.19a2.32,2.32,0,0,1-.39,1.17,9.51,9.51,0,0,0-.39,2.37c-.21,2.13-.54,8.49-.54,10.17,0,.12,0,.42,0,.72a34,34,0,0,0,11.79-8.31Z"/><path d="M17.27,81.1c0,6.51-.36,8.07-1.8,8.07a1,1,0,0,1-1-.78c-.39-1-.48-2.28-.48-6.18,0-1.74,0-3.54.09-11v-.87c0-2.85-.09-3.6-.48-4.26a3,3,0,0,0-1.92-1.26.93.93,0,0,1,.66-.51,2.22,2.22,0,0,1,.54-.09,9.08,9.08,0,0,1,3.39.87c1.2.51,1.68,1,1.68,1.74,0,.33,0,.45-.36,1.05s-.36,1.74-.36,6.78Z"/><path d="M2.33,120.85a41.22,41.22,0,0,0,8.91-7.68,47.74,47.74,0,0,0,7.44-11.25,32.8,32.8,0,0,0-8,2.34,2.1,2.1,0,0,1-1.11.36c-.78,0-1.59-.69-2.4-2a4.31,4.31,0,0,1-.78-2.25,1.22,1.22,0,0,1,.21-.72c.9,1.5,1.71,2,3.12,2a53.77,53.77,0,0,0,6.54-1c2-.39,2.16-.48,2.91-1a1.25,1.25,0,0,1,.81-.27,3.71,3.71,0,0,1,1.8,1c.87.75,1.35,1.38,1.35,1.86,0,.3-.12.48-.48.75a6.39,6.39,0,0,0-1.74,2.19,52.14,52.14,0,0,1-3.78,5.31c3.9,1.68,6.42,3.15,7.77,4.47a3.86,3.86,0,0,1,1.26,3c0,1.59-.69,2.7-1.62,2.7-.51,0-.87-.36-1.23-1.2a21.61,21.61,0,0,0-6.72-8.25,30.51,30.51,0,0,1-14,9.93ZM22.1,96.49a11.11,11.11,0,0,1,3.21,1.44c1.38.93,2,1.8,2,2.76,0,.69-.36,1.17-.9,1.17s-.63-.18-1.05-.87a13.22,13.22,0,0,0-3.54-4Zm3.06-2.34a10.23,10.23,0,0,1,3.51,1.32c1.2.78,1.74,1.47,1.74,2.31s-.36,1.2-.9,1.2c-.33,0-.54-.18-1-.81a12.66,12.66,0,0,0-3.6-3.54Z"/><path d="M9.68,144.88c0,2.58.06,4,.06,4.29s0,.45-.18.54a5.62,5.62,0,0,1-1.62.18c-.33,0-.39-.09-.39-.45,0-1.23.09-3.6.09-4.56v-3.24l-1.14.3a28.07,28.07,0,0,1-.9,6.63A14.09,14.09,0,0,1,1.67,155l-.27-.15a19.86,19.86,0,0,0,2-6.9,34.94,34.94,0,0,0,.3-5.25l-.87.24c-.12.84-.24,1.08-.48,1.08s-.42-.36-1-3.69a23.67,23.67,0,0,0,2.37-.09c0-1.89,0-2.07,0-3.36,0-2.67-.06-4.92-.15-7a33.38,33.38,0,0,1,3.24,1.71H7a30,30,0,0,0,.57-4.23c4.23.66,4.38.72,4.38,1.11s-.39.54-1.41.66c-1.11,1.23-1.38,1.5-2.34,2.46h2.46c.6-.72.81-.93,1.44-1.62a26.16,26.16,0,0,1,2.16,1.56c.27.21.39.36.39.48,0,.27-.27.54-.93.9l0,6.24a9,9,0,0,0,1-.21l0,.36c-.54.24-.57.27-1.08.48l0,6c0,2.46,0,2.46,0,3.93V152a2.08,2.08,0,0,1-1.38,2.1,7,7,0,0,1-2.31.51c-.27,0-.36-.09-.39-.45-.18-1.56-.72-2-3.33-2.55l0-.39c1.68.09,2.25.12,4.23.15.3-.06.39-.12.39-.39L11,140.74c-.81.27-1.23.39-1.29.42ZM6.62,132.16v2.46c0,2.19,0,4.14-.06,5.34l1.08-.12c1-.06,1-.06,2.19-.21l1.11-.12,0-7.35Zm.78.87c1.89,1.47,2.76,2.58,2.76,3.6s-.84,2-1.53,2c-.33,0-.45-.21-.48-1a9.75,9.75,0,0,0-1-4.5Zm6.81,8.58A30.56,30.56,0,0,0,17.06,133a29.71,29.71,0,0,0,.6-5c3.93,1,4.32,1.14,4.32,1.5s-.3.45-1.05.72a25.43,25.43,0,0,1-3.18,7.62,19.19,19.19,0,0,1-3.36,4Zm9.75,1a23.85,23.85,0,0,1,1.68-1.8c1,.66,1.29.9,2.25,1.62q.45.41.45.63c0,.27-.15.36-.9.81,0,4.68,0,4.95,0,6.51.06,2.25.06,2.25.09,3.54,0,.27,0,.36-.12.45-.21.27-1,.39-2.25.39-.78,0-1-.12-1-.66v-1.47H18.89v1.5c0,.21-.06.36-.18.42a5.17,5.17,0,0,1-2.13.3h-.33a.56.56,0,0,1-.63-.63V154c.12-2.76.15-4.17.15-6.75,0-3.24,0-4.83-.15-6.6,1.56.78,2,1,3.51,1.89ZM18.89,152h5.34V143.2H18.89Zm4.95-24.27a1.75,1.75,0,0,0-.12.6c0,1.35,1.44,4.41,2.88,6.15a10.1,10.1,0,0,0,3.75,2.94v.3a3,3,0,0,0-1.26,1.5,7.92,7.92,0,0,0-.57,1.68c-.06.3-.18.42-.33.42-.36,0-1.11-.81-1.89-2a17.39,17.39,0,0,1-2.13-5c-.27-1-.6-2.64-1-5.13a2.83,2.83,0,0,0-.45-1.29Z"/><path d="M37.38,3.61c0,.81.12.9,1,.9H43.3c.92,0,1-.1,1-.9h.26v3a5,5,0,0,1-.55,2.62A3.24,3.24,0,0,1,41,10.7a3.51,3.51,0,0,1-3.33-1.54,5.32,5.32,0,0,1-.53-2.66V3.61Zm0,2.91a2.71,2.71,0,0,0,.69,2,3.9,3.9,0,0,0,2.71.79,4.4,4.4,0,0,0,2.57-.64,2.56,2.56,0,0,0,.93-2.25v-.6h-6.9Z"/><path d="M42.47,13.62c-.6,0-1.3-.06-1.94-.06H38.36c-.89,0-1,.07-1,.78h-.24V11.56h.24c0,.71.11.78,1,.78h2.77c.89,0,1-.05,1-.75h.24Zm2.3-.66a.72.72,0,1,1-.72-.72A.72.72,0,0,1,44.77,13Z"/><path d="M37.15,20.08C37.08,19.49,37,19,37,18.7s.15-.42.76-.47A2.23,2.23,0,0,1,37,16.52,1.4,1.4,0,0,1,38.45,15c.86,0,1.39.53,1.6,1.6a12.16,12.16,0,0,1,.19,1.64h.65c1.06,0,1.37-.18,1.37-.78a.69.69,0,0,0-.34-.67,1.51,1.51,0,0,0-.71-.16c-.36,0-.49-.19-.49-.61s.16-.7.46-.7a1.15,1.15,0,0,1,.93.62,3.06,3.06,0,0,1,.38,1.64A2.13,2.13,0,0,1,42.08,19a1.58,1.58,0,0,1-1.24.39H38.56c-1.1,0-1.16,0-1.17.68ZM40,18.22c-.11-1.45-.48-2-1.41-2-.71,0-1.18.32-1.18.81a1.09,1.09,0,0,0,.66,1,2.56,2.56,0,0,0,1.16.18Z"/><path d="M41.48,22.62a2,2,0,0,1,1,1.74,1.3,1.3,0,0,1-1.05,1.42,1.87,1.87,0,0,1,1.05,1.72,1.51,1.51,0,0,1-.58,1.3,2.14,2.14,0,0,1-1.35.3h-2.2c-.89,0-1,.07-1,.76h-.24V27.15h.24c0,.66.11.73,1,.73h2.19c1.06,0,1.48-.24,1.48-.83a1,1,0,0,0-.55-.89,1.77,1.77,0,0,0-1-.31H38.36c-.89,0-1,.07-1,.74h-.24V23.91h.24c0,.66.11.73,1,.73h2.2c1,0,1.47-.26,1.47-.81s-.74-1.21-1.64-1.21h-2c-.9,0-1,.07-1,.73h-.24V20.64h.24c0,.69.1.76,1,.76h2.78c.84,0,1-.08,1-.74h.24l.13,1.95Z"/><path d="M41.78,31.25a2.57,2.57,0,0,1,.71,1.87,2.5,2.5,0,0,1-2.74,2.59,3,3,0,0,1-2-.66,2.66,2.66,0,0,1-.81-2,2.55,2.55,0,0,1,.76-1.88,3,3,0,0,1,2-.69A3.08,3.08,0,0,1,41.78,31.25Zm-4.59,1.86c0,.87.78,1.26,2.52,1.26s2.55-.4,2.55-1.27a1,1,0,0,0-.58-.93,4.42,4.42,0,0,0-1.94-.32C38,31.85,37.19,32.25,37.19,33.11Z"/><path d="M41.48,38.39a1.91,1.91,0,0,1,1,1.78,1.42,1.42,0,0,1-.68,1.36,2.22,2.22,0,0,1-1.23.25H38.36c-.89,0-1,.07-1,.76h-.24V39.82h.24c0,.67.12.75,1,.75h2.16c1.08,0,1.53-.26,1.53-.88a1.18,1.18,0,0,0-.66-1,2.32,2.32,0,0,0-1-.27h-2c-.9,0-1,.07-1,.75h-.24V36.41h.24c0,.69.11.76,1,.76h2.77c.85,0,1-.08,1-.74h.24l.13,2Z"/><path d="M44.71,48.21c-.75,0-1.27-.06-2-.06h-4c-.81,0-1.08,0-1.2.19s-.07.14-.08.47h-.23L37,47.05l.73,0A2,2,0,0,1,37,45.37a2,2,0,0,1,.6-1.46,2.9,2.9,0,0,1,2-.66c1.77,0,2.9.9,2.9,2.3a1.84,1.84,0,0,1-.57,1.38h1.44c.93,0,1-.06,1-.76h.23Zm-2.49-2.44c0-.76-.89-1.19-2.46-1.19a3.88,3.88,0,0,0-2.12.46.83.83,0,0,0-.36.69c0,.77.94,1.23,2.53,1.23S42.22,46.54,42.22,45.77Z"/><path d="M42.09,58.68a3.22,3.22,0,0,0,1.44-.53,2.06,2.06,0,0,0,.93-1.68,1.8,1.8,0,0,0-.88-1.55A5,5,0,0,0,41,54.34c-2.22,0-3.59.9-3.59,2.37a2.43,2.43,0,0,0,1,1.95,3.43,3.43,0,0,0,.82.44l-.16.29a3,3,0,0,1-2.11-3,3.5,3.5,0,0,1,.94-2.46,4,4,0,0,1,2.88-1c2.41,0,4,1.38,4,3.52a5.17,5.17,0,0,1-.29,1.66,1.47,1.47,0,0,0-.06.42,1.58,1.58,0,0,0,.12.54H42.09Z"/><path d="M42.47,62l-.81,0h-.3a1.78,1.78,0,0,1,1.13,1.48.79.79,0,0,1-.76.85.64.64,0,0,1-.61-.72.41.41,0,0,1,.32-.47c.28-.08.35-.13.35-.29v0c0-.19-.18-.39-.47-.56A2.25,2.25,0,0,0,40.21,62H38.36c-.9,0-1,.06-1,.8h-.24V60h.24c0,.69.11.76,1,.76h2.77c.85,0,1-.09,1-.72h.24Z"/><path d="M37,68.52a9.82,9.82,0,0,1,1,0A2.17,2.17,0,0,1,37,66.63a1.36,1.36,0,0,1,.75-1.29A2.88,2.88,0,0,1,39,65.15h.14l2,0h.08a1.4,1.4,0,0,0,.73-.11c.12-.09.15-.17.16-.62h.24l.13,2c-.72,0-1.1-.07-2-.08H39.23A3.4,3.4,0,0,0,38,66.5a.67.67,0,0,0-.49.7,1.21,1.21,0,0,0,.84,1.08,2.82,2.82,0,0,0,1.19.19h1.58c.55,0,.75,0,.86-.15s.1-.16.11-.58h.24l.13,2c-1.37-.06-1.37-.06-2-.06H38.39c-.87,0-1,.1-1,.65h-.23Z"/><path d="M42.47,72.92c-.6,0-1.3-.06-1.94-.06H38.36c-.89,0-1,.07-1,.78h-.24V70.86h.24c0,.71.11.78,1,.78h2.77c.89,0,1,0,1-.75h.24Zm2.3-.66a.72.72,0,1,1-.72-.72A.72.72,0,0,1,44.77,72.26Z"/><path d="M38.88,74.5v.36a2.35,2.35,0,0,0-1.05.3,1.24,1.24,0,0,0-.63,1.12c0,.61.32,1,.87,1s.71-.26,1.25-1.42A2.86,2.86,0,0,1,40,74.76a1.23,1.23,0,0,1,.9-.35c1,0,1.59.72,1.59,1.85a4.75,4.75,0,0,1-.08.71,2.26,2.26,0,0,0-.06.44,1.31,1.31,0,0,0,.1.48L40.7,77.8v-.37c1-.07,1.56-.49,1.56-1.21a.81.81,0,0,0-.83-.89.7.7,0,0,0-.61.31,4.39,4.39,0,0,0-.58,1.12c-.47,1-.86,1.35-1.61,1.35A1.6,1.6,0,0,1,37,76.31a5.2,5.2,0,0,1,.12-1,2.19,2.19,0,0,0,0-.36,2.12,2.12,0,0,0-.06-.51Z"/><path d="M39.94,80.38a3.91,3.91,0,0,0-1.59.26,1.44,1.44,0,0,0-1,1.36,1.86,1.86,0,0,0,1.14,1.65l-.16.25A2.26,2.26,0,0,1,37,81.7a2.5,2.5,0,0,1,2.74-2.61,2.49,2.49,0,0,1,2.78,2.51,2,2,0,0,1-1.32,2.07,3.66,3.66,0,0,1-1.23.18Zm.29,2.22a3.9,3.9,0,0,0,1.25-.17c.53-.19.78-.47.78-.86s-.3-.76-.88-1a4.23,4.23,0,0,0-1.15-.21Z"/></svg>