<svg xmlns="http://www.w3.org/2000/svg" viewBox="0 0 45 261"><title>phraseImg</title><path d="M1.16,13.06a11.9,11.9,0,0,0,2,.24H5a19.15,19.15,0,0,1,1.59-2,30.8,30.8,0,0,1,2.52,2c.21.21.3.33.3.42s-.27.42-1,.87v7a3.5,3.5,0,0,0,1.86,2c1.38.63,3.12.87,6.09.87s8-.24,13.47-.66v.27a3,3,0,0,0-1.92,2.76c-.06.42-.09.45-.45.51-.63.06-4.86.12-8.88.12-3.66,0-5.55-.3-7.17-1.14S9,24.46,7.73,21.79a23,23,0,0,1-2,2.76L3.89,26.83c.06.51.09.72.09.87,0,.36-.15.57-.39.57s-.27-.09-.42-.33c-.6-1.05-1-1.86-2-3.87a27.06,27.06,0,0,0,4-1.95V13.93h-2a13.74,13.74,0,0,0-1.65.12ZM2.48,1.33A21.77,21.77,0,0,1,6.65,3.49C8,4.42,8.57,5.2,8.57,6.19c0,1.35-1.11,2.73-2.19,2.73a1,1,0,0,1-.75-.3c-.18-.24-.21-.33-.42-1.17a12.1,12.1,0,0,0-3-5.88Zm17.79,19c0,1.74,0,1.74.06,2.73-.06.57-.48.72-2.07.72-1.05,0-1.14-.06-1.2-.57.09-2.19.09-2.19.12-2.88H11.72a14.65,14.65,0,0,0-2.19.18l-.24-1a17.08,17.08,0,0,0,2.43.24h5.49c0-1,0-1.5,0-3.18H13.73v.93c-.06.33-.15.48-.42.51a11,11,0,0,1-1.65.12c-.9,0-1-.06-1.08-.51.12-2.94.12-3.42.12-5.28,0-2.64,0-4.32-.12-6.3,1.53.72,2,1,3.48,1.77h3.18c0-1.65,0-2.61,0-2.88H11.57c-.33,0-1.53.12-1.86.18l-.24-1a13.08,13.08,0,0,0,2,.21h5.7c0-1.65,0-2.16-.12-3.63q1.31.13,2,.18c1.77.12,2.28.27,2.28.63s-.3.51-1.11.78l0,2h3.63A31.23,31.23,0,0,1,26,2c1.47,1,1.89,1.32,3.3,2.4a.49.49,0,0,1,.21.3.31.31,0,0,1-.33.27H20.21V7.81h3.3c.69-.78.93-1,1.68-1.77,1,.78,1.41,1,2.46,1.77.18.15.27.27.27.39s-.18.42-1,.9c0,5,0,5.82.09,7.86,0,.33-.09.39-.39.51l2.91,2.4a.46.46,0,0,1,.15.3.23.23,0,0,1-.24.21Zm-3-8.58V8.44H13.73V11.8Zm0,.63H13.73v3.51h3.51Zm6.66-.63V8.44H20.21V11.8Zm0,4.14V12.43H20.21v3.51Zm.51,3.81c1.2-1.32,1.2-1.32,2.07-2.25a11.89,11.89,0,0,1-1.83.15c-.54,0-.69-.09-.75-.42v-.66H20.21l.06,3.18Z"/><path d="M8.12,61.06c0,.72-.51.9-2.25.9-.9,0-1.14-.15-1.14-.69C4.91,56.74,5,53.8,5,50.86V46.18a27.72,27.72,0,0,1-3.51,3.87l-.3-.27A44,44,0,0,0,7,34.33c4.35,1,4.77,1.17,4.77,1.59s-.39.48-1.32.6a41.49,41.49,0,0,1-3.72,7.2l.63.09c1.35.15,1.71.27,1.71.57s-.27.42-1,.69v6.15Zm.18-4.62a30.15,30.15,0,0,0,4.2-6.21,37.62,37.62,0,0,0,3.12-7.59H11.36a11.21,11.21,0,0,0-2.25.18l-.21-1a10.21,10.21,0,0,0,2.46.24h5.43V37.75a18.18,18.18,0,0,0-.21-3.12c3.72.33,4,.36,4.38.51.24.12.36.24.36.39s-.39.51-1.29.78V42h3.78c.93-1.17,1.23-1.53,2.19-2.67,1.5,1.14,1.95,1.53,3.42,2.79a.91.91,0,0,1,.18.33c0,.12-.15.18-.36.18h-9a14.94,14.94,0,0,0,2.61,4.86,15.7,15.7,0,0,0,7.29,5.58l-.09.3a4.89,4.89,0,0,0-2.4,2.94c-.15.33-.21.42-.36.42s-.48-.21-1-.69a21.66,21.66,0,0,1-4.44-6.6,52.66,52.66,0,0,1-2-5.7l.09,7.41c.06,6.57.06,6.57.12,9.81,0,.42-.06.6-.24.72a5.76,5.76,0,0,1-2.31.33c-.75,0-1-.15-1-.78v0l.21-9.63L17,47a24.92,24.92,0,0,1-4.29,6.3,23.35,23.35,0,0,1-4.2,3.48Z"/><path d="M6.05,88.9V89c0,.66-.42.84-2.1.84-1.05,0-1.26-.09-1.26-.6v-.09c.12-5.16.15-6.72.15-12.18,0-3.72,0-5.79-.15-8.25A28.07,28.07,0,0,1,6.2,70.6H9.71l1.59-1.8c1.11.78,1.44,1,2.43,1.83.27.21.36.33.36.48s-.27.45-1.05.87c0,12.3,0,13.35.09,16.2a.77.77,0,0,1-.09.45c-.21.27-.87.39-2,.39S9.89,89,9.86,88.48V86.89H6.05ZM9.86,71.23H6.05V78H9.86ZM6.05,78.67v7.59H9.86V78.67Zm12.6,5.64A12.71,12.71,0,0,1,16,90.55c-1.65,2-3.54,3.42-6.87,5.07l-.21-.3A16.66,16.66,0,0,0,13,91.06a15.08,15.08,0,0,0,2.52-7.86c.18-2,.24-4.53.24-8.37,0-3.3,0-4.53-.21-6.78a35.77,35.77,0,0,1,3.9,1.86h5.07c.69-.78.93-1,1.65-1.8,1.14.81,1.47,1.08,2.55,1.86.3.24.42.39.42.54s-.27.51-1.08,1v14l.09,6.24A5.07,5.07,0,0,1,28.07,93c-.27,1.08-1.11,1.77-2.61,2.1a9.65,9.65,0,0,1-1.74.24c-.42,0-.42,0-.57-.84a2.53,2.53,0,0,0-1.26-1.65,14,14,0,0,0-3.09-1l0-.39c2.7.18,3.42.24,5.31.3h.15c.36,0,.45-.12.45-.57V84.31Zm.42-7c-.06,2.7-.18,5.13-.33,6.39h6V77.29Zm5.67-.63V70.54H19.13v2c0,.21,0,1,0,2.07,0,.45,0,1.17,0,2.07Z"/><path d="M11.09,114c-1.26,5.7-1.56,7.38-1.56,8.4a9.31,9.31,0,0,0,.18,1.47,4.43,4.43,0,0,1,0,.63c0,1.08-.57,1.8-1.47,1.8a1.9,1.9,0,0,1-1.59-1c-1.17-1.56-1.89-4.74-1.89-8.31a39.67,39.67,0,0,1,.66-6.63A26.39,26.39,0,0,0,6,106a4.88,4.88,0,0,0-1.17-3.09c2.1.21,4.62,2.76,4.62,4.65a4.18,4.18,0,0,1-.57,1.89A19.93,19.93,0,0,0,7.1,117.4a7.64,7.64,0,0,0,.66,3.6c.27-.63.27-.63.72-1.71.63-1.53.63-1.53,1.71-4.08.18-.42.36-.87.57-1.32Zm1.47-4.8a5.06,5.06,0,0,0,3.39,1.2,16.05,16.05,0,0,0,4.35-.63,22.87,22.87,0,0,0-.39-4.89c-.36-1-1-1.41-2.88-1.89a2.9,2.9,0,0,1,2.22-.6,8.43,8.43,0,0,1,3.69.78,1.41,1.41,0,0,1,.81,1.23,3.18,3.18,0,0,1-.3,1.29,12.87,12.87,0,0,0-.33,3.21,6.46,6.46,0,0,0,2.58-1.38.94.94,0,0,1,.63-.21,3.33,3.33,0,0,1,1.56.45,1.15,1.15,0,0,1,.75,1v.06c0,.51-.45.9-1.59,1.38a27.27,27.27,0,0,1-3.87,1.17v1.38l0,3.63c0,3.72-.69,6.21-2.28,8.16-1.41,1.71-3.12,2.85-6.15,4l-.21-.3a11.71,11.71,0,0,0,4.14-4.74c1.17-2.43,1.68-5.52,1.68-10.35,0-.3,0-.69,0-1.32a16.41,16.41,0,0,1-2.76.3,6,6,0,0,1-5.31-2.7Z"/><path d="M38.89,5.25A2.65,2.65,0,0,0,38,5c-.39,0-.57.28-.59.94h-.26V3.4h.26c0,.65.4,1,1.58,1.46L44.6,7l.08.74L38.55,9.91c-.62.23-.94.42-1.06.65a1.65,1.65,0,0,0-.11.53h-.26V7.83h.26c0,.63.15.86.48.86h0a2.61,2.61,0,0,0,.66-.15l1.1-.38V5.53Zm4.4,1.64L40,5.67V8Z"/><path d="M38.36,13.41c-.9,0-1,.06-1,.82h-.24v-2.8h.24c0,.69.11.76,1,.76H42v-.78h.32v.78l.87,0a1.35,1.35,0,0,1,1,.39,2.05,2.05,0,0,1,.5,1.43c0,.84-.39,1.5-.9,1.5-.3,0-.47-.25-.47-.68a.6.6,0,0,1,.17-.47c.08-.06.15-.08.4-.1.44,0,.58-.12.58-.35s-.29-.5-1.09-.5l-1.08,0v1.32H42V13.41Z"/><path d="M38.68,17a2.76,2.76,0,0,0-.9.1.54.54,0,0,0-.37.49,1.19,1.19,0,0,0,.31.7l-.25.14A2.05,2.05,0,0,1,37,17a1.2,1.2,0,0,1,.55-1.13,3.07,3.07,0,0,1,1.38-.15H42v-.57h.3a1.06,1.06,0,0,0,.53,1,2.71,2.71,0,0,0,1.07.37l0,.5c-.41,0-.72,0-1.63,0v1.21H42V17Z"/><path d="M39.94,20.2a3.91,3.91,0,0,0-1.59.26,1.44,1.44,0,0,0-1,1.36,1.86,1.86,0,0,0,1.14,1.65l-.16.25A2.26,2.26,0,0,1,37,21.52a2.5,2.5,0,0,1,2.74-2.61,2.49,2.49,0,0,1,2.78,2.51,2,2,0,0,1-1.32,2.07,3.66,3.66,0,0,1-1.23.18Zm.29,2.22a3.9,3.9,0,0,0,1.25-.17c.53-.19.78-.47.78-.86s-.3-.76-.88-1a4.23,4.23,0,0,0-1.15-.21Z"/><path d="M42.47,26.26l-.81,0h-.3a1.78,1.78,0,0,1,1.13,1.48.79.79,0,0,1-.76.85.64.64,0,0,1-.61-.72.41.41,0,0,1,.32-.47c.28-.08.35-.13.35-.29v0c0-.19-.18-.39-.47-.56a2.25,2.25,0,0,0-1.11-.24H38.36c-.9,0-1,.06-1,.8h-.24V24.34h.24c0,.69.11.76,1,.76h2.77c.85,0,1-.09,1-.72h.24Z"/><path d="M38.42,36.09c-.92,0-1,.1-1,1h-.26V33.74h.26c0,.93.12,1,1,1h5.92a2.12,2.12,0,0,0-.58-1.71,3.48,3.48,0,0,0-1.72-.6l0-.36,2.54.19v6.29l-2.54.19,0-.36a3.07,3.07,0,0,0,1.8-.69,2.24,2.24,0,0,0,.5-1.63Z"/><path d="M41.48,41.14a1.94,1.94,0,0,1,1,1.82,1.47,1.47,0,0,1-.7,1.44,2.62,2.62,0,0,1-1.23.22h-2.2c-.9,0-1,.07-1,.76h-.24V42.65h.24c0,.68.1.75,1,.75h2.13a2.75,2.75,0,0,0,1.08-.14.76.76,0,0,0,.46-.77,1.2,1.2,0,0,0-.69-1.08,2,2,0,0,0-1.06-.27H38.36c-.89,0-1,.07-1,.75h-.24V39.16h.24c0,.69.1.76,1,.76h5c.88,0,1-.07,1-.77h.23l.11,2.05c-.77-.05-1.25-.06-2.05-.06Z"/><path d="M39.94,47.32a3.91,3.91,0,0,0-1.59.26,1.44,1.44,0,0,0-1,1.36,1.86,1.86,0,0,0,1.14,1.65l-.16.25A2.26,2.26,0,0,1,37,48.64,2.5,2.5,0,0,1,39.71,46a2.49,2.49,0,0,1,2.78,2.51,2,2,0,0,1-1.32,2.07,3.66,3.66,0,0,1-1.23.18Zm.29,2.22a3.9,3.9,0,0,0,1.25-.17c.53-.19.78-.47.78-.86s-.3-.76-.88-1a4.23,4.23,0,0,0-1.15-.21Z"/><path d="M38.42,57c-.92,0-1,.08-1,.91h-.26V54.82h.26c0,.82.12.9,1,.9h4.89c.9,0,1-.08,1-.86h.26v3h-.26c0-.79-.13-.87-1-.87H41.26v3.32h2.05c.9,0,1-.08,1-.87h.26v3h-.26c0-.79-.13-.87-1-.87H38.42c-.92,0-1,.08-1,.9h-.26V59.43h.26c0,.83.12.91,1,.91h2.51V57Z"/><path d="M41.78,64a2.57,2.57,0,0,1,.71,1.87,2.5,2.5,0,0,1-2.74,2.59,3,3,0,0,1-2-.66,2.66,2.66,0,0,1-.81-2A2.55,2.55,0,0,1,37.72,64a3,3,0,0,1,2-.69A3.08,3.08,0,0,1,41.78,64Zm-4.59,1.86c0,.87.78,1.26,2.52,1.26s2.55-.4,2.55-1.27a1,1,0,0,0-.58-.93,4.42,4.42,0,0,0-1.94-.32C38,64.63,37.19,65,37.19,65.89Z"/><path d="M37.36,69.2c0,.73.09.79,1,.79h5c.88,0,1-.07,1-.78h.23l.11,2.06c-.74,0-1.38-.06-2.05-.06h-4.3c-.91,0-1,.06-1,.79h-.24V69.2Z"/><path d="M42.47,74.6c-.6,0-1.3-.06-1.94-.06H38.36c-.89,0-1,.07-1,.78h-.24V72.54h.24c0,.71.11.78,1,.78h2.77c.89,0,1,0,1-.75h.24Zm2.3-.66a.72.72,0,1,1-.72-.72A.72.72,0,0,1,44.77,73.94Z"/><path d="M44.71,81c-.75,0-1.27-.06-2-.06h-4c-.81,0-1.08,0-1.2.19s-.07.14-.08.47h-.23L37,79.88l.73,0A2,2,0,0,1,37,78.2a2,2,0,0,1,.6-1.46,2.9,2.9,0,0,1,2-.66c1.77,0,2.9.9,2.9,2.3a1.84,1.84,0,0,1-.57,1.38h1.44c.93,0,1-.06,1-.76h.23ZM42.22,78.6c0-.76-.89-1.19-2.46-1.19a3.88,3.88,0,0,0-2.12.46.83.83,0,0,0-.36.69c0,.77.94,1.23,2.53,1.23S42.22,79.37,42.22,78.6Z"/><path d="M37.15,87.32c-.07-.59-.12-1.12-.12-1.38s.15-.42.76-.47A2.23,2.23,0,0,1,37,83.76a1.4,1.4,0,0,1,1.47-1.54c.86,0,1.39.53,1.6,1.6a12.16,12.16,0,0,1,.19,1.64h.65c1.06,0,1.37-.18,1.37-.78a.69.69,0,0,0-.34-.67,1.51,1.51,0,0,0-.71-.16c-.36,0-.49-.19-.49-.61s.16-.7.46-.7a1.15,1.15,0,0,1,.93.62,3.06,3.06,0,0,1,.38,1.64,2.13,2.13,0,0,1-.41,1.48,1.58,1.58,0,0,1-1.24.39H38.56c-1.1,0-1.16,0-1.17.68ZM40,85.46c-.11-1.45-.48-2-1.41-2-.71,0-1.18.32-1.18.81a1.09,1.09,0,0,0,.66,1,2.56,2.56,0,0,0,1.16.18Z"/><path d="M40.79,91.85a1.82,1.82,0,0,0,.7.17c.41,0,.59-.23.62-.79h.23v2.18h-.23c-.08-.56-.37-.81-1.5-1.26l-4.32-1.7c-1-.41-1.4-.77-1.4-1.39s.23-.73.69-.73.52.14.52.4a2,2,0,0,1-.05.4,1.89,1.89,0,0,0-.06.42c0,.31.13.45.59.64l.4.15,4.18-1.75c.8-.34.91-.43,1-.9h.23v2.67H42.1c0-.43-.12-.6-.39-.6a1.54,1.54,0,0,0-.58.15l-2.7,1Z"/><path d="M38.88,94.08v.36a2.35,2.35,0,0,0-1.05.3,1.24,1.24,0,0,0-.63,1.12c0,.61.32,1,.87,1s.71-.26,1.25-1.42A2.86,2.86,0,0,1,40,94.34a1.23,1.23,0,0,1,.9-.35c1,0,1.59.72,1.59,1.85a4.75,4.75,0,0,1-.08.71,2.26,2.26,0,0,0-.06.44,1.31,1.31,0,0,0,.1.48l-1.75-.09V97c1-.07,1.56-.49,1.56-1.21a.81.81,0,0,0-.83-.89.7.7,0,0,0-.61.31,4.39,4.39,0,0,0-.58,1.12c-.47,1-.86,1.35-1.61,1.35A1.6,1.6,0,0,1,37,95.89a5.2,5.2,0,0,1,.12-1,2.19,2.19,0,0,0,0-.36,2.12,2.12,0,0,0-.06-.51Z"/></svg>