<svg xmlns="http://www.w3.org/2000/svg" viewBox="0 0 45 261"><title>phraseImg</title><path d="M6.47,18.94a18.61,18.61,0,0,1,.24,2.79c0,2.91-1.44,5.4-3.12,5.4-1,0-1.74-1.11-1.74-2.58,0-.75.21-1,1.17-1.41a4.57,4.57,0,0,0,1.83-1.32,5.85,5.85,0,0,0,1.26-2.91ZM23.66,4c1-1.11,1.26-1.44,2.25-2.46a35.43,35.43,0,0,1,3.36,2.67.44.44,0,0,1,.15.24c0,.12-.12.18-.3.18H16.91V7.39h5.25l1.62-1.68a25.59,25.59,0,0,1,2.49,1.65c.33.24.45.39.45.54s-.21.48-1.14,1v1.5c0,1.17,0,3.39.12,6.63,0,.42-.09.57-.45.69a12.55,12.55,0,0,1-1.89.15c-.75,0-.93-.09-.93-.54v-.87H8.6v.75c0,.51-.42.63-2.1.63-1,0-1.14-.09-1.14-.63.09-3.84.09-3.93.09-6.6,0-2.49,0-3.48-.12-4.86A31.12,31.12,0,0,1,9,7.39h4.71V4.63H4.91a15.12,15.12,0,0,0-2.49.18L2.27,3.7A11.14,11.14,0,0,0,4.91,4h8.82V3.58A16.05,16.05,0,0,0,13.55.94a28,28,0,0,1,4.29.48c.27.09.42.24.42.39s-.3.45-1.35.78V4Zm-9.93,7.44V8H8.6v3.42ZM8.6,15.79h5.13V12.07H8.6Zm.63,5a22.88,22.88,0,0,0-.12-2.46c.93.09,1.65.15,2.1.18,1.77.15,2.28.3,2.28.63s-.3.45-1.11.72V24c0,.36.06.54.15.6s.87.18,3.15.18c3.54,0,3.81,0,4.26-.57s.87-1.56,1.86-4.53l.39.06L22,23.26v.21c0,.63,0,.63.9,1a1.14,1.14,0,0,1,.72,1.17c0,.87-.48,1.41-1.53,1.71a21.14,21.14,0,0,1-4.74.27,51.85,51.85,0,0,1-6.57-.15c-1.11-.15-1.56-.72-1.59-2V20.8Zm4.11-3.3A18.63,18.63,0,0,1,17.66,19c1,.54,1.29,1,1.29,1.74,0,1.26-.78,2.34-1.68,2.34-.36,0-.42-.06-1-1.2a10.61,10.61,0,0,0-3.15-4.08ZM22.4,8H16.91v3.42H22.4Zm-5.49,4.05v3.72H22.4V12.07Zm6.3,6.78a17.92,17.92,0,0,1,4.41,2.64c1.08.93,1.5,1.62,1.5,2.43,0,1.29-1.14,2.82-2.13,2.82-.51,0-.75-.36-1-1.5a20.23,20.23,0,0,0-1.08-3.12,14.56,14.56,0,0,0-2-3Z"/><path d="M23.51,40.27c1-1.2,1.29-1.56,2.31-2.7,1.5,1.17,2,1.53,3.45,2.79a.47.47,0,0,1,.21.33c0,.12-.15.21-.36.21H14.63A49.14,49.14,0,0,1,14.24,46H21.5l1.77-2c1,.69,1.83,1.35,2.64,2,.36.36.48.54.48.72a.32.32,0,0,1-.18.27,2.29,2.29,0,0,1-.45.3l-.48.33a88.44,88.44,0,0,1-1.05,8.82c-.57,2.67-1.41,4-3,4.56a11.26,11.26,0,0,1-3,.54c-.33,0-.39-.06-.42-.66a2.07,2.07,0,0,0-.93-1.71c-.57-.39-1.05-.57-4.05-1.44l0-.42a60.78,60.78,0,0,0,6.3.48c1,0,1.23-.24,1.53-1.59a50.94,50.94,0,0,0,1.11-9.57H14.15c-.75,4.41-2,7.29-4.26,9.9A19.86,19.86,0,0,1,2,61.78l-.21-.27a19.89,19.89,0,0,0,6.27-6.66c2-3.51,2.91-8,2.94-14H4.58a11,11,0,0,0-2.1.21L2.18,40a13.4,13.4,0,0,0,2.4.3h9V36.88a21.69,21.69,0,0,0-.15-2.31c3.87.36,4.89.54,4.89,1s-.3.51-1.29.81L17,40.27Z"/><path d="M23.69,78.76l2.22-2.4c1.5,1,1.95,1.38,3.36,2.49a.52.52,0,0,1,.18.33c0,.12-.15.21-.39.21H20.33A17.83,17.83,0,0,0,30,84l0,.36A3.38,3.38,0,0,0,28,86.17a3.77,3.77,0,0,0-.39.9.35.35,0,0,1-.36.27c-.72,0-3.39-1.83-5.22-3.57a1.51,1.51,0,0,1-.36.24c0,1.53,0,2.07.15,3.93,0,.33-.09.51-.24.6a5.57,5.57,0,0,1-2,.27c-.81,0-1-.12-1-.6v-.84H11V91.3c0,.48,0,.6.18.69s1.29.21,4.74.21c5.34,0,5.76,0,6.15-.36s1.05-1.68,2.13-4.65l.33.06-.09,3.45v.18c0,.54.09.66.63.84.75.24,1.05.6,1.05,1.26a1.7,1.7,0,0,1-1.38,1.68c-.75.27-2.55.36-6.54.36-1.5,0-4.8,0-6.69-.06s-2.67-.24-3.18-.81-.51-.75-.51-2.55V88.09c0-1,0-1.74-.12-3.15a31.45,31.45,0,0,1,3.63,1.8h7.35V83.26H12.41a15.67,15.67,0,0,0-2.22.12l-.15-1a11.41,11.41,0,0,0,2.31.21h6l1.56-1.41a14.35,14.35,0,0,1-1.14-1.83H12.23a23.11,23.11,0,0,1-4.86,5.1,26.46,26.46,0,0,1-5.79,3.33l-.21-.3a26.61,26.61,0,0,0,7.74-8.13H4.82a19.69,19.69,0,0,0-2.37.15l-.18-1a11.86,11.86,0,0,0,2.55.24H9.5a23.55,23.55,0,0,0,1.71-3.63H5.87a13.58,13.58,0,0,0-2.22.15l-.15-1a10.07,10.07,0,0,0,2.37.27h5.58A22.93,22.93,0,0,0,13,67.66c4.32.72,4.77.81,4.77,1.23s-.27.45-1.35.75a35.2,35.2,0,0,1-1.62,4.86h3a26.38,26.38,0,0,0,2.76-6.12C24.08,69.46,25,69.85,25,70.21s-.36.42-1.44.45A35.31,35.31,0,0,1,19,74.5h3.72l2.13-2.22c1.44,1,1.86,1.29,3.18,2.31a.6.6,0,0,1,.21.33c0,.12-.18.21-.45.21H17.63a11,11,0,0,0,2.13,3.63ZM5.36,68.32c3.39,1.32,5,2.49,5,3.75a2.23,2.23,0,0,1-2,2.25c-.6,0-.84-.27-1-1.17a10.39,10.39,0,0,0-2.16-4.59Zm13,10.44A20,20,0,0,1,17,75.13H14.54a27.63,27.63,0,0,1-1.89,3.63Z"/><path d="M5,106.81a6.58,6.58,0,0,0,4.17,1.32,19.54,19.54,0,0,0,5.1-.87,11.83,11.83,0,0,0-2.46-3,4.2,4.2,0,0,0-2.46-.66H8.9c.33-.66.66-.87,1.68-1.11a8.27,8.27,0,0,1,2-.21,3.92,3.92,0,0,1,2.55.57c.33.27.36.39.45,1.29a6.37,6.37,0,0,0,1,2.46c2.4-.9,3.12-1.29,4-2.19a1.61,1.61,0,0,1,1.14-.33c1.26,0,2,.45,2,1.14,0,.87-1.32,1.53-6.24,3.18l.54.9c.15.27.54,1,1.2,2.1a15.45,15.45,0,0,0,3.39-1.56c-.6-.63-.84-.84-1.77-1.68l.18-.24a5.94,5.94,0,0,0,2.61.78,4.59,4.59,0,0,0,.9-.12,1.13,1.13,0,0,1,.3,0,1.1,1.1,0,0,1,1.2,1.11c0,1.14-1.5,2.07-5.79,3.63.78,1.35.9,1.56,1.2,2.1.66,1.14.66,1.14,1.29,2.19a3.65,3.65,0,0,1,.72,2,4,4,0,0,1-.57,2.1,1.18,1.18,0,0,1-1,.54,1.53,1.53,0,0,1-1.11-.57,6.28,6.28,0,0,0-2.16-1.59,11.84,11.84,0,0,0-5-1.17c-2.91,0-4.95,1.23-4.95,3s1.86,2.73,5.31,2.73a10.69,10.69,0,0,0,3.3-.45,2.39,2.39,0,0,1,.72-.12c1.26,0,2.7,1.2,2.7,2.28a1.13,1.13,0,0,1-1,1.08,15.07,15.07,0,0,1-4.08.42c-3.45,0-5.85-.57-7.47-1.8a4.36,4.36,0,0,1-1.77-3.39c0-2.91,3.33-5,8-5a31.77,31.77,0,0,1,5.73.6,24.2,24.2,0,0,0-2-4.5A22.67,22.67,0,0,1,11.6,115c-2.52,0-3.93-.9-5.13-3.3l.27-.21a4.44,4.44,0,0,0,3.78,1.8A24.31,24.31,0,0,0,17.3,112a29.09,29.09,0,0,0-1.83-3,21,21,0,0,1-5.4.87,6.5,6.5,0,0,1-5.34-2.82Z"/><path d="M37.38,3.61c0,.81.12.9,1,.9H43.3c.92,0,1-.1,1-.9h.26V9.1l-2.13.18V8.93c1.39-.21,1.84-.74,1.84-2.15v-1H41.17v.72c0,1.08.21,1.34,1.15,1.45v.32H39.71V8c1-.12,1.17-.37,1.17-1.45V5.8H37.41V6.9c0,1.35.52,1.91,2.08,2.2l0,.33-2.33-.21V3.61Z"/><path d="M41.48,12.12a1.94,1.94,0,0,1,1,1.82,1.47,1.47,0,0,1-.7,1.44,2.62,2.62,0,0,1-1.23.22h-2.2c-.9,0-1,.07-1,.76h-.24V13.63h.24c0,.68.1.75,1,.75h2.13a2.75,2.75,0,0,0,1.08-.14.76.76,0,0,0,.46-.77,1.2,1.2,0,0,0-.69-1.08,2,2,0,0,0-1.06-.27H38.36c-.89,0-1,.07-1,.75h-.24V10.14h.24c0,.69.1.76,1,.76h5c.88,0,1-.07,1-.77h.23l.11,2c-.77,0-1.25-.06-2.05-.06Z"/><path d="M41.78,17.75a2.57,2.57,0,0,1,.71,1.87,2.5,2.5,0,0,1-2.74,2.59,3,3,0,0,1-2-.66,2.66,2.66,0,0,1-.81-2,2.55,2.55,0,0,1,.76-1.88,3,3,0,0,1,2-.69A3.08,3.08,0,0,1,41.78,17.75Zm-4.59,1.86c0,.87.78,1.26,2.52,1.26s2.55-.4,2.55-1.27a1,1,0,0,0-.58-.93,4.42,4.42,0,0,0-1.94-.32C38,18.35,37.19,18.75,37.19,19.61Z"/><path d="M41.48,24.89a2,2,0,0,1,1,1.74,1.3,1.3,0,0,1-1.05,1.42,1.87,1.87,0,0,1,1.05,1.72,1.51,1.51,0,0,1-.58,1.3,2.14,2.14,0,0,1-1.35.3h-2.2c-.89,0-1,.07-1,.76h-.24V29.42h.24c0,.66.11.73,1,.73h2.19c1.06,0,1.48-.24,1.48-.83a1,1,0,0,0-.55-.89,1.77,1.77,0,0,0-1-.31H38.36c-.89,0-1,.07-1,.74h-.24V26.18h.24c0,.66.11.73,1,.73h2.2c1,0,1.47-.26,1.47-.81s-.74-1.21-1.64-1.21h-2c-.9,0-1,.07-1,.73h-.24V22.91h.24c0,.69.1.76,1,.76h2.78c.84,0,1-.08,1-.74h.24l.13,1.95Z"/><path d="M37.15,37.81c-.07-.59-.12-1.12-.12-1.38s.15-.42.76-.47A2.23,2.23,0,0,1,37,34.25a1.4,1.4,0,0,1,1.47-1.54c.86,0,1.39.53,1.6,1.6A12.16,12.16,0,0,1,40.24,36h.65c1.06,0,1.37-.18,1.37-.78a.69.69,0,0,0-.34-.67,1.51,1.51,0,0,0-.71-.16c-.36,0-.49-.19-.49-.61s.16-.7.46-.7a1.15,1.15,0,0,1,.93.62,3.06,3.06,0,0,1,.38,1.64,2.13,2.13,0,0,1-.41,1.48,1.58,1.58,0,0,1-1.24.39H38.56c-1.1,0-1.16,0-1.17.68ZM40,36c-.11-1.45-.48-2-1.41-2-.71,0-1.18.32-1.18.81a1.09,1.09,0,0,0,.66,1,2.56,2.56,0,0,0,1.16.18Z"/><path d="M38.36,40.29c-.9,0-1,.07-1,.75h-.24V38.33h.24c0,.68.11.75,1,.75h5c.88,0,1-.07,1-.76h.23l.11,2c-.74,0-1.38-.06-2.05-.06H39.51l1.54,1.34a1.08,1.08,0,0,0,.63.31c.27,0,.4-.21.43-.69h.23v2.58h-.23a2.23,2.23,0,0,0-.26-.84A3.2,3.2,0,0,0,41,42l-.41-.37-2.39,1.39c-.62.37-.8.58-.9,1h-.22V42.25l.89-.44,1.72-1-.63-.56Z"/><path d="M42.47,46.5c-.6,0-1.3-.06-1.94-.06H38.36c-.89,0-1,.07-1,.78h-.24V44.44h.24c0,.71.11.78,1,.78h2.77c.89,0,1,0,1-.75h.24Zm2.29-.66a.72.72,0,1,1-.71-.72A.71.71,0,0,1,44.76,45.84Z"/></svg>