<svg xmlns="http://www.w3.org/2000/svg" viewBox="0 0 45 261"><title>phraseImg</title><path d="M2.48,17.38A38.31,38.31,0,0,0,7.55,9.7c1.32-2.64,2-4.47,2-5.34s-.72-1.68-2-2.19a1.9,1.9,0,0,1,1-.24,7.7,7.7,0,0,1,3.3,1c1.2.6,1.8,1.2,1.8,1.77s-.06.51-.66,1.35c-.06.06-.24.36-.51.78-.66,1.11-1.23,2-1.68,2.76a2.24,2.24,0,0,0,1.59.48c2.25,0,8.55-1.47,10.14-2.37a1.82,1.82,0,0,1,1.08-.36A5.25,5.25,0,0,1,25.61,8c.84.48,1.17.87,1.17,1.38s-.3.87-.93,1a22.08,22.08,0,0,1-2.91.33l-2,.27c-1.95.27-2,.27-3.15.39,1.59.87,2.16,1.41,2.16,2.1,0,1.32-1.68,5.13-3.33,7.53a18.79,18.79,0,0,1-8.4,6.9L8,27.64a25,25,0,0,0,6.12-7.86c1.41-2.73,2.37-5.58,2.37-7a1.45,1.45,0,0,0-.54-1.2,20.25,20.25,0,0,1-2.85.21,3.43,3.43,0,0,1-2.91-1.32,25.78,25.78,0,0,1-7.47,7.17Zm19.32-16A11.5,11.5,0,0,1,25,2.83c1.38.93,2,1.8,2,2.76,0,.69-.36,1.17-.93,1.17-.39,0-.63-.18-1-.87a13.22,13.22,0,0,0-3.54-4Zm3.39-2A10.23,10.23,0,0,1,28.7.73c1.2.78,1.74,1.47,1.74,2.31s-.36,1.2-.9,1.2c-.33,0-.54-.18-1-.81A13.05,13.05,0,0,0,25-.11Z"/><path d="M10.25,38.11c3.69,1.47,5,2.55,5,4.14,0,1.14-.72,2.13-1.53,2.13-.45,0-.72-.3-1-1a11.59,11.59,0,0,0-2.67-5ZM13.46,54a31.32,31.32,0,0,0,8-9c1.56-2.52,2.79-5.37,2.79-6.45,0-.75-.42-1.23-1.62-1.83a1.25,1.25,0,0,1,.69-.18,6.7,6.7,0,0,1,3.54,1.41c.72.51,1.05,1,1.05,1.41s-.06.45-.45.9A14.1,14.1,0,0,0,26.33,42a31.7,31.7,0,0,1-4.44,6.45,22.59,22.59,0,0,1-8.19,5.85Zm2.22-17.19c3.21,1.14,4.68,2.37,4.68,3.93,0,1.14-.81,2.22-1.65,2.22a.81.81,0,0,1-.72-.48,8.82,8.82,0,0,1-.39-1.32,8.5,8.5,0,0,0-2.13-4.11Z"/><path d="M7.73,66.85a3.1,3.1,0,0,0,1.92.51c1.35,0,6.21-.51,9.33-1a5.21,5.21,0,0,0,1.92-.66,1.33,1.33,0,0,1,.72-.21,5.59,5.59,0,0,1,2.76,1.74c.78.75,1.08,1.2,1.08,1.68,0,.33-.09.48-.48.9a4.33,4.33,0,0,0-.75,1.92c-.27,1.11-.33,1.32-1.14,4.71l-.48,2.07c1.11.78,1.68,1.53,1.68,2.19s-.33.84-1,.84a14.07,14.07,0,0,1-1.41-.15,21.06,21.06,0,0,0-2.55-.12A26.11,26.11,0,0,0,9.53,83a2.55,2.55,0,0,1-.72.15c-1.35,0-3.45-2.61-3.45-4.32a3.92,3.92,0,0,1,.09-.69,3.74,3.74,0,0,0,3.18,2c.33,0,1-.06,1.59-.12,1.35-.18,1.35-.18,3.75-.45,1.47-.15,3.39-.36,5.73-.57a95,95,0,0,0,1.23-10.35c0-.42-.18-.54-.66-.54a38.37,38.37,0,0,0-5.52.69,32.29,32.29,0,0,0-4.11,1.11,2.43,2.43,0,0,1-1.14.33c-.75,0-1.68-.72-2.46-1.95A4.12,4.12,0,0,1,6.2,66a1.79,1.79,0,0,1,.15-.69A5.15,5.15,0,0,0,7.73,66.85Z"/><path d="M11.09,117.91a25.64,25.64,0,0,0,8-9.6A28.53,28.53,0,0,0,22,99.37c-.39,0-.72,0-.9,0a49.67,49.67,0,0,0-9.9,1.35,2,2,0,0,1-.51.09,3,3,0,0,1-1.47-.54c.12.39.12.39.15,2.82,0,.93,0,1.56,0,1.89,0,.66.06,1.17.06,1.41,0,1.17-.39,1.77-1.14,1.77s-1.32-.57-1.86-1.59A3.5,3.5,0,0,1,6,105.19a1.5,1.5,0,0,1,.21-.75,6,6,0,0,0,.42-2.76c0-2.16-.66-3.42-2.25-4.29a1.65,1.65,0,0,1,.78-.15c.93,0,2.16.6,3.81,1.8.6,0,.6,0,4.92-.66,0-.48,0-.66,0-1,0-3.54-.21-3.93-2.37-4.83a2,2,0,0,1,1.26-.39,10,10,0,0,1,3.48.72c1.08.42,1.59.87,1.59,1.41a1.27,1.27,0,0,1-.27.75,5.21,5.21,0,0,0-.84,3c1.89-.21,3.12-.33,3.72-.39a3.37,3.37,0,0,0,1.8-.51,1.32,1.32,0,0,1,.66-.21,4,4,0,0,1,2.16,1.29c.93.84,1.26,1.29,1.26,1.74a1.06,1.06,0,0,1-.45.9,3.87,3.87,0,0,0-.93,1.71,32.27,32.27,0,0,1-2.55,5.85,22,22,0,0,1-7.2,7.83,17.91,17.91,0,0,1-3.9,2Z"/><path d="M2.36,149.71a32.6,32.6,0,0,0,10.05-15.15A19.45,19.45,0,0,0,8,135.94a1.81,1.81,0,0,1-.84.24,3.5,3.5,0,0,1-2.43-1.8,4.14,4.14,0,0,1-.78-2.1,1.75,1.75,0,0,1,.12-.6A3.14,3.14,0,0,0,7,133.45a54.73,54.73,0,0,0,5.94-.69,24.21,24.21,0,0,0,.9-5.07c0-1.11-.63-1.77-2.31-2.46a2.22,2.22,0,0,1,1.2-.27,8.67,8.67,0,0,1,3.78,1.14c.93.54,1.35,1,1.35,1.56a1.9,1.9,0,0,1-.36,1,7,7,0,0,0-.66,1.59c0,.12-.15.48-.36,1.11l-.27,1,3.42-.51a3.83,3.83,0,0,0,1.56-.48,1.37,1.37,0,0,1,.66-.18c.63,0,1.41.51,2.46,1.56.57.6.81,1,.81,1.41s-.06.39-.48,1c-.27.48-.3.69-.81,3.48-1.17,6.18-1.89,8.31-3.24,9.54a4.57,4.57,0,0,1-3.09,1.26,1.12,1.12,0,0,1-.87-.36c-.18-.21-.21-.33-.36-1s-1.26-1.71-3.81-3.21l.15-.33a25.37,25.37,0,0,0,5.34,1.26c.72,0,1.08-.54,1.74-2.64a46.45,46.45,0,0,0,1.68-9.09c0-.54-.24-.78-.75-.78a42.16,42.16,0,0,0-4.89.75C13.4,141.64,8.9,147.1,2.54,150Zm19.86-23.82a11.5,11.5,0,0,1,3.21,1.44c1.38.93,2,1.8,2,2.76,0,.69-.36,1.17-.93,1.17-.39,0-.63-.18-1-.87a13.22,13.22,0,0,0-3.54-4Zm3.06-2.34a10.23,10.23,0,0,1,3.51,1.32c1.2.78,1.74,1.47,1.74,2.31s-.36,1.2-.9,1.2c-.33,0-.54-.18-1-.81A13.05,13.05,0,0,0,25,124Z"/><path d="M40.61,10.92h-.26c0-.36-.05-.52-.16-.63s-.3-.15-.89-.15h-.85c-.52,0-.68,0-1,0A5.09,5.09,0,0,0,37.23,9,5.52,5.52,0,0,1,37,7.34c0-2.18,1.4-3.48,3.77-3.48s4,1.4,4,3.57A5.42,5.42,0,0,1,44.52,9a1.74,1.74,0,0,0-.06.45,1.44,1.44,0,0,0,.13.59H42.27V9.64a3,3,0,0,0,1.36-.5,2,2,0,0,0,.85-1.63,1.84,1.84,0,0,0-1.12-1.74,5.66,5.66,0,0,0-2.43-.47,4.77,4.77,0,0,0-3.18.93,1.77,1.77,0,0,0-.5,1.27,2.58,2.58,0,0,0,.21,1,1,1,0,0,0,.25.41h1.71c.82,0,.91-.09.94-.92h.26Z"/><path d="M42.47,13.35l-.81,0h-.3a1.78,1.78,0,0,1,1.13,1.48.79.79,0,0,1-.76.85.64.64,0,0,1-.61-.72.41.41,0,0,1,.32-.47c.28-.08.35-.13.35-.29v0c0-.19-.18-.39-.47-.56a2.25,2.25,0,0,0-1.11-.24H38.36c-.9,0-1,.06-1,.8h-.24V11.43h.24c0,.69.11.76,1,.76h2.77c.85,0,1-.09,1-.72h.24Z"/><path d="M39.94,17.44a3.91,3.91,0,0,0-1.59.26,1.44,1.44,0,0,0-1,1.36,1.86,1.86,0,0,0,1.14,1.65l-.16.25A2.26,2.26,0,0,1,37,18.76a2.5,2.5,0,0,1,2.74-2.61,2.49,2.49,0,0,1,2.78,2.51,2,2,0,0,1-1.32,2.07,3.66,3.66,0,0,1-1.23.18Zm.29,2.22a3.9,3.9,0,0,0,1.25-.17c.53-.19.78-.47.78-.86s-.3-.76-.88-1a4.23,4.23,0,0,0-1.15-.21Z"/><path d="M41.48,23.57a1.91,1.91,0,0,1,1,1.78,1.42,1.42,0,0,1-.68,1.36,2.22,2.22,0,0,1-1.23.25H38.36c-.89,0-1,.07-1,.76h-.24V25h.24c0,.67.12.75,1,.75h2.16c1.08,0,1.53-.26,1.53-.88a1.18,1.18,0,0,0-.66-1,2.32,2.32,0,0,0-1-.27h-2c-.9,0-1,.07-1,.75h-.24V21.59h.24c0,.69.11.76,1,.76h2.77c.85,0,1-.08,1-.74h.24l.13,1.95Z"/><path d="M42.47,30.28c-.6,0-1.3-.06-1.94-.06H38.36c-.89,0-1,.07-1,.78h-.24V28.22h.24c0,.71.11.78,1,.78h2.77c.89,0,1-.05,1-.75h.24Zm2.3-.66a.72.72,0,1,1-.72-.72A.72.72,0,0,1,44.77,29.62Z"/><path d="M41.48,33.53a1.91,1.91,0,0,1,1,1.78,1.42,1.42,0,0,1-.68,1.36,2.22,2.22,0,0,1-1.23.25H38.36c-.89,0-1,.07-1,.76h-.24V35h.24c0,.67.12.75,1,.75h2.16c1.08,0,1.53-.26,1.53-.88a1.18,1.18,0,0,0-.66-1,2.32,2.32,0,0,0-1-.27h-2c-.9,0-1,.07-1,.75h-.24V31.55h.24c0,.69.11.76,1,.76h2.77c.85,0,1-.08,1-.74h.24l.13,2Z"/><path d="M42.47,40.24c-.73,0-1.36-.06-2-.06H37.75A6.47,6.47,0,0,1,36,40.07a1.73,1.73,0,0,1-1.09-1.75c0-.8.34-1.39.79-1.39s.56.34.56.78a.43.43,0,0,1-.17.4c-.08,0-.08,0-.48.09s-.44.15-.44.35.24.43.75.43h5.19c.9,0,1-.05,1-.78h.24Zm2.3-.66a.7.7,0,0,1-.72.72.72.72,0,1,1,.72-.72Z"/><path d="M37.15,46.62C37.08,46,37,45.5,37,45.24s.15-.42.76-.47A2.23,2.23,0,0,1,37,43.06a1.4,1.4,0,0,1,1.47-1.54c.86,0,1.39.53,1.6,1.6a12.16,12.16,0,0,1,.19,1.64h.65c1.06,0,1.37-.18,1.37-.78a.69.69,0,0,0-.34-.67,1.51,1.51,0,0,0-.71-.16c-.36,0-.49-.19-.49-.61s.16-.7.46-.7a1.15,1.15,0,0,1,.93.62,3.06,3.06,0,0,1,.38,1.64,2.13,2.13,0,0,1-.41,1.48,1.58,1.58,0,0,1-1.24.39H38.56c-1.1,0-1.16,0-1.17.68ZM40,44.76c-.11-1.45-.48-2-1.41-2-.71,0-1.18.32-1.18.81a1.09,1.09,0,0,0,.66,1,2.56,2.56,0,0,0,1.16.18Z"/></svg>