<svg xmlns="http://www.w3.org/2000/svg" viewBox="0 0 45 261"><title>phraseImg</title><path d="M7.73,5.29a3.1,3.1,0,0,0,1.92.51c1.35,0,6.21-.51,9.33-1a5.21,5.21,0,0,0,1.92-.66,1.33,1.33,0,0,1,.72-.21,5.59,5.59,0,0,1,2.76,1.74c.78.75,1.08,1.2,1.08,1.68,0,.33-.09.48-.48.9a4.33,4.33,0,0,0-.75,1.92c-.27,1.11-.33,1.32-1.14,4.71L22.61,17c1.11.78,1.68,1.53,1.68,2.19s-.33.84-1,.84a14.07,14.07,0,0,1-1.41-.15,21.06,21.06,0,0,0-2.55-.12,26.11,26.11,0,0,0-9.84,1.71,2.55,2.55,0,0,1-.72.15c-1.35,0-3.45-2.61-3.45-4.32a3.92,3.92,0,0,1,.09-.69,3.74,3.74,0,0,0,3.18,2c.33,0,1-.06,1.59-.12,1.35-.18,1.35-.18,3.75-.45,1.47-.15,3.39-.36,5.73-.57A95,95,0,0,0,20.93,7.09c0-.42-.18-.54-.66-.54a38.37,38.37,0,0,0-5.52.69,32.29,32.29,0,0,0-4.11,1.11,2.43,2.43,0,0,1-1.14.33C8.75,8.68,7.82,8,7,6.73A4.12,4.12,0,0,1,6.2,4.48a1.79,1.79,0,0,1,.15-.69A5.15,5.15,0,0,0,7.73,5.29Z"/><path d="M7.73,46.06c.87,1.65,1.92,2.4,4.32,3.12a38.42,38.42,0,0,0,7.86,1.41l.63,0h.15a3,3,0,0,1,2.1,1.26,3.88,3.88,0,0,1,1.14,2.28,1.12,1.12,0,0,1-1.11,1.23A5,5,0,0,1,21,54.82c-.54-.21-.6-.24-4.41-1.5a27.58,27.58,0,0,1-6.42-2.7,6.74,6.74,0,0,1-2.73-4.44Zm1-15.27A8.45,8.45,0,0,0,13.46,33a21,21,0,0,0,4.23.48,6.39,6.39,0,0,0,.81-.06,1.85,1.85,0,0,1,.54-.06,3.23,3.23,0,0,1,1.77,1,2.62,2.62,0,0,1,1,1.77c0,.66-.45,1.05-1.2,1.05a27.05,27.05,0,0,1-6.39-1.53C11.27,34.6,9.74,33.34,8.48,31Zm.84,7.5a4.5,4.5,0,0,0,2.61,2.1,15.55,15.55,0,0,0,4.95.93,5,5,0,0,0,.6-.06,2.33,2.33,0,0,1,.39,0,2,2,0,0,1,1.38.69,3.1,3.1,0,0,1,1.23,2c0,.63-.48,1-1.23,1a20.15,20.15,0,0,1-5.76-1.53,7.36,7.36,0,0,1-4.5-5.07Z"/><path d="M8.66,88.09a22.29,22.29,0,0,0,4.5-7.17,21.84,21.84,0,0,0,1.53-6.39,1.69,1.69,0,0,0-.48-1.38,22.42,22.42,0,0,0-6.27,1.77,2.65,2.65,0,0,1-1.29.39c-.78,0-1.62-.63-2.64-2a3.43,3.43,0,0,1-.87-1.92,1.65,1.65,0,0,1,.15-.63A3.23,3.23,0,0,0,6.2,72.46a36.23,36.23,0,0,0,5.64-.72C14.21,71.38,17,71,21,70.6A7.75,7.75,0,0,0,23.57,70a2,2,0,0,1,.87-.24,4.58,4.58,0,0,1,1.92.63c1.14.57,1.71,1.2,1.71,1.8s-.48,1-1.26,1a2.32,2.32,0,0,1-.54-.06,37.85,37.85,0,0,0-5.58-.45,40.64,40.64,0,0,0-4.41.21c1.77,1.05,2,1.35,2,2.13,0,1.35-1.26,4.56-2.64,6.81A18.93,18.93,0,0,1,8.9,88.36ZM8.24,63.7a4.81,4.81,0,0,0,3.6,1.62,17.55,17.55,0,0,0,4.2-.66,9,9,0,0,0,2.67-1.11,1.71,1.71,0,0,1,.93-.27,3,3,0,0,1,1.62.6c.75.51,1.11,1,1.11,1.47s-.39.87-1.74,1.17a40.28,40.28,0,0,1-7.44.9c-2.34,0-3.87-1-5.22-3.51Z"/><path d="M9.83,107.08a35.49,35.49,0,0,0,5.4-3.9,47.08,47.08,0,0,0,6.6-6.84,2.68,2.68,0,0,0,.66-1.47c0-.6-.42-1.11-1.44-1.74a1.71,1.71,0,0,1,.66-.12,6,6,0,0,1,3.12,1.29c.93.6,1.38,1.14,1.38,1.62a1,1,0,0,1-.57,1,10.48,10.48,0,0,0-1.53,1.35c-1.56,1.47-1.86,1.74-3.69,3.27,1.65,1.17,1.8,1.41,1.8,2.94,0,2,.06,3.69.12,5.67,0,.63.06,1.47.06,2,0,.9-.36,1.41-1,1.41a3,3,0,0,1-2.31-2.64,2.36,2.36,0,0,1,.12-.66,22.74,22.74,0,0,0,.6-6.06c0-1.2,0-1.5-.3-1.92A31.44,31.44,0,0,1,10,107.44Z"/><path d="M6.74,146.86a21.79,21.79,0,0,0,5.58-8.07A23.28,23.28,0,0,0,14,131.92a1.65,1.65,0,0,0-.75-1.47,3.41,3.41,0,0,0-1.32-.66,1.44,1.44,0,0,1,1.14-.39,9.75,9.75,0,0,1,4.62,2c2.37-1.65,5.64-4.86,5.64-5.49,0-.27-.27-.36-1.11-.36A52.47,52.47,0,0,0,14,126.7a20.84,20.84,0,0,0-5.28,1.74,2.62,2.62,0,0,1-1.32.42c-.78,0-1.83-.81-2.67-2.1a5.39,5.39,0,0,1-.93-2.43,2.5,2.5,0,0,1,.18-.87,3.38,3.38,0,0,0,3.33,2A44.66,44.66,0,0,0,13,124.9c5.25-.63,6.9-.81,8.1-1a5,5,0,0,0,1.8-.48,1.26,1.26,0,0,1,.54-.12c.54,0,1.08.3,2,1.11,1.5,1.29,2.43,2.49,2.43,3.15a1,1,0,0,1-.6.93,2.42,2.42,0,0,1-.9.27,5.09,5.09,0,0,0-1.17.42c-2.61,1.23-3.63,1.65-7.38,3.09-.51,1.71-.84,2.85-1.05,3.42a19,19,0,0,1-5.43,8.4,18.09,18.09,0,0,1-4.41,3Z"/><path d="M42.09,9.64a3.22,3.22,0,0,0,1.44-.53,2.06,2.06,0,0,0,.93-1.68,1.8,1.8,0,0,0-.88-1.55A5,5,0,0,0,41,5.3c-2.22,0-3.59.9-3.59,2.37a2.43,2.43,0,0,0,1,1.95,3.43,3.43,0,0,0,.82.44l-.16.29a3,3,0,0,1-2.11-3,3.5,3.5,0,0,1,.94-2.46,4,4,0,0,1,2.88-1c2.41,0,4,1.38,4,3.52A5.17,5.17,0,0,1,44.46,9a1.47,1.47,0,0,0-.06.42,1.44,1.44,0,0,0,.13.54H42.09Z"/><path d="M41.78,11.9a2.57,2.57,0,0,1,.71,1.87,2.5,2.5,0,0,1-2.74,2.59,3,3,0,0,1-2-.66,2.66,2.66,0,0,1-.81-2,2.55,2.55,0,0,1,.76-1.88,3,3,0,0,1,2-.69A3.08,3.08,0,0,1,41.78,11.9Zm-4.59,1.86c0,.87.78,1.26,2.52,1.26s2.55-.4,2.55-1.27a1,1,0,0,0-.58-.93,4.42,4.42,0,0,0-1.94-.32C38,12.5,37.19,12.9,37.19,13.76Z"/><path d="M41.48,19a2,2,0,0,1,1,1.74,1.3,1.3,0,0,1-1.05,1.42,1.87,1.87,0,0,1,1.05,1.72,1.51,1.51,0,0,1-.58,1.3,2.14,2.14,0,0,1-1.35.3h-2.2c-.89,0-1,.07-1,.76h-.24V23.57h.24c0,.66.11.73,1,.73h2.19c1.06,0,1.48-.24,1.48-.83a1,1,0,0,0-.55-.89,1.77,1.77,0,0,0-1-.31H38.36c-.89,0-1,.07-1,.74h-.24V20.33h.24c0,.66.11.73,1,.73h2.2c1,0,1.47-.26,1.47-.81S41.29,19,40.39,19h-2c-.9,0-1,.07-1,.73h-.24V17.06h.24c0,.69.1.76,1,.76h2.78c.84,0,1-.08,1-.74h.24l.13,2Z"/><path d="M42.47,28.83c-.6,0-1.3-.06-1.94-.06H38.36c-.89,0-1,.07-1,.78h-.24V26.77h.24c0,.71.11.78,1,.78h2.77c.89,0,1-.05,1-.75h.24Zm2.3-.66a.72.72,0,1,1-.72-.72A.72.72,0,0,1,44.77,28.17Z"/><path d="M38.68,32a2.76,2.76,0,0,0-.9.1.54.54,0,0,0-.37.49,1.19,1.19,0,0,0,.31.7l-.25.14a2.05,2.05,0,0,1-.5-1.37,1.2,1.2,0,0,1,.55-1.13,3.07,3.07,0,0,1,1.38-.15H42v-.57h.3a1.06,1.06,0,0,0,.53,1,2.71,2.71,0,0,0,1.07.37l0,.5c-.41,0-.72,0-1.63,0v1.21H42V32Z"/><path d="M42.47,35.84c-.6,0-1.3-.06-1.94-.06H38.36c-.89,0-1,.07-1,.78h-.24V33.78h.24c0,.71.11.78,1,.78h2.77c.89,0,1-.05,1-.75h.24Zm2.3-.66a.72.72,0,1,1-.72-.72A.72.72,0,0,1,44.77,35.18Z"/><path d="M37.15,42.3c-.07-.59-.12-1.12-.12-1.38s.15-.42.76-.47A2.23,2.23,0,0,1,37,38.74a1.4,1.4,0,0,1,1.47-1.54c.86,0,1.39.53,1.6,1.6a12.16,12.16,0,0,1,.19,1.64h.65c1.06,0,1.37-.18,1.37-.78a.69.69,0,0,0-.34-.67,1.51,1.51,0,0,0-.71-.16c-.36,0-.49-.19-.49-.61s.16-.7.46-.7a1.15,1.15,0,0,1,.93.62,3.06,3.06,0,0,1,.38,1.64,2.13,2.13,0,0,1-.41,1.48,1.58,1.58,0,0,1-1.24.39H38.56c-1.1,0-1.16,0-1.17.68ZM40,40.44c-.11-1.45-.48-2-1.41-2-.71,0-1.18.32-1.18.81a1.09,1.09,0,0,0,.66,1,2.56,2.56,0,0,0,1.16.18Z"/></svg>