<svg xmlns="http://www.w3.org/2000/svg" viewBox="0 0 45 261"><title>phraseImg</title><path d="M10.22,4.09c0-.93,0-1.68-.15-3a39.56,39.56,0,0,1,4.53.51c.24.09.36.18.36.33s-.21.42-1.32.81c0,.63,0,1.8,0,3.54-.06,7.2-.12,8.7-.36,10.77,1-.18,1.38-.27,2.61-.54l.09.3c-1.44.66-1.86.87-2.82,1.32A11,11,0,0,1,9,25.36a17.22,17.22,0,0,1-6.33,3.18l-.24-.27a15.94,15.94,0,0,0,5.07-4.14,11.68,11.68,0,0,0,2.16-4.56C7,20.65,6.05,21,4.07,21.7c-.15,1.05-.27,1.35-.54,1.35s-.27-.12-.39-.39-.78-2.37-1.26-4.11h.48A57.37,57.37,0,0,0,10,17.62a39.73,39.73,0,0,0,.24-4.68H5.84c-.21,0-1,.06-2.49.15l-.21-1a20.21,20.21,0,0,0,2.79.24h4.29V7.21h-5a21.26,21.26,0,0,0-2.58.15L2.39,6.31a15.38,15.38,0,0,0,2.79.27h5ZM23.9,6.58,26,4.12c1.47,1.08,1.92,1.44,3.36,2.67a.38.38,0,0,1,.12.21.23.23,0,0,1-.24.21H20.45v5.61h2.91c.9-1.05,1.2-1.38,2.13-2.43,1.38,1,1.83,1.41,3.24,2.61a.44.44,0,0,1,.15.24.23.23,0,0,1-.24.21H20.45l0,6.09h3.63c1-1.2,1.32-1.53,2.34-2.64,1.47,1.17,1.92,1.56,3.36,2.82A.44.44,0,0,1,30,20c0,.12-.12.21-.33.21H20.48c0,.9,0,1.62,0,2.07,0,.6,0,2.37.09,5.34,0,.3-.09.42-.3.54a15.56,15.56,0,0,1-2.79.18c-.36,0-.51-.15-.51-.51.12-2.64.18-8.61.18-19,0-4.41,0-6.12-.18-7.71,4.23.27,4.77.36,4.77.81,0,.27-.12.36-1.32.81V6.58Z"/><path d="M1.28,49a33.59,33.59,0,0,0,5.94-7.92A20,20,0,0,0,9.8,35c4,1.5,4.68,1.83,4.68,2.19s-.42.51-1.41.57a31.65,31.65,0,0,1-5.25,7.05,25.76,25.76,0,0,1-6.3,4.62ZM17.84,49a51.62,51.62,0,0,1,5.91,4.8c1.53,1.47,2.37,2.85,2.37,4,0,1.56-1.2,3.45-2.22,3.45-.48,0-.72-.33-1-1.17a24.09,24.09,0,0,0-1.17-3.39c-1.68.48-3.12.81-5.19,1.26-2.61.57-3.18.69-7.8,1.53C7,59.74,7,59.74,5.69,60c-.21.9-.36,1.17-.66,1.17S4.58,61,3.47,56.23c1.14.09,1.62.12,2.46.12l2,0c2.55-5.4,4.35-10.53,4.77-13.59,4.17.93,5,1.23,5,1.65s-.3.51-1.35.66A62,62,0,0,1,9.29,56.29c.6,0,.6,0,1.56,0,3.18,0,5.94-.18,10.5-.57a25.85,25.85,0,0,0-3.84-6.42Zm1-13.95a1.9,1.9,0,0,0-.06.45c0,1,1,2.67,2.49,4.38A17.53,17.53,0,0,0,26.6,44a16.19,16.19,0,0,0,3.66,1.38v.33a3.64,3.64,0,0,0-1.8,1.41,7.73,7.73,0,0,0-.9,1.62c-.12.3-.21.42-.36.42a3.39,3.39,0,0,1-1.11-.66,20.24,20.24,0,0,1-5.22-5.91,26.59,26.59,0,0,1-2.52-5.91,3,3,0,0,0-.63-1.26Z"/><path d="M6.14,77.23V94.87c0,.36-.06.54-.24.66a4.73,4.73,0,0,1-2,.27c-.93,0-1.17-.15-1.17-.63v-.09c.18-4.83.21-8.67.21-18.69,0-4.26,0-6.24-.15-8.58a34.21,34.21,0,0,1,3.69,1.71H10.7c.69-.78.9-1,1.59-1.77,1.05.72,1.35,1,2.4,1.74.24.21.33.33.33.45s-.18.36-1,.78V73c0,1.65,0,2.76.09,4.8,0,.3-.06.45-.24.54a4.42,4.42,0,0,1-1.92.27c-.84,0-1-.09-1-.6v-.75ZM11,70.15H6.14v2.76H11Zm0,3.39H6.14V76.6H11Zm9,12.12h.63c.66-.81.87-1,1.59-1.83,1.05.9,1.35,1.17,2.34,2.13.09.09.12.15.12.18s-.09.15-.27.15H19.94v1.92c0,1.47,0,2.82.06,5.49v.09a.58.58,0,0,1-.48.66,11.18,11.18,0,0,1-1.68.15c-.81,0-1-.15-1-.69l0-5.67V86.29H13.94c-.42,4.53-2.07,6.72-6.63,8.76l-.21-.3c2.73-2.43,3.6-4.32,3.9-8.46H9.08a8,8,0,0,0-1.77.18l-.18-1a6.83,6.83,0,0,0,2,.21h2c.06-1.2.06-1.71.06-2.61,0-.54,0-.75,0-2H9.65A7.13,7.13,0,0,0,8,81.28l-.18-1a7.62,7.62,0,0,0,1.83.21h9.78c.72-.84,1-1.08,1.68-1.89a30.94,30.94,0,0,1,2.61,2.13c.09.12.12.18.12.24s-.09.15-.24.15H19.94ZM14.06,81.1v1.23c0,1.14,0,2.16-.09,3.33h2.91V81.1Zm6-3.87v.57c0,.57-.48.75-2,.75-1.05,0-1.2-.09-1.23-.66.09-3,.09-3.24.09-5.64a38.05,38.05,0,0,0-.12-4.38c1.53.66,2,.9,3.45,1.65h4.41c.72-.78,1-1,1.62-1.8,1.08.72,1.44,1,2.52,1.71.3.24.42.39.42.54s-.06.27-1,.93V84c0,3.36,0,5,.09,8.82,0,1.62-.57,2.28-2.34,2.73a8,8,0,0,1-1.71.27c-.33,0-.42-.09-.42-.54a3.09,3.09,0,0,0-.63-1.77c-.36-.42-.78-.6-2.34-1.17V92c2.07.12,2.58.15,3.21.15h.54c.39-.06.42-.09.42-.75V77.23Zm5-7.08H20v2.76h5Zm0,3.39H20V76.6h5Z"/><path d="M7.64,104.47a8.34,8.34,0,0,1,4,1.35,1.59,1.59,0,0,1,.72,1.23v.06a4.1,4.1,0,0,1-.27,1,18.21,18.21,0,0,0-.24,3.72c0,.48,0,1.38.06,2.67,0,.72,0,1.44,0,1.77a9.42,9.42,0,0,1-.09,1.62A1.14,1.14,0,0,1,10.73,119c-.54,0-1.14-.48-1.65-1.32a5.35,5.35,0,0,1-.75-2.13,1.64,1.64,0,0,1,.18-.75A16.38,16.38,0,0,0,9,110c0-2.1-.15-3.15-.57-3.78s-.75-.93-1.92-1.44A1.71,1.71,0,0,1,7.64,104.47Zm3.3,23.76a17.45,17.45,0,0,0,6.51-6.69c1.41-2.82,1.77-5.28,1.77-12.15,0-3.39-.09-4.41-.51-5A4,4,0,0,0,16.34,103a1.92,1.92,0,0,1,1.38-.45,10.14,10.14,0,0,1,3.57.87c1.29.6,1.83,1.11,1.83,1.8a1.85,1.85,0,0,1-.21.78c-.3.75-.42,2-.51,6-.09,4.29-.27,5.7-.78,7.41-1.35,4.32-5,7.53-10.5,9.18Z"/><path d="M2.33,158.2a41.21,41.21,0,0,0,8.91-7.65,48,48,0,0,0,7.44-11.28,31.3,31.3,0,0,0-8,2.34A2.18,2.18,0,0,1,9.5,142c-.69,0-1.38-.54-2.16-1.68a5.09,5.09,0,0,1-1-2.58,1.25,1.25,0,0,1,.21-.75c.9,1.5,1.71,2,3.15,2a50.08,50.08,0,0,0,6.51-1c2-.39,2.16-.48,2.91-1a1.31,1.31,0,0,1,.81-.27,4.56,4.56,0,0,1,2.19,1.35c.66.63,1,1.08,1,1.5a.84.84,0,0,1-.48.75,6.09,6.09,0,0,0-1.74,2.19,52.8,52.8,0,0,1-3.78,5.31c3.93,1.71,6.42,3.15,7.77,4.47a3.92,3.92,0,0,1,1.26,3c0,1.53-.69,2.67-1.62,2.67-.51,0-.87-.36-1.23-1.2a21.34,21.34,0,0,0-6.72-8.25,32.27,32.27,0,0,1-7.17,6.57,27.15,27.15,0,0,1-6.87,3.36Z"/><path d="M10.64,165.73a8.73,8.73,0,0,1,3.3.87c1.32.66,2,1.29,2,2a1.5,1.5,0,0,1-.27.81,3.82,3.82,0,0,0-.51,2c-.06.6-.12,2.55-.18,4.14A22.44,22.44,0,0,1,22.16,177c1.53.69,2.19,1.59,2.19,2.94s-.54,2.13-1.32,2.13c-.45,0-.63-.12-1.41-1a17.1,17.1,0,0,0-6.69-4.68v4.71c0,2.52,0,2.52.09,6.09,0,.51,0,.93,0,1.44a5.51,5.51,0,0,1-.18,1.8,1.09,1.09,0,0,1-1,.75,2.13,2.13,0,0,1-1.62-1,4.62,4.62,0,0,1-1.08-2.43,3.09,3.09,0,0,1,.27-1.2c.51-1.47.69-5,.69-12.63,0-4.32-.09-5.46-.54-6.27A3.65,3.65,0,0,0,9.47,166,2.07,2.07,0,0,1,10.64,165.73Z"/><path d="M38.41,5.8c-.91,0-1,.09-1,1h-.26V3.6h.26c0,.82.12.9,1,.9H43.3c.91,0,1-.08,1-.86h.26v3c0,2-.63,2.93-2.08,2.93a1.9,1.9,0,0,1-2-1.28,6.43,6.43,0,0,1-.26-2V5.8Zm2.15.52A2,2,0,0,0,41,7.7a2.06,2.06,0,0,0,1.49.49c1.23,0,1.85-.59,1.85-1.75V5.8H40.56Z"/><path d="M42.47,12l-.81,0h-.3a1.78,1.78,0,0,1,1.13,1.48.79.79,0,0,1-.76.85.64.64,0,0,1-.61-.72.41.41,0,0,1,.32-.47c.28-.08.35-.13.35-.29v0c0-.19-.18-.39-.47-.56a2.25,2.25,0,0,0-1.11-.24H38.36c-.9,0-1,.06-1,.8h-.24V10.11h.24c0,.69.11.76,1,.76h2.77c.85,0,1-.09,1-.72h.24Z"/><path d="M42.47,16.73c-.6,0-1.3-.06-1.94-.06H38.36c-.89,0-1,.07-1,.78h-.24V14.67h.24c0,.71.11.78,1,.78h2.77c.89,0,1,0,1-.75h.24Zm2.3-.66a.72.72,0,1,1-.72-.72A.72.72,0,0,1,44.77,16.07Z"/><path d="M40.88,22a2,2,0,0,0,.68.13.51.51,0,0,0,.47-.33,1.39,1.39,0,0,0,.08-.48h.23v2.22H42.1c-.05-.55-.33-.82-1.19-1.14L37.05,21v-.78l4.22-1.6c.64-.25.8-.4.84-.83h.23V20.5H42.1c0-.44-.16-.66-.42-.66a2,2,0,0,0-.51.11l-3,1.1Z"/><path d="M37.15,29.13C37.08,28.54,37,28,37,27.75s.15-.42.76-.47A2.23,2.23,0,0,1,37,25.57,1.4,1.4,0,0,1,38.45,24c.86,0,1.39.53,1.6,1.6a12.16,12.16,0,0,1,.19,1.64h.65c1.06,0,1.37-.18,1.37-.78a.69.69,0,0,0-.34-.67,1.51,1.51,0,0,0-.71-.16c-.36,0-.49-.19-.49-.61s.16-.7.46-.7a1.15,1.15,0,0,1,.93.62,3.06,3.06,0,0,1,.38,1.64,2.13,2.13,0,0,1-.41,1.48,1.58,1.58,0,0,1-1.24.39H38.56c-1.1,0-1.16,0-1.17.68ZM40,27.27c-.11-1.45-.48-2-1.41-2-.71,0-1.18.32-1.18.81a1.09,1.09,0,0,0,.66,1,2.56,2.56,0,0,0,1.16.18Z"/><path d="M38.68,31.6a2.76,2.76,0,0,0-.9.1.54.54,0,0,0-.37.49,1.19,1.19,0,0,0,.31.7l-.25.14a2.05,2.05,0,0,1-.5-1.37,1.2,1.2,0,0,1,.55-1.13,3.07,3.07,0,0,1,1.38-.15H42v-.57h.3a1.06,1.06,0,0,0,.53,1,2.71,2.71,0,0,0,1.07.37l0,.5c-.41,0-.72,0-1.63,0v1.21H42V31.6Z"/><path d="M39.94,34.82a3.91,3.91,0,0,0-1.59.26,1.44,1.44,0,0,0-1,1.36,1.86,1.86,0,0,0,1.14,1.65l-.16.25A2.26,2.26,0,0,1,37,36.14a2.5,2.5,0,0,1,2.74-2.61A2.49,2.49,0,0,1,42.49,36a2,2,0,0,1-1.32,2.07,3.66,3.66,0,0,1-1.23.18ZM40.23,37a3.9,3.9,0,0,0,1.25-.17c.53-.19.78-.47.78-.86s-.3-.76-.88-1a4.23,4.23,0,0,0-1.15-.21Z"/><path d="M37.38,42.32c0,.86.13,1,1,1H43.3c.91,0,1-.08,1-.91h.26v3.12h-.26c0-.83-.13-.91-1-.91H37.41v.92a2,2,0,0,0,.77,1.76,3.37,3.37,0,0,0,1.33.47l0,.35-2.35-.23V42.32Z"/><path d="M42.47,50.5c-.6,0-1.3-.06-1.94-.06H38.36c-.89,0-1,.07-1,.78h-.24V48.44h.24c0,.71.11.78,1,.78h2.77c.89,0,1,0,1-.75h.24Zm2.3-.66a.72.72,0,1,1-.72-.72A.72.72,0,0,1,44.77,49.84Z"/><path d="M38.88,52.08v.36a2.35,2.35,0,0,0-1.05.3,1.24,1.24,0,0,0-.63,1.12c0,.61.32,1,.87,1s.71-.26,1.25-1.42A2.86,2.86,0,0,1,40,52.34a1.23,1.23,0,0,1,.9-.35c1,0,1.59.72,1.59,1.85a4.75,4.75,0,0,1-.08.71,2.26,2.26,0,0,0-.06.44,1.31,1.31,0,0,0,.1.48l-1.75-.09V55c1-.07,1.56-.49,1.56-1.21a.81.81,0,0,0-.83-.89.7.7,0,0,0-.61.31,4.39,4.39,0,0,0-.58,1.12c-.47,1-.86,1.35-1.61,1.35A1.6,1.6,0,0,1,37,53.89a5.2,5.2,0,0,1,.12-1,2.19,2.19,0,0,0,0-.36,2.12,2.12,0,0,0-.06-.51Z"/><path d="M38.68,58.42a2.76,2.76,0,0,0-.9.1.54.54,0,0,0-.37.49,1.19,1.19,0,0,0,.31.7l-.25.14a2.05,2.05,0,0,1-.5-1.37,1.2,1.2,0,0,1,.55-1.13,3.07,3.07,0,0,1,1.38-.15H42v-.57h.3a1.06,1.06,0,0,0,.53.95,2.71,2.71,0,0,0,1.07.37l0,.5c-.41,0-.72,0-1.63,0v1.21H42V58.42Z"/></svg>