<svg xmlns="http://www.w3.org/2000/svg" viewBox="0 0 45 261"><title>phraseImg</title><path d="M11.24,27.07A11.74,11.74,0,0,0,15.8,21.4,6,6,0,0,1,12.47,19a12,12,0,0,1-1.92-6.87c0-.12,0-.51,0-1A13,13,0,0,0,7.52,18.7a9.18,9.18,0,0,0,.15,1.53v.24a1.3,1.3,0,0,1-1.32,1.41c-1.59,0-2.64-2.76-2.64-6.93a35.09,35.09,0,0,1,.72-6.81,7.1,7.1,0,0,0,.12-1.29A3.85,3.85,0,0,0,3.2,4h.36A4.3,4.3,0,0,1,6.05,5.23,4.12,4.12,0,0,1,7.79,8c0,.45-.06.63-.78,1.92a10.93,10.93,0,0,0-1.17,4.83A9.78,9.78,0,0,0,6,16.15a21.24,21.24,0,0,1,4.68-6.84,13.44,13.44,0,0,1,1.68-5.82,3.75,3.75,0,0,1,3.18-2.1,3.94,3.94,0,0,1,2.76,1.2,6.92,6.92,0,0,1,1.62,2.82,8.35,8.35,0,0,1,5.19,1.5,7.48,7.48,0,0,1,3.27,6.57,8.53,8.53,0,0,1-3,6.36,9.89,9.89,0,0,1-6.51,2.22,6.6,6.6,0,0,1-.69,0,12.47,12.47,0,0,1-6.75,5.34Zm.54-17.43a11.53,11.53,0,0,0-.06,1.26,9.69,9.69,0,0,0,1.92,6.36,5.26,5.26,0,0,0,2.94,1.86,30.38,30.38,0,0,0,1-8.19,33,33,0,0,0-.24-4.29A11.24,11.24,0,0,0,11.78,9.64Zm5.34-3.93c-.45-2.37-1.11-3.3-2.28-3.3-1.44,0-2.61,2.28-3,5.82A14.13,14.13,0,0,1,17.12,5.71Zm3.57,5.85a19.9,19.9,0,0,1-1.32,7.8,5.82,5.82,0,0,0,4.23-2,7.17,7.17,0,0,0,1.65-4.86A6,6,0,0,0,23,7.33a5.34,5.34,0,0,0-2.91-1A22.09,22.09,0,0,1,20.69,11.56Z"/><path d="M11.33,59.74a15.41,15.41,0,0,0,6.6-6.27,18.58,18.58,0,0,0,1.95-8.67,14.31,14.31,0,0,0-.9-5.64,2.23,2.23,0,0,0-2-1.59c-1.35,0-2.61,1.2-3.57,3.42A17.78,17.78,0,0,0,12,47.41a10.94,10.94,0,0,0,.12,1.77c0,.39.06.78.06.9a1.39,1.39,0,0,1-1.38,1.5,2.08,2.08,0,0,1-1.86-1.44,12.1,12.1,0,0,1-.87-4.89,36.16,36.16,0,0,1,1.2-8.46,10.89,10.89,0,0,0,.33-2.34,2.56,2.56,0,0,0-1.68-2.22,1.89,1.89,0,0,1,.6-.12,6,6,0,0,1,3.18,1.29c1,.78,1.5,1.47,1.5,2.19a2,2,0,0,1-.51,1.26,15.18,15.18,0,0,0-2.49,7.95c0,.36,0,.66.09,1.29h0c1.11-3.93,2.22-6.24,3.75-7.89a4.73,4.73,0,0,1,3.72-1.71c3.27,0,5.61,3.75,5.61,9a14.81,14.81,0,0,1-3.81,10.14c-1.89,2-4.2,3.3-8.1,4.44Z"/><path d="M8.39,85.15c2.34,1.17,3.72,1.71,4.32,1.71s1-.39,1.56-1.44a23.63,23.63,0,0,0,2.19-9.12c0-1.74-.48-2.43-1.74-2.43a8.18,8.18,0,0,0-2.64.54c-2.85,7-4.5,10.92-4.89,11.88-1.38,3.18-1.92,3.93-2.76,3.93S3,89.08,3,87.4a2.4,2.4,0,0,1,.87-2.16c1.41-1.47,3.09-4.53,5.46-10a24,24,0,0,0-3.27,1.59,1.57,1.57,0,0,1-.9.33A2.37,2.37,0,0,1,3.5,76a5.5,5.5,0,0,1-1-2.76,1.78,1.78,0,0,1,.18-.78A2.7,2.7,0,0,0,5.3,74.32a24.13,24.13,0,0,0,4.62-.9A16.78,16.78,0,0,0,11,68.59c0-1.2-.72-2-2.43-2.52a2,2,0,0,1,1.17-.36,9.93,9.93,0,0,1,2.61.45c1.71.54,2.61,1.23,2.61,2a1.75,1.75,0,0,1-.39,1A20.15,20.15,0,0,0,12.68,73a9.55,9.55,0,0,1,2.19-.27,3.82,3.82,0,0,1,3.24,1.35c.72.93,1,2.07,1,4.11,0,3.69-1.38,8.4-3,10.44a4.92,4.92,0,0,1-3.75,2,1.16,1.16,0,0,1-1-.48c-.15-.24-.15-.24-.21-1.14-.06-.69-.9-1.71-2.91-3.45ZM21.23,72.58a10.51,10.51,0,0,1,5.91,3,7.28,7.28,0,0,1,2.31,5.1c0,1.86-.78,3-2.1,3A1.82,1.82,0,0,1,26,83c-.66-.6-1.23-.69-4.62-.72l-.06-.3a31,31,0,0,0,4.41-1.32c.15-.09.21-.21.21-.48a9.55,9.55,0,0,0-.78-2.94,7.92,7.92,0,0,0-4.11-4.35Z"/><path d="M6.2,101.77a5.28,5.28,0,0,0,2.13,2.16,9.37,9.37,0,0,0,3.66,1.2c.81-4.29.81-4.29.81-5.19A2.93,2.93,0,0,0,11,97.24a1.26,1.26,0,0,1,.66-.15c2,0,4.89,2.28,4.89,3.84,0,.48-.06.6-.72,1.5a11.75,11.75,0,0,0-.72,1.29L14.63,105q0,.13-.18.45a2.06,2.06,0,0,1,1.71,2c0,.72-.45,1.11-1.26,1.11a8.5,8.5,0,0,1-1.41-.15,32.67,32.67,0,0,0-1.2,4.74,7.27,7.27,0,0,0,1.35.12,1.23,1.23,0,0,0,.33,0,2,2,0,0,1,.33,0,2.7,2.7,0,0,1,2,2.16c0,.69-.54,1.08-1.5,1.08a11.09,11.09,0,0,1-3.06-.54,10.49,10.49,0,0,0-.12,1.41c0,2.73,1.59,4.2,4.5,4.2,3.39,0,5.67-2.13,5.67-5.37,0-2.55-1.41-5.13-4-7.29l.24-.3c4.8,2.43,7.11,5.22,7.11,8.58,0,4-3.42,6.9-8.13,6.9a7.53,7.53,0,0,1-4.53-1.38c-1.56-1.2-2.31-3.09-2.31-5.76,0-.42,0-.81.06-1.56a6.6,6.6,0,0,1-2.19-1.44,4.44,4.44,0,0,1-1.44-3.12c0-1.71,1.23-3,3.51-3.84a6.58,6.58,0,0,1-2.94-2.28,7.23,7.23,0,0,1-1.26-2.73Zm2,7.17a1.89,1.89,0,0,0-.57,1.32c0,1.08,1,2,2.94,2.55.18-1.38.51-3.39.81-4.71C9.68,108.1,8.81,108.34,8.18,108.94Z"/><path d="M6,133.42c2.46,1.23,3.45,2.49,4.11,5.37a15.62,15.62,0,0,1,6-1.86,17.56,17.56,0,0,0,.45-3.48c0-.87-.39-1.2-1.44-1.2a5,5,0,0,0-.87.06l-.06-.27a4.75,4.75,0,0,1,2.46-.84,4.13,4.13,0,0,1,2.43.87,1.8,1.8,0,0,1,.72,1.47,14.07,14.07,0,0,1-.72,3.36c5.13.45,8.67,4,8.67,8.58,0,3.78-2.19,6.81-6.24,8.55a21.46,21.46,0,0,1-7.17,1.56l-.06-.3c4-1.29,5.91-2.4,7.65-4.47a9.66,9.66,0,0,0,2.25-6.24,6.69,6.69,0,0,0-2.1-5.22A5.62,5.62,0,0,0,18.77,138a37.71,37.71,0,0,1-5.13,9.87,7.07,7.07,0,0,0,1,1.29c.84.93,1,1.26,1,1.77a1,1,0,0,1-1.08,1c-.81,0-1.77-.63-2.82-1.89a12.2,12.2,0,0,1-2.4,2.13,4.39,4.39,0,0,1-2.55,1c-.9,0-1.38-.54-1.56-1.71a2.55,2.55,0,0,0-1-1.92,3.13,3.13,0,0,1-.93-2.16,8,8,0,0,1,1.38-4.05,13.33,13.33,0,0,1,3.51-3.48c-.69-3.75-1.08-4.71-2.52-6.21Zm-.12,14.31c0,1.23.72,2.52,1.44,2.52s2-.84,3.18-2.13a27.54,27.54,0,0,1-1.83-6.51A8.43,8.43,0,0,0,5.87,147.73Zm5.4-4.77a18.3,18.3,0,0,0,1.17,3A29.59,29.59,0,0,0,15.89,138a11.06,11.06,0,0,0-5.46,2.1C10.61,140.65,10.61,140.65,11.27,143Z"/><path d="M38.42,7.68c-.92,0-1,.09-1,1h-.26V5.36h.26c0,.93.12,1,1,1h1.9l3-1.84c.74-.45.93-.67,1-1.14h.26V6.55h-.26c0-.54-.14-.76-.41-.76s-.31.06-.73.32L41,7.46l2.16,1.35a1.68,1.68,0,0,0,.74.28.44.44,0,0,0,.4-.33,2.27,2.27,0,0,0,.09-.58h.26v2.64h-.26c-.07-.65-.38-1-1.31-1.62l-2.4-1.52Z"/><path d="M37,14.41a9.82,9.82,0,0,1,1-.05A2.17,2.17,0,0,1,37,12.52a1.36,1.36,0,0,1,.75-1.29A2.88,2.88,0,0,1,39,11h.14l2,0h.08a1.4,1.4,0,0,0,.73-.11c.12-.09.15-.17.16-.62h.24l.13,2c-.72,0-1.1-.07-2-.08H39.23a3.4,3.4,0,0,0-1.22.13.67.67,0,0,0-.49.7,1.21,1.21,0,0,0,.84,1.08,2.82,2.82,0,0,0,1.19.19h1.58c.55,0,.75,0,.86-.15s.1-.16.11-.58h.24l.13,2c-1.37-.06-1.37-.06-2-.06H38.39c-.87,0-1,.1-1,.65h-.23Z"/><path d="M42.47,18.66l-.81,0h-.3a1.78,1.78,0,0,1,1.13,1.48.79.79,0,0,1-.76.85.64.64,0,0,1-.61-.72.41.41,0,0,1,.32-.47c.28-.08.35-.13.35-.29v0c0-.19-.18-.39-.47-.56a2.25,2.25,0,0,0-1.11-.24H38.36c-.9,0-1,.06-1,.8h-.24V16.74h.24c0,.69.11.76,1,.76h2.77c.85,0,1-.09,1-.72h.24Z"/><path d="M42.47,23.36c-.6,0-1.3-.06-1.94-.06H38.36c-.89,0-1,.07-1,.78h-.24V21.3h.24c0,.71.11.78,1,.78h2.77c.89,0,1,0,1-.75h.24Zm2.3-.66a.72.72,0,1,1-.72-.72A.72.72,0,0,1,44.77,22.7Z"/><path d="M38.36,26.55c-.9,0-1,.07-1,.75h-.24V24.59h.24c0,.68.11.75,1,.75h5c.88,0,1-.07,1-.76h.23l.11,2c-.74,0-1.38-.06-2.05-.06H39.51l1.54,1.34a1.08,1.08,0,0,0,.63.31c.27,0,.4-.21.43-.69h.23v2.58h-.23a2.23,2.23,0,0,0-.26-.84,3.2,3.2,0,0,0-.81-1l-.41-.37-2.39,1.39c-.62.37-.8.58-.9,1h-.22V28.51l.89-.44,1.72-1-.63-.56Z"/><path d="M37.15,35.89c-.07-.59-.12-1.12-.12-1.38s.15-.42.76-.47A2.23,2.23,0,0,1,37,32.33a1.4,1.4,0,0,1,1.47-1.54c.86,0,1.39.53,1.6,1.6A12.16,12.16,0,0,1,40.24,34h.65c1.06,0,1.37-.18,1.37-.78a.69.69,0,0,0-.34-.67,1.51,1.51,0,0,0-.71-.16c-.36,0-.49-.19-.49-.61s.16-.7.46-.7a1.15,1.15,0,0,1,.93.62,3.06,3.06,0,0,1,.38,1.64,2.13,2.13,0,0,1-.41,1.48,1.58,1.58,0,0,1-1.24.39H38.56c-1.1,0-1.16,0-1.17.68ZM40,34c-.11-1.45-.48-2-1.41-2-.71,0-1.18.32-1.18.81a1.09,1.09,0,0,0,.66,1,2.56,2.56,0,0,0,1.16.18Z"/><path d="M41.48,38.43a2,2,0,0,1,1,1.74,1.3,1.3,0,0,1-1.05,1.42,1.87,1.87,0,0,1,1.05,1.72,1.51,1.51,0,0,1-.58,1.3,2.14,2.14,0,0,1-1.35.3h-2.2c-.89,0-1,.07-1,.76h-.24V43h.24c0,.66.11.73,1,.73h2.19c1.06,0,1.48-.24,1.48-.83a1,1,0,0,0-.55-.89,1.77,1.77,0,0,0-1-.31H38.36c-.89,0-1,.07-1,.74h-.24V39.72h.24c0,.66.11.73,1,.73h2.2c1,0,1.47-.26,1.47-.81s-.74-1.21-1.64-1.21h-2c-.9,0-1,.07-1,.73h-.24V36.45h.24c0,.69.1.76,1,.76h2.78c.84,0,1-.08,1-.74h.24l.13,2Z"/><path d="M41.78,47.06a2.57,2.57,0,0,1,.71,1.87,2.5,2.5,0,0,1-2.74,2.59,3,3,0,0,1-2-.66,2.66,2.66,0,0,1-.81-2A2.55,2.55,0,0,1,37.72,47a3,3,0,0,1,2-.69A3.08,3.08,0,0,1,41.78,47.06Zm-4.59,1.86c0,.87.78,1.26,2.52,1.26s2.55-.4,2.55-1.27a1,1,0,0,0-.58-.93,4.42,4.42,0,0,0-1.94-.32C38,47.66,37.19,48.06,37.19,48.92Z"/><path d="M41.48,54.2a2,2,0,0,1,1,1.74,1.3,1.3,0,0,1-1.05,1.42,1.87,1.87,0,0,1,1.05,1.72,1.51,1.51,0,0,1-.58,1.3,2.14,2.14,0,0,1-1.35.3h-2.2c-.89,0-1,.07-1,.76h-.24V58.73h.24c0,.66.11.73,1,.73h2.19c1.06,0,1.48-.24,1.48-.83a1,1,0,0,0-.55-.89,1.77,1.77,0,0,0-1-.31H38.36c-.89,0-1,.07-1,.74h-.24V55.49h.24c0,.66.11.73,1,.73h2.2c1,0,1.47-.26,1.47-.81s-.74-1.21-1.64-1.21h-2c-.9,0-1,.07-1,.73h-.24V52.22h.24c0,.69.1.76,1,.76h2.78c.84,0,1-.08,1-.74h.24l.13,1.95Z"/><path d="M39.94,63.38a3.91,3.91,0,0,0-1.59.26,1.44,1.44,0,0,0-1,1.36,1.86,1.86,0,0,0,1.14,1.65l-.16.25A2.26,2.26,0,0,1,37,64.7a2.5,2.5,0,0,1,2.74-2.61,2.49,2.49,0,0,1,2.78,2.51,2,2,0,0,1-1.32,2.07,3.66,3.66,0,0,1-1.23.18Zm.29,2.22a3.9,3.9,0,0,0,1.25-.17c.53-.19.78-.47.78-.86s-.3-.76-.88-1a4.23,4.23,0,0,0-1.15-.21Z"/></svg>