<svg xmlns="http://www.w3.org/2000/svg" viewBox="0 0 45 261"><title>phraseImg</title><path d="M19.58,18.58A9.65,9.65,0,0,0,23.9,17a6.18,6.18,0,0,0,2.79-5A5.39,5.39,0,0,0,24.05,7.3a15.15,15.15,0,0,0-7.83-1.74c-6.66,0-10.77,2.7-10.77,7.11a7.29,7.29,0,0,0,3.09,5.85A10.29,10.29,0,0,0,11,19.84l-.48.87c-4.26-1.62-6.33-4.53-6.33-9A10.49,10.49,0,0,1,7,4.33c2-2,5-3.09,8.64-3.09,7.23,0,11.91,4.14,11.91,10.56a15.51,15.51,0,0,1-.87,5A4.41,4.41,0,0,0,26.51,18a4.33,4.33,0,0,0,.39,1.62H19.58Z"/><path d="M24,29.62a10,10,0,0,1,3.54,8,10,10,0,0,1-3.54,8,13,13,0,0,1-8.13,2.55,13,13,0,0,1-8.16-2.55,10,10,0,0,1-3.54-8,10.06,10.06,0,0,1,3.54-8,13.3,13.3,0,0,1,8.16-2.55A13.14,13.14,0,0,1,24,29.62ZM7.82,33A4.94,4.94,0,0,0,5,37.66a4.93,4.93,0,0,0,2.82,4.65,17.17,17.17,0,0,0,8.07,1.53,17.12,17.12,0,0,0,8-1.53,4.88,4.88,0,0,0,2.82-4.65A4.94,4.94,0,0,0,23.93,33a17.28,17.28,0,0,0-8-1.53A17.34,17.34,0,0,0,7.82,33Z"/><path d="M22.58,55.48c3-1.08,3.54-1.62,3.75-3.54h.78v9.78h-.78c0-.21,0-.42-.06-.54-.06-1-.21-1.44-.54-1.74a1.11,1.11,0,0,0-.81-.33,9.55,9.55,0,0,0-2.7.63L8.42,64.51l13.41,4.83a9,9,0,0,0,2.82.63,1.43,1.43,0,0,0,1.44-1.14,8.53,8.53,0,0,0,.24-1.71h.78v7.77h-.78a3.3,3.3,0,0,0-1-2.4,11.38,11.38,0,0,0-3.72-2l-17-6.18V61.9Z"/><path d="M5.45,79.78c.09,2.61.36,2.85,3.12,2.85H23.21c2.73,0,3-.24,3.12-2.73h.78v9.36h-.78c-.09-2.49-.39-2.73-3.12-2.73H8.57c-2.76,0-3,.27-3.12,2.85H4.67v-9.6Z"/><path d="M5.45,94.9c.06,2.43.36,2.7,3.12,2.7H23.21c2.76,0,3.09-.3,3.12-2.7h.78v9c0,3.42-.54,6.09-1.65,7.86-1.8,3-4.74,4.38-9.21,4.38-4.86,0-8.28-1.56-10-4.62-1.08-1.86-1.59-4.47-1.59-8V94.9Zm.09,8.73a8.12,8.12,0,0,0,2.07,6c1.62,1.56,4.44,2.37,8.13,2.37,3.36,0,5.85-.63,7.71-1.92s2.79-3.57,2.79-6.75v-1.8H5.54Z"/><path d="M14.69,123.07v7.05H12.17v-7.05Z"/><path d="M5.51,139.54a4.21,4.21,0,0,0,.36,2.25c.36.69,1.14.9,3.06.9h13.8a8.5,8.5,0,0,0,1.8-.09c.66-.12.81-.51.81-2v-.81h.84c.24,2.85.54,5,.9,7q-3.19-.27-7.56-.27H8.93c-1.83,0-2.58.18-3,.72s-.39.78-.42,2.31H4.67v-10Z"/><path d="M12.53,165.34c0-4,2.82-6.72,7-6.72,4.59,0,7.65,3.09,7.65,7.74a6.79,6.79,0,0,1-2.94,6c-1.95,1.32-4.35,1.89-7.77,1.89-8,0-12.24-2.94-12.24-8.46,0-3.66,1.62-6.39,3.81-6.39,1.17,0,1.86.81,1.86,2.16a2.1,2.1,0,0,1-.57,1.65c-.27.18-.33.18-1.62.27-1.77.12-2.73,1-2.73,2.4,0,1.8,1.38,3.09,4,3.72a25.9,25.9,0,0,0,5.7.63A6.39,6.39,0,0,1,12.53,165.34Zm3.09,4.32a6,6,0,0,0,3,.6,15,15,0,0,0,5.46-1,3.39,3.39,0,0,0,2.28-3c0-2.28-2.55-3.66-6.81-3.66a7.86,7.86,0,0,0-4.68,1.17,3.13,3.13,0,0,0-1.38,2.55A4,4,0,0,0,15.62,169.66Z"/><path d="M42.09,9.64a3.22,3.22,0,0,0,1.44-.53,2.06,2.06,0,0,0,.93-1.68,1.8,1.8,0,0,0-.88-1.55A5,5,0,0,0,41,5.3c-2.22,0-3.59.9-3.59,2.37a2.43,2.43,0,0,0,1,1.95,3.43,3.43,0,0,0,.82.44l-.16.29a3,3,0,0,1-2.11-3,3.5,3.5,0,0,1,.94-2.46,4,4,0,0,1,2.88-1c2.41,0,4,1.38,4,3.52A5.17,5.17,0,0,1,44.46,9a1.47,1.47,0,0,0-.06.42,1.58,1.58,0,0,0,.12.54H42.09Z"/><path d="M41.78,11.9a2.57,2.57,0,0,1,.71,1.87,2.5,2.5,0,0,1-2.74,2.59,3,3,0,0,1-2-.66,2.66,2.66,0,0,1-.81-2,2.55,2.55,0,0,1,.76-1.88,3,3,0,0,1,2-.69A3.08,3.08,0,0,1,41.78,11.9Zm-4.59,1.86c0,.87.78,1.26,2.52,1.26s2.55-.4,2.55-1.27a1,1,0,0,0-.58-.93,4.42,4.42,0,0,0-1.94-.32C38,12.5,37.19,12.9,37.19,13.76Z"/><path d="M42.47,19l-.81,0h-.3a1.78,1.78,0,0,1,1.13,1.48.79.79,0,0,1-.76.85.64.64,0,0,1-.61-.72.41.41,0,0,1,.32-.47c.28-.08.35-.13.35-.29v0c0-.19-.18-.39-.47-.56A2.25,2.25,0,0,0,40.21,19H38.36c-.9,0-1,.06-1,.8h-.24V17.05h.24c0,.69.11.76,1,.76h2.77c.85,0,1-.09,1-.72h.24Z"/><path d="M41.78,22.51a2.57,2.57,0,0,1,.71,1.87A2.5,2.5,0,0,1,39.75,27a3,3,0,0,1-2-.66,2.66,2.66,0,0,1-.81-2,2.55,2.55,0,0,1,.76-1.88,3,3,0,0,1,2-.69A3.08,3.08,0,0,1,41.78,22.51Zm-4.59,1.86c0,.87.78,1.26,2.52,1.26s2.55-.4,2.55-1.27a1,1,0,0,0-.58-.93,4.42,4.42,0,0,0-1.94-.32C38,23.11,37.19,23.51,37.19,24.37Z"/><path d="M41.48,29.65a1.91,1.91,0,0,1,1,1.78,1.42,1.42,0,0,1-.68,1.36,2.22,2.22,0,0,1-1.23.25H38.36c-.89,0-1,.07-1,.76h-.24V31.08h.24c0,.67.12.75,1,.75h2.16c1.08,0,1.53-.26,1.53-.88a1.18,1.18,0,0,0-.66-1,2.32,2.32,0,0,0-1-.27h-2c-.9,0-1,.07-1,.75h-.24V27.67h.24c0,.69.11.76,1,.76h2.77c.85,0,1-.08,1-.74h.24l.13,1.95Z"/><path d="M37.15,39.49c-.07-.59-.12-1.12-.12-1.38s.15-.42.76-.47A2.23,2.23,0,0,1,37,35.93a1.4,1.4,0,0,1,1.47-1.54c.86,0,1.39.53,1.6,1.6a12.16,12.16,0,0,1,.19,1.64h.65c1.06,0,1.37-.18,1.37-.78a.69.69,0,0,0-.34-.67,1.51,1.51,0,0,0-.71-.16c-.36,0-.49-.19-.49-.61s.16-.7.46-.7a1.15,1.15,0,0,1,.93.62A3.06,3.06,0,0,1,42.49,37a2.13,2.13,0,0,1-.41,1.48,1.58,1.58,0,0,1-1.24.39H38.56c-1.1,0-1.16,0-1.17.68ZM40,37.63c-.11-1.45-.48-2-1.41-2-.71,0-1.18.32-1.18.81a1.09,1.09,0,0,0,.66,1,2.56,2.56,0,0,0,1.16.18Z"/><path d="M40.88,44.08a2,2,0,0,0,.68.13.51.51,0,0,0,.47-.33,1.39,1.39,0,0,0,.08-.48h.23v2.22H42.1c-.05-.55-.33-.82-1.19-1.14l-3.86-1.41v-.78l4.22-1.6c.64-.25.8-.4.84-.83h.23v2.69H42.1c0-.44-.16-.66-.42-.66a2,2,0,0,0-.51.11l-3,1.1Z"/><path d="M42.47,48.05c-.6,0-1.3-.06-1.94-.06H38.36c-.89,0-1,.07-1,.78h-.24V46h.24c0,.71.11.78,1,.78h2.77c.89,0,1-.05,1-.75h.24Zm2.3-.66a.72.72,0,1,1-.72-.72A.72.72,0,0,1,44.77,47.39Z"/><path d="M42.47,51.23l-.81,0h-.3a1.78,1.78,0,0,1,1.13,1.48.79.79,0,0,1-.76.85.64.64,0,0,1-.61-.72.41.41,0,0,1,.32-.47c.28-.08.35-.13.35-.29v0c0-.19-.18-.39-.47-.56a2.25,2.25,0,0,0-1.11-.24H38.36c-.9,0-1,.06-1,.8h-.24V49.31h.24c0,.69.11.76,1,.76h2.77c.85,0,1-.09,1-.72h.24Z"/><path d="M37,57.8a9.82,9.82,0,0,1,1,0A2.17,2.17,0,0,1,37,55.91a1.36,1.36,0,0,1,.75-1.29A2.88,2.88,0,0,1,39,54.43h.14l2,0h.08a1.4,1.4,0,0,0,.73-.11c.12-.09.15-.17.16-.62h.24l.13,2c-.72-.05-1.1-.07-2-.08H39.23a3.4,3.4,0,0,0-1.22.13.67.67,0,0,0-.49.7,1.21,1.21,0,0,0,.84,1.08,2.82,2.82,0,0,0,1.19.19h1.58c.55,0,.75,0,.86-.15s.1-.16.11-.58h.24l.13,2C41.1,59,41.1,59,40.47,59H38.39c-.87,0-1,.1-1,.65h-.23Z"/><path d="M38.88,60.45v.36a2.35,2.35,0,0,0-1.05.3,1.24,1.24,0,0,0-.63,1.12c0,.61.32,1,.87,1s.71-.26,1.25-1.42A2.86,2.86,0,0,1,40,60.71a1.23,1.23,0,0,1,.9-.35c1,0,1.59.72,1.59,1.85a4.75,4.75,0,0,1-.08.71,2.26,2.26,0,0,0-.06.44,1.31,1.31,0,0,0,.1.48l-1.75-.09v-.37c1-.07,1.56-.49,1.56-1.21a.81.81,0,0,0-.83-.89.7.7,0,0,0-.61.31,4.39,4.39,0,0,0-.58,1.12c-.47,1-.86,1.35-1.61,1.35A1.6,1.6,0,0,1,37,62.26a5.2,5.2,0,0,1,.12-1,2.19,2.19,0,0,0,0-.36,2.12,2.12,0,0,0-.06-.51Z"/><path d="M44.71,73.38c-.75,0-1.27-.06-2-.06h-4c-.81,0-1.08,0-1.2.19s-.07.14-.08.47h-.23L37,72.22l.73,0A2,2,0,0,1,37,70.54a2,2,0,0,1,.6-1.46,2.9,2.9,0,0,1,2-.66c1.77,0,2.9.9,2.9,2.3a1.84,1.84,0,0,1-.57,1.38h1.44c.93,0,1-.06,1-.76h.23Zm-2.49-2.44c0-.76-.89-1.19-2.46-1.19a3.88,3.88,0,0,0-2.12.46.83.83,0,0,0-.36.69c0,.77.94,1.23,2.53,1.23S42.22,71.71,42.22,70.94Z"/><path d="M42.47,76.53c-.6,0-1.3-.06-1.94-.06H38.36c-.89,0-1,.07-1,.78h-.24V74.47h.24c0,.71.11.78,1,.78h2.77c.89,0,1,0,1-.75h.24Zm2.3-.66a.72.72,0,1,1-.72-.72A.72.72,0,0,1,44.77,75.87Z"/><path d="M38.88,78.11v.36a2.35,2.35,0,0,0-1.05.3,1.24,1.24,0,0,0-.63,1.12c0,.61.32,1,.87,1s.71-.26,1.25-1.42A2.86,2.86,0,0,1,40,78.37a1.23,1.23,0,0,1,.9-.35c1,0,1.59.72,1.59,1.85a4.75,4.75,0,0,1-.08.71,2.26,2.26,0,0,0-.06.44,1.31,1.31,0,0,0,.1.48l-1.75-.09V81c1-.07,1.56-.49,1.56-1.21a.81.81,0,0,0-.83-.89.7.7,0,0,0-.61.31,4.39,4.39,0,0,0-.58,1.12c-.47,1-.86,1.35-1.61,1.35A1.6,1.6,0,0,1,37,79.92a5.2,5.2,0,0,1,.12-1,2.19,2.19,0,0,0,0-.36,2.12,2.12,0,0,0-.06-.51Z"/><path d="M39.94,84a3.91,3.91,0,0,0-1.59.26,1.44,1.44,0,0,0-1,1.36,1.86,1.86,0,0,0,1.14,1.65l-.16.25A2.26,2.26,0,0,1,37,85.31a2.5,2.5,0,0,1,2.74-2.61,2.49,2.49,0,0,1,2.78,2.51,2,2,0,0,1-1.32,2.07,3.66,3.66,0,0,1-1.23.18Zm.29,2.22A3.9,3.9,0,0,0,41.48,86c.53-.19.78-.47.78-.86s-.3-.76-.88-1A4.23,4.23,0,0,0,40.23,84Z"/><path d="M37.15,93.33C37.08,92.74,37,92.21,37,92s.15-.42.76-.47A2.23,2.23,0,0,1,37,89.77a1.4,1.4,0,0,1,1.47-1.54c.86,0,1.39.53,1.6,1.6a12.16,12.16,0,0,1,.19,1.64h.65c1.06,0,1.37-.18,1.37-.78a.69.69,0,0,0-.34-.67,1.51,1.51,0,0,0-.71-.16c-.36,0-.49-.19-.49-.61s.16-.7.46-.7a1.15,1.15,0,0,1,.93.62,3.06,3.06,0,0,1,.38,1.64,2.13,2.13,0,0,1-.41,1.48,1.58,1.58,0,0,1-1.24.39H38.56c-1.1,0-1.16,0-1.17.68ZM40,91.47c-.11-1.45-.48-2-1.41-2-.71,0-1.18.32-1.18.81a1.09,1.09,0,0,0,.66,1,2.56,2.56,0,0,0,1.16.18Z"/><path d="M38.88,94.2v.36a2.35,2.35,0,0,0-1.05.3A1.24,1.24,0,0,0,37.2,96c0,.61.32,1,.87,1s.71-.26,1.25-1.42A2.86,2.86,0,0,1,40,94.46a1.23,1.23,0,0,1,.9-.35c1,0,1.59.72,1.59,1.85a4.75,4.75,0,0,1-.08.71,2.26,2.26,0,0,0-.06.44,1.31,1.31,0,0,0,.1.48L40.7,97.5v-.37c1-.07,1.56-.49,1.56-1.21a.81.81,0,0,0-.83-.89.7.7,0,0,0-.61.31,4.39,4.39,0,0,0-.58,1.12c-.47,1-.86,1.35-1.61,1.35A1.6,1.6,0,0,1,37,96a5.2,5.2,0,0,1,.12-1,2.19,2.19,0,0,0,0-.36,2.12,2.12,0,0,0-.06-.51Z"/><path d="M39.94,100.08a3.91,3.91,0,0,0-1.59.26,1.44,1.44,0,0,0-1,1.36,1.86,1.86,0,0,0,1.14,1.65l-.16.25A2.26,2.26,0,0,1,37,101.4a2.5,2.5,0,0,1,2.74-2.61,2.49,2.49,0,0,1,2.78,2.51,2,2,0,0,1-1.32,2.07,3.66,3.66,0,0,1-1.23.18Zm.29,2.22a3.9,3.9,0,0,0,1.25-.17c.53-.19.78-.47.78-.86s-.3-.76-.88-1a4.23,4.23,0,0,0-1.15-.21Z"/><path d="M37.12,107.78a4.35,4.35,0,0,1,2,.67,9.07,9.07,0,0,1,2,2,3,3,0,0,0,.92.83,2.07,2.07,0,0,0,.92.21c.87,0,1.44-.47,1.44-1.18a.91.91,0,0,0-.67-.93,2.74,2.74,0,0,0-.91-.11c-.39,0-.55-.2-.55-.64s.17-.71.53-.71a1.73,1.73,0,0,1,1.41.83,2.9,2.9,0,0,1,.45,1.66c0,1.51-.69,2.41-1.85,2.41a1.85,1.85,0,0,1-1.26-.45,4.2,4.2,0,0,1-.82-1.1,9.45,9.45,0,0,0-1.36-2.08,2.67,2.67,0,0,0-1.13-.79v2.9c0,.82.26,1.11,1.16,1.29l-.07.34-2.16-.35Z"/><path d="M43.62,114.55a2.4,2.4,0,0,1,0,3.87,5.07,5.07,0,0,1-2.84.73,5,5,0,0,1-2.83-.73,2.39,2.39,0,0,1,0-3.87,5.16,5.16,0,0,1,2.83-.73A5.09,5.09,0,0,1,43.62,114.55Zm-5.54.92q-.87.33-.87,1c0,.51.34.86,1,1.08a8.62,8.62,0,0,0,2.53.26,7.86,7.86,0,0,0,2.7-.32c.59-.22.87-.55.87-1,0-.93-1.09-1.34-3.57-1.34A8,8,0,0,0,38.08,115.47Z"/><path d="M37.4,121a1.4,1.4,0,0,0,.12.75c.12.23.38.3,1,.3h4.6a2.83,2.83,0,0,0,.6,0c.22,0,.27-.17.27-.68v-.27h.28c.08,1,.18,1.68.3,2.34q-1.06-.09-2.52-.09H38.54c-.61,0-.86.06-1,.24s-.13.26-.14.77h-.28V121Z"/><path d="M39.74,128.38a2.17,2.17,0,0,1,2.32-2.24,2.42,2.42,0,0,1,2.55,2.58,2.26,2.26,0,0,1-1,2,4.42,4.42,0,0,1-2.59.63c-2.66,0-4.08-1-4.08-2.82,0-1.22.54-2.13,1.27-2.13.39,0,.62.27.62.72a.7.7,0,0,1-.19.55c-.09.06-.11.06-.54.09-.59,0-.91.32-.91.8s.46,1,1.32,1.24a8.63,8.63,0,0,0,1.9.21A2.13,2.13,0,0,1,39.74,128.38Zm1,1.44a2,2,0,0,0,1,.2,5,5,0,0,0,1.82-.32,1.13,1.13,0,0,0,.76-1c0-.76-.85-1.22-2.27-1.22a2.62,2.62,0,0,0-1.56.39,1,1,0,0,0-.46.85A1.33,1.33,0,0,0,40.77,129.82Z"/></svg>