<svg xmlns="http://www.w3.org/2000/svg" viewBox="0 0 45 261"><title>phraseImg</title><path d="M11.17,1.07A8.29,8.29,0,0,1,14,1.63c1.1.4,1.6.9,1.6,1.54,0,.31,0,.31-.31,1A16.29,16.29,0,0,0,14.47,10c0,.89.31,1.31.92,1.31a7.22,7.22,0,0,0,2.55-.92,5.76,5.76,0,0,1,2.44-.78,1.83,1.83,0,0,1,1.85,1.76,1.19,1.19,0,0,1-.76,1.18,12.69,12.69,0,0,1-2.8.75,19.68,19.68,0,0,0-7.05,3,3.94,3.94,0,0,0-2,3.19c0,1.74,1.45,2.69,4.11,2.69a25.28,25.28,0,0,0,6.64-1,2.72,2.72,0,0,1,.95-.17,2.59,2.59,0,0,1,2,.93,1.65,1.65,0,0,1,.53,1.26c0,.64-.47,1-1.48,1.28a32.51,32.51,0,0,1-5.57.42,14.76,14.76,0,0,1-5.63-.81A4.78,4.78,0,0,1,8,19.58c0-2.69,2.24-5.21,6.58-7.47a.75.75,0,0,1-.2,0,2.39,2.39,0,0,1-1.51-.58c-.67-.65-.81-1.46-.92-5-.11-2.68-.17-3.24-.36-3.72-.26-.64-.87-1-2.16-1.2A2,2,0,0,1,11.17,1.07Z"/><path d="M12.23,56.07c6.58-1.49,9.88-4.18,9.88-8a3.56,3.56,0,0,0-3.89-3.58,10.56,10.56,0,0,0-6.58,2.66,14.92,14.92,0,0,0-2.88,3c-.56.73-.93,1-1.4,1-.81,0-1.54-1.23-1.54-2.61,0-.86.11-1,1.34-1.93A54.58,54.58,0,0,0,13.55,40a39,39,0,0,0,3.94-5.18.05.05,0,0,0,0-.05h-.06l-.67.25a46.86,46.86,0,0,0-4.51,1.88,2.55,2.55,0,0,1-1.26.44,2,2,0,0,1-1.37-.78,4.91,4.91,0,0,1-1.26-2.86,2,2,0,0,1,.23-.89c.75,1.48,1.34,2,2.32,2a21.62,21.62,0,0,0,4.76-1,5.46,5.46,0,0,0,1.9-.81,1.54,1.54,0,0,1,.79-.28,3.61,3.61,0,0,1,2.24,1.62,2.2,2.2,0,0,1,.67,1.38c0,.36-.2.58-.9,1.06a23.18,23.18,0,0,0-3.24,2.83c-2.19,2-3.5,3.36-6,6.07l0,0a13.85,13.85,0,0,1,7.76-2.63c3.95,0,6.66,2.21,6.66,5.4,0,2.61-1.65,4.9-4.53,6.28a22.14,22.14,0,0,1-8.68,1.56Z"/><path d="M5.43,70.26A17.06,17.06,0,0,0,9.49,69c.17-1.85.25-3,.25-3.72a2.85,2.85,0,0,0-1.82-2.75,1.41,1.41,0,0,1,.7-.16,6.05,6.05,0,0,1,3.16,1.4,2.38,2.38,0,0,1,1.07,1.82c0,.3-.09.5-.45,1.14a8.94,8.94,0,0,0-.56,1.71c.78.65,1,1,1,1.37s-.11.45-.47.87c-.2.23-.56.67-1.09,1.37a1.88,1.88,0,0,0-.06.59c0,.28,0,.34-.06.62a35.73,35.73,0,0,1,4.37-3.39,8.87,8.87,0,0,1,4.73-1.62c3.59,0,5.88,3.16,5.88,8.17a14,14,0,0,1-.53,4c2.27,1.15,2.91,1.91,2.91,3.42,0,.87-.47,1.68-1,1.68-.28,0-.51-.14-.87-.59a10.68,10.68,0,0,0-2.1-1.9,4.8,4.8,0,0,1-1.76,1.79,6,6,0,0,1-3.31.92c-2.46,0-4.14-1.28-4.14-3.16,0-2.07,2-3.56,4.76-3.56a8.92,8.92,0,0,1,2.74.42,17.7,17.7,0,0,0,.34-3.58c0-4.26-1.18-6.5-3.45-6.5-1.23,0-2.46.56-4.25,2a27.11,27.11,0,0,0-4.34,4.2c0,.37,0,.68,0,.84,0,1.26.06,2.19.34,5.66,0,.36,0,.7,0,1.12,0,2-.86,3.53-2,3.53a1,1,0,0,1-.9-.48,2.81,2.81,0,0,1-.28-.84,8.65,8.65,0,0,0-2.07-3.83c-.7,1.51-1,1.93-1.54,1.93s-1.29-1.35-1.29-2.61c0-.5.14-.75.67-1.26A9,9,0,0,0,5.43,78a54.12,54.12,0,0,0,3.86-5.4c.08-1.21.08-1.29.14-2a16.79,16.79,0,0,0-2.55,1.54,1.85,1.85,0,0,1-1.12.48c-.92,0-2.32-1.85-2.32-3a2.19,2.19,0,0,1,.11-.59C4.14,69.84,4.7,70.26,5.43,70.26ZM6.49,81.07A9.6,9.6,0,0,0,9,82.55c0-.33,0-1.4.06-3.13,0-1.21,0-1.93.08-3.22C8.59,77.12,7,80,6.49,81.07ZM19,80.87c-1.69,0-2.81.68-2.81,1.74,0,.9.87,1.48,2.24,1.48A3.89,3.89,0,0,0,21,83.28c.54-.42.62-.56,1.18-1.68A7,7,0,0,0,19,80.87Z"/><path d="M8.2,105.46a11.13,11.13,0,0,0-.11,1.37c0,3.56,2,5,6.8,5a14.78,14.78,0,0,0,5.69-.92,2.3,2.3,0,0,1,1-.26c1.37,0,2.86,1.15,2.86,2.19a1.37,1.37,0,0,1-1,1.23,21.84,21.84,0,0,1-6.72.76c-3.31,0-5.63-.48-7.11-1.43a5.4,5.4,0,0,1-2.52-4.71,9,9,0,0,1,.72-3.38Zm.61-10.7a6.55,6.55,0,0,0,4.32,1.18A22,22,0,0,0,17,95.55,8.71,8.71,0,0,0,19,95a2.18,2.18,0,0,1,.61-.11c1.24,0,2.69,1.26,2.69,2.29a1,1,0,0,1-.73.93,6.71,6.71,0,0,1-1.7.33A40.12,40.12,0,0,0,11.42,101l-.17-.31c.76-.53,2.38-1.57,4.2-2.69h-.84A8.32,8.32,0,0,1,11,97.25a5.42,5.42,0,0,1-2.41-2.32Z"/><path d="M6.52,129.65a35.9,35.9,0,0,0,8.82-3.89c1.51-1,2-1.32,2-1.68s-.56-1-1.35-1.32a1.26,1.26,0,0,1,.68-.16,6.2,6.2,0,0,1,2.66.92c1.14.67,1.79,1.32,1.79,1.79S20.8,126,20,126.4a45.89,45.89,0,0,1-4.34,1.71,5.94,5.94,0,0,1,2,.92c.45.31.62.57.62.93a2,2,0,0,1-.11.64,12.62,12.62,0,0,0-.23,1.68c4.63-.42,4.63-.42,5.46-.84a1.56,1.56,0,0,1,.65-.14,4.57,4.57,0,0,1,2.24.84c.73.45,1,.81,1,1.35s-.42.81-1,.81a6.16,6.16,0,0,1-1.09-.11,26,26,0,0,0-4.48-.31c-.65,0-1.32,0-2.89.05-.53,4-1.34,6.39-3.1,8.8a14.38,14.38,0,0,1-5.32,4.56l-.23-.22a14.61,14.61,0,0,0,4-5.72,22.18,22.18,0,0,0,1.68-7.11,28.56,28.56,0,0,0-4.12.9,12.49,12.49,0,0,0-2.71,1,2.33,2.33,0,0,1-1,.25c-1.24,0-3.17-2.18-3.17-3.58a1.09,1.09,0,0,1,.11-.45,3,3,0,0,0,2.55,1.43,30,30,0,0,0,4.2-.54l4.23-.61a10.11,10.11,0,0,0,.06-1.29c0-1.65-.17-2.18-.82-2.72A33.93,33.93,0,0,1,6.6,130Z"/><path d="M20.21,164a24.81,24.81,0,0,0,3.11-4.17,5.87,5.87,0,0,0,.39-.89c0-.12-.06-.14-.22-.14a49.32,49.32,0,0,0-6.14,1.82c.73,3.16,1.24,5,2.58,9.77a4.41,4.41,0,0,1,.22,1.2c0,.65-.33,1-.89,1a3.29,3.29,0,0,1-2.41-2.55v-.17a2.27,2.27,0,0,0,0-.39,52.71,52.71,0,0,0-1.4-8.23,13.66,13.66,0,0,0-3.22,1.57,1.48,1.48,0,0,1-.87.33c-1,0-2.8-2-2.8-3.19a3,3,0,0,1,.08-.48,2.43,2.43,0,0,0,2.08,1.21,19.41,19.41,0,0,0,4.31-1c-1.07-4-1.43-4.53-3.36-4.79a2,2,0,0,1,1.68-.58,8.81,8.81,0,0,1,2.83.5,1,1,0,0,1,.75,1,1.31,1.31,0,0,1-.08.45,3.12,3.12,0,0,0-.11.78,13.09,13.09,0,0,0,.28,2.13l2.91-.81c2.43-.7,2.8-.84,3.47-1.32a1.48,1.48,0,0,1,.81-.3A4.44,4.44,0,0,1,26.4,158c.73.61,1.06,1.06,1.06,1.51s-.14.59-1.06.84a4.51,4.51,0,0,0-1,.67c-1.4,1-3.75,2.58-4.95,3.28Z"/><path d="M27.24,185.93A27.22,27.22,0,0,1,21.33,193a40.92,40.92,0,0,1-8.15,5.2,3.78,3.78,0,0,0-1.37,1,1.18,1.18,0,0,1-.84.42c-.87,0-2.63-2.24-2.63-3.36,0-.19,0-.19.17-.67.25-.64.28-1.17.28-4.28s-.12-7.79-.2-9.05c-.14-1.93-.64-2.6-2.38-3.13a1.93,1.93,0,0,1,1.18-.37,7.75,7.75,0,0,1,3.3,1c1.18.59,1.71,1.18,1.71,1.88a1.51,1.51,0,0,1-.17.7,7.28,7.28,0,0,0-.45,2c-.25,2.18-.53,7.7-.53,10.19v.95a39.69,39.69,0,0,0,9.46-4.65A35.79,35.79,0,0,0,27,185.74Z"/><path d="M6.13,207.24c3.13.5,4.81,1,6.13,1.82a2.63,2.63,0,0,1,1.37,2.41c0,1.31-.64,2.32-1.51,2.32-.48,0-.76-.22-1.18-.95A13.07,13.07,0,0,0,6,207.55Zm21.28,1.62a30.11,30.11,0,0,1-6.3,8.68A45.48,45.48,0,0,1,13,223.93a6.09,6.09,0,0,0-1.52,1.23,1.54,1.54,0,0,1-1.17.7c-.73,0-1.76-.78-2.75-2.05a5.35,5.35,0,0,1-1.34-3.1,2.28,2.28,0,0,1,.14-.76C7.11,221.24,8,222,8.79,222c1.17,0,4.84-1.93,8.17-4.31a55.37,55.37,0,0,0,10.11-9Z"/><path d="M4.73,240.76a14.8,14.8,0,0,1,5.62,1.45,2.21,2.21,0,0,1,1.21,2c0,1.12-.59,2-1.37,2-.45,0-.65-.17-1.12-.9A13.43,13.43,0,0,0,4.62,241Zm22.68-1c-2.89,4.95-8.07,9.85-14.68,13.89a10.81,10.81,0,0,0-2.29,1.68,1.22,1.22,0,0,1-.81.36c-1.4,0-3.81-3.14-3.81-5a2.12,2.12,0,0,1,.19-.84,3.35,3.35,0,0,0,2.47,2.05c.87,0,3-1,6-2.77a63.15,63.15,0,0,0,12.62-9.61ZM7.92,235.41c2.77.31,4.67.84,5.82,1.62a2.16,2.16,0,0,1,1.07,2c0,1.09-.62,2-1.38,2-.47,0-.61-.14-1.2-1.06a12.71,12.71,0,0,0-4.45-4.23Zm12-1.65a10.3,10.3,0,0,1,3,1.34c1.29.87,1.87,1.68,1.87,2.58,0,.64-.33,1.09-.84,1.09s-.58-.17-1-.81a12.37,12.37,0,0,0-3.3-3.73Zm2.86-2.19A9.71,9.71,0,0,1,26,232.8c1.11.73,1.62,1.38,1.62,2.16s-.34,1.12-.84,1.12c-.31,0-.51-.17-.93-.76a11.84,11.84,0,0,0-3.35-3.3Z"/><path d="M38.41,5.82c-.91,0-1,.08-1,.9h-.26V3.62h.26c0,.82.12.9,1,.9H43.3c.91,0,1-.08,1-.86h.26V6.72a5,5,0,0,1-.3,1.94,1.52,1.52,0,0,1-1.52.92c-1.21,0-1.84-.75-2-2.33h-.08a2.12,2.12,0,0,1-.53,1.24c-.28.33-.59.5-1.71,1-.91.39-1.1.56-1.14,1h-.24v-2a19.85,19.85,0,0,0,2.7-1,1.23,1.23,0,0,0,.83-1.27v-.4Zm2.53.54a1.59,1.59,0,0,0,1.72,1.83c1.12,0,1.65-.57,1.65-1.76V5.82H40.94Z"/><path d="M37,14.78a9.82,9.82,0,0,1,1,0A2.17,2.17,0,0,1,37,12.89a1.36,1.36,0,0,1,.75-1.29A2.88,2.88,0,0,1,39,11.41h.14l2,0h.08a1.4,1.4,0,0,0,.73-.11c.12-.09.15-.17.16-.62h.24l.13,2c-.72-.05-1.1-.07-2-.08H39.23a3.4,3.4,0,0,0-1.22.13.67.67,0,0,0-.49.7,1.21,1.21,0,0,0,.84,1.08,2.82,2.82,0,0,0,1.19.19h1.58c.55,0,.75,0,.86-.15s.1-.16.11-.58h.24l.13,2C41.1,16,41.1,16,40.47,16H38.39c-.87,0-1,.1-1,.65h-.23Z"/><path d="M41.48,19.1a1.91,1.91,0,0,1,1,1.78,1.42,1.42,0,0,1-.68,1.36,2.22,2.22,0,0,1-1.23.25H38.36c-.89,0-1,.07-1,.76h-.24V20.53h.24c0,.67.12.75,1,.75h2.16c1.08,0,1.53-.26,1.53-.88a1.18,1.18,0,0,0-.66-1,2.32,2.32,0,0,0-1-.27h-2c-.9,0-1,.07-1,.75h-.24V17.12h.24c0,.69.11.76,1,.76h2.77c.85,0,1-.08,1-.74h.24l.13,1.95Z"/><path d="M41.48,25.73a1.91,1.91,0,0,1,1,1.78,1.42,1.42,0,0,1-.68,1.36,2.22,2.22,0,0,1-1.23.25H38.36c-.89,0-1,.07-1,.76h-.24V27.16h.24c0,.67.12.75,1,.75h2.16c1.08,0,1.53-.26,1.53-.88a1.18,1.18,0,0,0-.66-1,2.32,2.32,0,0,0-1-.27h-2c-.9,0-1,.07-1,.75h-.24V23.75h.24c0,.69.11.76,1,.76h2.77c.85,0,1-.08,1-.74h.24l.13,1.95Z"/><path d="M40.79,34.35a1.82,1.82,0,0,0,.7.17c.41,0,.59-.23.62-.79h.23v2.18h-.23c-.08-.56-.37-.81-1.5-1.26L36.29,33c-1-.41-1.4-.77-1.4-1.39s.23-.73.69-.73.52.14.52.4a2,2,0,0,1-.05.4,1.89,1.89,0,0,0-.06.42c0,.31.13.45.59.64l.4.15,4.18-1.75c.8-.34.91-.43,1-.9h.23v2.67H42.1c0-.43-.12-.6-.39-.6a1.54,1.54,0,0,0-.58.15l-2.7,1Z"/><path d="M42.09,45.65a3.22,3.22,0,0,0,1.44-.53,2.06,2.06,0,0,0,.93-1.68,1.8,1.8,0,0,0-.88-1.55A5,5,0,0,0,41,41.31c-2.22,0-3.59.9-3.59,2.37a2.43,2.43,0,0,0,1,2,3.43,3.43,0,0,0,.82.44l-.16.29a3,3,0,0,1-2.11-3,3.5,3.5,0,0,1,.94-2.46,4,4,0,0,1,2.88-1c2.41,0,4,1.38,4,3.52a5.17,5.17,0,0,1-.29,1.66,1.47,1.47,0,0,0-.06.42,1.44,1.44,0,0,0,.13.54H42.09Z"/><path d="M37.15,52.2c-.07-.59-.12-1.12-.12-1.38s.15-.42.76-.47A2.23,2.23,0,0,1,37,48.64a1.4,1.4,0,0,1,1.47-1.54c.86,0,1.39.53,1.6,1.6a12.16,12.16,0,0,1,.19,1.64h.65c1.06,0,1.37-.18,1.37-.78a.69.69,0,0,0-.34-.67,1.51,1.51,0,0,0-.71-.16c-.36,0-.49-.19-.49-.61s.16-.7.46-.7a1.15,1.15,0,0,1,.93.62,3.06,3.06,0,0,1,.38,1.64,2.13,2.13,0,0,1-.41,1.48,1.58,1.58,0,0,1-1.24.39H38.56c-1.1,0-1.16,0-1.17.68ZM40,50.34c-.11-1.45-.48-2-1.41-2-.71,0-1.18.32-1.18.81a1.09,1.09,0,0,0,.66,1,2.56,2.56,0,0,0,1.16.18Z"/><path d="M38.68,54.67a2.76,2.76,0,0,0-.9.1.54.54,0,0,0-.37.49,1.19,1.19,0,0,0,.31.7l-.25.14a2.05,2.05,0,0,1-.5-1.37,1.2,1.2,0,0,1,.55-1.13,3.07,3.07,0,0,1,1.38-.15H42v-.57h.3a1.06,1.06,0,0,0,.53.95,2.71,2.71,0,0,0,1.07.37l0,.5c-.41,0-.72,0-1.63,0v1.21H42V54.67Z"/><path d="M42.09,65.82a3.22,3.22,0,0,0,1.44-.53,2.06,2.06,0,0,0,.93-1.68,1.8,1.8,0,0,0-.88-1.55A5,5,0,0,0,41,61.48c-2.22,0-3.59.9-3.59,2.37a2.43,2.43,0,0,0,1,1.95,3.43,3.43,0,0,0,.82.44l-.16.29a3,3,0,0,1-2.11-3,3.5,3.5,0,0,1,.94-2.46,4,4,0,0,1,2.88-1c2.41,0,4,1.38,4,3.52a5.17,5.17,0,0,1-.29,1.66,1.47,1.47,0,0,0-.06.42,1.44,1.44,0,0,0,.13.54H42.09Z"/><path d="M41.48,69.11a1.94,1.94,0,0,1,1,1.82,1.47,1.47,0,0,1-.7,1.44,2.62,2.62,0,0,1-1.23.22h-2.2c-.9,0-1,.07-1,.76h-.24V70.62h.24c0,.68.1.75,1,.75h2.13a2.75,2.75,0,0,0,1.08-.14.76.76,0,0,0,.46-.77,1.2,1.2,0,0,0-.69-1.08,2,2,0,0,0-1.06-.27H38.36c-.89,0-1,.07-1,.75h-.24V67.13h.24c0,.69.1.76,1,.76h5c.88,0,1-.07,1-.77h.23l.11,2c-.77,0-1.25-.06-2.05-.06Z"/><path d="M37.15,79c-.07-.59-.12-1.12-.12-1.38s.15-.42.76-.47A2.23,2.23,0,0,1,37,75.47a1.4,1.4,0,0,1,1.47-1.54c.86,0,1.39.53,1.6,1.6a12.16,12.16,0,0,1,.19,1.64h.65c1.06,0,1.37-.18,1.37-.78a.69.69,0,0,0-.34-.67,1.51,1.51,0,0,0-.71-.16c-.36,0-.49-.19-.49-.61s.16-.7.46-.7a1.15,1.15,0,0,1,.93.62,3.06,3.06,0,0,1,.38,1.64A2.13,2.13,0,0,1,42.08,78a1.58,1.58,0,0,1-1.24.39H38.56c-1.1,0-1.16,0-1.17.68ZM40,77.17c-.11-1.45-.48-2-1.41-2-.71,0-1.18.32-1.18.81a1.09,1.09,0,0,0,.66,1,2.56,2.56,0,0,0,1.16.18Z"/><path d="M37.36,79.6c0,.73.09.79,1,.79h5c.88,0,1-.07,1-.78h.23l.11,2.06c-.74,0-1.38-.06-2.05-.06h-4.3c-.91,0-1,.06-1,.79h-.24V79.6Z"/><path d="M37.36,83c0,.73.09.79,1,.79h5c.88,0,1-.07,1-.78h.23L44.71,85C44,85,43.33,85,42.66,85h-4.3c-.91,0-1,.06-1,.79h-.24V83Z"/><path d="M39.94,87.74a3.91,3.91,0,0,0-1.59.26,1.44,1.44,0,0,0-1,1.36A1.86,1.86,0,0,0,38.5,91l-.16.25A2.26,2.26,0,0,1,37,89.06a2.5,2.5,0,0,1,2.74-2.61A2.49,2.49,0,0,1,42.49,89,2,2,0,0,1,41.17,91a3.66,3.66,0,0,1-1.23.18ZM40.23,90a3.9,3.9,0,0,0,1.25-.17c.53-.19.78-.47.78-.86s-.3-.76-.88-1a4.23,4.23,0,0,0-1.15-.21Z"/><path d="M41.48,93.87a1.91,1.91,0,0,1,1,1.78A1.42,1.42,0,0,1,41.81,97a2.22,2.22,0,0,1-1.23.25H38.36c-.89,0-1,.07-1,.76h-.24V95.3h.24c0,.67.12.75,1,.75h2.16c1.08,0,1.53-.26,1.53-.88a1.18,1.18,0,0,0-.66-1,2.32,2.32,0,0,0-1-.27h-2c-.9,0-1,.07-1,.75h-.24V91.89h.24c0,.69.11.76,1,.76h2.77c.85,0,1-.08,1-.74h.24l.13,2Z"/><path d="M37.93,101.43a3.66,3.66,0,0,1-.21,1.58,1.09,1.09,0,0,1-1,.6,1.54,1.54,0,0,1-1.33-.71,3.82,3.82,0,0,1-.44-2c0-1.46.43-2.28,1.21-2.28.42,0,.54.1.94.81a1.2,1.2,0,0,1,.29-.45,1,1,0,0,1,.66-.27c.3,0,.45.1.71.51l.32.51a2.2,2.2,0,0,1,.39-.57,1.59,1.59,0,0,1,1.14-.41A1.93,1.93,0,0,1,42.49,101a4.45,4.45,0,0,1-.08.79,3.64,3.64,0,0,0-.06.69s0,.37,0,1.07H42v-1a1.83,1.83,0,0,1-2.7,0,2.44,2.44,0,0,1-.46-1.51,3.55,3.55,0,0,1,.11-.89c-.18-.34-.32-.46-.54-.46s-.43.24-.43,1.33Zm-1-1.52c-.05-.22-.25-.32-.61-.32-.79,0-1.19.51-1.19,1.54s.39,1.58,1.05,1.58.76-.44.76-1.57ZM39,101c0,.61.53.9,1.61.9s1.63-.29,1.63-.9-.54-.92-1.57-.92S39,100.35,39,101Z"/><path d="M39.94,105.45a3.91,3.91,0,0,0-1.59.26,1.44,1.44,0,0,0-1,1.36,1.86,1.86,0,0,0,1.14,1.65l-.16.25a2.26,2.26,0,0,1-1.37-2.2,2.5,2.5,0,0,1,2.74-2.61,2.49,2.49,0,0,1,2.78,2.51,2,2,0,0,1-1.32,2.07,3.66,3.66,0,0,1-1.23.18Zm.29,2.22a3.9,3.9,0,0,0,1.25-.17c.53-.19.78-.47.78-.86s-.3-.76-.88-1a4.23,4.23,0,0,0-1.15-.21Z"/></svg>