<svg xmlns="http://www.w3.org/2000/svg" viewBox="0 0 45 261"><title>phraseImg</title><path d="M4.7,9A18.28,18.28,0,0,0,9.05,7.6c.18-2,.27-3.21.27-4A3,3,0,0,0,7.37.67,1.52,1.52,0,0,1,8.12.49,6.55,6.55,0,0,1,11.51,2a2.57,2.57,0,0,1,1.14,2c0,.33-.09.54-.48,1.23A9.25,9.25,0,0,0,11.57,7c.84.69,1.11,1.05,1.11,1.47,0,.27-.12.48-.51.93-.21.24-.6.72-1.17,1.47a2.14,2.14,0,0,0-.06.63c0,.3,0,.36-.06.66a38.1,38.1,0,0,1,4.68-3.63,9.5,9.5,0,0,1,5.07-1.74c3.84,0,6.3,3.39,6.3,8.76a15,15,0,0,1-.57,4.32c2.43,1.23,3.12,2,3.12,3.66,0,.93-.51,1.8-1.11,1.8-.3,0-.54-.15-.93-.63a11.34,11.34,0,0,0-2.25-2,5.05,5.05,0,0,1-1.89,1.92,6.49,6.49,0,0,1-3.54,1c-2.64,0-4.44-1.38-4.44-3.39,0-2.22,2.13-3.81,5.1-3.81a9.56,9.56,0,0,1,2.94.45A18.88,18.88,0,0,0,23.72,15c0-4.56-1.26-7-3.69-7-1.32,0-2.64.6-4.56,2.1a28.41,28.41,0,0,0-4.65,4.5c0,.39,0,.72,0,.9,0,1.35.06,2.34.36,6.06,0,.39,0,.75,0,1.2,0,2.13-.93,3.78-2.16,3.78a1,1,0,0,1-1-.51,2.9,2.9,0,0,1-.3-.9A9.29,9.29,0,0,0,5.54,21c-.75,1.62-1.11,2.07-1.65,2.07s-1.38-1.44-1.38-2.79c0-.54.15-.81.72-1.35A10.55,10.55,0,0,0,4.7,17.2a57.17,57.17,0,0,0,4.14-5.79c.09-1.29.09-1.38.15-2.16A18.36,18.36,0,0,0,6.26,10.9a2,2,0,0,1-1.2.51c-1,0-2.49-2-2.49-3.27a2.2,2.2,0,0,1,.12-.63C3.32,8.5,3.92,9,4.7,9ZM5.84,20.53a10.49,10.49,0,0,0,2.67,1.59c0-.36,0-1.5.06-3.36,0-1.29,0-2.07.09-3.45C8.09,16.3,6.38,19.39,5.84,20.53Zm13.44-.21c-1.8,0-3,.72-3,1.86,0,1,.93,1.59,2.4,1.59a4.16,4.16,0,0,0,2.7-.87c.57-.45.66-.6,1.26-1.8A7.5,7.5,0,0,0,19.28,20.32Z"/><path d="M7.67,46.66a11.21,11.21,0,0,0-.12,1.47c0,3.81,2.16,5.4,7.29,5.4a15.73,15.73,0,0,0,6.09-1A2.55,2.55,0,0,1,22,52.27c1.47,0,3.06,1.23,3.06,2.34A1.47,1.47,0,0,1,24,55.93a23.51,23.51,0,0,1-7.2.81c-3.54,0-6-.51-7.62-1.53a5.78,5.78,0,0,1-2.7-5,9.67,9.67,0,0,1,.78-3.63ZM8.33,35.2A7,7,0,0,0,13,36.46,23.33,23.33,0,0,0,17.09,36a8.84,8.84,0,0,0,2.13-.63,2.55,2.55,0,0,1,.66-.12c1.32,0,2.88,1.35,2.88,2.46a1.06,1.06,0,0,1-.78,1,7.43,7.43,0,0,1-1.83.36,42.7,42.7,0,0,0-9,2.79l-.18-.33c.81-.57,2.55-1.68,4.5-2.88h-.9a9,9,0,0,1-3.87-.81,5.87,5.87,0,0,1-2.58-2.49Z"/><path d="M14.36,88.33a15.55,15.55,0,0,0,7.26-4.26,11.16,11.16,0,0,0,3-7.89c0-5.13-3.12-8.19-8.28-8.19a9.33,9.33,0,0,0-1.2.06,4.46,4.46,0,0,1,1.38,3.21c0,2.4-1.53,6.6-3.69,10.23-1.95,3.24-3.69,4.89-5.19,4.89A2,2,0,0,1,6,85.51a7.4,7.4,0,0,1-.69-2A5.17,5.17,0,0,0,4,81.31a5.76,5.76,0,0,1-1.17-3.45,9.9,9.9,0,0,1,2.52-6A14.9,14.9,0,0,1,16.7,66.94c6.69,0,11.46,4.23,11.46,10.17,0,4.35-2.4,7.83-6.75,9.84a22.32,22.32,0,0,1-6.93,1.8ZM8.75,71.26A10.23,10.23,0,0,0,5.54,78.4c0,2.07,1,4.2,2,4.2s3-2.49,4.92-6.18c1.5-2.82,2.4-5.31,2.4-6.63a3.45,3.45,0,0,0-.12-1,2.87,2.87,0,0,0-.24-.66A10.88,10.88,0,0,0,8.75,71.26Z"/><path d="M9.65,121.6c0,.69-.42.81-2.49.81-1.08,0-1.23-.09-1.23-.72.18-5.34.21-8.58.21-15.42,0-6.15,0-7.62-.18-10.17a31.41,31.41,0,0,1,4,2H21.41l1.89-2c1.2.87,1.56,1.14,2.64,2,.3.24.42.39.42.57s-.24.48-1.14,1l0,4.8c0,9,0,10.92.21,16.83,0,.36-.06.51-.21.63a5,5,0,0,1-2.25.33c-1,0-1.26-.09-1.26-.57v-1.89h-12Zm12-22.86h-12v9.42h12Zm-12,10.05v10.35h12V108.79Z"/><path d="M42.09,9.64a3.22,3.22,0,0,0,1.44-.53,2.06,2.06,0,0,0,.93-1.68,1.8,1.8,0,0,0-.88-1.55A5,5,0,0,0,41,5.3c-2.22,0-3.59.9-3.59,2.37a2.43,2.43,0,0,0,1,1.95,3.43,3.43,0,0,0,.82.44l-.16.29a3,3,0,0,1-2.11-3,3.5,3.5,0,0,1,.94-2.46,4,4,0,0,1,2.88-1c2.41,0,4,1.38,4,3.52A5.17,5.17,0,0,1,44.46,9a1.47,1.47,0,0,0-.06.42,1.44,1.44,0,0,0,.13.54H42.09Z"/><path d="M37.15,16.19c-.07-.59-.12-1.12-.12-1.38s.15-.42.76-.47A2.23,2.23,0,0,1,37,12.63a1.4,1.4,0,0,1,1.47-1.54c.86,0,1.39.53,1.6,1.6a12.16,12.16,0,0,1,.19,1.64h.65c1.06,0,1.37-.18,1.37-.78a.69.69,0,0,0-.34-.67,1.51,1.51,0,0,0-.71-.16c-.36,0-.49-.19-.49-.61s.16-.7.46-.7a1.15,1.15,0,0,1,.93.62,3.06,3.06,0,0,1,.38,1.64,2.13,2.13,0,0,1-.41,1.48,1.58,1.58,0,0,1-1.24.39H38.56c-1.1,0-1.16,0-1.17.68ZM40,14.33c-.11-1.45-.48-2-1.41-2-.71,0-1.18.32-1.18.81a1.09,1.09,0,0,0,.66,1,2.56,2.56,0,0,0,1.16.18Z"/><path d="M38.68,18.66a2.76,2.76,0,0,0-.9.1.54.54,0,0,0-.37.49,1.19,1.19,0,0,0,.31.7l-.25.14a2.05,2.05,0,0,1-.5-1.37,1.2,1.2,0,0,1,.55-1.13,3.07,3.07,0,0,1,1.38-.15H42v-.57h.3a1.06,1.06,0,0,0,.53.95,2.71,2.71,0,0,0,1.07.37l0,.5c-.41,0-.72,0-1.63,0v1.21H42V18.66Z"/><path d="M42,20.87c.25.54.59.85.93.85a.29.29,0,0,0,.19-.07s0,0,.11-.29a.71.71,0,0,1,.71-.54.8.8,0,0,1,.79.84.92.92,0,0,1-1,.9,2.15,2.15,0,0,1-2-1.51Z"/><path d="M38.88,23.85v.36a2.35,2.35,0,0,0-1.05.3,1.24,1.24,0,0,0-.63,1.12c0,.61.32,1,.87,1s.71-.26,1.25-1.42A2.86,2.86,0,0,1,40,24.11a1.23,1.23,0,0,1,.9-.35c1,0,1.59.72,1.59,1.85a4.75,4.75,0,0,1-.08.71,2.26,2.26,0,0,0-.06.44,1.31,1.31,0,0,0,.1.48l-1.75-.09v-.37c1-.07,1.56-.49,1.56-1.21a.81.81,0,0,0-.83-.89.7.7,0,0,0-.61.31,4.39,4.39,0,0,0-.58,1.12c-.47,1-.86,1.35-1.61,1.35A1.6,1.6,0,0,1,37,25.66a5.2,5.2,0,0,1,.12-1,2.19,2.19,0,0,0,0-.36,2.12,2.12,0,0,0-.06-.51Z"/><path d="M37.38,31.63c0,.81.12.9,1,.9H43.3c.92,0,1-.1,1-.9h.26v3a5,5,0,0,1-.55,2.62A3.24,3.24,0,0,1,41,38.72a3.51,3.51,0,0,1-3.33-1.54,5.32,5.32,0,0,1-.53-2.66V31.63Zm0,2.91a2.71,2.71,0,0,0,.69,2,3.9,3.9,0,0,0,2.71.79,4.4,4.4,0,0,0,2.57-.64,2.56,2.56,0,0,0,.93-2.25v-.6h-6.9Z"/><path d="M37.15,44.77c-.07-.59-.12-1.12-.12-1.38s.15-.42.76-.47A2.23,2.23,0,0,1,37,41.21a1.4,1.4,0,0,1,1.47-1.54c.86,0,1.39.53,1.6,1.6a12.16,12.16,0,0,1,.19,1.64h.65c1.06,0,1.37-.18,1.37-.78a.69.69,0,0,0-.34-.67,1.51,1.51,0,0,0-.71-.16c-.36,0-.49-.19-.49-.61s.16-.7.46-.7a1.15,1.15,0,0,1,.93.62,3.06,3.06,0,0,1,.38,1.64,2.13,2.13,0,0,1-.41,1.48,1.58,1.58,0,0,1-1.24.39H38.56c-1.1,0-1.16,0-1.17.68ZM40,42.91c-.11-1.45-.48-2-1.41-2-.71,0-1.18.32-1.18.81a1.09,1.09,0,0,0,.66,1,2.56,2.56,0,0,0,1.16.18Z"/><path d="M40.79,49.3a1.82,1.82,0,0,0,.7.17c.41,0,.59-.23.62-.79h.23v2.18h-.23c-.08-.56-.37-.81-1.5-1.26l-4.32-1.7c-1-.41-1.4-.77-1.4-1.39s.23-.73.69-.73.52.14.52.4a2,2,0,0,1-.05.4A1.89,1.89,0,0,0,36,47c0,.31.13.45.59.64l.4.15L41.16,46c.8-.34.91-.43,1-.9h.23v2.67H42.1c0-.43-.12-.6-.39-.6a1.54,1.54,0,0,0-.58.15l-2.7,1Z"/></svg>