<svg xmlns="http://www.w3.org/2000/svg" viewBox="0 0 45 261"><title>phraseImg</title><path d="M7.49,25.15a124.26,124.26,0,0,0,3.06-12.27H7.37A20.47,20.47,0,0,0,4.82,13l-.21-1a11.29,11.29,0,0,0,2.79.27h3.27c.54-2.64.87-4.59,1.47-8.64H5.57a16,16,0,0,0-2.67.15l-.18-1A13.12,13.12,0,0,0,5.57,3H22.22L24.56.28c1.62,1.17,2.13,1.56,3.78,2.88.12.12.18.18.18.27s-.18.18-.42.18H15.68c-.9,5.34-1.32,7.77-1.56,8.64h5.52c.81-.9,1.05-1.2,1.89-2.1,1.17.87,1.53,1.14,2.61,2,.24.21.33.36.33.48s-.24.45-1.08,1V25.15h1.08c.87-1.17,1.14-1.53,2.07-2.67C28,23.65,28.4,24,29.84,25.3c.12.15.18.21.18.3s-.12.18-.33.18H4.58A15.52,15.52,0,0,0,1.85,26l-.21-1.08a12.39,12.39,0,0,0,2.94.24Zm12.48,0V12.88H14c-.9,4.53-1.92,8.79-3,12.27Z"/><path d="M21.89,43.09,23.84,41a35.5,35.5,0,0,1,3,2.28q.18.18.18.27c0,.12-.12.18-.33.18H16.82v3.72h7C24.71,46.36,25,46,25.94,45a37.74,37.74,0,0,1,3.21,2.58q.18.18.18.27c0,.15-.15.21-.39.21h-6.6v3.3h1.59c.81-1,1.08-1.35,1.95-2.34a31,31,0,0,1,3,2.52.62.62,0,0,1,.15.27q0,.18-.36.18H22.34v.78c0,.39.06,3.36.09,5.58a2.21,2.21,0,0,1-1.17,2.28,8.09,8.09,0,0,1-3.12.75c-.3,0-.39-.12-.42-.54A2.12,2.12,0,0,0,17,59.32c-.42-.36-.42-.36-3.21-1.17l0-.39c1.26.09,1.26.09,4.71.24.45,0,.57-.12.57-.45V52H4.94a8.44,8.44,0,0,0-2,.21l-.18-1.08a8.45,8.45,0,0,0,2.19.24H19.1v-3.3H4.58a10.17,10.17,0,0,0-2.28.21l-.18-1.11a9.59,9.59,0,0,0,2.43.27h9V43.72H7.28a7.77,7.77,0,0,0-1.89.21l-.21-1.14a7.45,7.45,0,0,0,2.13.3h6.27v-.42a22.92,22.92,0,0,0-.12-2.4l1.23.12A21.38,21.38,0,0,0,16,37.72H8.78c2.16,1,3.3,1.83,3.3,2.61a2.27,2.27,0,0,1-2,2c-.42,0-.6-.24-.72-.93a9.07,9.07,0,0,0-1.17-3.72h-1a20.9,20.9,0,0,1-5.37,4.89l-.27-.21A27.18,27.18,0,0,0,4.7,37a13.82,13.82,0,0,0,1.14-3.54c4.32.81,4.41.84,4.41,1.17s-.33.42-1.32.54a21.11,21.11,0,0,1-1.2,1.92h3.69c.84-.93,1.08-1.23,1.86-2.16A30.43,30.43,0,0,1,16,37.33l.06.09a14.75,14.75,0,0,0,1.11-3.87c3.75.66,4.35.81,4.35,1.14s-.39.45-1.35.63a16,16,0,0,1-1.32,1.77H24c.78-.84,1.47-1.62,2.1-2.34,1.44,1.11,1.86,1.44,3.24,2.55.09.12.15.18.15.24s-.12.18-.3.18H20c2.43,1.05,3.27,1.65,3.27,2.46a2.26,2.26,0,0,1-1.95,2c-.48,0-.69-.33-.84-1.2a8.78,8.78,0,0,0-1.05-3.21H18.35a16.75,16.75,0,0,1-3.06,2.7c2.16.18,2.67.3,2.67.63s-.27.42-1.14.66v1.38ZM7.46,52.75A25.25,25.25,0,0,1,11.63,54c1.38.6,1.92,1.23,1.92,2.25,0,1.2-1,2.46-1.92,2.46-.48,0-.69-.21-1.2-1.35A11.4,11.4,0,0,0,7.31,53Z"/><path d="M1.25,81.91a37.69,37.69,0,0,0,6-7.74,27.79,27.79,0,0,0,2.94-6.72,43.56,43.56,0,0,1,4.44,1.89.49.49,0,0,1,.15.27c0,.3-.39.45-1.47.54a30.92,30.92,0,0,1-5.28,7.26,26,26,0,0,1-6.57,4.77Zm13.59-2.22a22.9,22.9,0,0,1-.45,3C13,89.14,9.8,92.44,2.27,95l-.15-.33C6.23,92,8.54,89.5,9.83,86.26a23,23,0,0,0,1.38-6.57H9.11a12.41,12.41,0,0,0-2.1.18L6.8,78.82a10.73,10.73,0,0,0,2.28.24H20.45c.6-.63.78-.81,1.38-1.35,1.17.81,1.5,1.05,2.61,1.86.24.21.36.36.36.51s-.15.33-.69.63a84.47,84.47,0,0,1-.87,8.52c-.51,2.88-1.17,4-2.61,4.65a9.7,9.7,0,0,1-3.3.57c-.54,0-.6-.06-.63-.69A2.26,2.26,0,0,0,15.53,92a14.5,14.5,0,0,0-3.36-1.23l0-.39c2.28.27,4.8.51,5.61.51,1.29,0,1.68-.3,2-1.5a52.15,52.15,0,0,0,1-9.66Zm3.18-12a1.74,1.74,0,0,0,0,.3c0,.87,1.11,2.61,2.76,4.26A18.55,18.55,0,0,0,26.21,76a19.82,19.82,0,0,0,3.84,1.26v.3A3.88,3.88,0,0,0,28.34,79a8.51,8.51,0,0,0-.84,1.53c-.09.27-.21.39-.33.39A12,12,0,0,1,24.29,79a21.27,21.27,0,0,1-6.51-9.39,4.39,4.39,0,0,0-.84-1.5Z"/><path d="M14.36,124.18a15.55,15.55,0,0,0,7.26-4.26,11.16,11.16,0,0,0,3-7.89c0-5.13-3.12-8.19-8.28-8.19a9.33,9.33,0,0,0-1.2.06,4.46,4.46,0,0,1,1.38,3.21c0,2.4-1.53,6.6-3.69,10.23-1.95,3.24-3.69,4.89-5.19,4.89A2,2,0,0,1,6,121.36a7.4,7.4,0,0,1-.69-2A5.17,5.17,0,0,0,4,117.16a5.76,5.76,0,0,1-1.17-3.45,9.9,9.9,0,0,1,2.52-6,14.9,14.9,0,0,1,11.31-4.92c6.69,0,11.46,4.23,11.46,10.17,0,4.35-2.4,7.83-6.75,9.84a22.32,22.32,0,0,1-6.93,1.8ZM8.75,107.11a10.23,10.23,0,0,0-3.21,7.14c0,2.07,1,4.2,2,4.2s3-2.49,4.92-6.18c1.5-2.82,2.4-5.31,2.4-6.63a3.45,3.45,0,0,0-.12-1,2.87,2.87,0,0,0-.24-.66A10.88,10.88,0,0,0,8.75,107.11Z"/><path d="M6.59,147a25,25,0,0,1-5.1,3.87l-.18-.24a39.2,39.2,0,0,0,4.56-6.33A16.24,16.24,0,0,0,8.09,139c4.05,1.23,4.59,1.44,4.59,1.8s-.42.45-1.41.48a24.68,24.68,0,0,1-2.79,3.66c2.13.42,2.46.51,2.46.81s-.3.42-1.11.6v11.88c0,.3,0,.42-.15.54a3.07,3.07,0,0,1-1.65.3c-1.44,0-1.62-.06-1.62-.6.09-2.73.18-5.85.18-7.29Zm11.25-11.7c0-1.14,0-1.35,0-1.8,0-.78,0-1-.09-1.83,4,.3,4.44.39,4.44.78s-.33.48-1.17.69v2.16h2.7c1-1.11,1.35-1.44,2.31-2.46,1.41,1.11,1.86,1.47,3.24,2.61a.62.62,0,0,1,.15.27c0,.12-.18.21-.36.21h-8c0,1.23,0,2.1,0,2.61s-.3.69-2.16.69c-1,0-1.08-.06-1.08-.57v-2.73H12.47c0,1.56,0,1.56,0,2.58,0,.57-.36.66-2.16.66-1,0-1.11-.09-1.11-.54,0-1.26,0-1.35,0-2.7H4.16a12.85,12.85,0,0,0-2.16.18L1.85,135a10.52,10.52,0,0,0,2.31.27h5.1l0-.6v-.93a17.89,17.89,0,0,0-.12-2.13c.93.09,1.65.15,2.13.18,1.8.15,2.37.27,2.37.6s-.36.48-1.2.69v2.19Zm.69,13.17a27.34,27.34,0,0,0,5.85-7.59,41.63,41.63,0,0,1,3.84,2.43q.27.18.27.36c0,.21-.24.36-.57.36a4.76,4.76,0,0,1-.87-.09,40.35,40.35,0,0,1-8.52,5.4v5.55c0,.72,0,.72,3,.72s3.36-.06,3.75-.66a36,36,0,0,0,2.4-6l.33.06-.33,4.77v.6c0,.42,0,.45.69.78a1.24,1.24,0,0,1,.75,1.26A1.71,1.71,0,0,1,27.8,158c-.78.27-2.34.36-6,.36-4.11,0-4.8,0-5.46-.33s-1-.81-1.08-1.89l.06-5.52v-7.47c0-1.35-.06-2.64-.15-3.81l2.13.27c1.92.21,2.43.36,2.43.72s-.27.42-1.17.66Z"/><path d="M22.22,173.89a18.47,18.47,0,0,0,1.47,5.61,21.72,21.72,0,0,0,2.61-4.35c3.21,1.77,3.45,1.95,3.45,2.25s-.24.36-.75.36a3.68,3.68,0,0,1-.51,0A27.07,27.07,0,0,1,24,180.25a12.67,12.67,0,0,0,2,3.12,11.59,11.59,0,0,0,4.14,3.24l0,.27A3.8,3.8,0,0,0,28.58,189a5,5,0,0,0-.33,1c-.06.15-.12.24-.21.24-.51,0-2.1-1.86-3.12-3.69a25.64,25.64,0,0,1-3.06-10c-.12-1-.15-1.56-.21-2.73h-.36a14.21,14.21,0,0,1-3.3,2.7,13.92,13.92,0,0,1,4.53,10.23c0,3.33-.63,4.89-2.28,5.67a5.43,5.43,0,0,1-2,.42c-.33,0-.39-.09-.42-.51-.15-1.53-.81-2-3.81-2.67l0-.39c2.28.18,3.3.24,4.2.24s1.14-.06,1.32-1a18.22,18.22,0,0,0,.3-3.06,32.91,32.91,0,0,1-12.06,4.86L7.7,190a34.46,34.46,0,0,0,7.38-4.08,39.07,39.07,0,0,0,4.53-3.6,10.46,10.46,0,0,0-.36-1.62,27.15,27.15,0,0,1-8.4,3.48l-.15-.33A31.66,31.66,0,0,0,16.25,180c.36-.3,1-.93,2-1.89a8.75,8.75,0,0,0-.75-1.2,24.33,24.33,0,0,1-6.24,2.7l-.15-.33a21.47,21.47,0,0,0,6.24-5.37H15.89A12.17,12.17,0,0,0,14,174l-.18-.93a1.75,1.75,0,0,1-1.35.81,1,1,0,0,1-.54-.21c-.15.09-.24.15-.48.27a33.5,33.5,0,0,1-2.07,9.45,8.73,8.73,0,0,1,.87.57,2.07,2.07,0,0,1,1,1.83c0,1.2-.69,2.31-1.41,2.31-.24,0-.42-.18-.66-.66s-.57-1.11-.9-1.68a19.71,19.71,0,0,1-6.81,6.93l-.21-.3a25.47,25.47,0,0,0,5.37-8.79,13.35,13.35,0,0,0-1.62-1.56c-.18.81-.24,1-.51,2.07-.18.45-.39.57-1,.57a7.38,7.38,0,0,1-1.71-.18.41.41,0,0,1-.27-.36,1.65,1.65,0,0,1,.09-.48,73.32,73.32,0,0,0,2.4-10.77h-.6a12.37,12.37,0,0,0-1.95.18l-.18-1a10.06,10.06,0,0,0,2.13.21H4A47.9,47.9,0,0,0,4.79,166a7.12,7.12,0,0,0,0-.72c3.87.54,4.26.63,4.26,1.05s-.36.48-1.23.63c-.21,1.38-.21,1.38-.9,5.37H8.42c.57-.57.72-.75,1.32-1.38a17.55,17.55,0,0,1,1.44,1.35,2.59,2.59,0,0,1,0-.45c0-.54.18-.78.87-1.14,1.08-.57,1.56-1.32,1.77-2.94h.36c.15.72.21.93.3,1.53h3.81v-1.5a15.18,15.18,0,0,0-.18-2.49c4.14.27,4.56.33,4.56.78s-.3.48-1.2.72v2.49H25a16.91,16.91,0,0,1,1.62-1.65,35.28,35.28,0,0,1,2.94,2.16c.27.24.39.39.39.51,0,.36-.51.51-1.68.51-.81.45-1,.54-1.68.9,1,.81,1.08.84,2.13,1.68.12.15.18.24.18.3s-.15.21-.33.21Zm-15.42-1c-.48,2.82-1.11,6-1.74,8.64a11.79,11.79,0,0,1,2,.66,45,45,0,0,0,1.59-9.3Zm17,.33c.6-.63.81-.84,1.2-1.26a12.84,12.84,0,0,0,.27-2.1H14.51v.45a4.83,4.83,0,0,1-.72,2.73,11.21,11.21,0,0,0,2.1.18Z"/><path d="M38.42,7.45c-.92,0-1,.1-1,1h-.26V5.1h.26c0,.93.12,1,1,1h5.92a2.09,2.09,0,0,0-.58-1.71A3.48,3.48,0,0,0,42,3.82l0-.36,2.54.19V9.94l-2.54.19,0-.36a3.07,3.07,0,0,0,1.8-.69,2.2,2.2,0,0,0,.5-1.63Z"/><path d="M41.48,12.5a1.94,1.94,0,0,1,1,1.82,1.47,1.47,0,0,1-.7,1.44,2.62,2.62,0,0,1-1.23.22h-2.2c-.9,0-1,.07-1,.76h-.24V14h.24c0,.68.1.75,1,.75h2.13a2.75,2.75,0,0,0,1.08-.14.76.76,0,0,0,.46-.77,1.2,1.2,0,0,0-.69-1.08,2,2,0,0,0-1.06-.27H38.36c-.89,0-1,.07-1,.75h-.24V10.52h.24c0,.69.1.76,1,.76h5c.88,0,1-.07,1-.77h.23l.11,2.05c-.77-.05-1.25-.06-2.05-.06Z"/><path d="M39.94,18.68a3.91,3.91,0,0,0-1.59.26,1.44,1.44,0,0,0-1,1.36A1.86,1.86,0,0,0,38.5,22l-.16.25A2.26,2.26,0,0,1,37,20a2.5,2.5,0,0,1,2.74-2.61,2.49,2.49,0,0,1,2.78,2.51A2,2,0,0,1,41.17,22a3.66,3.66,0,0,1-1.23.18Zm.29,2.22a3.9,3.9,0,0,0,1.25-.17c.53-.19.78-.47.78-.86s-.3-.76-.88-1a4.23,4.23,0,0,0-1.15-.21Z"/><path d="M36.8,33.79a2.75,2.75,0,0,1-.51-1.55,1.65,1.65,0,0,1,.79-1.39A3.05,3.05,0,0,1,37,30a3.37,3.37,0,0,1,1-2.55,3.91,3.91,0,0,1,2.79-1,4.37,4.37,0,0,1,2.87.91A3.25,3.25,0,0,1,44.75,30c0,2.16-1.46,3.51-3.79,3.51a4.64,4.64,0,0,1-2.6-.69,2.72,2.72,0,0,1-.84-.82A1.37,1.37,0,0,0,36.84,33a1.68,1.68,0,0,0,.19.72ZM38.39,30a1.1,1.1,0,0,0,.54-.88c0-.36-.24-.58-.73-.65a1,1,0,0,0-.61.39A1.7,1.7,0,0,0,37.22,30a1.81,1.81,0,0,0,.14.72A7.25,7.25,0,0,0,38.39,30Zm1.26-.41c0,.72-.43,1.27-1.49,1.91a6.73,6.73,0,0,0,.76.31,7.42,7.42,0,0,0,1.89.21,6.22,6.22,0,0,0,2.61-.47,1.77,1.77,0,0,0,1.06-1.65,1.64,1.64,0,0,0-.93-1.52,5.92,5.92,0,0,0-2.7-.53,6.26,6.26,0,0,0-1.64.19l-.51.17-.17.06A1.31,1.31,0,0,1,39.65,29.6Z"/><path d="M37,38.24a9.82,9.82,0,0,1,1-.05A2.17,2.17,0,0,1,37,36.35a1.36,1.36,0,0,1,.75-1.29A2.88,2.88,0,0,1,39,34.87h.14l2,0h.08a1.4,1.4,0,0,0,.73-.11c.12-.09.15-.17.16-.62h.24l.13,2c-.72,0-1.1-.07-2-.08H39.23a3.4,3.4,0,0,0-1.22.13.67.67,0,0,0-.49.7A1.21,1.21,0,0,0,38.36,38a2.82,2.82,0,0,0,1.19.19h1.58c.55,0,.75,0,.86-.15s.1-.16.11-.58h.24l.13,2c-1.37-.06-1.37-.06-2-.06H38.39c-.87,0-1,.1-1,.65h-.23Z"/><path d="M42.47,42.64c-.6,0-1.3-.06-1.94-.06H38.36c-.89,0-1,.07-1,.78h-.24V40.58h.24c0,.71.11.78,1,.78h2.77c.89,0,1,0,1-.75h.24Zm2.3-.66a.72.72,0,1,1-.72-.72A.72.72,0,0,1,44.77,42Z"/><path d="M41.48,45.89a1.91,1.91,0,0,1,1,1.78A1.42,1.42,0,0,1,41.81,49a2.22,2.22,0,0,1-1.23.25H38.36c-.89,0-1,.07-1,.76h-.24V47.32h.24c0,.67.12.75,1,.75h2.16c1.08,0,1.53-.26,1.53-.88a1.18,1.18,0,0,0-.66-1,2.32,2.32,0,0,0-1-.27h-2c-.9,0-1,.07-1,.75h-.24V43.91h.24c0,.69.11.76,1,.76h2.77c.85,0,1-.08,1-.74h.24l.13,2Z"/><path d="M38.68,52.45a2.76,2.76,0,0,0-.9.1.54.54,0,0,0-.37.49,1.19,1.19,0,0,0,.31.7l-.25.14a2.05,2.05,0,0,1-.5-1.37,1.2,1.2,0,0,1,.55-1.13,3.07,3.07,0,0,1,1.38-.15H42v-.57h.3a1.06,1.06,0,0,0,.53,1,2.71,2.71,0,0,0,1.07.37l0,.5c-.41,0-.72,0-1.63,0v1.21H42V52.45Z"/><path d="M39.94,55.67a3.91,3.91,0,0,0-1.59.26,1.44,1.44,0,0,0-1,1.36,1.86,1.86,0,0,0,1.14,1.65l-.16.25A2.26,2.26,0,0,1,37,57a2.5,2.5,0,0,1,2.74-2.61,2.49,2.49,0,0,1,2.78,2.51A2,2,0,0,1,41.17,59a3.66,3.66,0,0,1-1.23.18Zm.29,2.22a3.9,3.9,0,0,0,1.25-.17c.53-.19.78-.47.78-.86s-.3-.76-.88-1a4.23,4.23,0,0,0-1.15-.21Z"/><path d="M38.88,60.13v.36a2.35,2.35,0,0,0-1.05.3,1.24,1.24,0,0,0-.63,1.12c0,.61.32,1,.87,1s.71-.26,1.25-1.42A2.86,2.86,0,0,1,40,60.39a1.23,1.23,0,0,1,.9-.35c1,0,1.59.72,1.59,1.85a4.75,4.75,0,0,1-.08.71,2.26,2.26,0,0,0-.06.44,1.31,1.31,0,0,0,.1.48l-1.75-.09v-.37c1-.07,1.56-.49,1.56-1.21a.81.81,0,0,0-.83-.89.7.7,0,0,0-.61.31,4.39,4.39,0,0,0-.58,1.12c-.47,1-.86,1.35-1.61,1.35A1.6,1.6,0,0,1,37,61.94a5.2,5.2,0,0,1,.12-1,2.19,2.19,0,0,0,0-.36,2.12,2.12,0,0,0-.06-.51Z"/><path d="M38.88,64.87v.36a2.35,2.35,0,0,0-1.05.3,1.24,1.24,0,0,0-.63,1.12c0,.61.32,1,.87,1s.71-.26,1.25-1.42A2.86,2.86,0,0,1,40,65.13a1.23,1.23,0,0,1,.9-.35c1,0,1.59.72,1.59,1.85a4.75,4.75,0,0,1-.08.71,2.26,2.26,0,0,0-.06.44,1.31,1.31,0,0,0,.1.48l-1.75-.09V67.8c1-.07,1.56-.49,1.56-1.21a.81.81,0,0,0-.83-.89.7.7,0,0,0-.61.31,4.39,4.39,0,0,0-.58,1.12c-.47,1-.86,1.35-1.61,1.35A1.6,1.6,0,0,1,37,66.68a5.2,5.2,0,0,1,.12-1,2.19,2.19,0,0,0,0-.36,2.12,2.12,0,0,0-.06-.51Z"/><path d="M39.94,70.75a3.91,3.91,0,0,0-1.59.26,1.44,1.44,0,0,0-1,1.36A1.86,1.86,0,0,0,38.5,74l-.16.25A2.26,2.26,0,0,1,37,72.07a2.5,2.5,0,0,1,2.74-2.61A2.49,2.49,0,0,1,42.49,72,2,2,0,0,1,41.17,74a3.66,3.66,0,0,1-1.23.18ZM40.23,73a3.9,3.9,0,0,0,1.25-.17c.53-.19.78-.47.78-.86s-.3-.76-.88-1a4.23,4.23,0,0,0-1.15-.21Z"/><path d="M41.48,76.88a1.91,1.91,0,0,1,1,1.78A1.42,1.42,0,0,1,41.81,80a2.22,2.22,0,0,1-1.23.25H38.36c-.89,0-1,.07-1,.76h-.24V78.31h.24c0,.67.12.75,1,.75h2.16c1.08,0,1.53-.26,1.53-.88a1.18,1.18,0,0,0-.66-1,2.32,2.32,0,0,0-1-.27h-2c-.9,0-1,.07-1,.75h-.24V74.9h.24c0,.69.11.76,1,.76h2.77c.85,0,1-.08,1-.74h.24l.13,2Z"/><path d="M38.68,83.44a2.76,2.76,0,0,0-.9.1.54.54,0,0,0-.37.49,1.19,1.19,0,0,0,.31.7l-.25.14A2.05,2.05,0,0,1,37,83.5a1.2,1.2,0,0,1,.55-1.13,3.07,3.07,0,0,1,1.38-.15H42v-.57h.3a1.06,1.06,0,0,0,.53.95,2.71,2.71,0,0,0,1.07.37l0,.5c-.41,0-.72,0-1.63,0v1.21H42V83.44Z"/><path d="M42.47,87.27c-.6,0-1.3-.06-1.94-.06H38.36c-.89,0-1,.07-1,.78h-.24V85.21h.24c0,.71.11.78,1,.78h2.77c.89,0,1,0,1-.75h.24Zm2.3-.66a.72.72,0,1,1-.72-.72A.72.72,0,0,1,44.77,86.61Z"/><path d="M37.15,93.73c-.07-.59-.12-1.12-.12-1.38s.15-.42.76-.47A2.23,2.23,0,0,1,37,90.17a1.4,1.4,0,0,1,1.47-1.54c.86,0,1.39.53,1.6,1.6a12.16,12.16,0,0,1,.19,1.64h.65c1.06,0,1.37-.18,1.37-.78a.69.69,0,0,0-.34-.67,1.51,1.51,0,0,0-.71-.16c-.36,0-.49-.19-.49-.61s.16-.7.46-.7a1.15,1.15,0,0,1,.93.62,3.06,3.06,0,0,1,.38,1.64,2.13,2.13,0,0,1-.41,1.48,1.58,1.58,0,0,1-1.24.39H38.56c-1.1,0-1.16,0-1.17.68ZM40,91.87c-.11-1.45-.48-2-1.41-2-.71,0-1.18.32-1.18.81a1.09,1.09,0,0,0,.66,1,2.56,2.56,0,0,0,1.16.18Z"/><path d="M37.36,94.3c0,.73.09.79,1,.79h5c.88,0,1-.07,1-.78h.23l.11,2.06c-.74,0-1.38-.06-2.05-.06h-4.3c-.91,0-1,.06-1,.79h-.24V94.3Z"/><path d="M36.8,108.6a2.75,2.75,0,0,1-.51-1.55,1.65,1.65,0,0,1,.79-1.39,3.05,3.05,0,0,1-.12-.9,3.37,3.37,0,0,1,1-2.55,3.91,3.91,0,0,1,2.79-1,4.37,4.37,0,0,1,2.87.91,3.25,3.25,0,0,1,1.11,2.61c0,2.16-1.46,3.51-3.79,3.51a4.64,4.64,0,0,1-2.6-.69,2.72,2.72,0,0,1-.84-.82,1.37,1.37,0,0,0-.68,1.06,1.68,1.68,0,0,0,.19.72Zm1.59-3.78a1.1,1.1,0,0,0,.54-.88c0-.36-.24-.58-.73-.65a1,1,0,0,0-.61.39,1.7,1.7,0,0,0-.37,1.08,1.81,1.81,0,0,0,.14.72A7.25,7.25,0,0,0,38.39,104.82Zm1.26-.41c0,.72-.43,1.27-1.49,1.91a6.73,6.73,0,0,0,.76.31,7.42,7.42,0,0,0,1.89.21,6.22,6.22,0,0,0,2.61-.47,1.77,1.77,0,0,0,1.06-1.65,1.64,1.64,0,0,0-.93-1.52,5.92,5.92,0,0,0-2.7-.53,6.26,6.26,0,0,0-1.64.19l-.51.17-.17.06A1.31,1.31,0,0,1,39.65,104.41Z"/><path d="M37,113.05a9.82,9.82,0,0,1,1,0,2.17,2.17,0,0,1-1.1-1.84,1.36,1.36,0,0,1,.75-1.29,2.88,2.88,0,0,1,1.24-.19h.14l2,0h.08a1.4,1.4,0,0,0,.73-.11c.12-.09.15-.17.16-.62h.24l.13,2c-.72,0-1.1-.07-2-.08H39.23A3.4,3.4,0,0,0,38,111a.67.67,0,0,0-.49.7,1.21,1.21,0,0,0,.84,1.08,2.82,2.82,0,0,0,1.19.19h1.58c.55,0,.75,0,.86-.15s.1-.16.11-.58h.24l.13,2c-1.37-.06-1.37-.06-2-.06H38.39c-.87,0-1,.1-1,.65h-.23Z"/><path d="M42.47,117.45c-.6,0-1.3-.06-1.94-.06H38.36c-.89,0-1,.07-1,.78h-.24v-2.78h.24c0,.71.11.78,1,.78h2.77c.89,0,1,0,1-.75h.24Zm2.3-.66a.72.72,0,1,1-.72-.72A.72.72,0,0,1,44.77,116.79Z"/><path d="M41.48,120.7a1.91,1.91,0,0,1,1,1.78,1.42,1.42,0,0,1-.68,1.36,2.22,2.22,0,0,1-1.23.25H38.36c-.89,0-1,.07-1,.76h-.24v-2.72h.24c0,.67.12.75,1,.75h2.16c1.08,0,1.53-.26,1.53-.88a1.18,1.18,0,0,0-.66-1,2.32,2.32,0,0,0-1-.27h-2c-.9,0-1,.07-1,.75h-.24v-2.73h.24c0,.69.11.76,1,.76h2.77c.85,0,1-.08,1-.74h.24l.13,2Z"/><path d="M38.68,127.26a2.76,2.76,0,0,0-.9.1.54.54,0,0,0-.37.49,1.19,1.19,0,0,0,.31.7l-.25.14a2.05,2.05,0,0,1-.5-1.37,1.2,1.2,0,0,1,.55-1.13A3.07,3.07,0,0,1,38.9,126H42v-.57h.3a1.06,1.06,0,0,0,.53,1,2.71,2.71,0,0,0,1.07.37l0,.5c-.41,0-.72,0-1.63,0v1.21H42v-1.21Z"/><path d="M37,133a9.82,9.82,0,0,1,1-.05,2.17,2.17,0,0,1-1.1-1.84,1.36,1.36,0,0,1,.75-1.29,2.88,2.88,0,0,1,1.24-.19h.14l2,0h.08a1.4,1.4,0,0,0,.73-.11c.12-.09.15-.17.16-.62h.24l.13,2c-.72-.05-1.1-.07-2-.08H39.23a3.4,3.4,0,0,0-1.22.13.67.67,0,0,0-.49.7,1.21,1.21,0,0,0,.84,1.08,2.82,2.82,0,0,0,1.19.19h1.58c.55,0,.75,0,.86-.15s.1-.16.11-.58h.24l.13,2c-1.37-.06-1.37-.06-2-.06H38.39c-.87,0-1,.1-1,.65h-.23Z"/><path d="M41.7,137.12a1.92,1.92,0,0,1,.79,1.62c0,1.34-1,2.1-2.62,2.1a3.48,3.48,0,0,1-2.15-.62,2.16,2.16,0,0,1-.74-1.69,1.87,1.87,0,0,1,.54-1.39H36.13c-.89,0-1,.06-1,.82h-.24v-2.79h.24c0,.7.11.76,1,.76h5c.85,0,1-.09,1-.76h.24l.13,2Zm-3.8.26a1.06,1.06,0,0,0-.64.92c0,.81.82,1.21,2.47,1.21s2.44-.38,2.44-1.09-1-1.32-2.57-1.32A4.11,4.11,0,0,0,37.9,137.38Z"/><path d="M37.36,141.64c0,.73.09.79,1,.79h5c.88,0,1-.07,1-.78h.23l.11,2.06c-.74,0-1.38-.06-2.05-.06h-4.3c-.91,0-1,.06-1,.79h-.24v-2.8Z"/><path d="M39.94,146.43a3.91,3.91,0,0,0-1.59.26,1.44,1.44,0,0,0-1,1.36,1.86,1.86,0,0,0,1.14,1.65l-.16.25a2.26,2.26,0,0,1-1.37-2.2,2.5,2.5,0,0,1,2.74-2.61,2.49,2.49,0,0,1,2.78,2.51,2,2,0,0,1-1.32,2.07,3.66,3.66,0,0,1-1.23.18Zm.29,2.22a3.9,3.9,0,0,0,1.25-.17c.53-.19.78-.47.78-.86s-.3-.76-.88-1a4.23,4.23,0,0,0-1.15-.21Z"/><path d="M38.68,152.49a2.76,2.76,0,0,0-.9.1.54.54,0,0,0-.37.49,1.19,1.19,0,0,0,.31.7l-.25.14a2.05,2.05,0,0,1-.5-1.37,1.2,1.2,0,0,1,.55-1.13,3.07,3.07,0,0,1,1.38-.15H42v-.57h.3a1.06,1.06,0,0,0,.53,1,2.71,2.71,0,0,0,1.07.37l0,.5c-.41,0-.72,0-1.63,0v1.21H42v-1.21Z"/><path d="M38.88,154.57v.36a2.35,2.35,0,0,0-1.05.3,1.24,1.24,0,0,0-.63,1.12c0,.61.32,1,.87,1s.71-.26,1.25-1.42a2.86,2.86,0,0,1,.68-1.08,1.23,1.23,0,0,1,.9-.35c1,0,1.59.72,1.59,1.85a4.75,4.75,0,0,1-.08.71,2.26,2.26,0,0,0-.06.44,1.31,1.31,0,0,0,.1.48l-1.75-.09v-.37c1-.07,1.56-.49,1.56-1.21a.81.81,0,0,0-.83-.89.7.7,0,0,0-.61.31,4.39,4.39,0,0,0-.58,1.12c-.47,1-.86,1.35-1.61,1.35a1.6,1.6,0,0,1-1.67-1.8,5.2,5.2,0,0,1,.12-1,2.19,2.19,0,0,0,0-.36,2.12,2.12,0,0,0-.06-.51Z"/></svg>