<svg xmlns="http://www.w3.org/2000/svg" viewBox="0 0 45 261"><title>phraseImg</title><path d="M4.4,5A15.82,15.82,0,0,1,9.53,7.84a2.88,2.88,0,0,1,1.17,2.31c0,1.47-.84,2.67-1.86,2.67-.48,0-.75-.3-1-1.14A22.14,22.14,0,0,0,6.5,8.35,10,10,0,0,0,4.22,5.2ZM8.54,25.12A38.9,38.9,0,0,0,19.85,11.89a30.57,30.57,0,0,0,2.4-5.67,3.61,3.61,0,0,0,.09-.84c0-.84-.63-1.53-2-2.19a2.14,2.14,0,0,1,1-.18A7.53,7.53,0,0,1,25,4.42c1.08.72,1.59,1.32,1.59,2a1.52,1.52,0,0,1-.45,1,12.58,12.58,0,0,0-1.56,2.52,37.33,37.33,0,0,1-5.43,8,28.1,28.1,0,0,1-10.38,7.5ZM11.21,3.25c4.14,1.62,6,3.15,6,5,0,1.47-1,2.82-2,2.82a.83.83,0,0,1-.78-.54A12.81,12.81,0,0,1,14,9.16,11.94,11.94,0,0,0,11,3.49Z"/><path d="M2.78,48.22A55.74,55.74,0,0,0,14,39.31c3.21-3.24,5-5.64,5-6.63,0-.63-.69-1.41-1.8-2a3.51,3.51,0,0,1,1-.12,6,6,0,0,1,3,1c1.38.81,2.19,1.71,2.19,2.4s-.15.72-1.2,1.47c-.12.09-.12.09-2,1.83-2.1,2-2.1,2-4.23,3.78a7.32,7.32,0,0,1,2.07,1.77c.27.42.3.72.33,2.94,0,1.38,0,1.77.21,7.47,0,.42,0,.84,0,1.14,0,1.23-.39,1.83-1.23,1.83-1.11,0-2.76-1.83-2.76-3.09a2.63,2.63,0,0,1,.18-1,34.77,34.77,0,0,0,.66-7.74c0-1.53-.09-1.95-.51-2.52a49.81,49.81,0,0,1-6.42,4.26,37.14,37.14,0,0,1-5.64,2.37Z"/><path d="M5.45,62.92c3.36.54,5.16,1,6.57,2a2.82,2.82,0,0,1,1.47,2.58c0,1.41-.69,2.49-1.62,2.49-.51,0-.81-.24-1.26-1A14.07,14.07,0,0,0,5.3,63.25Zm22.8,1.74A32.1,32.1,0,0,1,21.5,74a48.27,48.27,0,0,1-8.7,6.84,6.79,6.79,0,0,0-1.62,1.32,1.64,1.64,0,0,1-1.26.75C9.14,82.87,8,82,7,80.68a5.72,5.72,0,0,1-1.44-3.33,2.33,2.33,0,0,1,.15-.81c.81,1.38,1.8,2.22,2.61,2.22,1.26,0,5.19-2.07,8.76-4.62a58.93,58.93,0,0,0,10.83-9.66Z"/><path d="M8.66,115.66a22.29,22.29,0,0,0,4.5-7.17,21.84,21.84,0,0,0,1.53-6.39,1.69,1.69,0,0,0-.48-1.38,22.42,22.42,0,0,0-6.27,1.77,2.65,2.65,0,0,1-1.29.39c-.78,0-1.62-.63-2.64-1.95A3.43,3.43,0,0,1,3.14,99a1.65,1.65,0,0,1,.15-.63A3.23,3.23,0,0,0,6.2,100a36.23,36.23,0,0,0,5.64-.72C14.21,99,17,98.59,21,98.17a7.75,7.75,0,0,0,2.61-.63,2,2,0,0,1,.87-.24,4.58,4.58,0,0,1,1.92.63c1.14.57,1.71,1.2,1.71,1.8s-.48,1-1.26,1a2.32,2.32,0,0,1-.54-.06,37.85,37.85,0,0,0-5.58-.45,40.64,40.64,0,0,0-4.41.21c1.77,1,2,1.35,2,2.13,0,1.35-1.26,4.56-2.64,6.81a18.93,18.93,0,0,1-6.78,6.54ZM8.24,91.27a4.81,4.81,0,0,0,3.6,1.62,17.55,17.55,0,0,0,4.2-.66,9,9,0,0,0,2.67-1.11,1.71,1.71,0,0,1,.93-.27,3,3,0,0,1,1.62.6c.75.51,1.11,1,1.11,1.47s-.39.87-1.74,1.17a40.28,40.28,0,0,1-7.44.9C10.85,95,9.32,94,8,91.48Z"/><path d="M17.27,139.93c0,6.51-.36,8.07-1.8,8.07a1,1,0,0,1-1-.78c-.39-1-.48-2.28-.48-6.18,0-1.74,0-3.54.09-11v-.87c0-2.85-.09-3.6-.48-4.26a3,3,0,0,0-1.92-1.26.93.93,0,0,1,.66-.51,2.22,2.22,0,0,1,.54-.09,9.08,9.08,0,0,1,3.39.87c1.2.51,1.68,1,1.68,1.74,0,.33,0,.45-.36,1s-.36,1.74-.36,6.78Z"/><path d="M2.21,178.48A15.77,15.77,0,0,0,5,174.67a26.59,26.59,0,0,0,3-8.52,19.64,19.64,0,0,0,.36-3.06c0-1.29-.66-2.07-2.22-2.61a1.71,1.71,0,0,1,1.14-.3,8.12,8.12,0,0,1,3.36,1.23c1,.63,1.56,1.23,1.56,1.77a2.51,2.51,0,0,1-.36,1.14,23.72,23.72,0,0,0-1.17,3.81A18.17,18.17,0,0,1,6.08,176a18,18,0,0,1-3.63,2.73ZM29.78,165.1a22.55,22.55,0,0,1-3.54,5.25A41.57,41.57,0,0,1,19.7,176a7.88,7.88,0,0,0-1.56,1.26,1.24,1.24,0,0,1-.87.45c-1,0-2.61-2.1-2.61-3.39a1.35,1.35,0,0,1,.15-.63c.3-.84.36-1.92.36-8.52,0-2.82-.12-5.7-.24-6.57a2.68,2.68,0,0,0-2.31-2.19A1.28,1.28,0,0,1,13.7,156,8.89,8.89,0,0,1,17.33,157c1.14.57,1.68,1.14,1.68,1.74a2.32,2.32,0,0,1-.39,1.17,9.51,9.51,0,0,0-.39,2.37c-.21,2.13-.54,8.49-.54,10.17,0,.12,0,.42,0,.72a34,34,0,0,0,11.79-8.31Z"/><path d="M14.36,208.51a15.55,15.55,0,0,0,7.26-4.26,11.16,11.16,0,0,0,3-7.89c0-5.13-3.12-8.19-8.28-8.19a9.33,9.33,0,0,0-1.2.06,4.46,4.46,0,0,1,1.38,3.21c0,2.4-1.53,6.6-3.69,10.23-1.95,3.24-3.69,4.89-5.19,4.89A2,2,0,0,1,6,205.69a7.4,7.4,0,0,1-.69-2A5.17,5.17,0,0,0,4,201.49,5.76,5.76,0,0,1,2.87,198a9.9,9.9,0,0,1,2.52-6,14.9,14.9,0,0,1,11.31-4.92c6.69,0,11.46,4.23,11.46,10.17,0,4.35-2.4,7.83-6.75,9.84a22.32,22.32,0,0,1-6.93,1.8ZM8.75,191.44a10.23,10.23,0,0,0-3.21,7.14c0,2.07,1,4.2,2,4.2s3-2.49,4.92-6.18c1.5-2.82,2.4-5.31,2.4-6.63a3.45,3.45,0,0,0-.12-1,2.87,2.87,0,0,0-.24-.66A10.88,10.88,0,0,0,8.75,191.44Z"/><path d="M9.65,241.78c0,.69-.42.81-2.49.81-1.08,0-1.23-.09-1.23-.72.18-5.34.21-8.58.21-15.42,0-6.15,0-7.62-.18-10.17a31.41,31.41,0,0,1,4,2H21.41l1.89-2c1.2.87,1.56,1.14,2.64,2,.3.24.42.39.42.57s-.24.48-1.14,1l0,4.8c0,9,0,10.92.21,16.83,0,.36-.06.51-.21.63a5,5,0,0,1-2.25.33c-1,0-1.26-.09-1.26-.57V240h-12Zm12-22.86h-12v9.42h12ZM9.65,229v10.35h12V229Z"/><path d="M38.42,7.45c-.92,0-1,.1-1,1h-.26V5.1h.26c0,.93.12,1,1,1h5.92a2.09,2.09,0,0,0-.58-1.71A3.48,3.48,0,0,0,42,3.82l0-.36,2.54.19V9.94l-2.54.19,0-.36a3.07,3.07,0,0,0,1.8-.69,2.2,2.2,0,0,0,.5-1.63Z"/><path d="M37.05,13.16v-.74l4.19-1.25c.65-.19.84-.36.87-.79h.23V13H42.1c0-.51-.16-.7-.48-.7a1.91,1.91,0,0,0-.48.09l-2.83.82,3.9,1.28v.58l-3.9,1.22,2.51.74a2.41,2.41,0,0,0,.71.11.52.52,0,0,0,.5-.36,1.5,1.5,0,0,0,.08-.48h.23v2.22h-.23c0-.57-.32-.82-1.21-1.09l-3.85-1.17v-.72l3.66-1.21Z"/><path d="M42.47,21c-.6,0-1.3-.06-1.94-.06H38.36c-.89,0-1,.07-1,.78h-.24V18.91h.24c0,.71.11.78,1,.78h2.77c.89,0,1-.05,1-.75h.24Zm2.3-.66a.72.72,0,1,1-.72-.72A.72.72,0,0,1,44.77,20.31Z"/><path d="M41.48,24.22a1.91,1.91,0,0,1,1,1.78,1.42,1.42,0,0,1-.68,1.36,2.22,2.22,0,0,1-1.23.25H38.36c-.89,0-1,.07-1,.76h-.24V25.65h.24c0,.67.12.75,1,.75h2.16c1.08,0,1.53-.26,1.53-.88a1.18,1.18,0,0,0-.66-1,2.32,2.32,0,0,0-1-.27h-2c-.9,0-1,.07-1,.75h-.24V22.24h.24c0,.69.11.76,1,.76h2.77c.85,0,1-.08,1-.74h.24l.13,1.95Z"/><path d="M38.68,30.78a2.76,2.76,0,0,0-.9.1.54.54,0,0,0-.37.49,1.19,1.19,0,0,0,.31.7l-.25.14a2.05,2.05,0,0,1-.5-1.37,1.2,1.2,0,0,1,.55-1.13,3.07,3.07,0,0,1,1.38-.15H42V29h.3a1.06,1.06,0,0,0,.53,1,2.71,2.71,0,0,0,1.07.37l0,.5c-.41,0-.72,0-1.63,0V32H42V30.78Z"/><path d="M37.15,37.74c-.07-.59-.12-1.12-.12-1.38s.15-.42.76-.47A2.23,2.23,0,0,1,37,34.18a1.4,1.4,0,0,1,1.47-1.54c.86,0,1.39.53,1.6,1.6a12.16,12.16,0,0,1,.19,1.64h.65c1.06,0,1.37-.18,1.37-.78a.69.69,0,0,0-.34-.67,1.51,1.51,0,0,0-.71-.16c-.36,0-.49-.19-.49-.61s.16-.7.46-.7a1.15,1.15,0,0,1,.93.62,3.06,3.06,0,0,1,.38,1.64,2.13,2.13,0,0,1-.41,1.48,1.58,1.58,0,0,1-1.24.39H38.56c-1.1,0-1.16,0-1.17.68ZM40,35.88c-.11-1.45-.48-2-1.41-2-.71,0-1.18.32-1.18.81a1.09,1.09,0,0,0,.66,1,2.56,2.56,0,0,0,1.16.18Z"/><path d="M42.47,40.36c-.6,0-1.3-.06-1.94-.06H38.36c-.89,0-1,.07-1,.78h-.24V38.3h.24c0,.71.11.78,1,.78h2.77c.89,0,1,0,1-.75h.24Zm2.3-.66a.72.72,0,1,1-.72-.72A.72.72,0,0,1,44.77,39.7Z"/><path d="M37.36,41.64c0,.73.09.79,1,.79h5c.88,0,1-.07,1-.78h.23l.11,2.06c-.74,0-1.38-.06-2.05-.06h-4.3c-.91,0-1,.06-1,.79h-.24v-2.8Z"/><path d="M38.88,45.29v.36a2.35,2.35,0,0,0-1.05.3,1.24,1.24,0,0,0-.63,1.12c0,.61.32,1,.87,1s.71-.26,1.25-1.42A2.86,2.86,0,0,1,40,45.55a1.23,1.23,0,0,1,.9-.35c1,0,1.59.72,1.59,1.85a4.75,4.75,0,0,1-.08.71,2.26,2.26,0,0,0-.06.44,1.31,1.31,0,0,0,.1.48l-1.75-.09v-.37c1-.07,1.56-.49,1.56-1.21a.81.81,0,0,0-.83-.89.7.7,0,0,0-.61.31,4.39,4.39,0,0,0-.58,1.12c-.47,1-.86,1.35-1.61,1.35A1.6,1.6,0,0,1,37,47.1a5.2,5.2,0,0,1,.12-1,2.19,2.19,0,0,0,0-.36,2.12,2.12,0,0,0-.06-.51Z"/><path d="M37.38,53.07c0,.81.12.9,1,.9H43.3c.92,0,1-.1,1-.9h.26v3a5,5,0,0,1-.55,2.62A3.24,3.24,0,0,1,41,60.16a3.51,3.51,0,0,1-3.33-1.54A5.32,5.32,0,0,1,37.12,56V53.07Zm0,2.91a2.71,2.71,0,0,0,.69,2,3.9,3.9,0,0,0,2.71.79,4.4,4.4,0,0,0,2.57-.64,2.56,2.56,0,0,0,.93-2.25v-.6h-6.9Z"/><path d="M37.15,66.21c-.07-.59-.12-1.12-.12-1.38s.15-.42.76-.47A2.23,2.23,0,0,1,37,62.65a1.4,1.4,0,0,1,1.47-1.54c.86,0,1.39.53,1.6,1.6a12.16,12.16,0,0,1,.19,1.64h.65c1.06,0,1.37-.18,1.37-.78a.69.69,0,0,0-.34-.67,1.51,1.51,0,0,0-.71-.16c-.36,0-.49-.19-.49-.61s.16-.7.46-.7a1.15,1.15,0,0,1,.93.62,3.06,3.06,0,0,1,.38,1.64,2.13,2.13,0,0,1-.41,1.48,1.58,1.58,0,0,1-1.24.39H38.56c-1.1,0-1.16,0-1.17.68ZM40,64.35c-.11-1.45-.48-2-1.41-2-.71,0-1.18.32-1.18.81a1.09,1.09,0,0,0,.66,1,2.56,2.56,0,0,0,1.16.18Z"/><path d="M40.79,70.74a1.82,1.82,0,0,0,.7.17c.41,0,.59-.23.62-.79h.23V72.3h-.23c-.08-.56-.37-.81-1.5-1.26l-4.32-1.7c-1-.41-1.4-.77-1.4-1.39s.23-.73.69-.73.52.14.52.4a2,2,0,0,1-.05.4,1.89,1.89,0,0,0-.06.42c0,.31.13.45.59.64l.4.15,4.18-1.75c.8-.34.91-.43,1-.9h.23v2.67H42.1c0-.43-.12-.6-.39-.6a1.54,1.54,0,0,0-.58.15l-2.7,1Z"/></svg>