<svg xmlns="http://www.w3.org/2000/svg" viewBox="0 0 45 261"><title>phraseImg</title><path d="M1.28,22.66a32.59,32.59,0,0,0,6.3-7.23C9.17,13,10,11.08,10,10.15c0-.69-.57-1.32-1.83-1.92A2,2,0,0,1,9.11,8a6.33,6.33,0,0,1,3.36,1.32c1.26.84,1.86,1.53,1.86,2.13a1.24,1.24,0,0,1-.57,1,5,5,0,0,0-1.08,1.14C9.5,17.89,5.33,21.37,1.43,22.9ZM17.78,8.11a24.9,24.9,0,0,1,7.8,5.46c1.89,2,2.52,3.24,2.52,4.86,0,1.86-.84,3.27-1.92,3.27-.69,0-.9-.27-1.35-1.65A25.73,25.73,0,0,0,17.51,8.38Zm10-2.85A3.22,3.22,0,0,1,24.53,8.5a3.27,3.27,0,0,1-3.27-3.24A3.27,3.27,0,0,1,24.5,2,3.23,3.23,0,0,1,27.74,5.26Zm-5.4,0A2.18,2.18,0,1,0,24.5,3.07,2.15,2.15,0,0,0,22.34,5.26Z"/><path d="M9.5,55.12a33,33,0,0,0,7.11-7.23,32.11,32.11,0,0,0,4.77-9.09,52.26,52.26,0,0,0-8,1.5,14.47,14.47,0,0,0-3.48,1.17,2.49,2.49,0,0,1-1.14.3c-1.26,0-3.39-2.61-3.39-4.23a1.46,1.46,0,0,1,.18-.69A3.37,3.37,0,0,0,8.72,38.8c1.14,0,6.45-.75,10.38-1.44,1.8-.3,1.86-.33,2.55-.81a1.38,1.38,0,0,1,.84-.24,4,4,0,0,1,2,1.14c.93.81,1.38,1.44,1.38,1.92s-.12.57-.57.93a5.42,5.42,0,0,0-1.38,2c-3.51,6.63-8,10.77-14.19,13.17ZM8.69,30.85A4.25,4.25,0,0,0,12,32.38a16.14,16.14,0,0,0,6.9-1.74,1.21,1.21,0,0,1,.78-.24,5,5,0,0,1,2.37,1c.54.39.75.72.75,1.14,0,.69-.48.93-2.31,1.23a65.46,65.46,0,0,1-7.11.78c-2.34,0-3.57-.87-5-3.45Z"/><path d="M11.21,87.07a14.09,14.09,0,0,0,5.7-6.33c1.08-2.46,1.5-5.22,1.56-9.78a37.64,37.64,0,0,0-6.06.78v1.62c0,1,0,3.24.06,4.23v.18c0,1.56-.39,2.28-1.23,2.28-.51,0-1-.39-1.53-1.11a3.7,3.7,0,0,1-.66-1.77,2.39,2.39,0,0,1,.21-.84,11.53,11.53,0,0,0,.51-4,10,10,0,0,0-3.18,1.14,3,3,0,0,1-1.2.36c-.75,0-1.89-1-2.7-2.37a3.71,3.71,0,0,1-.54-1.56,2.22,2.22,0,0,1,.06-.36,3.45,3.45,0,0,0,2.91,1.53,30.71,30.71,0,0,0,4.62-.66,17.6,17.6,0,0,0-.36-4.23,3.33,3.33,0,0,0-2.1-2.07,1.54,1.54,0,0,1,1-.3,7.83,7.83,0,0,1,3.66,1.29c.78.51,1.05.9,1.05,1.41a2.38,2.38,0,0,1-.21.93A10.39,10.39,0,0,0,12.41,70c1.05-.18,1.8-.3,3.09-.45.36,0,.36,0,2.13-.24a8,8,0,0,0,.84-.09c0-.45,0-1.23,0-2.37,0-2.13-.15-3-.6-3.57a3.62,3.62,0,0,0-2.19-1.17,2.06,2.06,0,0,1,1.44-.42,9.07,9.07,0,0,1,3.78.9c.9.42,1.29.87,1.29,1.47a1.56,1.56,0,0,1-.18.72c-.42.93-.54,1.74-.66,4.08a8.62,8.62,0,0,0,3.33-.66,1.69,1.69,0,0,1,.81-.21,4.45,4.45,0,0,1,2.1.78c.75.48,1.11.93,1.11,1.41a.9.9,0,0,1-1,.9,3.11,3.11,0,0,1-.48,0c-1.47-.15-3.15-.21-5-.21h-1a42.18,42.18,0,0,1-.42,6.18,11.22,11.22,0,0,1-5.19,8.19,14.28,14.28,0,0,1-4.29,2.1Z"/><path d="M2.78,110.8A55.74,55.74,0,0,0,14,101.89c3.21-3.24,5-5.64,5-6.63,0-.63-.69-1.41-1.8-2a3.51,3.51,0,0,1,1-.12,6,6,0,0,1,3,1c1.38.81,2.19,1.71,2.19,2.4s-.15.72-1.2,1.47c-.12.09-.12.09-2,1.83-2.1,2-2.1,2-4.23,3.78a7.32,7.32,0,0,1,2.07,1.77c.27.42.3.72.33,2.94,0,1.38,0,1.77.21,7.47,0,.42,0,.84,0,1.14,0,1.23-.39,1.83-1.23,1.83-1.11,0-2.76-1.83-2.76-3.09a2.63,2.63,0,0,1,.18-1A34.77,34.77,0,0,0,15.5,107c0-1.53-.09-2-.51-2.52a49.81,49.81,0,0,1-6.42,4.26,37.14,37.14,0,0,1-5.64,2.37Z"/><path d="M10.64,125.59a8.73,8.73,0,0,1,3.3.87c1.32.66,2,1.29,2,2a1.5,1.5,0,0,1-.27.81,3.82,3.82,0,0,0-.51,2c-.06.6-.12,2.55-.18,4.14a22.44,22.44,0,0,1,7.23,1.47c1.53.69,2.19,1.59,2.19,2.94s-.54,2.13-1.32,2.13c-.45,0-.63-.12-1.41-1a17.1,17.1,0,0,0-6.69-4.68V141c0,2.52,0,2.52.09,6.09,0,.51,0,.93,0,1.44a5.51,5.51,0,0,1-.18,1.8,1.09,1.09,0,0,1-1,.75A2.13,2.13,0,0,1,12.2,150a4.62,4.62,0,0,1-1.08-2.43,3.09,3.09,0,0,1,.27-1.2c.51-1.47.69-4.95.69-12.63,0-4.32-.09-5.46-.54-6.27a3.65,3.65,0,0,0-2.07-1.56A2.07,2.07,0,0,1,10.64,125.59Z"/><path d="M38.41,5.8c-.91,0-1,.09-1,1h-.26V3.6h.26c0,.82.12.9,1,.9H43.3c.91,0,1-.08,1-.86h.26v3c0,2-.63,2.93-2.08,2.93a1.9,1.9,0,0,1-2-1.28,6.43,6.43,0,0,1-.26-2V5.8Zm2.15.52A2,2,0,0,0,41,7.7a2.06,2.06,0,0,0,1.49.49c1.23,0,1.84-.59,1.84-1.75V5.8H40.56Z"/><path d="M37.15,15.31c-.07-.59-.12-1.12-.12-1.38s.15-.42.76-.47A2.23,2.23,0,0,1,37,11.75a1.4,1.4,0,0,1,1.47-1.54c.86,0,1.39.53,1.6,1.6a12.16,12.16,0,0,1,.19,1.64h.65c1.06,0,1.37-.18,1.37-.78a.69.69,0,0,0-.34-.67,1.51,1.51,0,0,0-.71-.16c-.36,0-.49-.19-.49-.61s.16-.7.46-.7a1.15,1.15,0,0,1,.93.62,3.06,3.06,0,0,1,.38,1.64,2.13,2.13,0,0,1-.41,1.48,1.58,1.58,0,0,1-1.24.39H38.56c-1.1,0-1.16,0-1.17.68ZM40,13.45c-.11-1.45-.48-2-1.41-2-.71,0-1.18.32-1.18.81a1.09,1.09,0,0,0,.66,1,2.56,2.56,0,0,0,1.16.18Z"/><path d="M42.47,17.78l-.81,0h-.3a1.78,1.78,0,0,1,1.13,1.48.79.79,0,0,1-.76.85.64.64,0,0,1-.61-.72.41.41,0,0,1,.32-.47c.28-.08.35-.13.35-.29v0c0-.19-.18-.39-.47-.56a2.25,2.25,0,0,0-1.11-.24H38.36c-.9,0-1,.06-1,.8h-.24V15.86h.24c0,.69.11.76,1,.76h2.77c.85,0,1-.09,1-.72h.24Z"/><path d="M37.15,25.61C37.08,25,37,24.49,37,24.23s.15-.42.76-.47A2.23,2.23,0,0,1,37,22.05a1.4,1.4,0,0,1,1.47-1.54c.86,0,1.39.53,1.6,1.6a12.16,12.16,0,0,1,.19,1.64h.65c1.06,0,1.37-.18,1.37-.78a.69.69,0,0,0-.34-.67,1.51,1.51,0,0,0-.71-.16c-.36,0-.49-.19-.49-.61s.16-.7.46-.7a1.15,1.15,0,0,1,.93.62,3.06,3.06,0,0,1,.38,1.64,2.13,2.13,0,0,1-.41,1.48,1.58,1.58,0,0,1-1.24.39H38.56c-1.1,0-1.16,0-1.17.68ZM40,23.75c-.11-1.45-.48-2-1.41-2-.71,0-1.18.32-1.18.81a1.09,1.09,0,0,0,.66,1,2.56,2.56,0,0,0,1.16.18Z"/><path d="M38.88,26.48v.36a2.35,2.35,0,0,0-1.05.3,1.24,1.24,0,0,0-.63,1.12c0,.61.32,1,.87,1s.71-.26,1.25-1.42A2.86,2.86,0,0,1,40,26.74a1.23,1.23,0,0,1,.9-.35c1,0,1.59.72,1.59,1.85a4.75,4.75,0,0,1-.08.71,2.26,2.26,0,0,0-.06.44,1.31,1.31,0,0,0,.1.48l-1.75-.09v-.37c1-.07,1.56-.49,1.56-1.21a.81.81,0,0,0-.83-.89.7.7,0,0,0-.61.31,4.39,4.39,0,0,0-.58,1.12c-.47,1-.86,1.35-1.61,1.35A1.6,1.6,0,0,1,37,28.29a5.2,5.2,0,0,1,.12-1,2.19,2.19,0,0,0,0-.36,2.12,2.12,0,0,0-.06-.51Z"/><path d="M42.47,33c-.6,0-1.3-.06-1.94-.06H38.36c-.89,0-1,.07-1,.78h-.24V30.91h.24c0,.71.11.78,1,.78h2.77c.89,0,1-.05,1-.75h.24Zm2.29-.66a.72.72,0,1,1-.71-.72A.71.71,0,0,1,44.76,32.31Z"/><path d="M38.68,36.15a2.76,2.76,0,0,0-.9.1.54.54,0,0,0-.37.49,1.19,1.19,0,0,0,.31.7l-.25.14a2.05,2.05,0,0,1-.5-1.37,1.2,1.2,0,0,1,.55-1.13,3.07,3.07,0,0,1,1.38-.15H42v-.57h.3a1.06,1.06,0,0,0,.53,1,2.71,2.71,0,0,0,1.07.37l0,.5c-.41,0-.72,0-1.63,0v1.21H42V36.15Z"/><path d="M39.94,39.37a3.91,3.91,0,0,0-1.59.26,1.44,1.44,0,0,0-1,1.36,1.86,1.86,0,0,0,1.14,1.65l-.16.25A2.26,2.26,0,0,1,37,40.69a2.5,2.5,0,0,1,2.74-2.61,2.49,2.49,0,0,1,2.78,2.51,2,2,0,0,1-1.32,2.07,3.66,3.66,0,0,1-1.23.18Zm.29,2.22a3.9,3.9,0,0,0,1.25-.17c.53-.19.78-.47.78-.86s-.3-.76-.88-1a4.23,4.23,0,0,0-1.15-.21Z"/></svg>