<svg xmlns="http://www.w3.org/2000/svg" viewBox="0 0 45 261"><title>phraseImg</title><path d="M17.36,17.77a11,11,0,0,0,4.2,3.51A20.57,20.57,0,0,0,30,23.65V24a3.66,3.66,0,0,0-2,2.13,6.83,6.83,0,0,0-.33,1c-.06.24-.15.33-.33.33a9.81,9.81,0,0,1-2.61-1.14,19,19,0,0,1-7.83-8.25l.06,3.66c.12,4.59.12,4.59.15,5.82,0,.36-.06.54-.24.66a4.36,4.36,0,0,1-2.13.3c-.93,0-1.08-.09-1.11-.66.06-1.41.18-4.26.18-5.37l0-2.07A25.61,25.61,0,0,1,7.76,25a30.75,30.75,0,0,1-6.09,2.55l-.18-.39a29.46,29.46,0,0,0,10.59-9.42H8.75v.45c0,.33-.09.48-.24.6a4.22,4.22,0,0,1-2,.33c-.78,0-1-.12-1-.72.15-2.94.18-4.11.18-6.84a43.54,43.54,0,0,0-.15-4.86c1.53.69,2,.9,3.57,1.65h4.71V5.14H4.64a12.25,12.25,0,0,0-2.28.18L2.12,4.21a11.26,11.26,0,0,0,2.52.3h9.15A17.59,17.59,0,0,0,13.55.7c4.11.39,4.56.48,4.56.9,0,.27-.27.48-1.17.78V4.51h6.54C24.5,3.37,24.8,3,25.82,2c1.47,1.14,1.92,1.5,3.39,2.73.12.12.15.18.15.27s-.12.18-.3.18H16.94V8.38h5.19c.69-.75.9-1,1.62-1.68,1.08.72,1.41,1,2.4,1.71.33.24.45.39.45.57s-.27.48-1.11.9c0,4.8,0,5,.09,8.13v.12a.61.61,0,0,1-.21.54,4.16,4.16,0,0,1-2.19.39c-.63,0-.78-.12-.84-.57v-.72ZM13.79,9h-5v3.66h5Zm0,4.29h-5v3.84h5ZM22.34,9h-5.4v3.66h5.4Zm0,4.29h-5.4v3.84h5.4Z"/><path d="M1.58,60.55a27.38,27.38,0,0,0,4.68-5.4,20.76,20.76,0,0,0,2-3.69c3.75,1.35,4.2,1.53,4.2,1.86s-.27.33-1.44.45a24.81,24.81,0,0,1-4,3.9,25,25,0,0,1-5.28,3.15ZM23.72,39c1-1.11,1.29-1.47,2.28-2.52,1.56,1.14,2,1.47,3.63,2.7a.38.38,0,0,1,.12.21c0,.15-.15.24-.33.24H4.19a9.47,9.47,0,0,0-1.83.18l-.21-1a7.38,7.38,0,0,0,2,.24h9.63V36.79a13.33,13.33,0,0,0-.18-2.4c1,.09,1.8.15,2.31.18,1.89.15,2.64.33,2.64.69s-.33.51-1.29.81V39ZM17.39,54.31l0,4.8a1.93,1.93,0,0,1-.9,1.8,5.92,5.92,0,0,1-2.22.78,5.31,5.31,0,0,1-1.14.15c-.3,0-.42-.09-.45-.42-.24-1.8-.63-2.1-4.08-3v-.33c.51,0,.93.06,1.2.06,2.76.18,2.76.18,3.93.21.3,0,.42-.09.42-.36V49.54H9.74v.72c0,.3-.15.42-.45.51a7.92,7.92,0,0,1-2,.21c-.78,0-1-.12-1-.57.06-1.53.09-2.37.09-4.32,0-2.76,0-3.72-.12-5.25a34,34,0,0,1,3.78,1.86H21.26c.69-.78.9-1,1.65-1.8a29.38,29.38,0,0,1,2.67,1.86q.27.18.27.36a.93.93,0,0,1-.15.3c-.09.06-.39.27-1,.6v1.56c0,1.53,0,2.28.09,4.77,0,.42-.12.57-.51.66a16.56,16.56,0,0,1-2.1.15c-.57,0-.75-.12-.78-.48V49.54H17.39Zm-7.65-5.4h11.7V43.33H9.74ZM19.4,52a30,30,0,0,1,6.51,2.85,3.4,3.4,0,0,1,1.68,2.73c0,1.44-.87,2.94-1.71,2.94-.36,0-.63-.3-1.05-1.14a20.76,20.76,0,0,0-5.61-7.08Z"/><path d="M9.83,76.57a71,71,0,0,0-.21-8.16A21.45,21.45,0,0,1,14.3,69a.42.42,0,0,1,.15.3c0,.33-.3.51-1.29.78-.06,5-.06,5.88-.06,7.38,0,6.66,0,15.15.06,16.74v.21c0,.69-.39.9-1.74,1-.33,0-.57,0-.72,0h-.18c-.6,0-.87-.18-.87-.6v-.18c.06-2,.06-2,.18-8-.45.36-.45.36-1.14,1A52.7,52.7,0,0,1,4.37,91c0,.27.06.54.06.72,0,.51-.21.87-.48.87-.42,0-.69-.6-2.28-4.71a46.78,46.78,0,0,0,8.16-2.43V77.2H4.52a20.74,20.74,0,0,0-2.07.18L2.3,76.27a10.82,10.82,0,0,0,2.22.3Zm10.32,3.21a28.84,28.84,0,0,0,2.31-2.52A16.38,16.38,0,0,0,25.25,73q1.26.81,1.89,1.17c2.13,1.26,2.43,1.5,2.43,1.86s-.3.42-.72.42q-.23,0-1-.09a39.57,39.57,0,0,1-7.71,4.23V91c0,.75.21.81,3.06.81,1.41,0,1.83-.15,2.19-.75s.6-1.23,2.19-6.54h.3l-.09,5.52v.33c0,.63.09.75.66,1a1.33,1.33,0,0,1,1.05,1.35,1.81,1.81,0,0,1-.72,1.38c-.78.6-1.95.75-5.46.75-3.72,0-4.53-.06-5.22-.33-.87-.33-1.2-1-1.29-2.4,0-.84,0-4.35,0-10.5V73.06c0-2-.06-3.33-.18-4.65,4.29.33,4.95.45,4.95,1,0,.33-.39.51-1.47.75Z"/><path d="M13.91,106.48a13,13,0,0,1-.3,2.52,8.7,8.7,0,0,1-5.82,6.6,24.49,24.49,0,0,1-5.37,1.32l-.18-.39c3.75-1.23,5.94-2.82,7.26-5.22a9.75,9.75,0,0,0,1.14-4.83H6.47v.24a7.45,7.45,0,0,1-.72,3.36,2.53,2.53,0,0,1-2.1,1.41,1.87,1.87,0,0,1-1.68-2c0-.78.24-1.11,1.05-1.56a4.94,4.94,0,0,0,2-1.68,4.84,4.84,0,0,0,.72-2.4h.33a12.07,12.07,0,0,1,.33,2h7.2v-2a12.85,12.85,0,0,0-.15-2.25c4.32.3,5,.42,5,.9s-.27.48-1.44.78v2.58h6.72c.75-.81,1-1,1.74-1.83a38,38,0,0,1,3.3,2.49c.24.21.3.36.3.51a.45.45,0,0,1-.12.27,1.32,1.32,0,0,1-.78.18l-.66,0-.69.09a39.77,39.77,0,0,1-4.2,2.67l-.24-.12a16.33,16.33,0,0,0,1.44-3.66H19.79v5.28c0,.66.18.72,2.58.72s2.76-.06,3.12-.57A26.35,26.35,0,0,0,27,108.55h.33l-.06,2.67,0,.45c0,.3.06.36.6.6s.87.57.87,1.11a1.37,1.37,0,0,1-1.11,1.35,28.58,28.58,0,0,1-5.61.33c-3.12,0-4-.09-4.65-.51-.45-.3-.63-.81-.63-1.74v-6.33Zm3.21,20.58h5.82c1.11-1.26,1.44-1.62,2.55-2.76,1.5,1.2,2,1.59,3.48,2.88a.56.56,0,0,1,.15.3c0,.12-.12.21-.3.21H5a15.69,15.69,0,0,0-2.55.24l-.36-1.2a19.51,19.51,0,0,0,3.15.33h8.4v-8H7.13a14.49,14.49,0,0,0-2.19.27l-.27-1.14a22.76,22.76,0,0,0,2.64.24h13.8c.93-1.14,1.23-1.47,2.22-2.58,1.56,1.17,2,1.56,3.6,2.79.09.09.15.15.15.21a.24.24,0,0,1-.27.21H17.12Z"/><path d="M1.31,142.33a14.81,14.81,0,0,1,4.17,1.41,2,2,0,0,1,1.29,1.89c0,1.23-.93,2.46-1.89,2.46-.48,0-.6-.18-1-1.14a11,11,0,0,0-2.73-4.35Zm.06,11.07a12.07,12.07,0,0,0,1.95.33c.69,0,.93-.36,2.22-3.06s2.7-6,4.08-9.51l.36.15L6.44,153.76a5.28,5.28,0,0,0-.24,1.17,5.15,5.15,0,0,0,.42,1.74,7.65,7.65,0,0,1,.6,2.58,3.29,3.29,0,0,1-3.09,3.3.85.85,0,0,1-.93-.93,16.65,16.65,0,0,1,.27-2.22,21.94,21.94,0,0,0,.3-3.09c0-1.38-.3-1.68-2.46-2.58Zm1.92-17.58c4.17,1,5.76,1.86,5.76,3.3,0,1.29-.9,2.52-1.8,2.52-.39,0-.57-.18-.93-1a12.6,12.6,0,0,0-3.21-4.53Zm10.83,13.35a20.35,20.35,0,0,1-7.2,4.74l-.12-.24a20.94,20.94,0,0,0,4.59-4.74,16.33,16.33,0,0,0,1.71-3.06h-2a8.13,8.13,0,0,0-1.95.18L9,145a8.83,8.83,0,0,0,2.16.24h2v-4.83H12a10.48,10.48,0,0,0-2,.18l-.15-1.05a8.21,8.21,0,0,0,2,.24h1.23v-1.86a20.23,20.23,0,0,0-.15-2.49c.93.09,1.62.15,2.1.18,1.92.18,2.4.3,2.4.63s-.33.48-1.2.69v2.85h3.81v-2.1a14.78,14.78,0,0,0-.15-2.22c.9.06,1.65.12,2.1.18,1.95.15,2.43.27,2.43.6s-.3.45-1.2.72v2.82h1c.75-1,1-1.26,1.77-2.22,1.32,1,1.71,1.32,3,2.43a.49.49,0,0,1,.15.27c0,.09-.12.15-.3.15H23.3v4.83h1.35c.81-1.08,1.05-1.41,1.89-2.43,1.38,1.11,1.77,1.44,3.12,2.64a.41.41,0,0,1,.15.27c0,.09-.12.15-.33.15h-8.1a9.15,9.15,0,0,0,2.34,1.92,15.49,15.49,0,0,0,6.36,1.86V150a3.22,3.22,0,0,0-1.29,1.32,5.6,5.6,0,0,0-.6,1.5c-.06.24-.15.33-.33.33a3.91,3.91,0,0,1-1.17-.57,12.21,12.21,0,0,1-2.88-2.19,4.89,4.89,0,0,1-.51.33c0,1.44,0,1.44.09,4.41,0,.57-.45.72-2,.72-1,0-1.08,0-1.11-.45v-1H14.87v4.14c0,.78.09.81,1.62.81.63,0,1.56,0,2.79,0h.24a15.79,15.79,0,0,0,4.17-.27c.6-.27,1.14-1.38,2.55-5.19l.3.06-.24,3.93v.21c0,.39.09.51.51.66.81.27,1.17.69,1.17,1.38a1.67,1.67,0,0,1-1.32,1.56c-1,.3-2.73.39-6.66.39-6.54,0-7,0-7.59-.42s-.69-.78-.69-1.77l0-2.46v-2.88c0-1,0-1.44-.06-2.61a34.62,34.62,0,0,1,3.48,1.8h5.07V150h-4a7.78,7.78,0,0,0-1.89.18Zm2.49-3.3a17.75,17.75,0,0,1-2.46,3.27,9.25,9.25,0,0,0,2,.24H20c.63-.66.81-.84,1.38-1.38.69.57.93.75,1.65,1.35a14.81,14.81,0,0,1-2.16-3.48Zm3.51-5.46H16.31v4.83h3.81Z"/><path d="M39,4.94c-1.32,0-1.6.18-1.65,1h-.27V3.47h.27c0,.85.37,1.06,1.73,1.06h4c1,0,1.19-.17,1.25-1h.26V5.65L38.84,9.73H42.6A2.76,2.76,0,0,0,44,9.54c.26-.15.35-.36.38-.87h.27V11.2h-.27c0-.48-.12-.69-.38-.85a2.56,2.56,0,0,0-1.28-.21H37.08V9.4l6.38-4.46Z"/><path d="M41.78,12.54a2.57,2.57,0,0,1,.71,1.87A2.5,2.5,0,0,1,39.75,17a3,3,0,0,1-2-.66,2.66,2.66,0,0,1-.81-2,2.55,2.55,0,0,1,.76-1.88,3,3,0,0,1,2-.69A3.08,3.08,0,0,1,41.78,12.54ZM37.19,14.4c0,.87.78,1.26,2.52,1.26s2.55-.4,2.55-1.27a1,1,0,0,0-.58-.93,4.42,4.42,0,0,0-1.94-.32C38,13.14,37.19,13.54,37.19,14.4Z"/><path d="M42.47,19.61l-.81,0h-.3a1.78,1.78,0,0,1,1.13,1.48.79.79,0,0,1-.76.85.64.64,0,0,1-.61-.72.41.41,0,0,1,.32-.47c.28-.08.35-.13.35-.29v0c0-.19-.18-.39-.47-.56a2.25,2.25,0,0,0-1.11-.24H38.36c-.9,0-1,.06-1,.8h-.24V17.69h.24c0,.69.11.76,1,.76h2.77c.85,0,1-.09,1-.72h.24Z"/><path d="M38.68,24.16a2.76,2.76,0,0,0-.9.1.54.54,0,0,0-.37.49,1.19,1.19,0,0,0,.31.7l-.25.14a2.05,2.05,0,0,1-.5-1.37,1.2,1.2,0,0,1,.55-1.13,3.07,3.07,0,0,1,1.38-.15H42v-.57h.3a1.06,1.06,0,0,0,.53.95,2.71,2.71,0,0,0,1.07.37l0,.5c-.41,0-.72,0-1.63,0v1.21H42V24.16Z"/><path d="M41.48,27.86a1.94,1.94,0,0,1,1,1.82,1.47,1.47,0,0,1-.7,1.44,2.62,2.62,0,0,1-1.23.22h-2.2c-.9,0-1,.07-1,.76h-.24V29.37h.24c0,.68.1.75,1,.75h2.13A2.75,2.75,0,0,0,41.57,30a.76.76,0,0,0,.46-.77,1.2,1.2,0,0,0-.69-1.08,2,2,0,0,0-1.06-.27H38.36c-.89,0-1,.07-1,.75h-.24V25.88h.24c0,.69.1.76,1,.76h5c.88,0,1-.07,1-.77h.23l.11,2.05c-.77-.05-1.25-.06-2.05-.06Z"/><path d="M38.42,39.78c-.92,0-1,.1-1,1h-.26V37.43h.26c0,.93.12,1,1,1h5.92a2.12,2.12,0,0,0-.58-1.71,3.48,3.48,0,0,0-1.72-.6l0-.36L44.6,36v6.29l-2.54.19,0-.36a3.07,3.07,0,0,0,1.8-.69,2.24,2.24,0,0,0,.5-1.63Z"/><path d="M41.78,43.8a2.57,2.57,0,0,1,.71,1.87,2.5,2.5,0,0,1-2.74,2.59,3,3,0,0,1-2-.66,2.66,2.66,0,0,1-.81-2,2.55,2.55,0,0,1,.76-1.88,3,3,0,0,1,2-.69A3.08,3.08,0,0,1,41.78,43.8Zm-4.59,1.86c0,.87.78,1.26,2.52,1.26s2.55-.4,2.55-1.27a1,1,0,0,0-.58-.93,4.42,4.42,0,0,0-1.94-.32C38,44.4,37.19,44.8,37.19,45.66Z"/><path d="M38.36,50.88c-.9,0-1,.07-1,.75h-.24V48.92h.24c0,.68.11.75,1,.75h5c.88,0,1-.07,1-.76h.23l.11,2c-.74,0-1.38-.06-2.05-.06H39.51l1.54,1.34a1.08,1.08,0,0,0,.63.31c.27,0,.4-.21.43-.69h.23v2.58h-.23a2.23,2.23,0,0,0-.26-.84,3.2,3.2,0,0,0-.81-1l-.41-.37-2.39,1.39c-.62.37-.8.58-.9,1h-.22V52.84L38,52.4l1.72-1-.63-.56Z"/><path d="M40.79,59a1.82,1.82,0,0,0,.7.17c.41,0,.59-.23.62-.79h.23v2.18h-.23c-.08-.56-.37-.81-1.5-1.26l-4.32-1.7c-1-.41-1.4-.77-1.4-1.39s.23-.73.69-.73.52.14.52.4a2,2,0,0,1-.05.4,1.89,1.89,0,0,0-.06.42c0,.31.13.45.59.64l.4.15,4.18-1.75c.8-.34.91-.43,1-.9h.23v2.67H42.1c0-.43-.12-.6-.39-.6a1.54,1.54,0,0,0-.58.15l-2.7,1Z"/><path d="M41.78,61.82a2.57,2.57,0,0,1,.71,1.87,2.5,2.5,0,0,1-2.74,2.59,3,3,0,0,1-2-.66,2.66,2.66,0,0,1-.81-2,2.55,2.55,0,0,1,.76-1.88,3,3,0,0,1,2-.69A3.08,3.08,0,0,1,41.78,61.82Zm-4.59,1.86c0,.87.78,1.26,2.52,1.26s2.55-.4,2.55-1.27a1,1,0,0,0-.58-.93,4.42,4.42,0,0,0-1.94-.32C38,62.42,37.19,62.82,37.19,63.68Z"/><path d="M38.89,72a2.65,2.65,0,0,0-.92-.22c-.39,0-.57.28-.59.94h-.26V70.12h.26c0,.65.4,1,1.58,1.46l5.64,2.13.08.74-6.13,2.18c-.62.23-.94.42-1.06.65a1.65,1.65,0,0,0-.11.53h-.26V74.55h.26c0,.63.15.86.48.86h0a2.61,2.61,0,0,0,.66-.15l1.1-.38V72.25Zm4.4,1.64L40,72.39v2.36Z"/><path d="M42.47,80.24c-.6,0-1.3-.06-1.94-.06H38.36c-.89,0-1,.07-1,.78h-.24V78.18h.24c0,.71.11.78,1,.78h2.77c.89,0,1,0,1-.75h.24Zm2.3-.66a.72.72,0,1,1-.72-.72A.72.72,0,0,1,44.77,79.58Z"/><path d="M42.47,83.42l-.81,0h-.3a1.78,1.78,0,0,1,1.13,1.48.79.79,0,0,1-.76.85.64.64,0,0,1-.61-.72.41.41,0,0,1,.32-.47c.28-.08.35-.13.35-.29v0c0-.19-.18-.39-.47-.56a2.25,2.25,0,0,0-1.11-.24H38.36c-.9,0-1,.06-1,.8h-.24V81.5h.24c0,.69.11.76,1,.76h2.77c.85,0,1-.09,1-.72h.24Z"/><path d="M41.7,87.88a1.92,1.92,0,0,1,.79,1.62c0,1.34-1,2.1-2.62,2.1A3.48,3.48,0,0,1,37.72,91,2.16,2.16,0,0,1,37,89.29a1.87,1.87,0,0,1,.54-1.39H36.13c-.89,0-1,.06-1,.82h-.24V85.93h.24c0,.7.11.76,1,.76h5c.85,0,1-.09,1-.76h.24l.13,1.95Zm-3.8.26a1.06,1.06,0,0,0-.64.92c0,.81.82,1.21,2.47,1.21s2.44-.38,2.44-1.09-1-1.32-2.57-1.32A4.11,4.11,0,0,0,37.9,88.14Z"/><path d="M41.78,93.29a2.57,2.57,0,0,1,.71,1.87,2.5,2.5,0,0,1-2.74,2.59,3,3,0,0,1-2-.66,2.66,2.66,0,0,1-.81-2,2.55,2.55,0,0,1,.76-1.88,3,3,0,0,1,2-.69A3.08,3.08,0,0,1,41.78,93.29Zm-4.59,1.86c0,.87.78,1.26,2.52,1.26s2.55-.4,2.55-1.27a1,1,0,0,0-.58-.93,4.42,4.42,0,0,0-1.94-.32C38,93.89,37.19,94.29,37.19,95.15Z"/><path d="M42.47,100.36l-.81,0h-.3a1.78,1.78,0,0,1,1.13,1.48.79.79,0,0,1-.76.85.64.64,0,0,1-.61-.72.41.41,0,0,1,.32-.47c.28-.08.35-.13.35-.29v0c0-.19-.18-.39-.47-.56a2.25,2.25,0,0,0-1.11-.24H38.36c-.9,0-1,.06-1,.8h-.24V98.44h.24c0,.69.11.76,1,.76h2.77c.85,0,1-.09,1-.72h.24Z"/><path d="M38.68,104.91a2.76,2.76,0,0,0-.9.1.54.54,0,0,0-.37.49,1.19,1.19,0,0,0,.31.7l-.25.14A2.05,2.05,0,0,1,37,105a1.2,1.2,0,0,1,.55-1.13,3.07,3.07,0,0,1,1.38-.15H42v-.57h.3a1.06,1.06,0,0,0,.53.95,2.71,2.71,0,0,0,1.07.37l0,.5c-.41,0-.72,0-1.63,0v1.21H42v-1.21Z"/></svg>