<svg xmlns="http://www.w3.org/2000/svg" viewBox="0 0 45 261"><title>phraseImg</title><path d="M25.31,14.08l1.89-2.43c1.26,1.11,1.65,1.44,2.82,2.61a.49.49,0,0,1,.12.27c0,.09-.12.18-.27.18H24.92v5.52c0,1.53,0,2.58.06,4.77,0,1.38-.3,1.92-1.17,2.46a7.68,7.68,0,0,1-3.42.87c-.27,0-.3-.06-.33-.45-.12-1.56-1.08-2.22-4.47-3v-.36c2.88.18,3.12.21,5.34.27h.12c.36,0,.51-.15.51-.48V14.71H9.62C9.32,18.34,8.93,20,8,22A17,17,0,0,1,1.91,28.6l-.18-.18a17.75,17.75,0,0,0,3.66-6.81,29.1,29.1,0,0,0,1-6.9H3.71a5.93,5.93,0,0,0-2,.21l-.24-1.11a9.14,9.14,0,0,0,2.28.27H6.44c.09-1.92.12-3.42.12-5.88,0-2.79-.06-4.23-.24-6.93a30.38,30.38,0,0,1,3.84,1.89H21.29c.78-.78,1-1.05,1.8-1.89,1.17.78,1.53,1,2.61,1.89.24.21.36.39.36.51a1.1,1.1,0,0,1-.51.66,2.05,2.05,0,0,0-.63.42v9.33ZM21.56,3.79H9.86V8c0,2.64,0,4.08-.18,6.06H21.56ZM12.2,5.08A22.55,22.55,0,0,1,17,7.63c1.2.9,1.56,1.47,1.56,2.37,0,1.41-1,2.76-2,2.76-.42,0-.66-.27-.9-1a22.82,22.82,0,0,0-1.5-3.51,11.76,11.76,0,0,0-2.07-3Z"/><path d="M14.21,41.83V38.35A34.77,34.77,0,0,0,14,34.51c4.62.45,5,.51,5,.93s-.39.51-1.32.87v5.52h4.26c1-1.23,1.29-1.62,2.31-2.82,1.62,1.26,2.1,1.65,3.69,3q.18.18.18.27t-.36.18H17.66v7.59h3.72c1-1.17,1.29-1.56,2.31-2.76,1.56,1.23,2,1.62,3.54,2.94q.18.18.18.27c0,.12-.12.18-.33.18H17.66v9h5.4c1.05-1.26,1.38-1.65,2.46-2.85,1.62,1.29,2.16,1.71,3.78,3.06.09.12.15.18.15.24s-.12.18-.33.18H4.73a15.13,15.13,0,0,0-2.43.18l-.18-1.08a11.74,11.74,0,0,0,2.58.27h9.51v-9H8.06a8.65,8.65,0,0,0-2,.18l-.15-1A9.5,9.5,0,0,0,8,50.05h6.18V42.46H8.93A25.77,25.77,0,0,1,2.57,50l-.3-.3a31.52,31.52,0,0,0,4-8.07A18.92,18.92,0,0,0,7.46,36c4.38,1.17,5,1.38,5,1.74s-.42.51-1.44.63c-.78,1.71-1.08,2.34-1.68,3.42Z"/><path d="M6.05,88.9V89c0,.66-.42.84-2.1.84-1.05,0-1.26-.09-1.26-.6v-.09c.12-5.16.15-6.72.15-12.18,0-3.72,0-5.79-.15-8.25A28.07,28.07,0,0,1,6.2,70.6H9.71l1.59-1.8c1.11.78,1.44,1,2.43,1.83.27.21.36.33.36.48s-.27.45-1.05.87c0,12.3,0,13.35.09,16.2a.77.77,0,0,1-.09.45c-.21.27-.87.39-2,.39S9.89,89,9.86,88.48V86.89H6.05ZM9.86,71.23H6.05V78H9.86ZM6.05,78.67v7.59H9.86V78.67Zm12.6,5.64A12.71,12.71,0,0,1,16,90.55c-1.65,2-3.54,3.42-6.87,5.07l-.21-.3A16.66,16.66,0,0,0,13,91.06a15.08,15.08,0,0,0,2.52-7.86c.18-2,.24-4.53.24-8.37,0-3.3,0-4.53-.21-6.78a35.77,35.77,0,0,1,3.9,1.86h5.07c.69-.78.93-1,1.65-1.8,1.14.81,1.47,1.08,2.55,1.86.3.24.42.39.42.54s-.27.51-1.08,1v14l.09,6.24A5.07,5.07,0,0,1,28.07,93c-.27,1.08-1.11,1.77-2.61,2.1a9.65,9.65,0,0,1-1.74.24c-.42,0-.42,0-.57-.84a2.53,2.53,0,0,0-1.26-1.65,14,14,0,0,0-3.09-1l0-.39c2.7.18,3.42.24,5.31.3h.15c.36,0,.45-.12.45-.57V84.31Zm.42-7c-.06,2.7-.18,5.13-.33,6.39h6V77.29Zm5.67-.63V70.54H19.13v2c0,.21,0,1,0,2.07,0,.45,0,1.17,0,2.07Z"/><path d="M17,120.79h5.13c1-1.14,1.35-1.47,2.34-2.52,1.5,1.17,2,1.53,3.39,2.73a.41.41,0,0,1,.15.27c0,.09-.12.15-.3.15H17V127h6.87c1.08-1.23,1.41-1.62,2.52-2.82,1.5,1.26,1.95,1.62,3.36,2.91a.46.46,0,0,1,.21.36c0,.12-.15.18-.39.18H4.1a7.91,7.91,0,0,0-2.1.24l-.24-1.14a11,11,0,0,0,2.37.27h9.54v-5.61h-7a10.08,10.08,0,0,0-2.31.24l-.21-1.17a10.87,10.87,0,0,0,2.52.3h7.05v-5H8.39v1.32c0,.66-.3.75-2.16.75-1.08,0-1.29-.09-1.29-.66.12-2.94.12-4,.12-8.25s0-5.13-.18-7.41a29.62,29.62,0,0,1,3.78,1.89H22.34c.78-.81,1-1,1.83-1.8,1.14.81,1.47,1,2.52,1.86.24.24.33.36.33.51s-.27.45-1.08.87v4c0,2.7,0,3.39.12,7.68,0,.72-.45.9-2.28.9-1.08,0-1.26-.09-1.26-.63v-1H17ZM13.67,104H8.39v5.16h5.28Zm0,5.79H8.39v5.31h5.28Zm8.85-.63V104H17v5.16ZM17,115.12h5.52v-5.31H17Z"/><path d="M14.21,142.63v-3.48a34.77,34.77,0,0,0-.21-3.84c4.62.45,5,.51,5,.93,0,.27-.39.51-1.32.87v5.52h4.26c1-1.23,1.29-1.62,2.31-2.82,1.62,1.26,2.1,1.65,3.69,3q.18.18.18.27t-.36.18H17.66v7.59h3.72c1-1.17,1.29-1.56,2.31-2.76,1.56,1.23,2,1.62,3.54,2.94q.18.18.18.27c0,.12-.12.18-.33.18H17.66v9h5.4c1.05-1.26,1.38-1.65,2.46-2.85,1.62,1.29,2.16,1.71,3.78,3.06.09.12.15.18.15.24s-.12.18-.33.18H4.73a15.13,15.13,0,0,0-2.43.18l-.18-1.08a11.74,11.74,0,0,0,2.58.27h9.51v-9H8.06a8.65,8.65,0,0,0-2,.18l-.15-1a9.5,9.5,0,0,0,2.13.21h6.18v-7.59H8.93a25.77,25.77,0,0,1-6.36,7.5l-.3-.3a31.52,31.52,0,0,0,4-8.07,18.92,18.92,0,0,0,1.23-5.55c4.38,1.17,5,1.38,5,1.74s-.42.51-1.44.63c-.78,1.71-1.08,2.34-1.68,3.42Z"/><path d="M1.67,174.46a8.45,8.45,0,0,0,2.07.24h3c.81-1,1.08-1.29,1.92-2.22l2.82,2.37c.12.15.18.21.18.3s-.15.18-.39.18H3.74a11.1,11.1,0,0,0-1.89.15Zm.57,3.87a7.92,7.92,0,0,0,1.89.24H6.5c.78-.9,1-1.17,1.8-2,1.11.93,1.44,1.23,2.49,2.19a.41.41,0,0,1,.15.27c0,.12-.12.18-.27.18H4.07a9.73,9.73,0,0,0-1.65.15Zm0,3.87a6.78,6.78,0,0,0,1.8.21h2.4c.75-.9,1-1.17,1.74-2,1.11.93,1.44,1.23,2.4,2.16.12.15.18.24.18.3s-.15.21-.39.21H4.16a9,9,0,0,0-1.71.15Zm0-11.64a7.85,7.85,0,0,0,2,.24h2.1c.75-.93,1-1.2,1.77-2.1,1.17,1,1.5,1.29,2.55,2.31.12.12.15.18.15.24s-.12.18-.3.18H4.28a11,11,0,0,0-1.77.15Zm3.27,24.63c0,.3-.06.45-.21.54a3.25,3.25,0,0,1-1.62.27c-.93,0-1.08-.09-1.11-.63.09-2,.09-2.94.09-6.06,0-2.49,0-3.15-.15-4.71,1.44.69,1.86.9,3.27,1.71H7.25l1.41-1.53a26.88,26.88,0,0,1,2.13,1.83c.18.18.24.3.24.42s-.18.33-.81.66l0,6.15a.75.75,0,0,1-.18.6,3.48,3.48,0,0,1-1.74.3c-.75,0-.9-.09-.93-.51v-.33H5.57Zm0-1.92H7.4v-6.33H5.57Zm8.91-13.41,1.65-1.38c.81.63,1,.84,1.77,1.5.24.21.33.33.33.45s-.21.33-.81.6c-.57,4.17-1.17,6.36-2.4,8.79,1.89,2,4.2,2.76,8.82,2.76a51.73,51.73,0,0,0,6.54-.39l0,.39A3.15,3.15,0,0,0,28.7,195c-.15.63-.15.63-.36.69a6.92,6.92,0,0,1-1.35,0,34.2,34.2,0,0,1-7.29-.45,8.34,8.34,0,0,1-5.55-3.9A16.86,16.86,0,0,1,9,196.57l-.21-.24a23.12,23.12,0,0,0,4.2-7.2,20.09,20.09,0,0,1-1.14-4.26c-.27-1.53-.36-1.86-.66-2.28l1-.24a1.69,1.69,0,0,0-.06.48,13.87,13.87,0,0,0,1.29,4.65,36.73,36.73,0,0,0,1-7h-.84c-.27.48-.48.57-1.2.57-1.38,0-1.8-.09-1.8-.45a1.73,1.73,0,0,1,.06-.3,72.53,72.53,0,0,0,3.3-8.94H12.71a6.38,6.38,0,0,0-1.38.15l-.18-1a5.73,5.73,0,0,0,1.56.21h1.2a19.15,19.15,0,0,1,1.53-1.59c1,.81,1.32,1.08,2.28,1.89.21.21.27.33.27.42s-.33.45-1.2.78c-.9,2.61-2,5.73-2.85,7.65Zm11.79,9.57c.66-1.05.87-1.35,1.56-2.31A27,27,0,0,1,30,189.58a.49.49,0,0,1,.15.27c0,.12-.15.21-.42.21H18.38a6.38,6.38,0,0,0-1.65.21l-.18-1.05a6.21,6.21,0,0,0,1.71.21h.18V178.69c0-.72,0-1.29-.09-2.4,3.3.33,3.72.42,3.72.78s-.27.42-.9.66v11.7H22.7V173.2a39.62,39.62,0,0,1-5.37.72l-.09-.36c4.56-1.5,7.11-2.79,9.15-4.62,3.18,2.22,3.36,2.37,3.36,2.61s-.21.33-.48.33a8.34,8.34,0,0,1-1.05-.15c-1.26.42-1.74.57-2.61.81v7.62h.57L27.65,178c.9,1,1.17,1.32,2,2.31a.49.49,0,0,1,.12.27c0,.12-.12.21-.33.21H25.61v8.64Z"/><path d="M9.26,206.17c-.36.51-.48.66-.81,1.11,1.8.48,2.55,1,2.55,1.86S10.25,211,9.59,211a.62.62,0,0,1-.54-.39,3.77,3.77,0,0,1-.12-1.08,3,3,0,0,0-.75-1.92,14.25,14.25,0,0,1-2.13,2.46c1.74.57,2.46,1.23,2.46,2.25S7.7,214.24,7,214.24a.61.61,0,0,1-.6-.42,3.24,3.24,0,0,1-.09-1.11,3.6,3.6,0,0,0-.57-2.34,21.72,21.72,0,0,1-4,3l-.21-.3a23.42,23.42,0,0,0,5.88-10.89c4.5.93,4.5.93,4.5,1.29s-.45.48-1.38.6c-.45.75-.57,1-.87,1.44H13c.63-.66.81-.87,1.41-1.5,1.17.9,1.41,1.11,2.46,2-.21-.78-.3-1.2-.54-2.4l.42-.06A14.89,14.89,0,0,0,21,210.85a17.18,17.18,0,0,0,2.64-5.1H20.21a9.59,9.59,0,0,0-1.92.15l-.21-1a6.59,6.59,0,0,0,2.19.24h3.39c.72-.72,1-.93,1.71-1.65,1.35,1,1.74,1.32,3,2.4.33.27.45.42.45.57,0,.3-.33.42-1.62.51a31.51,31.51,0,0,1-5.58,4.41A17,17,0,0,0,30,215.2l0,.27a3,3,0,0,0-1.74,1.23,6.82,6.82,0,0,0-.81,1.44c-.12.36-.24.48-.42.48a2.57,2.57,0,0,1-.87-.36,19.46,19.46,0,0,1-7.17-7,21,21,0,0,1-1.83-4.32c-.21.15-.33.18-.87.24a24.36,24.36,0,0,1-6,7.86,28.53,28.53,0,0,1-8.43,4.92l-.21-.33a31.19,31.19,0,0,0,7.26-6.3,28.1,28.1,0,0,0,4.26-7.11ZM2.12,228.91A21.83,21.83,0,0,0,6.77,224a12.43,12.43,0,0,0,1.68-3.12c4.17,1.44,4.29,1.5,4.29,1.8s-.39.45-1.47.48a22.58,22.58,0,0,1-8.91,6.09Zm15.33-5.19c0,1,0,1,0,2.58v1a2.12,2.12,0,0,1-1.11,2.1,6,6,0,0,1-2.16.63,8.49,8.49,0,0,1-.93.06c-.36,0-.39-.06-.45-.6a2.5,2.5,0,0,0-.69-1.5c-.48-.48-1.08-.69-2.91-1l0-.42c2.22.15,2.79.18,4.44.21.42,0,.51-.09.51-.48v-6.45H7.7a8.74,8.74,0,0,0-2.22.18l-.21-1.08a9.64,9.64,0,0,0,2.55.27H21L23,217c1.32,1,1.74,1.29,3.09,2.34q.18.18.18.27c0,.12-.12.18-.3.18H17.45Zm-1-8.7c.81-.93,1.08-1.23,1.92-2.13,1.2.93,1.59,1.26,2.79,2.31a.41.41,0,0,1,.15.27c0,.12-.12.18-.33.18H12.56a11.23,11.23,0,0,0-1.83.12l-.21-1a8.36,8.36,0,0,0,2.1.24Zm2.61,6.36a30.7,30.7,0,0,1,6.24,2.49c1.26.69,1.77,1.35,1.77,2.31,0,1.41-.84,2.82-1.71,2.82-.36,0-.57-.18-1.08-1.11a19.73,19.73,0,0,0-5.46-6.24Z"/><path d="M38.89,5.25A2.65,2.65,0,0,0,38,5c-.39,0-.57.28-.59.94h-.26V3.4h.26c0,.65.4,1,1.58,1.46L44.6,7l.08.74L38.55,9.91c-.62.23-.94.42-1.06.65a1.65,1.65,0,0,0-.11.53h-.26V7.83h.26c0,.63.15.86.48.86h0a2.61,2.61,0,0,0,.66-.15l1.1-.38V5.53Zm4.4,1.64L40,5.67V8Z"/><path d="M38.36,13.38c-.9,0-1,.07-1,.75h-.24V11.42h.24c0,.68.11.75,1,.75h5c.88,0,1-.07,1-.76h.23l.11,2c-.74,0-1.38-.06-2.05-.06H39.51l1.54,1.34a1.08,1.08,0,0,0,.63.31c.27,0,.4-.21.43-.69h.23v2.58h-.23a2.23,2.23,0,0,0-.26-.84,3.2,3.2,0,0,0-.81-1l-.41-.37-2.39,1.39c-.62.37-.8.58-.9,1h-.22V15.34L38,14.9l1.72-1-.63-.56Z"/><path d="M37.15,22.72c-.07-.59-.12-1.12-.12-1.38s.15-.42.76-.47A2.23,2.23,0,0,1,37,19.16a1.4,1.4,0,0,1,1.47-1.54c.86,0,1.39.53,1.6,1.6a12.16,12.16,0,0,1,.19,1.64h.65c1.06,0,1.37-.18,1.37-.78a.69.69,0,0,0-.34-.67,1.51,1.51,0,0,0-.71-.16c-.36,0-.49-.19-.49-.61s.16-.7.46-.7a1.15,1.15,0,0,1,.93.62,3.06,3.06,0,0,1,.38,1.64,2.13,2.13,0,0,1-.41,1.48,1.58,1.58,0,0,1-1.24.39H38.56c-1.1,0-1.16,0-1.17.68ZM40,20.86c-.11-1.45-.48-2-1.41-2-.71,0-1.18.32-1.18.81a1.09,1.09,0,0,0,.66,1,2.56,2.56,0,0,0,1.16.18Z"/><path d="M42.47,25.19l-.81,0h-.3a1.78,1.78,0,0,1,1.13,1.48.79.79,0,0,1-.76.85.64.64,0,0,1-.61-.72.41.41,0,0,1,.32-.47c.28-.08.35-.13.35-.29v0c0-.19-.18-.39-.47-.56a2.25,2.25,0,0,0-1.11-.24H38.36c-.9,0-1,.06-1,.8h-.24V23.27h.24c0,.69.11.76,1,.76h2.77c.85,0,1-.09,1-.72h.24Z"/><path d="M42.47,29.89c-.6,0-1.3-.06-1.94-.06H38.36c-.89,0-1,.07-1,.78h-.24V27.83h.24c0,.71.11.78,1,.78h2.77c.89,0,1-.05,1-.75h.24Zm2.3-.66a.72.72,0,1,1-.72-.72A.72.72,0,0,1,44.77,29.23Z"/><path d="M39,35.84c-1.32,0-1.6.18-1.65,1h-.27V34.37h.27c0,.85.37,1.06,1.73,1.06h4c1,0,1.19-.17,1.25-1h.26v2.09l-5.76,4.08H42.6A2.76,2.76,0,0,0,44,40.44c.26-.15.35-.36.38-.87h.27V42.1h-.27c0-.48-.12-.69-.38-.85A2.56,2.56,0,0,0,42.67,41H37.08V40.3l6.38-4.46Z"/><path d="M42.47,44.6c-.6,0-1.3-.06-1.94-.06H38.36c-.89,0-1,.07-1,.78h-.24V42.54h.24c0,.71.11.78,1,.78h2.77c.89,0,1,0,1-.75h.24Zm2.3-.66a.72.72,0,1,1-.72-.72A.72.72,0,0,1,44.77,43.94Z"/><path d="M37.1,46.8v-.36a14.82,14.82,0,0,0,1.56,0H43.4c.88,0,1-.07,1-.77h.23l.11,2c-.8,0-1.41-.06-2.05-.06H41.6a1.69,1.69,0,0,1,.89,1.55c0,1.37-1,2.17-2.63,2.17S37,50.53,37,49a2.48,2.48,0,0,1,.71-1.77Zm.79,1.14a1.17,1.17,0,0,0-.68,1c0,.74.85,1.13,2.48,1.13s2.49-.37,2.49-1.08a1.19,1.19,0,0,0-.78-1,4.43,4.43,0,0,0-1.81-.31A4.18,4.18,0,0,0,37.89,47.94Z"/><path d="M37,56.09a9.82,9.82,0,0,1,1-.05A2.17,2.17,0,0,1,37,54.2a1.36,1.36,0,0,1,.75-1.29A2.88,2.88,0,0,1,39,52.72h.14l2,0h.08a1.4,1.4,0,0,0,.73-.11c.12-.09.15-.17.16-.62h.24l.13,2c-.72-.05-1.1-.07-2-.08H39.23a3.4,3.4,0,0,0-1.22.13.67.67,0,0,0-.49.7,1.21,1.21,0,0,0,.84,1.08,2.82,2.82,0,0,0,1.19.19h1.58c.55,0,.75,0,.86-.15s.1-.16.11-.58h.24l.13,2c-1.37-.06-1.37-.06-2-.06H38.39c-.87,0-1,.1-1,.65h-.23Z"/><path d="M37.38,61.78c0,.81.12.9,1,.9H43.3c.92,0,1-.1,1-.9h.26v3.13c0,2-.53,2.87-1.7,2.87s-1.57-.62-1.74-2.15h-.07C41,67.23,40.36,68,39.15,68c-1.44,0-2-1-2-3.3v-3Zm0,3c0,1.25.6,1.88,1.79,1.88A1.7,1.7,0,0,0,40.68,66,2.26,2.26,0,0,0,41,64.78V64H37.41Zm3.86.08a1.41,1.41,0,0,0,1.57,1.59c1,0,1.47-.56,1.47-1.66V64h-3Z"/><path d="M42.47,70.86c-.6,0-1.3-.06-1.94-.06H38.36c-.89,0-1,.07-1,.78h-.24V68.8h.24c0,.71.11.78,1,.78h2.77c.89,0,1,0,1-.75h.24Zm2.3-.66a.72.72,0,1,1-.72-.72A.72.72,0,0,1,44.77,70.2Z"/><path d="M42.47,74l-.81,0h-.3a1.78,1.78,0,0,1,1.13,1.48.79.79,0,0,1-.76.85.64.64,0,0,1-.61-.72.41.41,0,0,1,.32-.47c.28-.08.35-.13.35-.29v0c0-.19-.18-.39-.47-.56a2.25,2.25,0,0,0-1.11-.24H38.36c-.9,0-1,.06-1,.8h-.24V72.12h.24c0,.69.11.76,1,.76h2.77c.85,0,1-.09,1-.72h.24Z"/><path d="M38.68,78.59a2.76,2.76,0,0,0-.9.1.54.54,0,0,0-.37.49,1.19,1.19,0,0,0,.31.7l-.25.14a2.05,2.05,0,0,1-.5-1.37,1.2,1.2,0,0,1,.55-1.13,3.07,3.07,0,0,1,1.38-.15H42V76.8h.3a1.06,1.06,0,0,0,.53,1,2.71,2.71,0,0,0,1.07.37l0,.5c-.41,0-.72,0-1.63,0V79.8H42V78.59Z"/><path d="M41.48,82.29a1.94,1.94,0,0,1,1,1.82,1.47,1.47,0,0,1-.7,1.44,2.62,2.62,0,0,1-1.23.22h-2.2c-.9,0-1,.07-1,.76h-.24V83.8h.24c0,.68.1.75,1,.75h2.13a2.75,2.75,0,0,0,1.08-.14.76.76,0,0,0,.46-.77,1.2,1.2,0,0,0-.69-1.08,2,2,0,0,0-1.06-.27H38.36c-.89,0-1,.07-1,.75h-.24V80.31h.24c0,.69.1.76,1,.76h5c.88,0,1-.07,1-.77h.23l.11,2c-.77,0-1.25-.06-2.05-.06Z"/><path d="M44.71,92.19c-.75,0-1.27-.06-2-.06h-4c-.81,0-1.08,0-1.2.19s-.07.14-.08.47h-.23L37,91l.73,0A2,2,0,0,1,37,89.35a2,2,0,0,1,.6-1.46,2.9,2.9,0,0,1,2-.66c1.77,0,2.9.9,2.9,2.3a1.84,1.84,0,0,1-.57,1.38h1.44c.93,0,1-.06,1-.76h.23Zm-2.49-2.44c0-.76-.89-1.19-2.46-1.19a3.88,3.88,0,0,0-2.12.46.83.83,0,0,0-.36.69c0,.77.94,1.23,2.53,1.23S42.22,90.52,42.22,89.75Z"/><path d="M37.15,98.47c-.07-.59-.12-1.12-.12-1.38s.15-.42.76-.47A2.23,2.23,0,0,1,37,94.91a1.4,1.4,0,0,1,1.47-1.54c.86,0,1.39.53,1.6,1.6a12.16,12.16,0,0,1,.19,1.64h.65c1.06,0,1.37-.18,1.37-.78a.69.69,0,0,0-.34-.67,1.51,1.51,0,0,0-.71-.16c-.36,0-.49-.19-.49-.61s.16-.7.46-.7a1.15,1.15,0,0,1,.93.62A3.06,3.06,0,0,1,42.49,96a2.13,2.13,0,0,1-.41,1.48,1.58,1.58,0,0,1-1.24.39H38.56c-1.1,0-1.16,0-1.17.68ZM40,96.61c-.11-1.45-.48-2-1.41-2-.71,0-1.18.32-1.18.81a1.09,1.09,0,0,0,.66,1,2.56,2.56,0,0,0,1.16.18Z"/><path d="M40.79,103a1.82,1.82,0,0,0,.7.17c.41,0,.59-.23.62-.79h.23v2.18h-.23c-.08-.56-.37-.81-1.5-1.26l-4.32-1.7c-1-.41-1.4-.77-1.4-1.39s.23-.73.69-.73.52.14.52.4a2,2,0,0,1-.05.4,1.89,1.89,0,0,0-.06.42c0,.31.13.45.59.64l.4.15,4.18-1.75c.8-.34.91-.43,1-.9h.23v2.67H42.1c0-.43-.12-.6-.39-.6a1.54,1.54,0,0,0-.58.15l-2.7,1Z"/></svg>