<svg xmlns="http://www.w3.org/2000/svg" viewBox="0 0 45 261"><title>phraseImg</title><path d="M1.28,15.43A33.59,33.59,0,0,0,7.22,7.51,20,20,0,0,0,9.8,1.36c4,1.5,4.68,1.83,4.68,2.19s-.42.51-1.41.57a31.65,31.65,0,0,1-5.25,7.05,25.76,25.76,0,0,1-6.3,4.62Zm16.56-.06a51.62,51.62,0,0,1,5.91,4.8c1.53,1.47,2.37,2.85,2.37,4,0,1.56-1.2,3.45-2.22,3.45-.48,0-.72-.33-1-1.17A24.09,24.09,0,0,0,21.74,23c-1.68.48-3.12.81-5.19,1.26-2.61.57-3.18.69-7.8,1.53-1.71.33-1.71.33-3.06.57-.21.9-.36,1.17-.66,1.17s-.45-.15-1.56-4.92c1.14.09,1.62.12,2.46.12l2,0c2.55-5.4,4.35-10.53,4.77-13.59,4.17.93,5,1.23,5,1.65s-.3.51-1.35.66A62,62,0,0,1,9.29,22.69c.6,0,.6,0,1.56,0,3.18,0,5.94-.18,10.5-.57a25.85,25.85,0,0,0-3.84-6.42Zm1-13.95a1.9,1.9,0,0,0-.06.45c0,1,1,2.67,2.49,4.38a17.53,17.53,0,0,0,5.31,4.11,16.19,16.19,0,0,0,3.66,1.38v.33a3.64,3.64,0,0,0-1.8,1.41,7.73,7.73,0,0,0-.9,1.62c-.12.3-.21.42-.36.42a3.39,3.39,0,0,1-1.11-.66A20.24,20.24,0,0,1,20.87,9,26.59,26.59,0,0,1,18.35,3a3,3,0,0,0-.63-1.26Z"/><path d="M16,59.26a70.25,70.25,0,0,0,2.58-8,89.24,89.24,0,0,0,1.89-9.15c1.56.42,4,1.2,4.62,1.47.42.18.6.33.6.51s-.42.51-1.35.63C22.79,48.49,21,52.3,19.19,55.81a29,29,0,0,1-1.53,2.67c-.15.24-.21.33-.45.78h5.88c1.08-1.23,1.44-1.62,2.49-2.85,1.62,1.26,2.16,1.65,3.87,3a.31.31,0,0,1,.15.24c0,.12-.12.21-.33.21h-25a12.3,12.3,0,0,0-2.1.21l-.36-1.17a18.09,18.09,0,0,0,2.46.33Zm6.48-18.93c1-1.17,1.32-1.53,2.31-2.7,1.56,1.14,2.07,1.53,3.66,2.79a.52.52,0,0,1,.18.33.24.24,0,0,1-.27.21H5.48a19.1,19.1,0,0,0-2.1.21L3.05,40a14,14,0,0,0,2.43.33h8V36.58a12.3,12.3,0,0,0-.18-2.34l1.44.12c1,.06,1.59.12,1.62.12,1.23.06,1.95.33,1.95.69S18,35.68,17,36v4.35Zm-15.39,2c3.9,4.8,6.12,8.82,6.12,11.07,0,1.71-1.53,3.93-2.73,3.93a.72.72,0,0,1-.69-.57,5.86,5.86,0,0,1-.18-1.44A37.67,37.67,0,0,0,6.83,42.52Z"/><path d="M1.43,89.47a40.84,40.84,0,0,0,4-8.76A22.81,22.81,0,0,0,6.8,74.59c4.83,1.32,5,1.38,5,1.77s-.39.57-1.41.66A31.77,31.77,0,0,1,6.5,84.49a24.24,24.24,0,0,1-4.8,5.22Zm12.45-18c0-1-.06-1.86-.21-3.51,3.9.45,4.23.48,4.65.66s.45.24.45.45-.3.51-1.35.84V83.35c0,.87,0,4.44.06,8,0,1.53-.39,2.22-1.5,2.85a8.55,8.55,0,0,1-3.39.84c-.3,0-.39-.12-.42-.57A2.11,2.11,0,0,0,11.6,93a4.41,4.41,0,0,0-2.46-1.23l-2.52-.63.06-.42c4.5.33,4.5.33,6.72.39.39,0,.48-.12.48-.48Zm6.51,3.42a34.4,34.4,0,0,1,6.33,6,8.43,8.43,0,0,1,2.13,4.5c0,1.74-1.38,3.93-2.49,3.93a.78.78,0,0,1-.6-.45,5,5,0,0,1-.39-1.29c-.48-1.92-.84-3.15-1.17-4.14a30.16,30.16,0,0,0-4.14-8.28Z"/><path d="M17.18,117.82v.93c0,2.79,0,6.6.12,9.21,0,.75-.39.9-2.34.9-1.32,0-1.47-.09-1.47-.75.12-3.93.12-5,.15-10.29H7.16v1.59c0,.72-.36.84-2.13.84-1.29,0-1.44-.09-1.44-.75.15-5,.15-5.34.15-7.86s0-3.63-.15-5.58a35.52,35.52,0,0,1,4.14,2.07h5.94a44.63,44.63,0,0,0-.24-6.81l2.22.15c2.28.18,2.82.33,2.82.72s-.33.48-1.32.78v5.16h6.57c.81-.9,1.05-1.17,1.86-2,1.17.81,1.5,1,2.55,1.8.33.27.45.45.45.66s-.24.48-1,.9c0,4.74,0,6,.18,9.84,0,.81-.36,1-2.4,1-1,0-1.2-.09-1.2-.66v-1.77Zm-3.51-3.57v-5.49H7.16v8.43h6.48Zm10.44-5.49h-7v8.43h7Z"/><path d="M23.54,138.16l2.28-2.58c1.59,1.17,2.1,1.56,3.63,2.82.09.09.12.15.12.21s-.12.18-.27.18H4.55a12.46,12.46,0,0,0-2.1.21l-.24-1.11a9.6,9.6,0,0,0,2.31.27h9.12v-1.59a15.6,15.6,0,0,0-.15-2l2.16.18c1.83.12,2.61.33,2.61.72,0,.21-.06.24-1.14.78v1.89ZM24,149c.69-.75.93-1,1.68-1.77,1.26.87,1.65,1.14,2.82,2,.18.12.24.24.24.33,0,.3-.24.48-1.2,1v4.29c0,.63,0,.9,0,3,0,.75,0,.75,0,2a1.84,1.84,0,0,1-1.2,2,7.86,7.86,0,0,1-3,.57c-.24,0-.33-.06-.33-.33a3.72,3.72,0,0,0-.42-1.47c-.39-.57-.87-.78-2.43-1.11l0-.36c1.11.09,1.26.09,3.72.18.24-.06.33-.18.33-.51v-9.21H6.59v6.12l0,5.85c0,.72-.33.81-2.61.81-.6,0-.78-.12-.81-.57.09-2.58.12-4.68.12-7.74,0-3.24,0-5.43-.12-7,1.71.78,2.22,1.05,3.81,1.92ZM20,141.25a15.05,15.05,0,0,1,1.53-1.56c1.14.69,1.5.9,2.61,1.68.18.15.27.27.27.39s-.27.48-1,.87v1.59c0,.06,0,.84,0,1.89V147c0,.3-.09.42-.27.48a8.83,8.83,0,0,1-2.19.24c-.6,0-.78-.12-.84-.51v-.81H10.76v.72c-.09.48-.33.54-2.34.54-.75,0-1-.09-1-.48.09-2.37.09-2.49.09-4.11,0-1.38,0-2.07-.09-3.42a28.55,28.55,0,0,1,3.66,1.56Zm-1.8,11,1.59-1.53c1.11.78,1.44,1,2.46,1.83.15.12.18.18.18.27s0,.24-.9.87v1.2l0,2.82V158c0,.3-.12.42-.3.51a8.51,8.51,0,0,1-1.92.18c-.66,0-.84-.09-.87-.45v-.6h-6v1.53c-.06.27-.15.36-.48.42a13,13,0,0,1-1.86.12c-.57,0-.75-.09-.78-.48.09-1.47.09-2.07.09-3.84,0-2.25,0-3-.09-4.71a32,32,0,0,1,3.42,1.53Zm-7.41-6.42h9.36v-3.93H10.76ZM12.41,157h6v-4.17h-6Z"/><path d="M8.12,195.1c0,.72-.51.9-2.25.9-.9,0-1.14-.15-1.14-.69.18-4.53.24-7.47.24-10.41v-4.68a27.72,27.72,0,0,1-3.51,3.87l-.3-.27A44,44,0,0,0,7,168.37c4.35,1,4.77,1.17,4.77,1.59s-.39.48-1.32.6a41.49,41.49,0,0,1-3.72,7.2l.63.09c1.35.15,1.71.27,1.71.57s-.27.42-1,.69v6.15Zm.18-4.62a30.15,30.15,0,0,0,4.2-6.21,37.62,37.62,0,0,0,3.12-7.59H11.36a11.21,11.21,0,0,0-2.25.18l-.21-1.05a10.21,10.21,0,0,0,2.46.24h5.43v-4.26a18.18,18.18,0,0,0-.21-3.12c3.72.33,4,.36,4.38.51.24.12.36.24.36.39s-.39.51-1.29.78v5.7h3.78c.93-1.17,1.23-1.53,2.19-2.67,1.5,1.14,1.95,1.53,3.42,2.79a.91.91,0,0,1,.18.33c0,.12-.15.18-.36.18h-9a14.94,14.94,0,0,0,2.61,4.86,15.7,15.7,0,0,0,7.29,5.58l-.09.3a4.89,4.89,0,0,0-2.4,2.94c-.15.33-.21.42-.36.42s-.48-.21-1-.69a21.66,21.66,0,0,1-4.44-6.6,52.66,52.66,0,0,1-2-5.7l.09,7.41c.06,6.57.06,6.57.12,9.81,0,.42-.06.6-.24.72a5.76,5.76,0,0,1-2.31.33c-.75,0-1-.15-1-.78v0l.21-9.63L17,181a24.92,24.92,0,0,1-4.29,6.3,23.35,23.35,0,0,1-4.2,3.48Z"/><path d="M9.2,208.63c.66-.93.87-1.2,1.56-2.13a28.7,28.7,0,0,1,2.34,2.34c.09.12.15.18.15.24s-.12.18-.27.18H8.66v1.53a10,10,0,0,1,2.1,1.08c.84.51,1.17.93,1.17,1.47,0,.93-.78,2-1.44,2-.36,0-.57-.27-.63-1a5.92,5.92,0,0,0-1.23-3.12v5c0,5.61,0,8.7.12,12.45,0,.33-.06.51-.18.6a3.61,3.61,0,0,1-1.95.36H6.23c-.63,0-.84-.15-.84-.57V229c.12-3.27.12-3.36.15-4.92,0-.69,0-1.32,0-2,0-2.16.06-3.6.06-4.17l.09-1.71A17.5,17.5,0,0,1,1.37,223L1,222.76a32.41,32.41,0,0,0,2.82-7,49.41,49.41,0,0,0,1.47-6.48H3.5a5.73,5.73,0,0,0-1.77.21l-.21-1.11a6.44,6.44,0,0,0,2,.27h2v-3.3A32.35,32.35,0,0,0,5.39,202c3.6.33,4.44.48,4.44.87,0,.21-.27.39-1.14.69l0,5.07Zm7.05,5.73a2.15,2.15,0,0,0,0,.39c0,1.29,1.53,3.81,3.39,5.61a24.22,24.22,0,0,0,1.92-3.75,16.19,16.19,0,0,0,.78-2.73c3.69,1.62,4.14,1.86,4.14,2.22s-.33.36-1.35.39a24.9,24.9,0,0,1-3.24,5.58,14.62,14.62,0,0,0,3.39,1.86,19,19,0,0,0,4.89,1.41v.3a4.36,4.36,0,0,0-2,2,4.94,4.94,0,0,0-.39,1.11c-.06.33-.18.45-.36.45a4.68,4.68,0,0,1-1.47-.63,22.56,22.56,0,0,1-5.73-4.5,18.18,18.18,0,0,1-4.77,3.45,22.55,22.55,0,0,1-6,2l-.15-.33a23.62,23.62,0,0,0,9.33-7.32,22.94,22.94,0,0,1-2.73-5.76,2.8,2.8,0,0,0-.72-1.35ZM10.43,217A21.62,21.62,0,0,0,14,212.11a15,15,0,0,0,1.47-3.3c3.87,1.44,4,1.5,4,1.83s-.42.42-1,.42h-.33a20.51,20.51,0,0,1-7.47,6.15Zm14.22-9.81,2-2.46c1.41,1.11,1.8,1.47,3.09,2.64a.41.41,0,0,1,.18.3c0,.09-.12.15-.3.15H14.54a9.88,9.88,0,0,0-1.8.18l-.21-1.08a6.88,6.88,0,0,0,2,.27h3.81v-2a20.86,20.86,0,0,0-.21-3c4.23.36,4.65.42,4.65.81s-.3.45-1.2.78v3.42ZM21.77,209a20.84,20.84,0,0,1,5.61,2.1c1.26.78,1.62,1.32,1.62,2.34,0,1.26-.63,2.4-1.35,2.4-.42,0-.69-.24-1.23-1.2a18.22,18.22,0,0,0-4.77-5.37Z"/><path d="M38.41,5.8c-.91,0-1,.09-1,1h-.26V3.6h.26c0,.82.12.9,1,.9H43.3c.91,0,1-.08,1-.86h.26v3c0,2-.63,2.93-2.08,2.93a1.9,1.9,0,0,1-2-1.28,6.43,6.43,0,0,1-.26-2V5.8Zm2.15.52A2,2,0,0,0,41,7.7a2.06,2.06,0,0,0,1.49.49c1.23,0,1.85-.59,1.85-1.75V5.8H40.56Z"/><path d="M37,14.05a9.82,9.82,0,0,1,1-.05A2.17,2.17,0,0,1,37,12.16a1.36,1.36,0,0,1,.75-1.29A2.88,2.88,0,0,1,39,10.68h.14l2,0h.08a1.4,1.4,0,0,0,.73-.11c.12-.09.15-.17.16-.62h.24l.13,2c-.72-.05-1.1-.07-2-.08H39.23A3.4,3.4,0,0,0,38,12a.67.67,0,0,0-.49.7,1.21,1.21,0,0,0,.84,1.08,2.82,2.82,0,0,0,1.19.19h1.58c.55,0,.75,0,.86-.15s.1-.16.11-.58h.24l.13,2c-1.37-.06-1.37-.06-2-.06H38.39c-.87,0-1,.1-1,.65h-.23Z"/><path d="M37.1,17.32V17a14.82,14.82,0,0,0,1.56,0H43.4c.88,0,1-.07,1-.77h.23l.11,2.05c-.8,0-1.41-.06-2.05-.06H41.6a1.69,1.69,0,0,1,.89,1.55c0,1.37-1,2.17-2.63,2.17S37,21.05,37,19.56a2.48,2.48,0,0,1,.71-1.77Zm.79,1.14a1.17,1.17,0,0,0-.68,1c0,.74.85,1.13,2.48,1.13s2.49-.37,2.49-1.08a1.19,1.19,0,0,0-.78-1,4.43,4.43,0,0,0-1.81-.31A4.18,4.18,0,0,0,37.89,18.46Z"/><path d="M37.36,22.69c0,.73.09.79,1,.79h5c.88,0,1-.07,1-.78h.23l.11,2.06c-.74,0-1.38-.06-2.05-.06h-4.3c-.91,0-1,.06-1,.79h-.24v-2.8Z"/><path d="M42.47,28.09c-.6,0-1.3-.06-1.94-.06H38.36c-.89,0-1,.07-1,.78h-.24V26h.24c0,.71.11.78,1,.78h2.77c.89,0,1,0,1-.75h.24Zm2.3-.66a.72.72,0,1,1-.72-.72A.72.72,0,0,1,44.77,27.43Z"/><path d="M38.36,34.28A2.29,2.29,0,0,1,37,32.09a2.5,2.5,0,0,1,2.7-2.57,3.11,3.11,0,0,1,2.16.79,2.5,2.5,0,0,1,.67,1.78c0,1.11-.6,2.06-1.31,2.06-.3,0-.49-.27-.49-.68a.67.67,0,0,1,.18-.51c.08-.06.08-.06.44-.08.6,0,.94-.33.94-.82a1,1,0,0,0-.64-.92,5.48,5.48,0,0,0-1.77-.28,3.85,3.85,0,0,0-1.7.35,1.31,1.31,0,0,0-.79,1.19A1.81,1.81,0,0,0,38.53,34Z"/><path d="M39.47,38.47v.4c-1.5.14-2.21.74-2.21,1.86a1.29,1.29,0,0,0,1.38,1.41c.68,0,1.09-.39,1.7-1.64a7.82,7.82,0,0,1,.71-1.31,1.81,1.81,0,0,1,1.59-.82,2,2,0,0,1,1.87,1.18,2.93,2.93,0,0,1,.23,1.28,5.21,5.21,0,0,1-.17,1.22,1.42,1.42,0,0,0,.1,1l-2.24-.08v-.4a2.51,2.51,0,0,0,1.25-.34,1.55,1.55,0,0,0,.79-1.38,1.24,1.24,0,0,0-1.3-1.3,1.15,1.15,0,0,0-.84.33,4.45,4.45,0,0,0-.77,1.3,5.38,5.38,0,0,1-1,1.66,1.91,1.91,0,0,1-1.39.52,2,2,0,0,1-1.61-.7A2.92,2.92,0,0,1,37,40.78a6,6,0,0,1,.17-1.35,2.34,2.34,0,0,0,0-.38,3.23,3.23,0,0,0-.09-.66Z"/><path d="M38.36,49A2.29,2.29,0,0,1,37,46.8a2.5,2.5,0,0,1,2.7-2.57,3.11,3.11,0,0,1,2.16.79,2.5,2.5,0,0,1,.67,1.78c0,1.11-.6,2.06-1.31,2.06-.3,0-.49-.27-.49-.68a.67.67,0,0,1,.18-.51c.08-.06.08-.06.44-.08.6,0,.94-.33.94-.82a1,1,0,0,0-.64-.92,5.48,5.48,0,0,0-1.77-.28,3.85,3.85,0,0,0-1.7.35,1.31,1.31,0,0,0-.79,1.19,1.81,1.81,0,0,0,1.18,1.62Z"/><path d="M41.48,51.44a1.94,1.94,0,0,1,1,1.82,1.47,1.47,0,0,1-.7,1.44,2.62,2.62,0,0,1-1.23.22h-2.2c-.9,0-1,.07-1,.76h-.24V53h.24c0,.68.1.75,1,.75h2.13a2.75,2.75,0,0,0,1.08-.14.76.76,0,0,0,.46-.77,1.2,1.2,0,0,0-.69-1.08,2,2,0,0,0-1.06-.27H38.36c-.89,0-1,.07-1,.75h-.24V49.46h.24c0,.69.1.76,1,.76h5c.88,0,1-.07,1-.77h.23l.11,2c-.77,0-1.25-.06-2.05-.06Z"/><path d="M41.78,57.07a2.57,2.57,0,0,1,.71,1.87,2.5,2.5,0,0,1-2.74,2.59,3,3,0,0,1-2-.66,2.66,2.66,0,0,1-.81-2A2.55,2.55,0,0,1,37.72,57a3,3,0,0,1,2-.69A3.08,3.08,0,0,1,41.78,57.07Zm-4.59,1.86c0,.87.78,1.26,2.52,1.26s2.55-.4,2.55-1.27a1,1,0,0,0-.58-.93,4.42,4.42,0,0,0-1.94-.32C38,57.67,37.19,58.07,37.19,58.93Z"/><path d="M41.78,63.13A2.57,2.57,0,0,1,42.49,65a2.5,2.5,0,0,1-2.74,2.59,3,3,0,0,1-2-.66A2.66,2.66,0,0,1,37,65a2.55,2.55,0,0,1,.76-1.88,3,3,0,0,1,2-.69A3.08,3.08,0,0,1,41.78,63.13ZM37.19,65c0,.87.78,1.26,2.52,1.26s2.55-.4,2.55-1.27a1,1,0,0,0-.58-.93,4.42,4.42,0,0,0-1.94-.32C38,63.73,37.19,64.13,37.19,65Z"/><path d="M37.36,68.3c0,.73.09.79,1,.79h5c.88,0,1-.07,1-.78h.23l.11,2.06c-.74,0-1.38-.06-2.05-.06h-4.3c-.91,0-1,.06-1,.79h-.24V68.3Z"/><path d="M38.88,72v.36a2.35,2.35,0,0,0-1.05.3,1.24,1.24,0,0,0-.63,1.12c0,.61.32,1,.87,1s.71-.26,1.25-1.42A2.86,2.86,0,0,1,40,72.21a1.23,1.23,0,0,1,.9-.35c1,0,1.59.72,1.59,1.85a4.75,4.75,0,0,1-.08.71,2.26,2.26,0,0,0-.06.44,1.31,1.31,0,0,0,.1.48l-1.75-.09v-.37c1-.07,1.56-.49,1.56-1.21a.81.81,0,0,0-.83-.89.7.7,0,0,0-.61.31,4.39,4.39,0,0,0-.58,1.12c-.47,1-.86,1.35-1.61,1.35A1.6,1.6,0,0,1,37,73.76a5.2,5.2,0,0,1,.12-1,2.19,2.19,0,0,0,0-.36,2.12,2.12,0,0,0-.06-.51Z"/><path d="M42.09,85.76a3.22,3.22,0,0,0,1.44-.53,2.06,2.06,0,0,0,.93-1.68A1.8,1.8,0,0,0,43.58,82,5,5,0,0,0,41,81.42c-2.22,0-3.59.9-3.59,2.37a2.43,2.43,0,0,0,1,1.95,3.43,3.43,0,0,0,.82.44l-.16.29a3,3,0,0,1-2.11-3A3.5,3.5,0,0,1,37.9,81a4,4,0,0,1,2.88-1c2.41,0,4,1.38,4,3.52a5.17,5.17,0,0,1-.29,1.66,1.47,1.47,0,0,0-.06.42,1.44,1.44,0,0,0,.13.54H42.09Z"/><path d="M37.36,87.13c0,.73.09.79,1,.79h5c.88,0,1-.07,1-.78h.23l.11,2.06c-.74,0-1.38-.06-2.05-.06h-4.3c-.91,0-1,.06-1,.79h-.24v-2.8Z"/><path d="M41.78,91.37a2.57,2.57,0,0,1,.71,1.87,2.5,2.5,0,0,1-2.74,2.59,3,3,0,0,1-2-.66,2.66,2.66,0,0,1-.81-2,2.55,2.55,0,0,1,.76-1.88,3,3,0,0,1,2-.69A3.08,3.08,0,0,1,41.78,91.37Zm-4.59,1.86c0,.87.78,1.26,2.52,1.26s2.55-.4,2.55-1.27a1,1,0,0,0-.58-.93A4.42,4.42,0,0,0,39.74,92C38,92,37.19,92.37,37.19,93.23Z"/><path d="M38.88,96.84v.36a2.35,2.35,0,0,0-1.05.3,1.24,1.24,0,0,0-.63,1.12c0,.61.32,1,.87,1s.71-.26,1.25-1.42A2.86,2.86,0,0,1,40,97.1a1.23,1.23,0,0,1,.9-.35c1,0,1.59.72,1.59,1.85a4.75,4.75,0,0,1-.08.71,2.26,2.26,0,0,0-.06.44,1.31,1.31,0,0,0,.1.48l-1.75-.09v-.37c1-.07,1.56-.49,1.56-1.21a.81.81,0,0,0-.83-.89.7.7,0,0,0-.61.31,4.39,4.39,0,0,0-.58,1.12c-.47,1-.86,1.35-1.61,1.35A1.6,1.6,0,0,1,37,98.65a5.2,5.2,0,0,1,.12-1,2.19,2.19,0,0,0,0-.36,2.12,2.12,0,0,0-.06-.51Z"/><path d="M39.94,102.72a3.91,3.91,0,0,0-1.59.26,1.44,1.44,0,0,0-1,1.36A1.86,1.86,0,0,0,38.5,106l-.16.25A2.26,2.26,0,0,1,37,104a2.5,2.5,0,0,1,2.74-2.61,2.49,2.49,0,0,1,2.78,2.51A2,2,0,0,1,41.17,106a3.66,3.66,0,0,1-1.23.18Zm.29,2.22a3.9,3.9,0,0,0,1.25-.17c.53-.19.78-.47.78-.86s-.3-.76-.88-1a4.23,4.23,0,0,0-1.15-.21Z"/><path d="M44.71,112c-.75,0-1.27-.06-2-.06h-4c-.81,0-1.08,0-1.2.19s-.07.14-.08.47h-.23L37,110.88l.73,0A2,2,0,0,1,37,109.2a2,2,0,0,1,.6-1.46,2.9,2.9,0,0,1,2-.66c1.77,0,2.9.9,2.9,2.3a1.84,1.84,0,0,1-.57,1.38h1.44c.93,0,1-.06,1-.76h.23Zm-2.49-2.44c0-.76-.89-1.19-2.46-1.19a3.88,3.88,0,0,0-2.12.46.83.83,0,0,0-.36.69c0,.77.94,1.23,2.53,1.23S42.22,110.37,42.22,109.6Z"/></svg>