<svg xmlns="http://www.w3.org/2000/svg" viewBox="0 0 45 261"><title>phraseImg</title><path d="M4.43,25.39a31.28,31.28,0,0,0,5.7-5.49,49.7,49.7,0,0,0,8.13-13A7.17,7.17,0,0,0,19,4.27c0-1-.63-1.77-2.1-2.55a2.24,2.24,0,0,1,1-.18A7.12,7.12,0,0,1,21.59,3.1,6.69,6.69,0,0,1,23,4.39a1.42,1.42,0,0,1,.45,1c0,.45-.12.66-.63,1.11s-.6.6-1.53,2.34c-3.12,5.61-6.09,9.42-9.72,12.51a25.41,25.41,0,0,1-7,4.32Z"/><path d="M18.62,42.76a25.83,25.83,0,0,1,6.3,5.07c1.35,1.53,1.86,2.61,1.86,3.9,0,1.71-1,3.24-2,3.24-.6,0-.87-.33-1.17-1.44a18.25,18.25,0,0,0-.87-2.82C20,51.55,19,51.82,12.26,53.47c-1.56.39-2.52.66-3.42.93a2.51,2.51,0,0,0-.87.42,1.54,1.54,0,0,1-.9.3c-.75,0-1.44-.6-2.28-2A6.29,6.29,0,0,1,3.59,50a2.07,2.07,0,0,1,.21-.9A4.19,4.19,0,0,0,5.15,50.8a2.47,2.47,0,0,0,1.62.45c.15,0,.39,0,.75-.06,1-2,2.67-6.09,3.87-9.39,1.38-3.75,2-5.88,2-6.75,0-1-.54-1.68-2-2.43a2.08,2.08,0,0,1,1.05-.24,8.23,8.23,0,0,1,3.75,1.29c1.14.69,1.77,1.41,1.77,2a1.75,1.75,0,0,1-.57,1.17c-.6.72-.6.72-3.21,5.46C12,46.15,10.25,49.21,9,51.16c4.23-.3,10.23-1,13.29-1.56a22.5,22.5,0,0,0-4-6.63Z"/><path d="M19.28,65.41a12.17,12.17,0,0,0,3.51.9,5.84,5.84,0,0,0,.69-.06,1.71,1.71,0,0,1,.39,0,1.27,1.27,0,0,1,1.38,1.29c0,.57-.33,1-1.23,1.68a24.72,24.72,0,0,1-4.65,2.34c1.38,1.83,2.94,4,4,5.73a4.25,4.25,0,0,1,.9,2.64c0,1.56-.63,2.49-1.65,2.49-.6,0-.66-.06-1.89-1.29-1.41-1.44-4.05-2.31-7-2.31-3.21,0-5.13,1.2-5.13,3.27s2.13,3.27,5.73,3.27a9.17,9.17,0,0,0,3-.39,4.1,4.1,0,0,1,.57-.06,3,3,0,0,1,2.7,2.37c0,1.08-.93,1.44-3.81,1.44a19.3,19.3,0,0,1-6.24-.9c-2.64-.9-4.26-2.82-4.26-5,0-3.21,3.3-5.28,8.46-5.28a24.17,24.17,0,0,1,5.82.69,24.62,24.62,0,0,0-3.36-6,22.37,22.37,0,0,1-6.36,1A6.66,6.66,0,0,1,6.53,72a7.89,7.89,0,0,1-2-2l.27-.24a7.15,7.15,0,0,0,4.86,1.59,20.56,20.56,0,0,0,6-1,18.52,18.52,0,0,0-4.5-3.72c-1.14-.57-1.44-.87-1.44-1.35,0-.9,1.41-1.59,3.27-1.59a9.28,9.28,0,0,1,3.81.72l-.12.36a6.74,6.74,0,0,0-1-.06c-.9,0-1.41.15-1.41.48,0,.18.18.42,1.35,1.71.72.78.78.87,1.53,1.8l.72.87a16.83,16.83,0,0,0,3.72-1.89,23.52,23.52,0,0,0-2.46-2Z"/><path d="M28.94,109.69a16.59,16.59,0,0,1-2.79,7.38,8.27,8.27,0,0,1-6.54,3.78,4.1,4.1,0,0,1-3.39-1.44,6.08,6.08,0,0,1-.9-3.18,14.6,14.6,0,0,1-.12-2c-.15-2.7-.75-3.69-2.28-3.69s-2.76,1-4,2.76a19.54,19.54,0,0,0-2.7,6c-.33,1-.72,1.38-1.38,1.38s-1-.39-1.29-1.11a6.55,6.55,0,0,1-.48-2.13c0-.72.12-1,.9-2a78.84,78.84,0,0,0,6-10.86c1.44-3.06,2.13-5,2.13-6s-.69-1.77-2.25-2.4a2.2,2.2,0,0,1,1.17-.3,8.31,8.31,0,0,1,4,1.47c1,.69,1.5,1.29,1.5,2,0,.45-.12.69-.72,1.32a21.73,21.73,0,0,0-2.25,3.24c-2.1,3.36-2.1,3.36-3.36,5.43l-1.44,2.4h0c1.86-1.65,3.39-2.4,4.89-2.4a3.87,3.87,0,0,1,3.63,2.25,9,9,0,0,1,.75,3.12c.24,1.44.45,2.1.87,2.46a1.92,1.92,0,0,0,1.26.39,7.72,7.72,0,0,0,4.8-2.34,14.32,14.32,0,0,0,3.69-5.58Z"/><path d="M38.42,5.81c-.92,0-1,.08-1,.9h-.26V3.61h.26c0,.82.12.9,1,.9H43.3c.91,0,1-.08,1-.86h.26v3h-.26c0-.78-.13-.86-1-.86H40.58l2.31,2.07c.49.44.78.62,1,.62s.39-.19.43-.74h.26v2.76h-.26c-.06-.71-.39-1.2-1.44-2.15l-1.08-1-3.46,2.2c-.68.43-.94.76-1,1.24h-.25V8.72a5.76,5.76,0,0,0,1-.54l2.78-1.67-.79-.7Z"/><path d="M37.15,16.36C37.08,15.77,37,15.24,37,15s.15-.42.76-.47A2.23,2.23,0,0,1,37,12.8a1.4,1.4,0,0,1,1.47-1.54c.86,0,1.39.53,1.6,1.6a12.16,12.16,0,0,1,.19,1.64h.65c1.06,0,1.37-.18,1.37-.78a.69.69,0,0,0-.34-.67,1.51,1.51,0,0,0-.71-.16c-.36,0-.49-.19-.49-.61s.16-.7.46-.7a1.15,1.15,0,0,1,.93.62,3.06,3.06,0,0,1,.38,1.64,2.13,2.13,0,0,1-.41,1.48,1.58,1.58,0,0,1-1.24.39H38.56c-1.1,0-1.16,0-1.17.68ZM40,14.5c-.11-1.45-.48-2-1.41-2-.71,0-1.18.32-1.18.81a1.09,1.09,0,0,0,.66,1,2.56,2.56,0,0,0,1.16.18Z"/><path d="M38.68,18.83a2.76,2.76,0,0,0-.9.1.54.54,0,0,0-.37.49,1.19,1.19,0,0,0,.31.7l-.25.14a2.05,2.05,0,0,1-.5-1.37,1.2,1.2,0,0,1,.55-1.13,3.07,3.07,0,0,1,1.38-.15H42V17h.3a1.06,1.06,0,0,0,.53.95,2.71,2.71,0,0,0,1.07.37l0,.5c-.41,0-.72,0-1.63,0V20H42V18.83Z"/><path d="M38.88,20.91v.36a2.35,2.35,0,0,0-1.05.3,1.24,1.24,0,0,0-.63,1.12c0,.61.32,1,.87,1s.71-.26,1.25-1.42A2.86,2.86,0,0,1,40,21.17a1.23,1.23,0,0,1,.9-.35c1,0,1.59.72,1.59,1.85a4.75,4.75,0,0,1-.08.71,2.26,2.26,0,0,0-.06.44,1.31,1.31,0,0,0,.1.48l-1.75-.09v-.37c1-.07,1.56-.49,1.56-1.21a.81.81,0,0,0-.83-.89.7.7,0,0,0-.61.31,4.39,4.39,0,0,0-.58,1.12c-.47,1-.86,1.35-1.61,1.35A1.6,1.6,0,0,1,37,22.72a5.2,5.2,0,0,1,.12-1,2.19,2.19,0,0,0,0-.36,2.12,2.12,0,0,0-.06-.51Z"/><path d="M37,29.27a9.82,9.82,0,0,1,1-.05A2.17,2.17,0,0,1,37,27.38a1.36,1.36,0,0,1,.75-1.29A2.88,2.88,0,0,1,39,25.9h.14l2,0h.08a1.4,1.4,0,0,0,.73-.11c.12-.09.15-.17.16-.62h.24l.13,2c-.72-.05-1.1-.07-2-.08H39.23a3.4,3.4,0,0,0-1.22.13.67.67,0,0,0-.49.7A1.21,1.21,0,0,0,38.36,29a2.82,2.82,0,0,0,1.19.19h1.58c.55,0,.75,0,.86-.15s.1-.16.11-.58h.24l.13,2c-1.37-.06-1.37-.06-2-.06H38.39c-.87,0-1,.1-1,.65h-.23Z"/><path d="M40.79,35.58a1.82,1.82,0,0,0,.7.17c.41,0,.59-.23.62-.79h.23v2.18h-.23c-.08-.56-.37-.81-1.5-1.26l-4.32-1.7c-1-.41-1.4-.77-1.4-1.39s.23-.73.69-.73.52.14.52.4a2,2,0,0,1-.05.4,1.89,1.89,0,0,0-.06.42c0,.31.13.45.59.64l.4.15,4.18-1.75c.8-.34.91-.43,1-.9h.23v2.67H42.1c0-.43-.12-.6-.39-.6a1.54,1.54,0,0,0-.58.15l-2.7,1Z"/><path d="M37.15,42.69c-.07-.59-.12-1.12-.12-1.38s.15-.42.76-.47A2.23,2.23,0,0,1,37,39.13a1.4,1.4,0,0,1,1.47-1.54c.86,0,1.39.53,1.6,1.6a12.16,12.16,0,0,1,.19,1.64h.65c1.06,0,1.37-.18,1.37-.78a.69.69,0,0,0-.34-.67,1.51,1.51,0,0,0-.71-.16c-.36,0-.49-.19-.49-.61s.16-.7.46-.7a1.15,1.15,0,0,1,.93.62,3.06,3.06,0,0,1,.38,1.64,2.13,2.13,0,0,1-.41,1.48,1.58,1.58,0,0,1-1.24.39H38.56c-1.1,0-1.16,0-1.17.68ZM40,40.83c-.11-1.45-.48-2-1.41-2-.71,0-1.18.32-1.18.81a1.09,1.09,0,0,0,.66,1,2.56,2.56,0,0,0,1.16.18Z"/><path d="M39,47.93c-1.32,0-1.6.18-1.65,1h-.27V46.46h.27c0,.85.37,1.06,1.73,1.06h4c1,0,1.19-.17,1.25-1h.26v2.09l-5.76,4.08H42.6A2.76,2.76,0,0,0,44,52.53c.26-.15.35-.36.38-.87h.27v2.53h-.27c0-.48-.12-.69-.38-.85a2.56,2.56,0,0,0-1.28-.21H37.08v-.74l6.38-4.46Z"/><path d="M41.78,55.53a2.57,2.57,0,0,1,.71,1.87A2.5,2.5,0,0,1,39.75,60a3,3,0,0,1-2-.66,2.66,2.66,0,0,1-.81-2,2.55,2.55,0,0,1,.76-1.88,3,3,0,0,1,2-.69A3.08,3.08,0,0,1,41.78,55.53Zm-4.59,1.86c0,.87.78,1.26,2.52,1.26s2.55-.4,2.55-1.27a1,1,0,0,0-.58-.93,4.42,4.42,0,0,0-1.94-.32C38,56.13,37.19,56.53,37.19,57.39Z"/><path d="M41.48,62.67a2,2,0,0,1,1,1.74,1.3,1.3,0,0,1-1.05,1.42,1.87,1.87,0,0,1,1.05,1.72,1.51,1.51,0,0,1-.58,1.3,2.14,2.14,0,0,1-1.35.3h-2.2c-.89,0-1,.07-1,.76h-.24V67.2h.24c0,.66.11.73,1,.73h2.19c1.06,0,1.48-.24,1.48-.83a1,1,0,0,0-.55-.89,1.77,1.77,0,0,0-1-.31H38.36c-.89,0-1,.07-1,.74h-.24V64h.24c0,.66.11.73,1,.73h2.2c1,0,1.47-.26,1.47-.81s-.74-1.21-1.64-1.21h-2c-.9,0-1,.07-1,.73h-.24V60.69h.24c0,.69.1.76,1,.76h2.78c.84,0,1-.08,1-.74h.24l.13,1.95Z"/><path d="M37,74.33a9.82,9.82,0,0,1,1,0A2.17,2.17,0,0,1,37,72.44a1.36,1.36,0,0,1,.75-1.29A2.88,2.88,0,0,1,39,71h.14l2,0h.08a1.4,1.4,0,0,0,.73-.11c.12-.09.15-.17.16-.62h.24l.13,2c-.72,0-1.1-.07-2-.08H39.23a3.4,3.4,0,0,0-1.22.13.67.67,0,0,0-.49.7,1.21,1.21,0,0,0,.84,1.08,2.82,2.82,0,0,0,1.19.19h1.58c.55,0,.75,0,.86-.15s.1-.16.11-.58h.24l.13,2c-1.37-.06-1.37-.06-2-.06H38.39c-.87,0-1,.1-1,.65h-.23Z"/><path d="M42.47,78.58l-.81,0h-.3a1.78,1.78,0,0,1,1.13,1.48.79.79,0,0,1-.76.85.64.64,0,0,1-.61-.72.41.41,0,0,1,.32-.47c.28-.08.35-.13.35-.29v0c0-.19-.18-.39-.47-.56a2.25,2.25,0,0,0-1.11-.24H38.36c-.9,0-1,.06-1,.8h-.24V76.66h.24c0,.69.11.76,1,.76h2.77c.85,0,1-.09,1-.72h.24Z"/><path d="M37.15,86.41C37.08,85.82,37,85.29,37,85s.15-.42.76-.47A2.23,2.23,0,0,1,37,82.85a1.4,1.4,0,0,1,1.47-1.54c.86,0,1.39.53,1.6,1.6a12.16,12.16,0,0,1,.19,1.64h.65c1.06,0,1.37-.18,1.37-.78a.69.69,0,0,0-.34-.67,1.51,1.51,0,0,0-.71-.16c-.36,0-.49-.19-.49-.61s.16-.7.46-.7a1.15,1.15,0,0,1,.93.62,3.06,3.06,0,0,1,.38,1.64,2.13,2.13,0,0,1-.41,1.48,1.58,1.58,0,0,1-1.24.39H38.56c-1.1,0-1.16,0-1.17.68ZM40,84.55c-.11-1.45-.48-2-1.41-2-.71,0-1.18.32-1.18.81a1.09,1.09,0,0,0,.66,1,2.56,2.56,0,0,0,1.16.18Z"/></svg>