<svg xmlns="http://www.w3.org/2000/svg" viewBox="0 0 45 261"><title>phraseImg</title><path d="M17.18,17.38v.93c0,2.79,0,6.6.12,9.21,0,.75-.39.9-2.34.9-1.32,0-1.47-.09-1.47-.75.12-3.93.12-5,.15-10.29H7.16V19c0,.72-.36.84-2.13.84-1.29,0-1.44-.09-1.44-.75.15-5,.15-5.34.15-7.86s0-3.63-.15-5.58A35.52,35.52,0,0,1,7.73,7.69h5.94A44.63,44.63,0,0,0,13.43.88L15.65,1c2.28.18,2.82.33,2.82.72s-.33.48-1.32.78V7.69h6.57c.81-.9,1.05-1.17,1.86-2,1.17.81,1.5,1,2.55,1.8.33.27.45.45.45.66s-.24.48-1,.9c0,4.74,0,6,.18,9.84,0,.81-.36,1-2.4,1-1,0-1.2-.09-1.2-.66V17.38Zm-3.51-3.57V8.32H7.16v8.43h6.48ZM24.11,8.32h-7v8.43h7Z"/><path d="M14.75,59.71V39a36.07,36.07,0,0,0-.18-4.38c4,.36,4.32.42,4.74.6q.36.14.36.36c0,.33-.45.54-1.41.75v9.57h3.48c1.05-1.29,1.38-1.68,2.43-2.88a42.3,42.3,0,0,1,3.48,3.06q.18.18.18.27c0,.12-.12.18-.33.18H18.26V59.71h4.92c1.11-1.32,1.47-1.77,2.64-3.09a41.09,41.09,0,0,1,3.63,3.18c.15.15.21.24.21.33s-.15.21-.42.21H4.52A11.31,11.31,0,0,0,2,60.55l-.18-1.11a12.58,12.58,0,0,0,2.67.27h2v-15a36.7,36.7,0,0,0-.18-4c3.93.45,4.17.48,4.56.63s.42.21.42.39-.36.48-1.32.72V59.71Z"/><path d="M17.54,79.39c.81-1,1.08-1.29,1.95-2.31,1.29,1.11,1.68,1.44,3,2.49.15.12.21.21.21.27s-.15.18-.33.18H20.18v5.22h3c.87-1,1.17-1.38,2.07-2.37,1.44,1,1.89,1.38,3.36,2.52.12.12.21.21.21.3s-.15.18-.33.18H20.18v5.79c0,.45.27.63,1.08.63h.45a6.53,6.53,0,0,1,.75,0c2,0,2.28-.06,2.58-.45A24.19,24.19,0,0,0,26.9,87.1l.27.06,0,3.72a1.17,1.17,0,0,0,.24.84c.09.09.09.09.63.24a1.25,1.25,0,0,1,.84,1.2,1.78,1.78,0,0,1-1.29,1.53c-.81.36-2.61.51-6,.51-2.16,0-3-.09-3.69-.45A1.83,1.83,0,0,1,17,93V85.87H13.25c-.48,3.63-1.86,5.91-4.53,7.62A20.17,20.17,0,0,1,2.15,96L2,95.65c5.25-2.28,7.44-5,8-9.78h-5A8,8,0,0,0,3.68,86L3,86.05l-.18-1a22.27,22.27,0,0,0,2.55.21H10.1c.09-1.44.12-2.37.12-5.22H9.83a12.65,12.65,0,0,0-1.59.12l-.09-.54A30.87,30.87,0,0,1,1.58,83l-.18-.33c5.52-3.63,8.4-6.78,11.22-12.3H7a6.29,6.29,0,0,0-1.26.12,3.44,3.44,0,0,1-.57,0L5,69.61a21.22,21.22,0,0,0,2.16.15h5.58a22.36,22.36,0,0,1,1.83-2c1.29.81,1.68,1.08,2.88,2,.24.18.33.3.33.42s-.09.27-.3.36l-.51.18a1.54,1.54,0,0,1-.3.12,18.31,18.31,0,0,0,1.83,2.52,23,23,0,0,0,2.61-4.92c3.39,1.56,4,1.89,4,2.16s-.36.36-1,.36l-.48,0c-1.83,1.26-2.94,2-4.62,3a13.2,13.2,0,0,0,2.58,2,21.56,21.56,0,0,0,3.18-4.68c3.09,1.5,3.84,1.92,3.84,2.19s-.3.39-1.44.39a39.3,39.3,0,0,1-4.89,2.49,21.52,21.52,0,0,0,7.77,2.46L30,79a3.51,3.51,0,0,0-1.68,1.62,5.67,5.67,0,0,0-.54,1.23c-.12.39-.18.45-.36.45-.69,0-3.81-1.92-5.76-3.54a20.44,20.44,0,0,1-5.49-7.65A25.9,25.9,0,0,1,8.6,79.3c.6.06,1,.09,1.38.09ZM3.14,71.2c4.65,1.23,5.64,1.8,5.64,3.3,0,1.17-.84,2.28-1.68,2.28-.36,0-.6-.21-.81-.72A10.11,10.11,0,0,0,3,71.47ZM13.46,80c0,2.73-.09,4.47-.15,5.22H17V80Z"/><path d="M29.69,124.9A3.81,3.81,0,0,0,27.5,127a10.36,10.36,0,0,0-.42,1c-.06.21-.15.3-.3.3a6.46,6.46,0,0,1-1.92-.9,15.81,15.81,0,0,1-7.17-7.86,22.73,22.73,0,0,1-1.56-5.25,23.52,23.52,0,0,1-3.6,3.45v6.39A62.43,62.43,0,0,0,19.22,123l.09.33a72.78,72.78,0,0,1-12,4.86c-.21,1-.36,1.29-.66,1.29s-.48-.33-1.56-4.56a28.28,28.28,0,0,0,3.39-.27l.9-.12v-4.65a30.9,30.9,0,0,1-7.71,3.27l-.12-.33A35.45,35.45,0,0,0,8.45,118a27.07,27.07,0,0,0,3.48-3.69H3.8a7.53,7.53,0,0,0-1.92.21l-.18-1.08a7.83,7.83,0,0,0,2.07.24h9.87v-3.57H6.53a6.43,6.43,0,0,0-1.77.18l-.15-1a6.88,6.88,0,0,0,1.92.24h7.11v-3.33H5.21a9,9,0,0,0-1.95.18l-.15-1a8.36,8.36,0,0,0,2.1.24h8.43v-.78a24.53,24.53,0,0,0-.18-3.24c4.92.45,4.92.45,4.92.87s-.36.54-1.38.81v2.34h5.79c1-1.08,1.35-1.44,2.37-2.49,1.5,1.14,1.95,1.47,3.36,2.67.12.12.18.18.18.27s-.12.18-.33.18H17v3.33h4.68l2.13-2.31c1.44,1,1.86,1.35,3.24,2.46q.18.18.18.27c0,.15-.15.21-.39.21H17v3.57h6.81l2.31-2.46c1.53,1.11,2,1.47,3.42,2.61.12.15.18.21.18.3s-.12.18-.3.18H16.7a12.42,12.42,0,0,0,3,5.34,19.1,19.1,0,0,0,4-4.92c3.57,2,4.05,2.28,4.05,2.61s-.21.36-.51.36a4.45,4.45,0,0,1-1-.12,34.83,34.83,0,0,1-5.88,2.7,15.06,15.06,0,0,0,3.24,2.28,21.73,21.73,0,0,0,6.24,2Z"/><path d="M42.09,9.64a3.22,3.22,0,0,0,1.44-.53,2.06,2.06,0,0,0,.93-1.68,1.8,1.8,0,0,0-.88-1.55A5,5,0,0,0,41,5.3c-2.22,0-3.59.9-3.59,2.37a2.43,2.43,0,0,0,1,1.95,3.43,3.43,0,0,0,.82.44l-.16.29a3,3,0,0,1-2.11-3,3.5,3.5,0,0,1,.94-2.46,4,4,0,0,1,2.88-1c2.41,0,4,1.38,4,3.52A5.17,5.17,0,0,1,44.46,9a1.47,1.47,0,0,0-.06.42,1.58,1.58,0,0,0,.12.54H42.09Z"/><path d="M37.15,16.19c-.07-.59-.12-1.12-.12-1.38s.15-.42.76-.47A2.23,2.23,0,0,1,37,12.63a1.4,1.4,0,0,1,1.47-1.54c.86,0,1.39.53,1.6,1.6a12.16,12.16,0,0,1,.19,1.64h.65c1.06,0,1.37-.18,1.37-.78a.69.69,0,0,0-.34-.67,1.51,1.51,0,0,0-.71-.16c-.36,0-.49-.19-.49-.61s.16-.7.46-.7a1.15,1.15,0,0,1,.93.62,3.06,3.06,0,0,1,.38,1.64,2.13,2.13,0,0,1-.41,1.48,1.58,1.58,0,0,1-1.24.39H38.56c-1.1,0-1.16,0-1.17.68ZM40,14.33c-.11-1.45-.48-2-1.41-2-.71,0-1.18.32-1.18.81a1.09,1.09,0,0,0,.66,1,2.56,2.56,0,0,0,1.16.18Z"/><path d="M41.48,18.73a1.91,1.91,0,0,1,1,1.78,1.42,1.42,0,0,1-.68,1.36,2.22,2.22,0,0,1-1.23.25H38.36c-.89,0-1,.07-1,.76h-.24V20.16h.24c0,.67.12.75,1,.75h2.16c1.08,0,1.53-.26,1.53-.88a1.18,1.18,0,0,0-.66-1,2.32,2.32,0,0,0-1-.27h-2c-.9,0-1,.07-1,.75h-.24V16.75h.24c0,.69.11.76,1,.76h2.77c.85,0,1-.08,1-.74h.24l.13,1.95Z"/><path d="M38.36,28.3A2.29,2.29,0,0,1,37,26.11a2.5,2.5,0,0,1,2.7-2.57,3.11,3.11,0,0,1,2.16.79,2.5,2.5,0,0,1,.67,1.78c0,1.11-.6,2.06-1.31,2.06-.3,0-.49-.27-.49-.68a.67.67,0,0,1,.18-.51c.08-.06.08-.06.44-.08.6,0,.94-.33.94-.82a1,1,0,0,0-.64-.92,5.48,5.48,0,0,0-1.77-.28,3.85,3.85,0,0,0-1.7.35,1.31,1.31,0,0,0-.79,1.19A1.81,1.81,0,0,0,38.53,28Z"/><path d="M39.94,30.27a3.91,3.91,0,0,0-1.59.26,1.44,1.44,0,0,0-1,1.36,1.86,1.86,0,0,0,1.14,1.65l-.16.25A2.26,2.26,0,0,1,37,31.59,2.5,2.5,0,0,1,39.71,29a2.49,2.49,0,0,1,2.78,2.51,2,2,0,0,1-1.32,2.07,3.66,3.66,0,0,1-1.23.18Zm.29,2.22a3.9,3.9,0,0,0,1.25-.17c.53-.19.78-.47.78-.86s-.3-.76-.88-1a4.23,4.23,0,0,0-1.15-.21Z"/><path d="M37.36,34.43c0,.73.09.79,1,.79h5c.88,0,1-.07,1-.78h.23l.11,2.06c-.74,0-1.38-.06-2.05-.06h-4.3c-.91,0-1,.06-1,.79h-.24v-2.8Z"/><path d="M37.36,37.78c0,.73.09.79,1,.79h5c.88,0,1-.07,1-.78h.23l.11,2.06c-.74,0-1.38-.06-2.05-.06h-4.3c-.91,0-1,.06-1,.79h-.24v-2.8Z"/><path d="M37.15,46.31c-.07-.59-.12-1.12-.12-1.38s.15-.42.76-.47A2.23,2.23,0,0,1,37,42.75a1.4,1.4,0,0,1,1.47-1.54c.86,0,1.39.53,1.6,1.6a12.16,12.16,0,0,1,.19,1.64h.65c1.06,0,1.37-.18,1.37-.78a.69.69,0,0,0-.34-.67,1.51,1.51,0,0,0-.71-.16c-.36,0-.49-.19-.49-.61s.16-.7.46-.7a1.15,1.15,0,0,1,.93.62,3.06,3.06,0,0,1,.38,1.64,2.13,2.13,0,0,1-.41,1.48,1.58,1.58,0,0,1-1.24.39H38.56c-1.1,0-1.16,0-1.17.68ZM40,44.45c-.11-1.45-.48-2-1.41-2-.71,0-1.18.32-1.18.81a1.09,1.09,0,0,0,.66,1,2.56,2.56,0,0,0,1.16.18Z"/><path d="M38.68,48.78a2.76,2.76,0,0,0-.9.1.54.54,0,0,0-.37.49,1.19,1.19,0,0,0,.31.7l-.25.14a2.05,2.05,0,0,1-.5-1.37,1.2,1.2,0,0,1,.55-1.13,3.07,3.07,0,0,1,1.38-.15H42V47h.3a1.06,1.06,0,0,0,.53.95,2.71,2.71,0,0,0,1.07.37l0,.5c-.41,0-.72,0-1.63,0V50H42V48.78Z"/><path d="M42.47,52.61c-.6,0-1.3-.06-1.94-.06H38.36c-.89,0-1,.07-1,.78h-.24V50.55h.24c0,.71.11.78,1,.78h2.77c.89,0,1,0,1-.75h.24Zm2.3-.66a.72.72,0,1,1-.72-.72A.72.72,0,0,1,44.77,52Z"/><path d="M41.78,54.78a2.57,2.57,0,0,1,.71,1.87,2.5,2.5,0,0,1-2.74,2.59,3,3,0,0,1-2-.66,2.66,2.66,0,0,1-.81-2,2.55,2.55,0,0,1,.76-1.88,3,3,0,0,1,2-.69A3.08,3.08,0,0,1,41.78,54.78Zm-4.59,1.86c0,.87.78,1.26,2.52,1.26s2.55-.4,2.55-1.27a1,1,0,0,0-.58-.93,4.42,4.42,0,0,0-1.94-.32C38,55.38,37.19,55.78,37.19,56.64Z"/><path d="M41.48,61.92a1.91,1.91,0,0,1,1,1.78,1.42,1.42,0,0,1-.68,1.36,2.22,2.22,0,0,1-1.23.25H38.36c-.89,0-1,.07-1,.76h-.24V63.35h.24c0,.67.12.75,1,.75h2.16c1.08,0,1.53-.26,1.53-.88a1.18,1.18,0,0,0-.66-1,2.32,2.32,0,0,0-1-.27h-2c-.9,0-1,.07-1,.75h-.24V59.94h.24c0,.69.11.76,1,.76h2.77c.85,0,1-.08,1-.74h.24l.13,1.95Z"/><path d="M38.89,71.56a2.65,2.65,0,0,0-.92-.22c-.39,0-.57.28-.59.94h-.26V69.71h.26c0,.65.4,1,1.58,1.46L44.6,73.3l.08.74-6.13,2.18c-.62.23-.94.42-1.06.65a1.65,1.65,0,0,0-.11.53h-.26V74.14h.26c0,.63.15.86.48.86h0a2.61,2.61,0,0,0,.66-.15l1.1-.38V71.84Zm4.4,1.64L40,72v2.36Z"/><path d="M41.48,79.75a1.91,1.91,0,0,1,1,1.78,1.42,1.42,0,0,1-.68,1.36,2.22,2.22,0,0,1-1.23.25H38.36c-.89,0-1,.07-1,.76h-.24V81.18h.24c0,.67.12.75,1,.75h2.16c1.08,0,1.53-.26,1.53-.88a1.18,1.18,0,0,0-.66-1,2.32,2.32,0,0,0-1-.27h-2c-.9,0-1,.07-1,.75h-.24V77.77h.24c0,.69.11.76,1,.76h2.77c.85,0,1-.08,1-.74h.24l.13,1.95Z"/><path d="M41.48,86.38a1.91,1.91,0,0,1,1,1.78,1.42,1.42,0,0,1-.68,1.36,2.22,2.22,0,0,1-1.23.25H38.36c-.89,0-1,.07-1,.76h-.24V87.81h.24c0,.67.12.75,1,.75h2.16c1.08,0,1.53-.26,1.53-.88a1.18,1.18,0,0,0-.66-1,2.32,2.32,0,0,0-1-.27h-2c-.9,0-1,.07-1,.75h-.24V84.4h.24c0,.69.11.76,1,.76h2.77c.85,0,1-.08,1-.74h.24l.13,2Z"/><path d="M41.78,91.93a2.57,2.57,0,0,1,.71,1.87,2.5,2.5,0,0,1-2.74,2.59,3,3,0,0,1-2-.66,2.66,2.66,0,0,1-.81-2,2.55,2.55,0,0,1,.76-1.88,3,3,0,0,1,2-.69A3.08,3.08,0,0,1,41.78,91.93Zm-4.59,1.86c0,.87.78,1.26,2.52,1.26s2.55-.4,2.55-1.27a1,1,0,0,0-.58-.93,4.42,4.42,0,0,0-1.94-.32C38,92.53,37.19,92.93,37.19,93.79Z"/><path d="M37,101a9.82,9.82,0,0,1,1,0A2.17,2.17,0,0,1,37,99.13a1.36,1.36,0,0,1,.75-1.29A2.88,2.88,0,0,1,39,97.65h.14l2,0h.08a1.4,1.4,0,0,0,.73-.11c.12-.09.15-.17.16-.62h.24l.13,2c-.72,0-1.1-.07-2-.08H39.23A3.4,3.4,0,0,0,38,99a.67.67,0,0,0-.49.7,1.21,1.21,0,0,0,.84,1.08,2.82,2.82,0,0,0,1.19.19h1.58c.55,0,.75,0,.86-.15s.1-.16.11-.58h.24l.13,2c-1.37-.06-1.37-.06-2-.06H38.39c-.87,0-1,.1-1,.65h-.23Z"/><path d="M41.48,105.34a1.91,1.91,0,0,1,1,1.78,1.42,1.42,0,0,1-.68,1.36,2.22,2.22,0,0,1-1.23.25H38.36c-.89,0-1,.07-1,.76h-.24v-2.72h.24c0,.67.12.75,1,.75h2.16c1.08,0,1.53-.26,1.53-.88a1.18,1.18,0,0,0-.66-1,2.32,2.32,0,0,0-1-.27h-2c-.9,0-1,.07-1,.75h-.24v-2.73h.24c0,.69.11.76,1,.76h2.77c.85,0,1-.08,1-.74h.24l.13,2Z"/><path d="M38.36,114.91a2.29,2.29,0,0,1-1.4-2.19,2.5,2.5,0,0,1,2.7-2.57,3.11,3.11,0,0,1,2.16.79,2.5,2.5,0,0,1,.67,1.78c0,1.11-.6,2.06-1.31,2.06-.3,0-.49-.27-.49-.68a.67.67,0,0,1,.18-.51c.08-.06.08-.06.44-.08.6,0,.94-.33.94-.82a1,1,0,0,0-.64-.92,5.48,5.48,0,0,0-1.77-.28,3.85,3.85,0,0,0-1.7.35,1.31,1.31,0,0,0-.79,1.19,1.81,1.81,0,0,0,1.18,1.62Z"/><path d="M39.94,116.88a3.91,3.91,0,0,0-1.59.26,1.44,1.44,0,0,0-1,1.36,1.86,1.86,0,0,0,1.14,1.65l-.16.25A2.26,2.26,0,0,1,37,118.2a2.5,2.5,0,0,1,2.74-2.61,2.49,2.49,0,0,1,2.78,2.51,2,2,0,0,1-1.32,2.07,3.66,3.66,0,0,1-1.23.18Zm.29,2.22a3.9,3.9,0,0,0,1.25-.17c.53-.19.78-.47.78-.86s-.3-.76-.88-1a4.23,4.23,0,0,0-1.15-.21Z"/><path d="M41.48,123a2,2,0,0,1,1,1.74,1.3,1.3,0,0,1-1.05,1.42,1.87,1.87,0,0,1,1.05,1.72,1.5,1.5,0,0,1-.58,1.29,2.14,2.14,0,0,1-1.35.3h-2.2c-.89,0-1,.07-1,.76h-.24v-2.7h.24c0,.66.11.73,1,.73h2.19c1.06,0,1.48-.24,1.48-.83a1,1,0,0,0-.55-.89,1.77,1.77,0,0,0-1-.31H38.36c-.89,0-1,.07-1,.74h-.24V124.3h.24c0,.66.11.73,1,.73h2.2c1,0,1.47-.26,1.47-.81S41.29,123,40.39,123h-2c-.9,0-1,.07-1,.73h-.24V121h.24c0,.69.1.76,1,.76h2.78c.84,0,1-.08,1-.74h.24l.13,2Z"/><path d="M39.94,132.19a3.91,3.91,0,0,0-1.59.26,1.44,1.44,0,0,0-1,1.36,1.86,1.86,0,0,0,1.14,1.65l-.16.25a2.26,2.26,0,0,1-1.37-2.2,2.5,2.5,0,0,1,2.74-2.61,2.49,2.49,0,0,1,2.78,2.51,2,2,0,0,1-1.32,2.07,3.66,3.66,0,0,1-1.23.18Zm.29,2.22a3.9,3.9,0,0,0,1.25-.17c.53-.19.78-.47.78-.86s-.3-.76-.88-1a4.23,4.23,0,0,0-1.15-.21Z"/><path d="M41.48,138.32a1.91,1.91,0,0,1,1,1.78,1.42,1.42,0,0,1-.68,1.36,2.22,2.22,0,0,1-1.23.25H38.36c-.89,0-1,.07-1,.76h-.24v-2.72h.24c0,.67.12.75,1,.75h2.16c1.08,0,1.53-.26,1.53-.88a1.18,1.18,0,0,0-.66-1,2.32,2.32,0,0,0-1-.27h-2c-.9,0-1,.07-1,.75h-.24v-2.73h.24c0,.69.11.76,1,.76h2.77c.85,0,1-.08,1-.74h.24l.13,1.95Z"/><path d="M38.68,144.88a2.76,2.76,0,0,0-.9.1.54.54,0,0,0-.37.49,1.19,1.19,0,0,0,.31.7l-.25.14a2.05,2.05,0,0,1-.5-1.37,1.2,1.2,0,0,1,.55-1.13,3.07,3.07,0,0,1,1.38-.15H42v-.57h.3a1.06,1.06,0,0,0,.53.95,2.71,2.71,0,0,0,1.07.37l0,.5c-.41,0-.72,0-1.63,0v1.21H42v-1.21Z"/></svg>