<svg xmlns="http://www.w3.org/2000/svg" viewBox="0 0 45 261"><title>phraseImg</title><path d="M8.87,7.66c0,2.07,0,2.07,0,4.44h.51c.63-.75.84-1,1.5-1.71.84.78,1.08,1,1.92,1.86a.87.87,0,0,1,.15.3c0,.12-.09.18-.3.18H8.81v1.14c0,1.35,0,1.53-.09,2.37a43.23,43.23,0,0,0,4.68-1.17l.06.27c-.51.3-.93.57-1.2.72a33.13,33.13,0,0,1-3.75,2.1,15.38,15.38,0,0,1-1.32,4.77c-1.08,2.25-2.43,3.66-5.37,5.61l-.24-.24A15.21,15.21,0,0,0,5.06,22a13.68,13.68,0,0,0,.48-2.58c-1.35.57-1.35.57-1.95.84-.15,1.2-.21,1.35-.54,1.35s-.48-.3-1.53-4.11a22.42,22.42,0,0,0,4.2-.66c0-1.11,0-1.11.06-4.14h-2a9.78,9.78,0,0,0-1.44.15l-.18-1a5.31,5.31,0,0,0,1.62.24h2l0-2.43v-2H3.59a12.54,12.54,0,0,0-1.68.12l-.18-1A8.36,8.36,0,0,0,3.59,7H7.25A31.92,31.92,0,0,0,9,.7a36.67,36.67,0,0,1,3.6,1.2c.21.09.33.21.33.36s-.12.24-.36.36a9.74,9.74,0,0,0,1.53.15h2.7c.75-.78,1-1,1.74-1.71.66.51.78.6,1.41,1.11l.78.6h4.44c.78-.81,1-1,1.77-1.77,1,.75,1.32,1,2.34,1.83.18.18.27.27.27.39s-.18.39-1,.9V18.76c0,.33,0,1.17,0,2.34,0,.9,0,1.23.06,4a2.66,2.66,0,0,1-.51,2,5.58,5.58,0,0,1-3.33,1.32c-.39,0-.45-.06-.51-.66A2.46,2.46,0,0,0,23.63,26,5.72,5.72,0,0,0,21,24.91v-.33l3.63.15h.21c.48,0,.63-.12.63-.54V15.91c-.27.39-2.13,2.67-2.85,3.51V20c0,.63-.15.9-.45.9s-.33,0-1.83-3.81a27.13,27.13,0,0,0,5.13-2.37V3.4h-4.5c-.12.24-.12.24-.87.66V19.27c0,3.51,0,4.05,0,5.94,0,1.26-.3,1.86-1,2.31a5.65,5.65,0,0,1-2.82.84c-.39,0-.48-.09-.51-.66-.12-1.74-.78-2.19-4.14-2.88v-.36c2.49.18,2.82.18,4.56.24.63,0,.84-.12.84-.57V17c-.66.78-2.07,2.19-3.81,3.84a3.45,3.45,0,0,1,0,.54c0,.6-.18.93-.48.93s-.6-.42-2.1-3.93A31.51,31.51,0,0,0,17,15.85V3.4h-3a7.74,7.74,0,0,0-1.38.15l-.18-.93a7.54,7.54,0,0,1-.81.12L10.07,4.81C9.56,5.5,8.84,6.31,8.18,7H9.32c.75-.81.75-.81,1.47-1.56A21.38,21.38,0,0,1,12.65,7.3a.38.38,0,0,1,.12.21c0,.09-.15.15-.33.15ZM2.66.82c2.64,1.29,4,2.49,4,3.54A3.06,3.06,0,0,1,6,6a1.59,1.59,0,0,1-1.2.72c-.48,0-.6-.18-.75-1.11A14.88,14.88,0,0,0,2.48,1Zm10,5.1a20.9,20.9,0,0,1,2.73,2.64,3.35,3.35,0,0,1,.93,2.07c0,1.14-1.08,2.67-1.89,2.67-.42,0-.51-.21-.63-1.47A16.16,16.16,0,0,0,12.44,6ZM20.84,6A15.2,15.2,0,0,1,23.6,8.56c.75.87,1,1.29,1,1.92,0,1.17-1,2.64-1.89,2.64-.24,0-.39-.15-.48-.45s-.12-.87-.27-1.95a12.44,12.44,0,0,0-1.26-4.56Z"/><path d="M28.94,48.13a16.59,16.59,0,0,1-2.79,7.38,8.27,8.27,0,0,1-6.54,3.78,4.1,4.1,0,0,1-3.39-1.44,6.08,6.08,0,0,1-.9-3.18,14.6,14.6,0,0,1-.12-2C15.05,50,14.45,49,12.92,49s-2.76,1-4,2.76a19.54,19.54,0,0,0-2.7,6c-.33,1-.72,1.38-1.38,1.38s-1-.39-1.29-1.11a6.55,6.55,0,0,1-.48-2.13c0-.72.12-1,.9-2A78.84,78.84,0,0,0,10,43c1.44-3.06,2.13-5,2.13-6s-.69-1.77-2.25-2.4A2.2,2.2,0,0,1,11,34.3a8.31,8.31,0,0,1,4,1.47c1,.69,1.5,1.29,1.5,2,0,.45-.12.69-.72,1.32a21.73,21.73,0,0,0-2.25,3.24c-2.1,3.36-2.1,3.36-3.36,5.43l-1.44,2.4h0c1.86-1.65,3.39-2.4,4.89-2.4A3.87,3.87,0,0,1,17.24,50,9,9,0,0,1,18,53.11c.24,1.44.45,2.1.87,2.46a1.92,1.92,0,0,0,1.26.39,7.72,7.72,0,0,0,4.8-2.34A14.32,14.32,0,0,0,28.61,48Z"/><path d="M5.54,71.71c1,0,2-.24,8.07-1.77,1.47-.39,3-.75,6.66-1.53a10.51,10.51,0,0,0,2.43-.78,3,3,0,0,1,1.14-.27,4.89,4.89,0,0,1,2.22.84,2.12,2.12,0,0,1,1.17,1.65c0,.72-.57,1.17-1.47,1.17-.18,0-.45,0-.78-.06s-.51,0-.87,0a9.37,9.37,0,0,0-7.2,3.39,8.82,8.82,0,0,0-2.37,5.88,5.48,5.48,0,0,0,3.63,5.4,7,7,0,0,0,2.4.48,1.78,1.78,0,0,0,.33,0h.3a2.25,2.25,0,0,1,1.56.63,3.08,3.08,0,0,1,1.17,2.16c0,1-.69,1.41-2.1,1.41A10.78,10.78,0,0,1,15.44,88a8.21,8.21,0,0,1-3.12-6.66,11.32,11.32,0,0,1,3.36-7.53,17.52,17.52,0,0,1,4.8-3.45C16,71.29,9.5,73.6,8,74.77a2.65,2.65,0,0,1-1.5.51c-1.62,0-3.9-2.85-3.9-4.83a1.91,1.91,0,0,1,.24-.87C3.5,71.05,4.37,71.71,5.54,71.71ZM22,75a11.5,11.5,0,0,1,3.21,1.44c1.38.93,2,1.8,2,2.76,0,.69-.36,1.17-.93,1.17-.39,0-.63-.18-1-.87a13.22,13.22,0,0,0-3.54-4ZM25,72.67A10.48,10.48,0,0,1,28.55,74c1.2.78,1.74,1.47,1.74,2.31s-.36,1.2-.9,1.2c-.33,0-.54-.18-1-.81a13.05,13.05,0,0,0-3.6-3.54Z"/><path d="M11.42,113.92a51.67,51.67,0,0,1-7.74,5.64c0,.87-.15,1.26-.45,1.26s-.24-.09-.36-.3-.57-1.47-1.5-4a23.77,23.77,0,0,0,3.33-.72v-10H3.29a6.86,6.86,0,0,0-1.53.18l-.18-1a5.61,5.61,0,0,0,1.71.24H4.7v-4c0-1.65,0-2.37-.15-3.9,4.2.39,4.62.45,4.62.87s-.33.51-1.26.75v6.33h.63l1.56-2c1,.93,1.32,1.23,2.31,2.22.12.12.15.18.15.27s-.12.18-.39.18H7.91v9.12c1.05-.36,1.68-.6,3.39-1.29Zm.21-4.65a9.9,9.9,0,0,0-2,.18l-.18-1a7.53,7.53,0,0,0,2.16.24H24.71c1-.93,1.23-1.2,2.1-2.13,1.32,1,1.74,1.29,3,2.34.12.12.15.18.15.27s-.12.15-.33.15H26.57v6.39s0,2,.12,6a2.19,2.19,0,0,1-1.62,2.22,8,8,0,0,1-2.55.48c-.39,0-.45-.06-.51-.57a2.25,2.25,0,0,0-1-1.59c-.48-.3-.54-.33-3.09-1.11l0-.42c2.25.18,2.94.21,4.86.24h.09c.33,0,.42-.12.42-.51V109.27Zm11.88-8.52c.9-1,1.17-1.35,2.07-2.37,1.38,1.08,1.77,1.41,3,2.49.12.15.18.24.18.3s-.12.21-.39.21H19.76a6.72,6.72,0,0,1-.42,1.17c5.94,1.08,6.87,1.5,6.87,3.09,0,1-.69,2-1.41,2-.36,0-.54-.15-1.44-1.23A12.21,12.21,0,0,0,19.13,103a7.61,7.61,0,0,1-3.51,3.42A17.66,17.66,0,0,1,10.1,108l-.12-.36a11.51,11.51,0,0,0,4.95-3.09,6.79,6.79,0,0,0,1.62-3.21H12.86a7.53,7.53,0,0,0-1.92.21l-.21-1.08a8.85,8.85,0,0,0,2.1.24H16.7a18.12,18.12,0,0,0,.18-2.52c0-.39,0-.78-.06-1.5,3.84.42,4,.45,4.35.57s.36.21.36.36-.24.42-1.23.72a21.7,21.7,0,0,1-.36,2.37ZM14.63,119.5c0,.66-.3.78-2,.78-1,0-1.08-.06-1.11-.57.06-2,.09-3.21.09-6.48,0-1.29,0-1.71-.09-2.82,1.47.66,1.92.87,3.27,1.59h2.91l1.44-1.56A24.64,24.64,0,0,1,21.41,112c.27.21.39.33.39.48s-.18.33-.84.69v1.32c0,.93,0,1.92,0,4.26,0,.66-.3.78-2.16.78-.75,0-.9-.09-.9-.54v-1h-3.3Zm0-2.13h3.3v-4.74h-3.3Z"/><path d="M16.46,142.69H21c1-1.17,1.32-1.53,2.34-2.67,1.53,1.2,2,1.56,3.45,2.85q.18.18.18.27c0,.12-.12.18-.33.18H16.46v11.91h6.93c1.08-1.23,1.41-1.62,2.52-2.79,1.56,1.23,2,1.62,3.54,2.88.15.15.21.24.21.33s-.15.21-.39.21H4.73a13.81,13.81,0,0,0-2.73.21l-.18-1.14a10.72,10.72,0,0,0,2.91.3h8.16V143.32H7.16a13.1,13.1,0,0,0-2.52.18l-.18-1.05a10.9,10.9,0,0,0,2.7.24h5.73v-9.3h-7a13.2,13.2,0,0,0-2.58.18l-.18-1.08a11,11,0,0,0,2.76.27H22.28l2.37-2.7c1.59,1.17,2.07,1.53,3.66,2.82a.72.72,0,0,1,.21.33c0,.12-.15.18-.36.18H16.46Zm2.07,2.55a21.27,21.27,0,0,1,4.5,2c1.47.93,2,1.59,2,2.55,0,1.32-1.05,2.73-2,2.73-.39,0-.6-.27-1.08-1.38a16.33,16.33,0,0,0-3.6-5.64Z"/><path d="M38.42,5.8c-.91,0-1,.1-1,.94h-.26V3.61h.26c0,.82.12.9,1,.9H43.3c.92,0,1-.1,1-.9h.26V9.1l-2.07.15,0-.35c1.35-.24,1.81-.79,1.81-2.17V5.8H41.15v.77c0,1.06.22,1.34,1.15,1.44v.32H39.69V8c1-.12,1.17-.36,1.17-1.44V5.8Z"/><path d="M37.36,9.84c0,.73.09.79,1,.79h5c.88,0,1-.07,1-.78h.23l.11,2.06c-.74,0-1.38-.06-2.05-.06h-4.3c-.91,0-1,.06-1,.79h-.24V9.84Z"/><path d="M40.79,17.15a1.82,1.82,0,0,0,.7.17c.41,0,.59-.23.62-.79h.23v2.18h-.23c-.08-.56-.37-.81-1.5-1.26l-4.32-1.7c-1-.41-1.4-.77-1.4-1.39s.23-.73.69-.73.52.14.52.4a2,2,0,0,1-.05.4,1.89,1.89,0,0,0-.06.42c0,.31.13.45.59.64l.4.15,4.18-1.75c.8-.34.91-.43,1-.9h.23v2.67H42.1c0-.43-.12-.6-.39-.6a1.54,1.54,0,0,0-.58.15l-2.7,1Z"/><path d="M39.11,23.74a3,3,0,0,0-1.35.18c-.26.16-.35.36-.38.86h-.26V22.29h.26c0,.84.39,1,1.73,1h4.21c.54,0,.74,0,.87-.22s.14-.26.15-.65h.26v2.39L39,27l5.64,2.22v2.28h-.26c0-.79-.12-.86-1.05-.86H38.41c-.91,0-1,.08-1,.9h-.26V28.49h.26c0,.81.12.9,1,.9h5.52l-6.62-2.58v-.52l6.54-2.55Z"/><path d="M39.94,33.6a3.91,3.91,0,0,0-1.59.26,1.44,1.44,0,0,0-1,1.36,1.86,1.86,0,0,0,1.14,1.65l-.16.25A2.26,2.26,0,0,1,37,34.92a2.5,2.5,0,0,1,2.74-2.61,2.49,2.49,0,0,1,2.78,2.51,2,2,0,0,1-1.32,2.07,3.66,3.66,0,0,1-1.23.18Zm.29,2.22a3.9,3.9,0,0,0,1.25-.17c.53-.19.78-.47.78-.86s-.3-.76-.88-1a4.23,4.23,0,0,0-1.15-.21Z"/><path d="M38.68,43a2.76,2.76,0,0,0-.9.1.54.54,0,0,0-.37.49,1.19,1.19,0,0,0,.31.7l-.25.14a2.05,2.05,0,0,1-.5-1.37,1.2,1.2,0,0,1,.55-1.13,3.07,3.07,0,0,1,1.38-.15H42V41.2h.3a1.06,1.06,0,0,0,.53.95,2.71,2.71,0,0,0,1.07.37l0,.5c-.41,0-.72,0-1.63,0V44.2H42V43Z"/><path d="M41.78,45.66a2.57,2.57,0,0,1,.71,1.87,2.5,2.5,0,0,1-2.74,2.59,3,3,0,0,1-2-.66,2.66,2.66,0,0,1-.81-2,2.55,2.55,0,0,1,.76-1.88,3,3,0,0,1,2-.69A3.08,3.08,0,0,1,41.78,45.66Zm-4.59,1.86c0,.87.78,1.26,2.52,1.26s2.55-.4,2.55-1.27a1,1,0,0,0-.58-.93,4.42,4.42,0,0,0-1.94-.32C38,46.26,37.19,46.66,37.19,47.52Z"/><path d="M38.68,56.06a2.76,2.76,0,0,0-.9.1.54.54,0,0,0-.37.49,1.19,1.19,0,0,0,.31.7l-.25.14a2.05,2.05,0,0,1-.5-1.37A1.2,1.2,0,0,1,37.52,55a3.07,3.07,0,0,1,1.38-.15H42v-.57h.3a1.06,1.06,0,0,0,.53.95,2.71,2.71,0,0,0,1.07.37l0,.5c-.41,0-.72,0-1.63,0v1.21H42V56.06Z"/><path d="M41.48,59.76a1.94,1.94,0,0,1,1,1.82,1.47,1.47,0,0,1-.7,1.44,2.62,2.62,0,0,1-1.23.22h-2.2c-.9,0-1,.07-1,.76h-.24V61.27h.24c0,.68.1.75,1,.75h2.13a2.75,2.75,0,0,0,1.08-.14.76.76,0,0,0,.46-.77A1.2,1.2,0,0,0,41.34,60a2,2,0,0,0-1.06-.27H38.36c-.89,0-1,.07-1,.75h-.24V57.78h.24c0,.69.1.76,1,.76h5c.88,0,1-.07,1-.77h.23l.11,2c-.77,0-1.25-.06-2.05-.06Z"/><path d="M39.94,65.94a3.91,3.91,0,0,0-1.59.26,1.44,1.44,0,0,0-1,1.36,1.86,1.86,0,0,0,1.14,1.65l-.16.25A2.26,2.26,0,0,1,37,67.26a2.5,2.5,0,0,1,2.74-2.61,2.49,2.49,0,0,1,2.78,2.51,2,2,0,0,1-1.32,2.07,3.66,3.66,0,0,1-1.23.18Zm.29,2.22A3.9,3.9,0,0,0,41.48,68c.53-.19.78-.47.78-.86s-.3-.76-.88-1A4.23,4.23,0,0,0,40.23,66Z"/><path d="M39.47,73.76v.4c-1.5.14-2.21.74-2.21,1.86a1.29,1.29,0,0,0,1.38,1.41c.68,0,1.09-.39,1.7-1.64a7.82,7.82,0,0,1,.71-1.31,1.81,1.81,0,0,1,1.59-.82,2,2,0,0,1,1.87,1.18,2.93,2.93,0,0,1,.23,1.28,5.21,5.21,0,0,1-.17,1.22,1.42,1.42,0,0,0,.1,1l-2.24-.08v-.4a2.51,2.51,0,0,0,1.25-.34,1.55,1.55,0,0,0,.79-1.38,1.24,1.24,0,0,0-1.3-1.3,1.15,1.15,0,0,0-.84.33,4.45,4.45,0,0,0-.77,1.3,5.38,5.38,0,0,1-1,1.66,1.91,1.91,0,0,1-1.39.52,2,2,0,0,1-1.61-.7A2.92,2.92,0,0,1,37,76.07a6,6,0,0,1,.17-1.35,2.34,2.34,0,0,0,0-.38,3.23,3.23,0,0,0-.09-.66Z"/><path d="M37.15,84.55C37.08,84,37,83.43,37,83.17s.15-.42.76-.47A2.23,2.23,0,0,1,37,81a1.4,1.4,0,0,1,1.47-1.54c.86,0,1.39.53,1.6,1.6a12.16,12.16,0,0,1,.19,1.64h.65c1.06,0,1.37-.18,1.37-.78a.69.69,0,0,0-.34-.67,1.51,1.51,0,0,0-.71-.16c-.36,0-.49-.19-.49-.61s.16-.7.46-.7a1.15,1.15,0,0,1,.93.62A3.06,3.06,0,0,1,42.49,82a2.13,2.13,0,0,1-.41,1.48,1.58,1.58,0,0,1-1.24.39H38.56c-1.1,0-1.16,0-1.17.68ZM40,82.69c-.11-1.45-.48-2-1.41-2-.71,0-1.18.32-1.18.81a1.09,1.09,0,0,0,.66,1,2.56,2.56,0,0,0,1.16.18Z"/><path d="M42.47,87.17c-.6,0-1.3-.06-1.94-.06H38.36c-.89,0-1,.07-1,.78h-.24V85.11h.24c0,.71.11.78,1,.78h2.77c.89,0,1,0,1-.75h.24Zm2.3-.66a.72.72,0,1,1-.72-.72A.72.72,0,0,1,44.77,86.51Z"/><path d="M38.68,90.35a2.76,2.76,0,0,0-.9.1.54.54,0,0,0-.37.49,1.19,1.19,0,0,0,.31.7l-.25.14a2.05,2.05,0,0,1-.5-1.37,1.2,1.2,0,0,1,.55-1.13,3.07,3.07,0,0,1,1.38-.15H42v-.57h.3a1.06,1.06,0,0,0,.53,1,2.71,2.71,0,0,0,1.07.37l0,.5c-.41,0-.72,0-1.63,0v1.21H42V90.35Z"/><path d="M37.15,97.31c-.07-.59-.12-1.12-.12-1.38s.15-.42.76-.47A2.23,2.23,0,0,1,37,93.75a1.4,1.4,0,0,1,1.47-1.54c.86,0,1.39.53,1.6,1.6a12.16,12.16,0,0,1,.19,1.64h.65c1.06,0,1.37-.18,1.37-.78a.69.69,0,0,0-.34-.67,1.51,1.51,0,0,0-.71-.16c-.36,0-.49-.19-.49-.61s.16-.7.46-.7a1.15,1.15,0,0,1,.93.62,3.06,3.06,0,0,1,.38,1.64,2.13,2.13,0,0,1-.41,1.48,1.58,1.58,0,0,1-1.24.39H38.56c-1.1,0-1.16,0-1.17.68ZM40,95.45c-.11-1.45-.48-2-1.41-2-.71,0-1.18.32-1.18.81a1.09,1.09,0,0,0,.66,1,2.56,2.56,0,0,0,1.16.18Z"/><path d="M41.48,99.85a2,2,0,0,1,1,1.74A1.3,1.3,0,0,1,41.44,103a1.87,1.87,0,0,1,1.05,1.72,1.52,1.52,0,0,1-.58,1.3,2.14,2.14,0,0,1-1.35.3h-2.2c-.89,0-1,.06-1,.75h-.24v-2.7h.24c0,.66.11.73,1,.73h2.19c1.06,0,1.48-.24,1.48-.83a1,1,0,0,0-.55-.89,1.77,1.77,0,0,0-1-.31H38.36c-.89,0-1,.07-1,.74h-.24v-2.68h.24c0,.66.11.73,1,.73h2.2c1,0,1.47-.26,1.47-.81s-.74-1.21-1.64-1.21h-2c-.9,0-1,.07-1,.73h-.24V97.87h.24c0,.69.1.76,1,.76h2.78c.84,0,1-.08,1-.74h.24l.13,2Z"/><path d="M37.15,112.77c-.07-.59-.12-1.12-.12-1.38s.15-.42.76-.47a2.23,2.23,0,0,1-.81-1.71,1.4,1.4,0,0,1,1.47-1.54c.86,0,1.39.53,1.6,1.6a12.16,12.16,0,0,1,.19,1.64h.65c1.06,0,1.37-.18,1.37-.78a.69.69,0,0,0-.34-.67,1.51,1.51,0,0,0-.71-.16c-.36,0-.49-.19-.49-.61s.16-.7.46-.7a1.15,1.15,0,0,1,.93.62,3.06,3.06,0,0,1,.38,1.64,2.13,2.13,0,0,1-.41,1.48,1.58,1.58,0,0,1-1.24.39H38.56c-1.1,0-1.16,0-1.17.68ZM40,110.91c-.11-1.45-.48-2-1.41-2-.71,0-1.18.32-1.18.81a1.09,1.09,0,0,0,.66,1,2.56,2.56,0,0,0,1.16.18Z"/></svg>