<svg xmlns="http://www.w3.org/2000/svg" viewBox="0 0 45 261"><title>phraseImg</title><path d="M6.35,27.34c0,.36-.12.54-.42.66A8.72,8.72,0,0,1,4,28.18c-1,0-1.2-.15-1.2-.81.24-6,.27-9.33.27-20.07,0-2.7,0-4.26-.18-6.6A36.16,36.16,0,0,1,6.8,2.62H24.47c.72-.81,1-1,1.74-1.83,1.14.75,1.47,1,2.58,1.83.27.21.39.36.39.57s-.24.54-1.14,1.05v8.58c0,6.15.09,11.52.24,14.31,0,.42-.09.63-.42.78a7.21,7.21,0,0,1-2,.24c-.81,0-1-.12-1.08-.63V26.2H6.35Zm0-1.77H24.77V3.25H6.35ZM16.79,13.42h1.83c.75-.93,1-1.23,1.8-2.13A26.13,26.13,0,0,1,23,13.57c.15.12.18.21.18.27s-.12.21-.36.21h-6v7.41h2.55a17,17,0,0,1,1.53-1.83c-.15,0-.27,0-.36,0-.33,0-.45-.18-.78-1.08A9.13,9.13,0,0,0,17.78,15l.18-.18c3.27,1,4.44,1.71,4.44,2.76a2.06,2.06,0,0,1-1,1.74,29.22,29.22,0,0,1,2.49,2.22.52.52,0,0,1,.18.33c0,.12-.15.18-.33.18H9.23a8.52,8.52,0,0,0-1.83.15l-.18-1a9.54,9.54,0,0,0,2,.21h4.29V14.05H10.25a9.6,9.6,0,0,0-1.77.15l-.15-1a7.59,7.59,0,0,0,1.95.21h3.24V7.57H9.74a14.11,14.11,0,0,0-1.89.15l-.18-1a9,9,0,0,0,2.1.24h8.91c.81-1,1.08-1.29,1.95-2.25,1.32,1,1.71,1.32,2.91,2.4q.18.18.18.27c0,.12-.15.21-.33.21h-6.6Z"/><path d="M1.4,48.16a36.09,36.09,0,0,0,7-6.51,22.22,22.22,0,0,0,4.35-7.29c1,.21,1.83.36,2.37.48,2.16.42,2.82.63,2.82,1s-.24.39-1.23.6a14.92,14.92,0,0,0,6,5.22,22.24,22.24,0,0,0,7.41,2.25v.33a3.62,3.62,0,0,0-2,2.19c-.12.27-.27.75-.36,1s-.18.39-.36.39a9.4,9.4,0,0,1-2.58-1.2,21.19,21.19,0,0,1-6-5.43,15.65,15.65,0,0,1-2.58-4.5A30.06,30.06,0,0,1,1.61,48.49ZM15.59,51A48.66,48.66,0,0,1,9.83,57.7c5.58-.09,8.4-.24,11.43-.51a18.59,18.59,0,0,0-3.33-4.59l.24-.24a27.05,27.05,0,0,1,5.52,3.3c1.56,1.26,2.19,2.1,2.19,3,0,1.56-1.08,3.18-2.1,3.18-.39,0-.51-.15-.84-.93a25.55,25.55,0,0,0-1.2-2.85l-.69.21c-3.06.81-8.76,1.95-14.88,2.91-.21.9-.36,1.2-.66,1.2s-.33,0-1.44-4.8a29,29,0,0,0,3.39.15h1A43,43,0,0,0,11,51H5a8.45,8.45,0,0,0-1.86.18l-.24-1.08a8.54,8.54,0,0,0,2.19.27H22.49c1-1.14,1.26-1.47,2.22-2.55,1.62,1.14,2.13,1.47,3.66,2.7a.42.42,0,0,1,.18.27c0,.12-.15.21-.33.21ZM8.18,45.31a9.49,9.49,0,0,0,2.22.24h6.12c.93-1.11,1.23-1.44,2.19-2.46,1.47,1.08,1.92,1.44,3.39,2.61.15.12.21.21.21.3s-.12.18-.36.18H10.22a10.58,10.58,0,0,0-1.8.15Z"/><path d="M17.18,84.58v.93c0,2.79,0,6.6.12,9.21,0,.75-.39.9-2.34.9-1.32,0-1.47-.09-1.47-.75.12-3.93.12-5,.15-10.29H7.16v1.59c0,.72-.36.84-2.13.84-1.29,0-1.44-.09-1.44-.75.15-5,.15-5.34.15-7.86s0-3.63-.15-5.58a35.52,35.52,0,0,1,4.14,2.07h5.94a44.63,44.63,0,0,0-.24-6.81l2.22.15c2.28.18,2.82.33,2.82.72s-.33.48-1.32.78v5.16h6.57c.81-.9,1.05-1.17,1.86-2,1.17.81,1.5,1.05,2.55,1.8.33.27.45.45.45.66s-.24.48-1,.9c0,4.74,0,6,.18,9.84,0,.81-.36,1-2.4,1-1,0-1.2-.09-1.2-.66V84.58ZM13.67,81V75.52H7.16V84h6.48Zm10.44-5.49h-7V84h7Z"/><path d="M8.48,122c0,3.54,0,5.76,0,6.66a.62.62,0,0,1-.09.39c-.18.27-.81.39-1.77.39s-1.05-.12-1.05-.54v-.06c0-1,0-1,.06-3.21,0-1.14,0-1.14.09-3.33v-2.13l-.45,0a25.65,25.65,0,0,1-3.72,7.92l-.3-.18a41.87,41.87,0,0,0,1.65-9.72l2.82,1v-3.09c-1.32.36-1.53.42-2.64.69-.21.75-.36,1-.6,1s-.36-.06-.93-3.48a13.89,13.89,0,0,0,1.47.06c.33,0,.57,0,1.08,0a39.89,39.89,0,0,0,2.28-3.81,39,39,0,0,0,2.52-5.46c3.69,1.56,3.75,1.56,3.75,1.86s-.42.45-1.35.48l-4.5,5.22a15.49,15.49,0,0,1-1.59,1.65c2.31-.09,2.88-.15,4.41-.3a12.17,12.17,0,0,0-1.14-2.79l.27-.18c2.61,1.95,3.6,3.09,3.6,4.14s-.81,2.43-1.53,2.43c-.39,0-.57-.36-.72-1.41-.09-.45-.15-.81-.27-1.41-.78.3-.78.3-1.38.51ZM1.91,105.7a20.51,20.51,0,0,1,2.16,1.08,22.36,22.36,0,0,0,1.44-5.4c4,1.11,4.44,1.29,4.44,1.68s-.45.48-1.38.51a36,36,0,0,1-3.75,3.69c1.2.81,1.53,1.26,1.53,2.1,0,1.14-.84,2.25-1.65,2.25a.6.6,0,0,1-.51-.24,3,3,0,0,1-.27-.87,11.53,11.53,0,0,0-2.22-4.56Zm6.93,12.21c2.4,1.89,3.42,3.21,3.42,4.47s-.84,2.52-1.65,2.52c-.39,0-.54-.3-.6-1.41a12,12,0,0,0-1.38-5.4Zm11.64-12.24c0-1.41-.06-2.22-.18-3.84.84.12,1.53.18,1.95.24,1.77.18,2.22.3,2.22.63s-.27.39-1.23.69c0,4.14,0,4.14,0,9.18h1.68c.75-.93,1-1.23,1.77-2.13,1.17,1,1.5,1.26,2.67,2.31a.62.62,0,0,1,.15.27q0,.18-.36.18H23.21v1.71a23.27,23.27,0,0,1,3,1.89c1.62,1.23,2.28,2.13,2.28,3.24,0,1.32-.93,2.67-1.83,2.67-.45,0-.6-.3-.87-1.53a13,13,0,0,0-2.55-5.61c.06,5.85.06,5.85.18,9.51,0,.3,0,.42-.15.54a3.42,3.42,0,0,1-1.83.3c-.87,0-1-.09-1-.6.06-1.35.12-4.77.15-5.88l0-1.92a19.4,19.4,0,0,1-4.83,6v3.27h8.91l2.16-2.4c1.41,1.08,1.83,1.41,3.18,2.58q.18.18.18.27c0,.09-.15.18-.33.18H15.74v1c0,.63-.39.78-2.13.78-.84,0-1-.09-1-.57.06-3.57.15-11.73.15-17.82s0-6.93-.18-8.91c4.29.48,4.35.48,4.35.84s-.24.42-1.2.75V123a22.59,22.59,0,0,0,2.16-4.26,37.57,37.57,0,0,0,1.89-5.55h-2a6.77,6.77,0,0,0-1.62.15l-.18-1a6.89,6.89,0,0,0,1.86.24h2.61Zm-3.78-1.59c1.83,1.8,3,3.66,3,4.86s-1,2.58-1.86,2.58c-.33,0-.45-.27-.48-1.26a21.07,21.07,0,0,0-.24-2.91,11.69,11.69,0,0,0-.69-3.09Zm7.05,7.65a42.31,42.31,0,0,0,1.95-8.07c3.24,1.14,3.69,1.32,3.69,1.65s-.33.42-1.17.48a45.9,45.9,0,0,1-4.14,6.12Z"/><path d="M38.42,7.45c-.92,0-1,.1-1,1h-.26V5.1h.26c0,.93.12,1,1,1h5.92a2.12,2.12,0,0,0-.58-1.71A3.48,3.48,0,0,0,42,3.82l0-.36,2.54.19V9.94l-2.54.19,0-.36a3.07,3.07,0,0,0,1.8-.69,2.24,2.24,0,0,0,.5-1.63Z"/><path d="M41.48,12.5a1.94,1.94,0,0,1,1,1.82,1.47,1.47,0,0,1-.7,1.44,2.62,2.62,0,0,1-1.23.22h-2.2c-.9,0-1,.07-1,.76h-.24V14h.24c0,.68.1.75,1,.75h2.13a2.75,2.75,0,0,0,1.08-.14.76.76,0,0,0,.46-.77,1.2,1.2,0,0,0-.69-1.08,2,2,0,0,0-1.06-.27H38.36c-.89,0-1,.07-1,.75h-.24V10.52h.24c0,.69.1.76,1,.76h5c.88,0,1-.07,1-.77h.23l.11,2.05c-.77-.05-1.25-.06-2.05-.06Z"/><path d="M39.94,18.68a3.91,3.91,0,0,0-1.59.26,1.44,1.44,0,0,0-1,1.36A1.86,1.86,0,0,0,38.5,22l-.16.25A2.26,2.26,0,0,1,37,20a2.5,2.5,0,0,1,2.74-2.61,2.49,2.49,0,0,1,2.78,2.51A2,2,0,0,1,41.17,22a3.66,3.66,0,0,1-1.23.18Zm.29,2.22a3.9,3.9,0,0,0,1.25-.17c.53-.19.78-.47.78-.86s-.3-.76-.88-1a4.23,4.23,0,0,0-1.15-.21Z"/><path d="M37.38,26.18c0,.81.12.9,1,.9H43.3c.92,0,1-.1,1-.9h.26v3a5,5,0,0,1-.55,2.62A3.24,3.24,0,0,1,41,33.27a3.51,3.51,0,0,1-3.33-1.54,5.32,5.32,0,0,1-.53-2.66V26.18Zm0,2.91a2.71,2.71,0,0,0,.69,2,3.9,3.9,0,0,0,2.71.79,4.4,4.4,0,0,0,2.57-.64A2.55,2.55,0,0,0,44.3,29v-.6H37.41Z"/><path d="M42.47,36.19c-.6,0-1.3-.06-1.94-.06H38.36c-.89,0-1,.07-1,.78h-.24V34.13h.24c0,.71.11.78,1,.78h2.77c.89,0,1,0,1-.75h.24Zm2.29-.66a.72.72,0,1,1-.71-.72A.71.71,0,0,1,44.76,35.53Z"/><path d="M39.94,38.91a3.91,3.91,0,0,0-1.59.26,1.44,1.44,0,0,0-1,1.36,1.86,1.86,0,0,0,1.14,1.65l-.16.25A2.26,2.26,0,0,1,37,40.23a2.5,2.5,0,0,1,2.74-2.61,2.49,2.49,0,0,1,2.78,2.51,2,2,0,0,1-1.32,2.07,3.66,3.66,0,0,1-1.23.18Zm.29,2.22A3.9,3.9,0,0,0,41.48,41c.53-.19.78-.47.78-.86s-.3-.76-.88-1a4.23,4.23,0,0,0-1.15-.21Z"/><path d="M38.68,45a2.76,2.76,0,0,0-.9.1.54.54,0,0,0-.37.49,1.19,1.19,0,0,0,.31.7l-.25.14A2.05,2.05,0,0,1,37,45a1.2,1.2,0,0,1,.55-1.13,3.07,3.07,0,0,1,1.38-.15H42v-.57h.3a1.06,1.06,0,0,0,.53,1,2.71,2.71,0,0,0,1.07.37l0,.5c-.41,0-.72,0-1.63,0v1.21H42V45Z"/><path d="M38.41,52.3c-.91,0-1,.08-1,.9h-.26V50.1h.26c0,.82.12.9,1,.9H43.3c.91,0,1-.08,1-.86h.26V53.2a5.16,5.16,0,0,1-.3,1.94,1.52,1.52,0,0,1-1.52.92c-1.21,0-1.84-.75-2-2.33h-.08A2.12,2.12,0,0,1,40.21,55c-.28.33-.59.5-1.71,1-.91.39-1.1.56-1.14,1h-.24V55a19.85,19.85,0,0,0,2.7-1,1.23,1.23,0,0,0,.83-1.27v-.4Zm2.53.54a1.59,1.59,0,0,0,1.72,1.83c1.12,0,1.64-.57,1.64-1.76V52.3H40.94Z"/><path d="M39.94,58.78a3.91,3.91,0,0,0-1.59.26,1.44,1.44,0,0,0-1,1.36,1.86,1.86,0,0,0,1.14,1.65l-.16.25A2.26,2.26,0,0,1,37,60.1a2.5,2.5,0,0,1,2.74-2.61A2.49,2.49,0,0,1,42.49,60a2,2,0,0,1-1.32,2.07,3.66,3.66,0,0,1-1.23.18ZM40.23,61a3.9,3.9,0,0,0,1.25-.17c.53-.19.78-.47.78-.86s-.3-.76-.88-1a4.23,4.23,0,0,0-1.15-.21Z"/><path d="M37.36,62.94c0,.73.09.79,1,.79h5c.88,0,1-.07,1-.78h.23L44.71,65C44,65,43.33,65,42.66,65h-4.3c-.91,0-1,.06-1,.79h-.24v-2.8Z"/><path d="M37.15,71.47c-.07-.59-.12-1.12-.12-1.38s.15-.42.76-.47A2.23,2.23,0,0,1,37,67.91a1.4,1.4,0,0,1,1.47-1.54c.86,0,1.39.53,1.6,1.6a12.16,12.16,0,0,1,.19,1.64h.65c1.06,0,1.37-.18,1.37-.78a.69.69,0,0,0-.34-.67,1.51,1.51,0,0,0-.71-.16c-.36,0-.49-.19-.49-.61s.16-.7.46-.7a1.15,1.15,0,0,1,.93.62A3.06,3.06,0,0,1,42.49,69a2.13,2.13,0,0,1-.41,1.48,1.58,1.58,0,0,1-1.24.39H38.56c-1.1,0-1.16,0-1.17.68ZM40,69.61c-.11-1.45-.48-2-1.41-2-.71,0-1.18.32-1.18.81a1.09,1.09,0,0,0,.66,1,2.56,2.56,0,0,0,1.16.18Z"/><path d="M40.79,76a1.82,1.82,0,0,0,.7.17c.41,0,.59-.23.62-.79h.23v2.18h-.23c-.08-.56-.37-.81-1.5-1.26l-4.32-1.7c-1-.41-1.4-.77-1.4-1.39s.23-.73.69-.73.52.14.52.4a2,2,0,0,1-.05.4,1.89,1.89,0,0,0-.06.42c0,.31.13.45.59.64l.4.15,4.18-1.75c.8-.34.91-.43,1-.9h.23v2.67H42.1c0-.43-.12-.6-.39-.6a1.54,1.54,0,0,0-.58.15l-2.7,1Z"/><path d="M37.38,81.27c0,.81.12.9,1,.9H43.3c.92,0,1-.1,1-.9h.26V84.4c0,2-.53,2.87-1.7,2.87s-1.57-.62-1.74-2.15h-.07c-.08,1.6-.73,2.41-1.94,2.41-1.44,0-2-1-2-3.3v-3Zm0,3c0,1.25.6,1.88,1.79,1.88a1.7,1.7,0,0,0,1.48-.65A2.26,2.26,0,0,0,41,84.27v-.81H37.41Zm3.86.08a1.41,1.41,0,0,0,1.57,1.59c1,0,1.46-.56,1.46-1.66v-.77h-3Z"/><path d="M42.47,90.2l-.81,0h-.3a1.78,1.78,0,0,1,1.13,1.48.79.79,0,0,1-.76.85.64.64,0,0,1-.61-.72.41.41,0,0,1,.32-.47c.28-.08.35-.13.35-.29v0c0-.19-.18-.39-.47-.56a2.25,2.25,0,0,0-1.11-.24H38.36c-.9,0-1,.06-1,.8h-.24V88.28h.24c0,.69.11.76,1,.76h2.77c.85,0,1-.09,1-.72h.24Z"/><path d="M41.78,93.74a2.57,2.57,0,0,1,.71,1.87,2.5,2.5,0,0,1-2.74,2.59,3,3,0,0,1-2-.66,2.66,2.66,0,0,1-.81-2,2.55,2.55,0,0,1,.76-1.88,3,3,0,0,1,2-.69A3.08,3.08,0,0,1,41.78,93.74ZM37.19,95.6c0,.87.78,1.26,2.52,1.26s2.55-.4,2.55-1.27a1,1,0,0,0-.58-.93,4.42,4.42,0,0,0-1.94-.32C38,94.34,37.19,94.74,37.19,95.6Z"/><path d="M37.15,104.09c-.07-.59-.12-1.12-.12-1.38s.15-.42.76-.47a2.23,2.23,0,0,1-.81-1.71A1.4,1.4,0,0,1,38.45,99c.86,0,1.39.53,1.6,1.6a12.16,12.16,0,0,1,.19,1.64h.65c1.06,0,1.37-.18,1.37-.78a.69.69,0,0,0-.34-.67,1.51,1.51,0,0,0-.71-.16c-.36,0-.49-.19-.49-.61s.16-.7.46-.7a1.15,1.15,0,0,1,.93.62,3.06,3.06,0,0,1,.38,1.64,2.13,2.13,0,0,1-.41,1.48,1.58,1.58,0,0,1-1.24.39H38.56c-1.1,0-1.16,0-1.17.68ZM40,102.23c-.11-1.45-.48-2-1.41-2-.71,0-1.18.32-1.18.81a1.09,1.09,0,0,0,.66,1,2.56,2.56,0,0,0,1.16.18Z"/><path d="M44.71,109.82c-.75,0-1.27-.06-2-.06h-4c-.81,0-1.08,0-1.2.19s-.07.14-.08.47h-.23L37,108.66l.73,0A2,2,0,0,1,37,107a2,2,0,0,1,.6-1.46,2.9,2.9,0,0,1,2-.66c1.77,0,2.9.9,2.9,2.3a1.84,1.84,0,0,1-.57,1.38h1.44c.93,0,1-.06,1-.76h.23Zm-2.49-2.44c0-.76-.89-1.19-2.46-1.19a3.88,3.88,0,0,0-2.12.46.83.83,0,0,0-.36.69c0,.77.94,1.23,2.53,1.23S42.22,108.15,42.22,107.38Z"/><path d="M38.36,115.83a2.29,2.29,0,0,1-1.4-2.19,2.5,2.5,0,0,1,2.7-2.57,3.11,3.11,0,0,1,2.16.79,2.5,2.5,0,0,1,.67,1.78c0,1.11-.6,2.06-1.31,2.06-.3,0-.49-.27-.49-.68a.67.67,0,0,1,.18-.51c.08-.06.08-.06.44-.08.6,0,.94-.33.94-.82a1,1,0,0,0-.64-.92,5.48,5.48,0,0,0-1.77-.28,3.85,3.85,0,0,0-1.7.35,1.31,1.31,0,0,0-.79,1.19,1.81,1.81,0,0,0,1.18,1.62Z"/><path d="M37.15,121.54c-.07-.59-.12-1.12-.12-1.38s.15-.42.76-.47A2.23,2.23,0,0,1,37,118a1.4,1.4,0,0,1,1.47-1.54c.86,0,1.39.53,1.6,1.6a12.16,12.16,0,0,1,.19,1.64h.65c1.06,0,1.37-.18,1.37-.78a.69.69,0,0,0-.34-.67,1.51,1.51,0,0,0-.71-.16c-.36,0-.49-.19-.49-.61s.16-.7.46-.7a1.15,1.15,0,0,1,.93.62,3.06,3.06,0,0,1,.38,1.64,2.13,2.13,0,0,1-.41,1.48,1.58,1.58,0,0,1-1.24.39H38.56c-1.1,0-1.16,0-1.17.68ZM40,119.68c-.11-1.45-.48-2-1.41-2-.71,0-1.18.32-1.18.81a1.09,1.09,0,0,0,.66,1,2.56,2.56,0,0,0,1.16.18Z"/><path d="M38.88,122.41v.36a2.35,2.35,0,0,0-1.05.3,1.24,1.24,0,0,0-.63,1.12c0,.61.32,1,.87,1s.71-.26,1.25-1.42a2.86,2.86,0,0,1,.68-1.08,1.23,1.23,0,0,1,.9-.35c1,0,1.59.72,1.59,1.85a4.75,4.75,0,0,1-.08.71,2.26,2.26,0,0,0-.06.44,1.31,1.31,0,0,0,.1.48l-1.75-.09v-.37c1-.07,1.56-.49,1.56-1.21a.81.81,0,0,0-.83-.89.7.7,0,0,0-.61.31,4.39,4.39,0,0,0-.58,1.12c-.47,1-.86,1.35-1.61,1.35a1.6,1.6,0,0,1-1.67-1.8,5.2,5.2,0,0,1,.12-1,2.19,2.19,0,0,0,0-.36,2.12,2.12,0,0,0-.06-.51Z"/><path d="M38.68,128.75a2.76,2.76,0,0,0-.9.1.54.54,0,0,0-.37.49,1.19,1.19,0,0,0,.31.7l-.25.14a2.05,2.05,0,0,1-.5-1.37,1.2,1.2,0,0,1,.55-1.13,3.07,3.07,0,0,1,1.38-.15H42V127h.3a1.06,1.06,0,0,0,.53,1,2.71,2.71,0,0,0,1.07.37l0,.5c-.41,0-.72,0-1.63,0V130H42v-1.21Z"/></svg>