<svg xmlns="http://www.w3.org/2000/svg" viewBox="0 0 45 261"><title>phraseImg</title><path d="M17.18,17.38v.93c0,2.79,0,6.6.12,9.21,0,.75-.39.9-2.34.9-1.32,0-1.47-.09-1.47-.75.12-3.93.12-5,.15-10.29H7.16V19c0,.72-.36.84-2.13.84-1.29,0-1.44-.09-1.44-.75.15-5,.15-5.34.15-7.86s0-3.63-.15-5.58A35.52,35.52,0,0,1,7.73,7.69h5.94A44.63,44.63,0,0,0,13.43.88L15.65,1c2.28.18,2.82.33,2.82.72s-.33.48-1.32.78V7.69h6.57c.81-.9,1.05-1.17,1.86-2,1.17.81,1.5,1,2.55,1.8.33.27.45.45.45.66s-.24.48-1,.9c0,4.74,0,6,.18,9.84,0,.81-.36,1-2.4,1-1,0-1.2-.09-1.2-.66V17.38Zm-3.51-3.57V8.32H7.16v8.43h6.48ZM24.11,8.32h-7v8.43h7Z"/><path d="M19.28,46.63h4.53c.72-.78,1.44-1.59,2.16-2.4,1.44,1.05,1.89,1.38,3.3,2.52.12.15.18.24.18.3s-.12.21-.33.21H19.28v5.1h3.54a24.34,24.34,0,0,1,1.65-1.86c1.17.72,1.5,1,2.61,1.74q.36.27.36.45c0,.27-.24.45-1,.81,0,3.12.06,5.52.12,7.32,0,.39-.12.54-.39.66a10,10,0,0,1-2.1.21c-.72,0-.93-.12-.93-.54V59.86H12.5v1c0,.33-.09.48-.27.57a6.16,6.16,0,0,1-2.22.3c-.75,0-1-.12-1-.63.06-1,.15-3.84.15-5.19a47.9,47.9,0,0,0-.12-5.58c1.68.81,2.22,1.08,3.93,2h3v-5.1h-8a27.44,27.44,0,0,1-1,5.7C6,56.17,4.7,58.3,1.85,61.39l-.27-.21c2.55-5.31,3.24-9.69,3.24-20.73a60.27,60.27,0,0,0-.18-6.3c1.68.75,2.19,1,3.81,1.89H23.57c.72-.75.9-1,1.62-1.71,1.2.72,1.53,1,2.61,1.71.24.15.33.3.33.42s-.27.48-1.05.9v1.5c0,.42,0,1,.09,4-.06.57-.57.75-2.25.78h-.33c-.48,0-.72-.15-.78-.51v-1H19.28ZM8.15,42.13l0,1.2c0,1.53,0,1.71-.15,3.3h8v-4.5Zm15.66-5.46H8.21c0,1,0,1-.06,4.83H23.81ZM12.5,59.23H23.12V53H12.5Z"/><path d="M15,68.14a6.12,6.12,0,0,1,2.94,1.08c1.38.87,2.19,1.89,2.19,2.73s-.36,1.11-2,2.13a36.48,36.48,0,0,0-5.88,4.35c-1.26,1.2-1.89,2.1-1.89,2.82a2.16,2.16,0,0,0,.9,1.5A32,32,0,0,0,14,84.88a44.8,44.8,0,0,1,4.38,3.81,5.31,5.31,0,0,1,1.83,3.87c0,1.62-.78,2.79-1.83,2.79-.69,0-1.05-.36-1.53-1.5a31.85,31.85,0,0,0-5.13-7.92A20.17,20.17,0,0,1,9.41,83a3.48,3.48,0,0,1-.51-1.77,4.36,4.36,0,0,1,.9-2.43c.69-1,.69-1,3.69-4.62,1.65-2,2.43-3.21,2.43-3.84a2,2,0,0,0-.57-1.2,3.56,3.56,0,0,0-1.17-.87A2.12,2.12,0,0,1,15,68.14Z"/><path d="M28.94,115.33a16.59,16.59,0,0,1-2.79,7.38,8.27,8.27,0,0,1-6.54,3.78,4.1,4.1,0,0,1-3.39-1.44,6.08,6.08,0,0,1-.9-3.18,14.6,14.6,0,0,1-.12-2c-.15-2.7-.75-3.69-2.28-3.69s-2.76,1-4,2.76a19.54,19.54,0,0,0-2.7,6c-.33,1-.72,1.38-1.38,1.38s-1-.39-1.29-1.11a6.55,6.55,0,0,1-.48-2.13c0-.72.12-1,.9-2a78.84,78.84,0,0,0,6-10.86c1.44-3.06,2.13-5,2.13-6s-.69-1.77-2.25-2.4a2.2,2.2,0,0,1,1.17-.3A8.31,8.31,0,0,1,15,103c1,.69,1.5,1.29,1.5,2,0,.45-.12.69-.72,1.32a21.73,21.73,0,0,0-2.25,3.24c-2.1,3.36-2.1,3.36-3.36,5.43l-1.44,2.4h0c1.86-1.65,3.39-2.4,4.89-2.4a3.87,3.87,0,0,1,3.63,2.25,9,9,0,0,1,.75,3.12c.24,1.44.45,2.1.87,2.46a1.92,1.92,0,0,0,1.26.39,7.72,7.72,0,0,0,4.8-2.34,14.32,14.32,0,0,0,3.69-5.58Z"/><path d="M39.11,4.93a3,3,0,0,0-1.35.18c-.26.16-.35.36-.38.86h-.26V3.48h.26c0,.84.39,1,1.73,1h4.21c.54,0,.74,0,.87-.22s.14-.26.15-.65h.26V6L39,8.23l5.64,2.22v2.29h-.26c0-.8-.12-.87-1.05-.87H38.41c-.91,0-1,.08-1,.9h-.26V9.68h.26c0,.81.12.9,1,.9h5.52L37.31,8V7.48l6.54-2.55Z"/><path d="M37.15,18.53c-.07-.59-.12-1.12-.12-1.38s.15-.42.76-.47A2.23,2.23,0,0,1,37,15a1.4,1.4,0,0,1,1.47-1.54c.86,0,1.39.53,1.6,1.6a12.16,12.16,0,0,1,.19,1.64h.65c1.06,0,1.37-.18,1.37-.78a.69.69,0,0,0-.34-.67,1.51,1.51,0,0,0-.71-.16c-.36,0-.49-.19-.49-.61s.16-.7.46-.7a1.15,1.15,0,0,1,.93.62A3.06,3.06,0,0,1,42.49,16a2.13,2.13,0,0,1-.41,1.48,1.58,1.58,0,0,1-1.24.39H38.56c-1.1,0-1.16,0-1.17.68ZM40,16.67c-.11-1.45-.48-2-1.41-2-.71,0-1.18.32-1.18.81a1.09,1.09,0,0,0,.66,1,2.56,2.56,0,0,0,1.16.18Z"/><path d="M38.88,19.4v.36a2.35,2.35,0,0,0-1.05.3,1.24,1.24,0,0,0-.63,1.12c0,.61.32,1,.87,1s.71-.26,1.25-1.42A2.86,2.86,0,0,1,40,19.66a1.23,1.23,0,0,1,.9-.35c1,0,1.59.72,1.59,1.85a4.75,4.75,0,0,1-.08.71,2.26,2.26,0,0,0-.06.44,1.31,1.31,0,0,0,.1.48L40.7,22.7v-.37c1-.07,1.56-.49,1.56-1.21a.81.81,0,0,0-.83-.89.7.7,0,0,0-.61.31,4.39,4.39,0,0,0-.58,1.12c-.47,1-.86,1.35-1.61,1.35A1.6,1.6,0,0,1,37,21.21a5.2,5.2,0,0,1,.12-1,2.19,2.19,0,0,0,0-.36,2.12,2.12,0,0,0-.06-.51Z"/><path d="M37.15,29c-.07-.59-.12-1.12-.12-1.38s.15-.42.76-.47A2.23,2.23,0,0,1,37,25.46a1.4,1.4,0,0,1,1.47-1.54c.86,0,1.39.53,1.6,1.6a12.16,12.16,0,0,1,.19,1.64h.65c1.06,0,1.37-.18,1.37-.78a.69.69,0,0,0-.34-.67,1.51,1.51,0,0,0-.71-.16c-.36,0-.49-.19-.49-.61s.16-.7.46-.7a1.15,1.15,0,0,1,.93.62,3.06,3.06,0,0,1,.38,1.64A2.13,2.13,0,0,1,42.08,28a1.58,1.58,0,0,1-1.24.39H38.56c-1.1,0-1.16,0-1.17.68ZM40,27.16c-.11-1.45-.48-2-1.41-2-.71,0-1.18.32-1.18.81a1.09,1.09,0,0,0,.66,1,2.56,2.56,0,0,0,1.16.18Z"/><path d="M41.48,31.51a1.94,1.94,0,0,1,1,1.82,1.47,1.47,0,0,1-.7,1.44,2.62,2.62,0,0,1-1.23.22h-2.2c-.9,0-1,.07-1,.76h-.24V33h.24c0,.68.1.75,1,.75h2.13a2.75,2.75,0,0,0,1.08-.14.76.76,0,0,0,.46-.77,1.2,1.2,0,0,0-.69-1.08,2,2,0,0,0-1.06-.27H38.36c-.89,0-1,.07-1,.75h-.24V29.53h.24c0,.69.1.76,1,.76h5c.88,0,1-.07,1-.77h.23l.11,2.05c-.77-.05-1.25-.06-2.05-.06Z"/><path d="M42.47,38.3c-.6,0-1.3-.06-1.94-.06H38.36c-.89,0-1,.07-1,.78h-.24V36.24h.24c0,.71.11.78,1,.78h2.77c.89,0,1-.05,1-.75h.24Zm2.3-.66a.72.72,0,1,1-.72-.72A.72.72,0,0,1,44.77,37.64Z"/><path d="M42.47,41.48l-.81,0h-.3A1.78,1.78,0,0,1,42.49,43a.79.79,0,0,1-.76.85.64.64,0,0,1-.61-.72.41.41,0,0,1,.32-.47c.28-.08.35-.13.35-.29v0c0-.19-.18-.39-.47-.56a2.25,2.25,0,0,0-1.11-.24H38.36c-.9,0-1,.06-1,.8h-.24V39.56h.24c0,.69.11.76,1,.76h2.77c.85,0,1-.09,1-.72h.24Z"/><path d="M41.78,45a2.57,2.57,0,0,1,.71,1.87,2.5,2.5,0,0,1-2.74,2.59,3,3,0,0,1-2-.66,2.66,2.66,0,0,1-.81-2A2.55,2.55,0,0,1,37.72,45a3,3,0,0,1,2-.69A3.08,3.08,0,0,1,41.78,45Zm-4.59,1.86c0,.87.78,1.26,2.52,1.26s2.55-.4,2.55-1.27a1,1,0,0,0-.58-.93,4.42,4.42,0,0,0-1.94-.32C38,45.62,37.19,46,37.19,46.88Z"/><path d="M39,54.86c-1.32,0-1.6.18-1.65,1h-.27V53.39h.27c0,.85.37,1.06,1.73,1.06h4c1,0,1.19-.17,1.25-1h.26v2.09l-5.76,4.08H42.6A2.76,2.76,0,0,0,44,59.46c.26-.15.35-.36.38-.87h.27v2.53h-.27c0-.48-.12-.69-.38-.85a2.56,2.56,0,0,0-1.28-.21H37.08v-.74l6.38-4.46Z"/><path d="M37.15,66.75c-.07-.59-.12-1.12-.12-1.38s.15-.42.76-.47A2.23,2.23,0,0,1,37,63.19a1.4,1.4,0,0,1,1.47-1.54c.86,0,1.39.53,1.6,1.6a12.16,12.16,0,0,1,.19,1.64h.65c1.06,0,1.37-.18,1.37-.78a.69.69,0,0,0-.34-.67,1.51,1.51,0,0,0-.71-.16c-.36,0-.49-.19-.49-.61s.16-.7.46-.7a1.15,1.15,0,0,1,.93.62,3.06,3.06,0,0,1,.38,1.64,2.13,2.13,0,0,1-.41,1.48,1.58,1.58,0,0,1-1.24.39H38.56c-1.1,0-1.16,0-1.17.68ZM40,64.89c-.11-1.45-.48-2-1.41-2-.71,0-1.18.32-1.18.81a1.09,1.09,0,0,0,.66,1,2.56,2.56,0,0,0,1.16.18Z"/><path d="M38.36,69.23c-.9,0-1,.07-1,.75h-.24V67.27h.24c0,.68.11.75,1,.75h5c.88,0,1-.07,1-.76h.23l.11,2c-.74,0-1.38-.06-2.05-.06H39.51l1.54,1.34a1.08,1.08,0,0,0,.63.31c.27,0,.4-.21.43-.69h.23v2.58h-.23a2.23,2.23,0,0,0-.26-.84A3.2,3.2,0,0,0,41,71l-.41-.37L38.24,72c-.62.37-.8.58-.9,1h-.22V71.19l.89-.44,1.72-1-.63-.56Z"/><path d="M37.15,78.57C37.08,78,37,77.45,37,77.19s.15-.42.76-.47A2.23,2.23,0,0,1,37,75a1.4,1.4,0,0,1,1.47-1.54c.86,0,1.39.53,1.6,1.6a12.16,12.16,0,0,1,.19,1.64h.65c1.06,0,1.37-.18,1.37-.78a.69.69,0,0,0-.34-.67,1.51,1.51,0,0,0-.71-.16c-.36,0-.49-.19-.49-.61s.16-.7.46-.7a1.15,1.15,0,0,1,.93.62,3.06,3.06,0,0,1,.38,1.64,2.13,2.13,0,0,1-.41,1.48,1.58,1.58,0,0,1-1.24.39H38.56c-1.1,0-1.16,0-1.17.68ZM40,76.71c-.11-1.45-.48-2-1.41-2-.71,0-1.18.32-1.18.81a1.09,1.09,0,0,0,.66,1,2.56,2.56,0,0,0,1.16.18Z"/><path d="M42.47,81.19c-.6,0-1.3-.06-1.94-.06H38.36c-.89,0-1,.07-1,.78h-.24V79.13h.24c0,.71.11.78,1,.78h2.77c.89,0,1,0,1-.75h.24Zm2.3-.66a.72.72,0,1,1-.72-.72A.72.72,0,0,1,44.77,80.53Z"/></svg>