<svg xmlns="http://www.w3.org/2000/svg" viewBox="0 0 45 261"><title>phraseImg</title><path d="M2.24,27.85a21.52,21.52,0,0,0,4.2-3.3,17.84,17.84,0,0,0,2.37-2.67c3.87,1.56,3.93,1.59,3.93,1.89s-.27.36-.81.36h-.6a26.51,26.51,0,0,1-8.94,4ZM16.37,2.14A7.53,7.53,0,0,0,18,2.38H24.2c.75-.69,1-.9,1.74-1.53,1.2.87,1.56,1.14,2.67,2.07.21.21.3.33.3.48s-.27.39-1.38.63a21,21,0,0,1-4.29,5,15.4,15.4,0,0,0,6.81,2.31v.36a3,3,0,0,0-1.74,1.71,7.83,7.83,0,0,0-.42,1.11c-.06.24-.18.33-.33.33a4.89,4.89,0,0,1-1.47-.6,15.72,15.72,0,0,1-4.74-3.75,22,22,0,0,1-4.65,2.16l0,0c.12.12.15.18.15.24s-.12.15-.36.15H13.19c2.67,1.05,2.94,1.2,2.94,1.47s-.24.33-.6.33a7.35,7.35,0,0,1-.75,0c-.33.18-.6.3-.75.39-1,.57-1.35.72-1.86,1,1.2.48,1.71,1,1.71,1.62a2.2,2.2,0,0,1-.36,1,1.5,1.5,0,0,1-.51.39h1.11c.9-.87,1-1,2.22-2.28A21,21,0,0,0,19.46,13c3.3,1.62,3.81,1.92,3.81,2.25s-.24.33-.6.33-.63,0-1-.06a47.41,47.41,0,0,1-6,3.66c4.41-.09,4.47-.09,7.92-.3A16,16,0,0,0,21.29,17l.18-.3c5.31,1.47,6.84,2.37,6.84,4,0,1.2-.54,2.19-1.23,2.19-.3,0-.54-.18-.84-.69a14.16,14.16,0,0,0-1.8-2.43c-3.3.57-3.72.63-7.41,1v3.45c0,.9,0,1.71.09,3.54,0,.3,0,.42-.12.51s-.87.36-2.1.36c-.93,0-1.14-.12-1.14-.66.09-1.92.12-2.64.12-3.3V21l-2.31.24S7,21.61,5,21.79c-.18.84-.33,1.14-.6,1.14S4,22.78,3.23,19c1.83.15,4.32.27,6.57.27.45,0,.9,0,1.83,0a3.54,3.54,0,0,1-.66-.84,11.77,11.77,0,0,0-3.45-3.27l.21-.27c1.65.39,2.25.54,3.21.84a12.71,12.71,0,0,0,1.44-2.64H6.26v1c0,.66-.33.78-1.92.78-1,0-1.2-.09-1.2-.63.09-2.49.12-3.51.12-6.15V5c0-1-.06-2.91-.12-4.5A34.22,34.22,0,0,1,6.62,2.2h5.94C13.1,1.6,13.64,1,14.15.46l2.07,1.8c.12.15.18.24.18.33s-.18.24-.6.24H11.6V5.62h1.23c.57-.63.75-.81,1.32-1.41.93.6,1.23.81,2.07,1.44.21.15.3.27.3.39s-.21.39-.81.69c0,1.26,0,1.53,0,2.85,0,.54-.33.63-2.16.63-.63,0-.75-.06-.78-.39v-.3H11.6v2.94h1.2c.66-.75.87-1,1.56-1.68.9.69,1,.78,1.86,1.47a19.67,19.67,0,0,0,4-3.24,16.48,16.48,0,0,1-2.4-6,9,9,0,0,0-1.26.15ZM8.93,5.62V2.83H6.26V5.62ZM12.8,8.89V6.25H6.26V8.89Zm-6.54.63v2.94H8.93V9.52ZM18.41,3a8.57,8.57,0,0,0,3,4.65,20.78,20.78,0,0,0,3-4.65Zm.33,19a31,31,0,0,1,6.51,1.62,2.42,2.42,0,0,1,1.47,2.13c0,1.26-.54,2.25-1.26,2.25-.33,0-.6-.18-1-.66a19.79,19.79,0,0,0-5.91-5Z"/><path d="M7.1,53.05a7.83,7.83,0,0,1,.36,2.43,6.33,6.33,0,0,1-.78,3.12A3.82,3.82,0,0,1,3.8,60.79c-.93,0-1.59-1-1.59-2.31,0-.75.3-1.14,1.11-1.44a4.34,4.34,0,0,0,2.55-1.65A5.28,5.28,0,0,0,6.8,53ZM21.92,42.28c.72-.78.93-1,1.71-1.8,1.14.78,1.5,1.05,2.58,1.8.3.15.42.3.42.45,0,.3,0,.3-1.11,1.05,0,.66,0,.93,0,1.35s0,2.64.09,6.69c0,.57-.3.78-1.17.78l-.33,0-1.56,0c-.27,0-.36-.15-.39-.51v-.87H9c-1,0-1.77.06-3.39.21l-.24-1.08a33.34,33.34,0,0,0,3.6.24H22.13V46.9H9a23.89,23.89,0,0,0-2.91.18l-.18-1c1.08.12,2.61.21,3.09.21H22.13V42.91H10.61a13.1,13.1,0,0,0-2.73.21l-.15-.78a22.14,22.14,0,0,1-5,3.15l-.18-.24A26.19,26.19,0,0,0,8,38.2,19.11,19.11,0,0,0,9.77,34c4.89,1,5,1,5,1.38s-.42.51-1.53.69c-.48.72-.54.81-1,1.38h4.89L19,35.65l3,2.16c.36.3.51.51.51.69s-.18.36-.54.45c-.12.06-.12.06-1.08.18-.57.45-1,.81-1.32,1a28.75,28.75,0,0,1-3,2.13Zm-6.75,0,.45-.81c.48-.93.84-1.74,1.5-3.36H11.75A23.79,23.79,0,0,1,8,42.1a22.43,22.43,0,0,0,2.61.18Zm6.81,12-.06,3.18,0,.21c0,.33.18.54.6.69.81.3,1.08.63,1.08,1.29a1.54,1.54,0,0,1-.45,1.11,6,6,0,0,1-3.33.72h-.3c-.39,0-.87,0-1.44,0-5,0-6.78-.09-7.47-.3a1.72,1.72,0,0,1-1.35-1.65c.06-2.07.06-3,.06-3.36V54.61a18,18,0,0,0-.12-2c3.48.24,4.32.36,4.32.75s-.24.42-1,.72v3.81c0,.63.15.78.84.78l.78,0,2,.06h.66c.87,0,2.34-.06,2.64-.09.51-.09.6-.18,1-1,.09-.27.51-1.38,1.26-3.39Zm-8.52-2.22c4.53.84,5.7,1.47,5.7,3a2.26,2.26,0,0,1-1.8,2.25c-.36,0-.57-.21-.81-.72a9.63,9.63,0,0,0-3.24-4.26Zm9.75,1.11a22.56,22.56,0,0,1,4.35,2.4,3.55,3.55,0,0,1,1.68,2.61A2.75,2.75,0,0,1,27,60.88a.74.74,0,0,1-.63-.33c-.18-.21-.18-.21-.63-1.8A13.82,13.82,0,0,0,23,53.44Z"/><path d="M11.93,86.29A64.41,64.41,0,0,1,3.74,91.6c-.15,1.17-.27,1.47-.57,1.47-.12,0-.24-.12-.36-.33S2.3,91.21,1.52,88.6A17.71,17.71,0,0,0,4.82,88V77.74H3.29a7.87,7.87,0,0,0-1.71.18l-.21-1.08a6.9,6.9,0,0,0,1.92.27H4.82V73a34.72,34.72,0,0,0-.21-4.32c3.48.33,3.84.39,4.23.54.24.06.36.21.36.36s-.33.45-1.26.72v6.84H8.3c.63-.9.81-1.2,1.41-2.07,1,1,1.26,1.26,2.13,2.25a.56.56,0,0,1,.15.3c0,.09-.12.15-.3.15H7.94v9.42c1.74-.51,2.31-.69,3.81-1.26Zm-.54-6.09A6.82,6.82,0,0,0,9.77,81L9.2,80a10.39,10.39,0,0,0,2-.45l.93-.33V75.4A40.12,40.12,0,0,0,12,71.14c4,.36,4,.36,4.32.51a.35.35,0,0,1,.18.3c0,.24-.27.42-1.14.72v5.49l2.73-1c0-6.93,0-6.93-.18-9.06.93.09,1.68.18,2.13.21,2.07.24,2.43.33,2.43.66s-.27.45-1.17.75v6.33l3-1c.54-1,.72-1.23,1.32-2.13,1.26.66,1.65.87,2.76,1.5.3.18.45.33.45.51s-.24.48-1.05.93c-.21,4.89-.27,5.88-.42,7.44-.27,2.88-.6,3.84-1.56,4.35a5.43,5.43,0,0,1-2.28.51c-.3,0-.36-.09-.39-.45a3.17,3.17,0,0,0-.66-2,2.88,2.88,0,0,0-1.11-.63c0,1.44,0,1.86.06,3.72,0,.72-.27.81-2.22.81-1,0-1.14-.09-1.14-.66.09-5.88.09-6,.09-8.13,0-.15,0-1.26,0-2.91l-2.76,1V91c0,.45.06.63.24.69a12.15,12.15,0,0,0,2.91.21c5.7,0,6.84-.06,7.32-.33s1.11-1.71,2.67-6.36l.36.06-.36,5a3.54,3.54,0,0,0,0,.48c0,.3.09.42.51.63a1.34,1.34,0,0,1,.87,1.26c0,.93-.54,1.47-1.71,1.77a42,42,0,0,1-6.75.36c-.9,0-5.43-.06-5.94-.09-2.64-.09-3.24-.51-3.27-2.46,0-4.77,0-8.85,0-12.27Zm9.9-3.42c0,2.91,0,5.52,0,7.89.9.09,1.53.12,1.92.12.63,0,.78-.15.9-1a60.4,60.4,0,0,0,.42-8.16Z"/><path d="M22.16,120.34c3.45,1.41,3.66,1.5,3.66,1.77s-.27.36-.72.36a6.6,6.6,0,0,1-.69,0,27,27,0,0,1-3.84,1.47c2.49,1,4.59,1.44,8.82,1.56v.27a3.6,3.6,0,0,0-2.4,2.7c-.12.39-.18.48-.45.48a12.81,12.81,0,0,1-2.46-.75,17.26,17.26,0,0,1-5.19-3.36,67.72,67.72,0,0,1-10,3.63c-.21,1-.36,1.23-.66,1.23s-.42-.06-1.38-4.08c.39,0,.69,0,.9,0s1.2-.06,2.46-.15v-5.13H7.16a12.65,12.65,0,0,1-1.35,4.59,12.28,12.28,0,0,1-4,4.53l-.27-.27c2.16-3.57,2.64-5.94,2.64-12.93,0-1.17,0-2.28-.09-3.54a23.23,23.23,0,0,1,3.6,1.71H23.39c.78-.84,1.05-1.08,1.83-1.89,1.38.84,1.77,1.14,3.12,2.1.09.12.15.18.15.24s-.12.18-.27.18H7.43a42.41,42.41,0,0,1-.21,4.65H23.69c.78-.78,1-1,1.77-1.8,1.29.81,1.71,1.08,3,2,.12.12.15.18.15.24s-.12.18-.33.18Zm-8.49-16.68H7.16a13.75,13.75,0,0,0-2.1.15l-.18-1a9.3,9.3,0,0,0,2.37.24H21.38c.9-1,1.17-1.23,2.07-2.16,1.41,1,1.83,1.26,3.21,2.34a.62.62,0,0,1,.15.27c0,.09-.12.18-.3.18H16.79v2.28h7.92c.69-.75.9-1,1.62-1.71,1.32,1,1.71,1.26,3,2.22.27.21.36.33.36.48,0,.33-.3.42-1.68.51-1.23,1.08-1.8,1.53-3.51,2.82l-.24-.15c.12-.39.12-.42.21-.75l-.18.06H19.1a9.32,9.32,0,0,0-1.29.09l-.12-.87a7.2,7.2,0,0,0,1.38.15h1.68l1.41-1.5c1,.72,1.26,1,2.22,1.77l.12.15c.21-.84.33-1.32.57-2.64H16.79v3.51c0,.75,0,1.44,0,2.64a.49.49,0,0,1-.18.45,5.18,5.18,0,0,1-2,.27c-.81,0-1-.09-1-.51.06-2.16.06-2.16.06-4.59v-1.77h-8a5.17,5.17,0,0,1,.06,1A7.07,7.07,0,0,1,5,110.53a2.23,2.23,0,0,1-1.86,1.2c-.78,0-1.44-1-1.44-2.16,0-.51.18-.75.75-1a4.11,4.11,0,0,0,2.46-3.69h.39c.12.51.18.75.24,1.08h8.1Zm-8,7.86a6.86,6.86,0,0,0,1.5.15H9.41l1.44-1.53c.93.75,1.2,1,2.1,1.8.09.09.12.15.12.21s-.12.15-.24.15H7.13a9.79,9.79,0,0,0-1.35.12Zm.75-2.88a9.73,9.73,0,0,0,1.5.15H9.38c.63-.6.81-.81,1.41-1.47a23.79,23.79,0,0,1,2.13,1.77.46.46,0,0,1,.09.18c0,.09-.12.15-.24.15H7.91a12.2,12.2,0,0,0-1.38.09Zm2.64,8.19a9.32,9.32,0,0,0,2.07.21H21.26L23,115.33c1.17.81,1.53,1,2.7,1.92a.41.41,0,0,1,.15.27c0,.09-.12.15-.3.15H11.12a9.59,9.59,0,0,0-1.92.15Zm4.2,3.51v4.86c2.49-.27,3.57-.39,5.34-.72A12.22,12.22,0,0,1,16,120.34Zm3.39,0a8.55,8.55,0,0,0,3.09,3.12,12.62,12.62,0,0,0,2.4-3.12Zm1-8.82a9.07,9.07,0,0,0,1.5.15h2.67c.6-.69.81-.93,1.44-1.62,1.05.78,1.35,1,2.34,1.89a.32.32,0,0,1,.09.21c0,.06-.12.15-.24.15H19.19a12.2,12.2,0,0,0-1.38.09Z"/><path d="M1.46,147.37a16.15,16.15,0,0,0,2.25.3H5.12c.72-.84.93-1.11,1.65-1.92,1.11.81,1.47,1.05,2.55,1.92.21.15.27.27.27.39s-.09.3-1.08.93v7.08a4.35,4.35,0,0,0,3.3,2.55,20.74,20.74,0,0,0,4.56.36c3.12,0,7.74-.24,13.68-.66v.3a3,3,0,0,0-1.86,2.79c0,.36-.06.39-.48.42-.66.06-4.23.09-8,.09a27.48,27.48,0,0,1-6.18-.39,7,7,0,0,1-4.29-2.73,10.77,10.77,0,0,1-1.35-2.61,57.15,57.15,0,0,1-3.84,5c0,.69,0,.69,0,.75,0,.39-.18.63-.42.63s-.3-.15-.48-.51a40.49,40.49,0,0,1-1.86-3.72,22.31,22.31,0,0,0,4-1.95V148.3H3.74a8.69,8.69,0,0,0-2,.18Zm1.17-11.76c4.41,1.89,6.21,3.33,6.21,4.92,0,1.29-1.23,2.73-2.31,2.73-.45,0-.66-.21-.84-.93a14.55,14.55,0,0,0-3.27-6.51Zm17.76,13.08v1.53a33.88,33.88,0,0,1,5.19,1.83c1.92.87,2.58,1.62,2.58,2.88s-.78,2.25-1.53,2.25c-.3,0-.51-.18-.81-.69a16.44,16.44,0,0,0-5.43-5.73c0,1.23,0,3.39.09,6.45-.06.69-.42.81-2.43.81-.66,0-.81-.12-.81-.57.18-3.18.18-3.18.21-5.49a17.38,17.38,0,0,1-3.66,2.79,18,18,0,0,1-4.29,2l-.18-.27a25.34,25.34,0,0,0,4.95-4.53,20.87,20.87,0,0,0,2.31-3.24H14.21v.78c-.09.54-.48.69-2,.69-.81,0-1-.09-1-.57.09-1.74.12-2.64.12-4.14,0-1.71,0-2.79-.15-4.59a22.6,22.6,0,0,1,3.33,1.59h2.91v-2.94H11.87a9.66,9.66,0,0,0-2.07.18l-.18-1.05a12,12,0,0,0,2.28.24h5.49v-.36a29.68,29.68,0,0,0-.15-3.39c.78.09,1.38.15,1.77.18,2,.21,2.49.3,2.49.66s-.15.33-1.08.78v2.13h3.69c.9-1,1.17-1.38,2.13-2.37,1.38,1.11,1.8,1.47,3.12,2.64a.39.39,0,0,1,.15.21.2.2,0,0,1-.21.15H20.42v2.94h3.24c.63-.69.84-.87,1.47-1.53,1.05.69,1.38.9,2.37,1.62.24.24.36.39.36.51s-.33.48-1.08.93q.09,5.09.09,5.31c0,.45-.15.6-.54.69a10.86,10.86,0,0,1-1.86.18c-.45,0-.6-.12-.66-.48v-1Zm-3-5.61H14.21v5h3.18Zm6.42,0H20.42l0,5h3.42Z"/><path d="M11.54,172.9c.69-.84.9-1.08,1.59-1.83a23.74,23.74,0,0,1,2.43,2.13c.09.09.12.15.12.21s-.09.12-.21.12H10v4h1.68c.69-.84.9-1.08,1.59-1.83a28.55,28.55,0,0,1,2.49,2.16c.09.09.12.15.12.18s-.06.12-.18.12h-12c2.67,1.38,3.78,2.4,3.78,3.48a2.64,2.64,0,0,1-2,2.19.55.55,0,0,1-.48-.33c-.12-.21-.12-.24-.3-1.44a9.54,9.54,0,0,0-1.26-3.78l.15-.12H3.17a8.5,8.5,0,0,0-1.71.18l-.18-1.05a7.41,7.41,0,0,0,1.89.24H6.92v-4H4.22a8.72,8.72,0,0,0-1.8.18l-.15-1.05a8.46,8.46,0,0,0,1.95.24h2.7v-1.62a16.91,16.91,0,0,0-.15-2.55c4.26.45,4.41.48,4.41.9,0,.24-.27.39-1.14.66v2.61Zm4.62,6.66c0-6.06-.06-8.76-.24-10.62a28,28,0,0,1,3.42,1.71h5.43c.69-.78.9-1,1.59-1.71,1.08.72,1.41,1,2.43,1.74.27.21.36.33.36.45s-.24.45-1,.81c-.27,4.77-.48,5.67-1.62,6.36a6.29,6.29,0,0,1-2.7.66c-.33,0-.45-.09-.45-.42a2.07,2.07,0,0,0-.3-1.08c-.36-.6-.87-.87-2.73-1.35l0-.39A34.59,34.59,0,0,0,24,176c.51,0,.69-.15.78-.75a31.7,31.7,0,0,0,.33-3.93h-6v9.36h5.61c.69-.75.9-1,1.62-1.68,1.05.75,1.35,1,2.31,1.77.27.21.36.33.36.48s-.21.39-1,.75a23.3,23.3,0,0,1-2.79,7.41A12.77,12.77,0,0,0,30.38,192v.24a4,4,0,0,0-1.74,1.83,4,4,0,0,0-.45,1.17c-.06.15-.15.24-.27.24-.57,0-2.91-2.1-4.26-3.84a17,17,0,0,1-4.53,3.93v0a.72.72,0,0,1-.18.57,4.07,4.07,0,0,1-1.83.24c-1,0-1.14-.09-1.14-.6.15-3.93.15-3.93.18-11.31l-.21.06H10v4.08h1.65c.69-.87.9-1.11,1.62-2,1.14.93,1.5,1.23,2.61,2.22.09.12.12.18.12.21s-.09.15-.24.15H10v.9c0,1.41,0,3.42.09,5.49a.77.77,0,0,1-.09.45c-.21.24-.87.36-2.07.36-1,0-1.14-.12-1.14-.66.06-3.12.09-4.2.09-5.64v-.9H4.07a8.48,8.48,0,0,0-1.89.21L2,188.44a7.49,7.49,0,0,0,2.1.24H6.92V184.6H3.32a7.85,7.85,0,0,0-1.83.18l-.18-1a8.11,8.11,0,0,0,2,.21H9.05a24.54,24.54,0,0,0,1.68-5.76c3.45,1.14,4,1.35,4,1.65s-.33.36-1.41.42A33.16,33.16,0,0,1,9.86,184h2.22c.51-.6,1-1.23,1.59-1.89,1.05.9,1.38,1.17,2.4,2.16l.09.12Zm3,15.57A24.26,24.26,0,0,0,22.52,190a18.65,18.65,0,0,1-2.1-6.06c-.21-1.14-.3-1.83-.39-2.67h-.9Zm1.47-13.86a13.45,13.45,0,0,0,2.91,6.42A25.66,25.66,0,0,0,25,181.27Z"/><path d="M37.38,3.61c0,.81.12.9,1,.9H43.3c.92,0,1-.1,1-.9h.26V9.1l-2.13.18V8.93c1.39-.21,1.85-.74,1.85-2.15v-1H41.17v.72c0,1.08.21,1.34,1.15,1.45v.32H39.71V8c1-.12,1.17-.37,1.17-1.45V5.8H37.41V6.9c0,1.35.52,1.91,2.08,2.2l0,.33-2.33-.21V3.61Z"/><path d="M37.15,15.38C37.08,14.79,37,14.26,37,14s.15-.42.76-.47A2.23,2.23,0,0,1,37,11.82a1.4,1.4,0,0,1,1.47-1.54c.86,0,1.39.53,1.6,1.6a12.16,12.16,0,0,1,.19,1.64h.65c1.06,0,1.37-.18,1.37-.78a.69.69,0,0,0-.34-.67,1.51,1.51,0,0,0-.71-.16c-.36,0-.49-.19-.49-.61s.16-.7.46-.7a1.15,1.15,0,0,1,.93.62,3.06,3.06,0,0,1,.38,1.64,2.13,2.13,0,0,1-.41,1.48,1.58,1.58,0,0,1-1.24.39H38.56c-1.1,0-1.16,0-1.17.68ZM40,13.52c-.11-1.45-.48-2-1.41-2-.71,0-1.18.32-1.18.81a1.09,1.09,0,0,0,.66,1,2.56,2.56,0,0,0,1.16.18Z"/><path d="M42.47,17.85l-.81,0h-.3a1.78,1.78,0,0,1,1.13,1.48.79.79,0,0,1-.76.85.64.64,0,0,1-.61-.72.41.41,0,0,1,.32-.47c.28-.08.35-.13.35-.29v0c0-.19-.18-.39-.47-.56a2.25,2.25,0,0,0-1.11-.24H38.36c-.9,0-1,.06-1,.8h-.24V15.93h.24c0,.69.11.76,1,.76h2.77c.85,0,1-.09,1-.72h.24Z"/><path d="M38.68,22.4a2.76,2.76,0,0,0-.9.1.54.54,0,0,0-.37.49,1.19,1.19,0,0,0,.31.7l-.25.14a2.05,2.05,0,0,1-.5-1.37,1.2,1.2,0,0,1,.55-1.13,3.07,3.07,0,0,1,1.38-.15H42v-.57h.3a1.06,1.06,0,0,0,.53.95,2.71,2.71,0,0,0,1.07.37l0,.5c-.41,0-.72,0-1.63,0v1.21H42V22.4Z"/><path d="M41.48,26.1a1.94,1.94,0,0,1,1,1.82,1.47,1.47,0,0,1-.7,1.44,2.62,2.62,0,0,1-1.23.22h-2.2c-.9,0-1,.07-1,.76h-.24V27.61h.24c0,.68.1.75,1,.75h2.13a2.75,2.75,0,0,0,1.08-.14.76.76,0,0,0,.46-.77,1.2,1.2,0,0,0-.69-1.08,2,2,0,0,0-1.06-.27H38.36c-.89,0-1,.07-1,.75h-.24V24.12h.24c0,.69.1.76,1,.76h5c.88,0,1-.07,1-.77h.23l.11,2.05c-.77-.05-1.25-.06-2.05-.06Z"/><path d="M37.74,34.71A1.78,1.78,0,0,1,37,33.17C37,31.86,38,31,39.64,31c1.78,0,2.86.91,2.86,2.42a2.31,2.31,0,0,1-.69,1.72l.6.44V36c-.5,0-1,0-1.62,0H36.13c-.89,0-1,.06-1,.76h-.24V33.9h.24c0,.75.11.81,1,.81Zm3.88-.23a1,1,0,0,0,.61-.89.94.94,0,0,0-.41-.8,3.85,3.85,0,0,0-2.08-.44,4.69,4.69,0,0,0-1.73.27.93.93,0,0,0-.68.86,1.16,1.16,0,0,0,.85,1,4.87,4.87,0,0,0,1.73.25A4,4,0,0,0,41.62,34.48Z"/><path d="M37,41.05a9.82,9.82,0,0,1,1,0A2.17,2.17,0,0,1,37,39.16a1.36,1.36,0,0,1,.75-1.29A2.88,2.88,0,0,1,39,37.68h.14l2,0h.08a1.4,1.4,0,0,0,.73-.11c.12-.09.15-.17.16-.62h.24l.13,2c-.72-.05-1.1-.07-2-.08H39.23A3.4,3.4,0,0,0,38,39a.67.67,0,0,0-.49.7,1.21,1.21,0,0,0,.84,1.08,2.82,2.82,0,0,0,1.19.19h1.58c.55,0,.75,0,.86-.15s.1-.16.11-.58h.24l.13,2c-1.37-.06-1.37-.06-2-.06H38.39c-.87,0-1,.1-1,.65h-.23Z"/><path d="M37.15,48.58C37.08,48,37,47.46,37,47.2s.15-.42.76-.47A2.23,2.23,0,0,1,37,45a1.4,1.4,0,0,1,1.47-1.54c.86,0,1.39.53,1.6,1.6a12.16,12.16,0,0,1,.19,1.64h.65c1.06,0,1.37-.18,1.37-.78a.69.69,0,0,0-.34-.67,1.51,1.51,0,0,0-.71-.16c-.36,0-.49-.19-.49-.61s.16-.7.46-.7a1.15,1.15,0,0,1,.93.62,3.06,3.06,0,0,1,.38,1.64,2.13,2.13,0,0,1-.41,1.48,1.58,1.58,0,0,1-1.24.39H38.56c-1.1,0-1.16,0-1.17.68ZM40,46.72c-.11-1.45-.48-2-1.41-2-.71,0-1.18.32-1.18.81a1.09,1.09,0,0,0,.66,1,2.56,2.56,0,0,0,1.16.18Z"/><path d="M38.36,51.06c-.9,0-1,.07-1,.75h-.24V49.1h.24c0,.68.11.75,1,.75h5c.88,0,1-.07,1-.76h.23l.11,2c-.74,0-1.38-.06-2.05-.06H39.51l1.54,1.34a1.08,1.08,0,0,0,.63.31c.27,0,.4-.21.43-.69h.23V54.6h-.23a2.23,2.23,0,0,0-.26-.84,3.2,3.2,0,0,0-.81-1l-.41-.37-2.39,1.39c-.62.37-.8.58-.9,1h-.22V53l.89-.44,1.72-1-.63-.56Z"/><path d="M39.94,56.66a3.91,3.91,0,0,0-1.59.26,1.44,1.44,0,0,0-1,1.36,1.86,1.86,0,0,0,1.14,1.65l-.16.25A2.26,2.26,0,0,1,37,58a2.5,2.5,0,0,1,2.74-2.61,2.49,2.49,0,0,1,2.78,2.51A2,2,0,0,1,41.17,60a3.66,3.66,0,0,1-1.23.18Zm.29,2.22a3.9,3.9,0,0,0,1.25-.17c.53-.19.78-.47.78-.86s-.3-.76-.88-1a4.23,4.23,0,0,0-1.15-.21Z"/><path d="M37.08,67.3v-.82l6-1.49a2.48,2.48,0,0,0,1.07-.45.86.86,0,0,0,.23-.59h.25V67h-.25c0-.41-.06-.54-.16-.66a.47.47,0,0,0-.41-.18,3.56,3.56,0,0,0-.84.14l-4.32,1,5.84,1.69V70l-5.81,1.54,4.1,1.07a3.74,3.74,0,0,0,.9.14.6.6,0,0,0,.62-.45,2.48,2.48,0,0,0,.08-.53h.25v2.52h-.25c-.1-.7-.43-1-1.7-1.29l-5.57-1.51v-.79L43,69.06Z"/><path d="M37.15,79.23c-.07-.59-.12-1.12-.12-1.38s.15-.42.76-.47A2.23,2.23,0,0,1,37,75.67a1.4,1.4,0,0,1,1.47-1.54c.86,0,1.39.53,1.6,1.6a12.16,12.16,0,0,1,.19,1.64h.65c1.06,0,1.37-.18,1.37-.78a.69.69,0,0,0-.34-.67,1.51,1.51,0,0,0-.71-.16c-.36,0-.49-.19-.49-.61s.16-.7.46-.7a1.15,1.15,0,0,1,.93.62,3.06,3.06,0,0,1,.38,1.64,2.13,2.13,0,0,1-.41,1.48,1.58,1.58,0,0,1-1.24.39H38.56c-1.1,0-1.16,0-1.17.68ZM40,77.37c-.11-1.45-.48-2-1.41-2-.71,0-1.18.32-1.18.81a1.09,1.09,0,0,0,.66,1,2.56,2.56,0,0,0,1.16.18Z"/><path d="M42.47,81.7l-.81,0h-.3a1.78,1.78,0,0,1,1.13,1.48.79.79,0,0,1-.76.85.64.64,0,0,1-.61-.72.41.41,0,0,1,.32-.47c.28-.08.35-.13.35-.29v0c0-.19-.18-.39-.47-.56a2.25,2.25,0,0,0-1.11-.24H38.36c-.9,0-1,.06-1,.8h-.24V79.78h.24c0,.69.11.76,1,.76h2.77c.85,0,1-.09,1-.72h.24Z"/><path d="M41.48,86.32a1.91,1.91,0,0,1,1,1.78,1.42,1.42,0,0,1-.68,1.36,2.22,2.22,0,0,1-1.23.25H38.36c-.89,0-1,.07-1,.76h-.24V87.75h.24c0,.67.12.75,1,.75h2.16c1.08,0,1.53-.26,1.53-.88a1.18,1.18,0,0,0-.66-1,2.32,2.32,0,0,0-1-.27h-2c-.9,0-1,.07-1,.75h-.24V84.34h.24c0,.69.11.76,1,.76h2.77c.85,0,1-.08,1-.74h.24l.13,2Z"/><path d="M42.47,93c-.6,0-1.3-.06-1.94-.06H38.36c-.89,0-1,.07-1,.78h-.24V91h.24c0,.71.11.78,1,.78h2.77c.89,0,1,0,1-.75h.24Zm2.3-.66a.72.72,0,1,1-.72-.72A.72.72,0,0,1,44.77,92.37Z"/><path d="M41.48,96.28a1.91,1.91,0,0,1,1,1.78,1.42,1.42,0,0,1-.68,1.36,2.22,2.22,0,0,1-1.23.25H38.36c-.89,0-1,.07-1,.76h-.24V97.71h.24c0,.67.12.75,1,.75h2.16c1.08,0,1.53-.26,1.53-.88a1.18,1.18,0,0,0-.66-1,2.32,2.32,0,0,0-1-.27h-2c-.9,0-1,.07-1,.75h-.24V94.3h.24c0,.69.11.76,1,.76h2.77c.85,0,1-.08,1-.74h.24l.13,2Z"/><path d="M37.93,103.84a3.66,3.66,0,0,1-.21,1.58,1.09,1.09,0,0,1-1,.6,1.54,1.54,0,0,1-1.33-.71,3.82,3.82,0,0,1-.44-2c0-1.46.43-2.28,1.21-2.28.42,0,.54.1.94.81a1.2,1.2,0,0,1,.29-.45,1,1,0,0,1,.66-.27c.3,0,.45.1.71.51l.32.51a2.2,2.2,0,0,1,.39-.57,1.59,1.59,0,0,1,1.14-.41,1.93,1.93,0,0,1,1.93,2.16,4.45,4.45,0,0,1-.08.79,3.64,3.64,0,0,0-.06.69s0,.37,0,1.07H42v-1a1.83,1.83,0,0,1-2.7,0,2.44,2.44,0,0,1-.46-1.51,3.55,3.55,0,0,1,.11-.89c-.18-.34-.32-.46-.54-.46s-.43.24-.43,1.33Zm-1-1.52c-.05-.22-.25-.32-.61-.32-.79,0-1.19.51-1.19,1.54s.39,1.58,1.05,1.58.76-.44.76-1.57Zm2.07,1c0,.61.53.9,1.61.9s1.63-.29,1.63-.9-.54-.92-1.57-.92S39,102.76,39,103.36Z"/></svg>