<svg xmlns="http://www.w3.org/2000/svg" viewBox="0 0 45 261"><title>phrase28</title><path d="M2.24,27.85a21.52,21.52,0,0,0,4.2-3.3,17.84,17.84,0,0,0,2.37-2.67c3.87,1.56,3.93,1.59,3.93,1.89s-.27.36-.81.36h-.6a26.51,26.51,0,0,1-8.94,4ZM16.37,2.14A7.53,7.53,0,0,0,18,2.38H24.2c.75-.69,1-.9,1.74-1.53,1.2.87,1.56,1.14,2.67,2.07.21.21.3.33.3.48s-.27.39-1.38.63a21,21,0,0,1-4.29,5,15.4,15.4,0,0,0,6.81,2.31v.36a3,3,0,0,0-1.74,1.71,7.83,7.83,0,0,0-.42,1.11c-.06.24-.18.33-.33.33a4.89,4.89,0,0,1-1.47-.6,15.72,15.72,0,0,1-4.74-3.75,22,22,0,0,1-4.65,2.16l0,0c.12.12.15.18.15.24s-.12.15-.36.15H13.19c2.67,1.05,2.94,1.2,2.94,1.47s-.24.33-.6.33a7.35,7.35,0,0,1-.75,0c-.33.18-.6.3-.75.39-1,.57-1.35.72-1.86,1,1.2.48,1.71,1,1.71,1.62a2.2,2.2,0,0,1-.36,1,1.5,1.5,0,0,1-.51.39h1.11c.9-.87,1-1,2.22-2.28A21,21,0,0,0,19.46,13c3.3,1.62,3.81,1.92,3.81,2.25s-.24.33-.6.33-.63,0-1-.06a47.41,47.41,0,0,1-6,3.66c4.41-.09,4.47-.09,7.92-.3A16,16,0,0,0,21.29,17l.18-.3c5.31,1.47,6.84,2.37,6.84,4,0,1.2-.54,2.19-1.23,2.19-.3,0-.54-.18-.84-.69a14.16,14.16,0,0,0-1.8-2.43c-3.3.57-3.72.63-7.41,1v3.45c0,.9,0,1.71.09,3.54,0,.3,0,.42-.12.51s-.87.36-2.1.36c-.93,0-1.14-.12-1.14-.66.09-1.92.12-2.64.12-3.3V21l-2.31.24S7,21.61,5,21.79c-.18.84-.33,1.14-.6,1.14S4,22.78,3.23,19c1.83.15,4.32.27,6.57.27.45,0,.9,0,1.83,0a3.54,3.54,0,0,1-.66-.84,11.77,11.77,0,0,0-3.45-3.27l.21-.27c1.65.39,2.25.54,3.21.84a12.71,12.71,0,0,0,1.44-2.64H6.26v1c0,.66-.33.78-1.92.78-1,0-1.2-.09-1.2-.63.09-2.49.12-3.51.12-6.15V5c0-1-.06-2.91-.12-4.5A34.22,34.22,0,0,1,6.62,2.2h5.94C13.1,1.6,13.64,1,14.15.46l2.07,1.8c.12.15.18.24.18.33s-.18.24-.6.24H11.6V5.62h1.23c.57-.63.75-.81,1.32-1.41.93.6,1.23.81,2.07,1.44.21.15.3.27.3.39s-.21.39-.81.69c0,1.26,0,1.53,0,2.85,0,.54-.33.63-2.16.63-.63,0-.75-.06-.78-.39v-.3H11.6v2.94h1.2c.66-.75.87-1,1.56-1.68.9.69,1,.78,1.86,1.47a19.67,19.67,0,0,0,4-3.24,16.48,16.48,0,0,1-2.4-6,9,9,0,0,0-1.26.15ZM8.93,5.62V2.83H6.26V5.62ZM12.8,8.89V6.25H6.26V8.89Zm-6.54.63v2.94H8.93V9.52ZM18.41,3a8.57,8.57,0,0,0,3,4.65,20.78,20.78,0,0,0,3-4.65Zm.33,19a31,31,0,0,1,6.51,1.62,2.42,2.42,0,0,1,1.47,2.13c0,1.26-.54,2.25-1.26,2.25-.33,0-.6-.18-1-.66a19.79,19.79,0,0,0-5.91-5Z"/><path d="M7.1,53.05a7.83,7.83,0,0,1,.36,2.43,6.33,6.33,0,0,1-.78,3.12A3.82,3.82,0,0,1,3.8,60.79c-.93,0-1.59-1-1.59-2.31,0-.75.3-1.14,1.11-1.44a4.34,4.34,0,0,0,2.55-1.65A5.28,5.28,0,0,0,6.8,53ZM21.92,42.28c.72-.78.93-1,1.71-1.8,1.14.78,1.5,1.05,2.58,1.8.3.15.42.3.42.45,0,.3,0,.3-1.11,1.05,0,.66,0,.93,0,1.35s0,2.64.09,6.69c0,.57-.3.78-1.17.78l-.33,0-1.56,0c-.27,0-.36-.15-.39-.51v-.87H9c-1,0-1.77.06-3.39.21l-.24-1.08a33.34,33.34,0,0,0,3.6.24H22.13V46.9H9a23.89,23.89,0,0,0-2.91.18l-.18-1c1.08.12,2.61.21,3.09.21H22.13V42.91H10.61a13.1,13.1,0,0,0-2.73.21l-.15-.78a22.14,22.14,0,0,1-5,3.15l-.18-.24A26.19,26.19,0,0,0,8,38.2,19.11,19.11,0,0,0,9.77,34c4.89,1,5,1,5,1.38s-.42.51-1.53.69c-.48.72-.54.81-1,1.38h4.89L19,35.65l3,2.16c.36.3.51.51.51.69s-.18.36-.54.45c-.12.06-.12.06-1.08.18-.57.45-1,.81-1.32,1a28.75,28.75,0,0,1-3,2.13Zm-6.75,0,.45-.81c.48-.93.84-1.74,1.5-3.36H11.75A23.79,23.79,0,0,1,8,42.1a22.43,22.43,0,0,0,2.61.18Zm6.81,12-.06,3.18,0,.21c0,.33.18.54.6.69.81.3,1.08.63,1.08,1.29a1.54,1.54,0,0,1-.45,1.11,6,6,0,0,1-3.33.72h-.3c-.39,0-.87,0-1.44,0-5,0-6.78-.09-7.47-.3a1.72,1.72,0,0,1-1.35-1.65c.06-2.07.06-3,.06-3.36V54.61a18,18,0,0,0-.12-2c3.48.24,4.32.36,4.32.75s-.24.42-1,.72v3.81c0,.63.15.78.84.78l.78,0,2,.06h.66c.87,0,2.34-.06,2.64-.09.51-.09.6-.18,1-1,.09-.27.51-1.38,1.26-3.39Zm-8.52-2.22c4.53.84,5.7,1.47,5.7,3a2.26,2.26,0,0,1-1.8,2.25c-.36,0-.57-.21-.81-.72a9.63,9.63,0,0,0-3.24-4.26Zm9.75,1.11a22.56,22.56,0,0,1,4.35,2.4,3.55,3.55,0,0,1,1.68,2.61A2.75,2.75,0,0,1,27,60.88a.74.74,0,0,1-.63-.33c-.18-.21-.18-.21-.63-1.8A13.82,13.82,0,0,0,23,53.44Z"/><path d="M6.23,82a6,6,0,0,0-1.74.18l-.15-1a7,7,0,0,0,1.92.24h7.62V78.88H8.81v.6c0,.72-.33.84-2.13.84-1,0-1.17-.06-1.17-.54.06-1.65.09-2.94.09-4.44,0-.84,0-1.47-.12-2.67a38.11,38.11,0,0,1,3.6,1.53h4.8V71.89H4.13a7.29,7.29,0,0,0-1.83.18L2.12,71a7.15,7.15,0,0,0,2,.27h9.72a23.74,23.74,0,0,0-.18-3.45c.93.09,1.68.18,2.16.21,2,.18,2.49.3,2.49.69s-.33.48-1.2.72v1.83h6.75c1-1.05,1.26-1.35,2.22-2.34,1.5,1,1.92,1.38,3.33,2.52.09.12.15.18.15.24s-.15.21-.3.21H17.12V74.2h5c.66-.69.87-.87,1.59-1.53a27.3,27.3,0,0,1,2.4,1.53c.27.18.39.33.39.48s-.12.33-1,.81c0,2.37,0,2.37,0,3.63,0,.6-.24.72-1.44.81,1.26.81,1.26.81,2.22,1.47.24.21.33.33.33.45s-.21.39-.87.75v2.28h.33c.69-.84.93-1.11,1.62-1.89,1,.9,1.29,1.17,2.22,2.1a.54.54,0,0,1,.12.27c0,.09-.12.15-.3.15h-4c.06,2.25.06,2.94.15,4.92,0,.72-.42.87-2.28.87-.9,0-1.05-.09-1.05-.63V89.2H17.18c0,1.74,0,1.74.06,3,0,1.92-.57,2.64-2.55,3.18a9.77,9.77,0,0,1-1.89.3c-.3,0-.39-.12-.42-.54a2,2,0,0,0-1-1.62c-.57-.33-1-.48-3.93-1.17l0-.39a58.08,58.08,0,0,0,6,.27h.09c.27,0,.36-.09.36-.33V89.2H6.08a6.73,6.73,0,0,0-1.74.18l-.21-1a7,7,0,0,0,2,.24h7.8V85.51H3.53a6.77,6.77,0,0,0-1.71.18l-.18-1.08a7.54,7.54,0,0,0,1.89.27H13.88V82Zm7.65-7.2H8.81v3.42h5.07Zm8.46,0H17.12v3.42h5.22Zm0,6.57c.57-.6.57-.6,1.47-1.47-1.32,0-1.44,0-1.44-.51v-.54H17.12V81.4Zm-5.19,3.48h5.49V82H17.12Zm0,.63v.6l.06,2.46h5.43V85.51Z"/><path d="M6.23,121.48a13.57,13.57,0,0,1,.18,2.13c0,2.7-1.47,5-3.18,5-.9,0-1.59-1-1.59-2.28a1.36,1.36,0,0,1,.48-1.08,3.84,3.84,0,0,1,.75-.3,5.07,5.07,0,0,0,2-1.35,4.07,4.07,0,0,0,1.05-2.16Zm-2.73-13c-.21.66-.33.9-.57.9s-.27-.12-.36-.39-.45-1.8-.72-3.06a19.25,19.25,0,0,0,2.76.12,16.62,16.62,0,0,0,1.5-4.44c.87.21,1.56.36,2,.45,2.13.48,2.4.57,2.4.87s-.33.39-1.41.51A34.11,34.11,0,0,1,5.81,106c1.8,0,2.88,0,6.48-.18a8.06,8.06,0,0,0-1.86-2l.24-.27c3.48.9,4.8,1.74,4.8,3,0,1-.69,1.95-1.35,1.95-.39,0-.54-.15-.93-1-.12-.27-.21-.42-.42-.81a84.51,84.51,0,0,1-8.4,1.65c.84.39,1.26.57,2.46,1.2h4.11c.57-.6.75-.81,1.32-1.38l2.22,1.47c.27.24.36.33.36.45s-.21.39-.87.66v7c0,1.59-.36,2-1.83,2.46a7.11,7.11,0,0,1-1.47.24c-.27,0-.33-.09-.36-.39-.12-1.17-.6-1.53-2.73-2.13l0-.33c1.35.12,1.83.15,3.15.21.3,0,.36-.09.36-.39v-2H6.47v4.47c0,.63-.27.72-1.95.72-.78,0-.93-.12-.93-.69.09-2.88.12-4.26.12-5.94,0-2.16,0-4.38-.09-5.55Zm7.62,1.68H6.47v2h4.65Zm0,2.61H6.47v2h4.65ZM8.84,123.16a17.86,17.86,0,0,0-.12-2c3.39.33,3.54.36,3.84.48s.36.18.36.33-.24.39-1.05.69v2.58c0,.42,0,.54.18.63s.63.18,3.3.18c4,0,4.2,0,4.68-.54a12.84,12.84,0,0,0,1.74-3.39l.33.06L22,124.66v.18c0,.42.09.57.51.72.81.3,1.08.63,1.08,1.29,0,.81-.51,1.32-1.53,1.59a25.09,25.09,0,0,1-4.8.24,59.33,59.33,0,0,1-7-.15,1.85,1.85,0,0,1-1.2-.78,3.24,3.24,0,0,1-.18-1c0-1.62,0-1.62,0-1.86Zm4.44-2.58c4.29.57,5.37,1,5.37,2.46,0,1-.72,1.92-1.47,1.92-.36,0-.63-.21-.87-.69a8.85,8.85,0,0,0-3.15-3.42Zm5.94-14.85a17.53,17.53,0,0,0,5.52-3.6c2.67,1.56,3.36,2,3.36,2.31s-.21.33-.51.33c-.09,0-.51,0-1-.09a46.54,46.54,0,0,1-7.38,1.74v1.14c0,.54,0,.6.39.66.18,0,1.68.06,3.84.06,1.77,0,2.07-.06,2.43-.42s.42-.42,1.38-2.52l.24,0v1.74c0,.51,0,.63.39.81a1.25,1.25,0,0,1,.81,1.2c0,.57-.45,1-1.2,1.29a24.55,24.55,0,0,1-5.28.3c-3.75,0-4.56-.06-5.1-.3s-.81-.78-.84-1.8v-1.17c0-.69,0-1.23,0-1.32V104a16,16,0,0,0-.15-2.25c3.33.33,3.51.36,3.9.51.21.12.33.24.33.36s-.27.42-1.17.72Zm0,9.42A16.73,16.73,0,0,0,25,111.7c2.28,1.41,3.06,2,3.06,2.28s-.18.33-.48.33c-.12,0-.42,0-1-.09a39.93,39.93,0,0,1-7.35,1.62v1.41c0,.42,0,.57.15.63a12,12,0,0,0,3,.15c2.49,0,3.09-.09,3.51-.45s.57-.81,1.5-2.85l.27,0-.06,1.86v.27c0,.48,0,.48.69.84a1.2,1.2,0,0,1,.6,1,1.53,1.53,0,0,1-1.17,1.44,14.71,14.71,0,0,1-4.32.33,44.3,44.3,0,0,1-5.73-.15c-1-.18-1.38-.72-1.41-2,0-2,0-2,0-2.31v-2.19a18.41,18.41,0,0,0-.15-2.64q1.26.14,1.89.18c1.71.18,2.22.3,2.22.66s-.27.42-1.05.69Zm4,6.39c4.23,1.56,5.73,2.64,5.73,4.11,0,1.29-1,2.64-2,2.64-.39,0-.6-.21-.81-1A12.07,12.07,0,0,0,23,121.81Z"/><path d="M24.26,139.27a24.64,24.64,0,0,1,1.74-1.8c1.47,1,1.89,1.35,3.3,2.43.27.24.39.42.39.57,0,.3-.33.36-2.31.48a29,29,0,0,1-2.79,1.59c.42.3.51.39,1.05.78a.38.38,0,0,1,.12.21c0,.09-.15.18-.36.18H9.5a20,20,0,0,0-2.88.18l-.21-1.08a14.28,14.28,0,0,0,3.09.27H20.42c.81-1,1-1.26,1.89-2.19.81.54,1.11.78,1.65,1.17a10.32,10.32,0,0,0,.33-1.23c.12-.48.12-.51.24-.93H6.29v.54c0,2.76-1.14,4.74-2.73,4.74-1,0-1.71-1-1.71-2.28,0-.6.21-.9.9-1.29a5.46,5.46,0,0,0,2.88-4.38h.3a12.86,12.86,0,0,1,.3,2h7.5v-2.1c0-.48,0-1-.09-2.1,4.14.3,4.8.42,4.8.84s0,.3-1.23.81v2.55ZM2.06,160.72a15.35,15.35,0,0,0,3.12.33H23.63C24.68,160,25,159.64,26,158.53c1.53,1.17,2,1.56,3.54,2.82.09.06.12.12.12.15s-.12.18-.27.18H5.18a13.5,13.5,0,0,0-2.82.21Zm8.31-2c-.06.57-.24.6-2.67.6-.54,0-.69-.09-.75-.48.15-4.05.15-4.05.15-11.13A23.11,23.11,0,0,0,7,145c1.59.72,2.07,1,3.6,1.77h9.78c.72-.81,1-1.05,1.71-1.83,1.2.78,1.56,1,2.76,1.83.24.21.36.36.36.48s-.36.54-1.11.9v5.46c0,2.4,0,3.27,0,4.95,0,.33-.12.45-.48.54a11.15,11.15,0,0,1-2.19.18c-.54,0-.72-.12-.72-.51v-1.23H10.37Zm10.38-11.31H10.37v4.17H20.75Zm-10.38,4.8v4.71H20.75v-4.71Z"/><path d="M1.91,174.58a12.24,12.24,0,0,0,2.55.24H23.54c1-1.14,1.32-1.47,2.34-2.52a40.41,40.41,0,0,1,3.3,2.58.61.61,0,0,1,.21.33c0,.15-.18.24-.45.24H4.46a12.81,12.81,0,0,0-2.37.18Zm3.66-4a10.43,10.43,0,0,0,2.31.24H20c.93-1.05,1.23-1.35,2.19-2.31,1.44,1,1.86,1.35,3.21,2.43a.52.52,0,0,1,.15.3c0,.12-.15.21-.36.21H7.88a9.56,9.56,0,0,0-2.13.18Zm.06,12a11.86,11.86,0,0,0,2.25.21H20.09c.93-1.05,1.2-1.35,2.13-2.34,1.47,1,1.89,1.35,3.3,2.43.12.15.18.24.18.3s-.15.24-.39.24H7.88a12.6,12.6,0,0,0-2.07.18Zm0-4.05a13.76,13.76,0,0,0,2.34.24H20.15c.93-1.05,1.23-1.35,2.16-2.34,1.44,1,1.89,1.35,3.27,2.43.12.15.18.21.18.3s-.18.24-.42.24H8a10.75,10.75,0,0,0-2.13.18ZM9.41,195.7a.55.55,0,0,1-.18.48,4.31,4.31,0,0,1-2,.3c-1.2,0-1.32-.06-1.35-.69.12-2.88.12-3.51.12-5.49,0-2.88,0-3.81-.12-5.4,1.65.75,2.16,1,3.75,1.86H21.11c.78-.81,1-1,1.8-1.83a27.49,27.49,0,0,1,2.64,1.83c.27.24.36.36.36.54s-.18.39-1.14.93c0,5,0,5.73.12,7.32,0,.39-.09.57-.42.69a7.44,7.44,0,0,1-2,.21c-.87,0-1.05-.12-1.08-.63v-1.53H9.41Zm0-2H21.35v-6.27H9.41Z"/><path d="M39.47,3.93v.4c-1.5.14-2.21.74-2.21,1.86A1.29,1.29,0,0,0,38.64,7.6c.68,0,1.09-.39,1.7-1.64a7.82,7.82,0,0,1,.71-1.31,1.81,1.81,0,0,1,1.59-.82A2,2,0,0,1,44.51,5a2.93,2.93,0,0,1,.23,1.28,5.21,5.21,0,0,1-.17,1.22,1.42,1.42,0,0,0,.1,1l-2.24-.08V8a2.51,2.51,0,0,0,1.25-.34,1.55,1.55,0,0,0,.79-1.38A1.24,1.24,0,0,0,43.17,5a1.15,1.15,0,0,0-.84.33,4.45,4.45,0,0,0-.77,1.3,5.38,5.38,0,0,1-1,1.66,1.91,1.91,0,0,1-1.39.52,2,2,0,0,1-1.61-.7A2.92,2.92,0,0,1,37,6.24a6,6,0,0,1,.17-1.35,2.34,2.34,0,0,0,0-.38,3.23,3.23,0,0,0-.09-.66Z"/><path d="M38.68,11.44a2.76,2.76,0,0,0-.9.1.54.54,0,0,0-.37.49,1.19,1.19,0,0,0,.31.7l-.25.14A2.05,2.05,0,0,1,37,11.5a1.2,1.2,0,0,1,.55-1.13,3.07,3.07,0,0,1,1.38-.15H42V9.65h.3a1.06,1.06,0,0,0,.53.95,2.71,2.71,0,0,0,1.07.37l0,.5c-.41,0-.72,0-1.63,0v1.21H42V11.44Z"/><path d="M37.15,18.4C37.08,17.81,37,17.28,37,17s.15-.42.76-.47A2.23,2.23,0,0,1,37,14.84a1.4,1.4,0,0,1,1.47-1.54c.86,0,1.39.53,1.6,1.6a12.16,12.16,0,0,1,.19,1.64h.65c1.06,0,1.37-.18,1.37-.78a.69.69,0,0,0-.34-.67,1.51,1.51,0,0,0-.71-.16c-.36,0-.49-.19-.49-.61s.16-.7.46-.7a1.15,1.15,0,0,1,.93.62,3.06,3.06,0,0,1,.38,1.64,2.13,2.13,0,0,1-.41,1.48,1.58,1.58,0,0,1-1.24.39H38.56c-1.1,0-1.16,0-1.17.68ZM40,16.54c-.11-1.45-.48-2-1.41-2-.71,0-1.18.32-1.18.81a1.09,1.09,0,0,0,.66,1,2.56,2.56,0,0,0,1.16.18Z"/><path d="M38.68,20.87a2.76,2.76,0,0,0-.9.1.54.54,0,0,0-.37.49,1.19,1.19,0,0,0,.31.7l-.25.14a2.05,2.05,0,0,1-.5-1.37,1.2,1.2,0,0,1,.55-1.13,3.07,3.07,0,0,1,1.38-.15H42v-.57h.3a1.06,1.06,0,0,0,.53,1,2.71,2.71,0,0,0,1.07.37l0,.5c-.41,0-.72,0-1.63,0v1.21H42V20.87Z"/><path d="M39.94,24.09a3.91,3.91,0,0,0-1.59.26,1.44,1.44,0,0,0-1,1.36,1.86,1.86,0,0,0,1.14,1.65l-.16.25A2.26,2.26,0,0,1,37,25.41a2.5,2.5,0,0,1,2.74-2.61,2.49,2.49,0,0,1,2.78,2.51,2,2,0,0,1-1.32,2.07,3.66,3.66,0,0,1-1.23.18Zm.29,2.22a3.9,3.9,0,0,0,1.25-.17c.53-.19.78-.47.78-.86s-.3-.76-.88-1a4.23,4.23,0,0,0-1.15-.21Z"/><path d="M41.78,32.47a2.57,2.57,0,0,1,.71,1.87,2.5,2.5,0,0,1-2.74,2.59,3,3,0,0,1-2-.66,2.66,2.66,0,0,1-.81-2,2.55,2.55,0,0,1,.76-1.88,3,3,0,0,1,2-.69A3.08,3.08,0,0,1,41.78,32.47Zm-4.59,1.86c0,.87.78,1.26,2.52,1.26s2.55-.4,2.55-1.27a1,1,0,0,0-.58-.93,4.42,4.42,0,0,0-1.94-.32C38,33.07,37.19,33.47,37.19,34.33Z"/><path d="M38.36,39.58c-.9,0-1,.06-1,.82h-.24V37.6h.24c0,.69.11.76,1,.76H42v-.78h.32v.78l.87,0a1.35,1.35,0,0,1,1,.39,2.05,2.05,0,0,1,.5,1.43c0,.84-.39,1.5-.9,1.5-.3,0-.47-.25-.47-.68a.6.6,0,0,1,.17-.47c.08-.06.15-.08.4-.1.44,0,.58-.12.58-.35s-.29-.5-1.09-.5l-1.08,0V40.9H42V39.58Z"/><path d="M39.94,46a3.91,3.91,0,0,0-1.59.26,1.44,1.44,0,0,0-1,1.36,1.86,1.86,0,0,0,1.14,1.65l-.16.25A2.26,2.26,0,0,1,37,47.34a2.5,2.5,0,0,1,2.74-2.61,2.49,2.49,0,0,1,2.78,2.51,2,2,0,0,1-1.32,2.07,3.66,3.66,0,0,1-1.23.18Zm.29,2.22a3.9,3.9,0,0,0,1.25-.17c.53-.19.78-.47.78-.86s-.3-.76-.88-1A4.23,4.23,0,0,0,40.23,46Z"/><path d="M41.48,52.15a2,2,0,0,1,1,1.74,1.3,1.3,0,0,1-1.05,1.42A1.87,1.87,0,0,1,42.49,57a1.51,1.51,0,0,1-.58,1.3,2.14,2.14,0,0,1-1.35.3h-2.2c-.89,0-1,.07-1,.75h-.24v-2.7h.24c0,.66.11.73,1,.73h2.19c1.06,0,1.48-.24,1.48-.83a1,1,0,0,0-.55-.89,1.77,1.77,0,0,0-1-.31H38.36c-.89,0-1,.07-1,.74h-.24V53.44h.24c0,.66.11.73,1,.73h2.2c1,0,1.47-.26,1.47-.81s-.74-1.21-1.64-1.21h-2c-.9,0-1,.07-1,.73h-.24V50.17h.24c0,.69.1.76,1,.76h2.78c.84,0,1-.08,1-.74h.24l.13,2Z"/><path d="M39.94,61.33a3.91,3.91,0,0,0-1.59.26,1.44,1.44,0,0,0-1,1.36A1.86,1.86,0,0,0,38.5,64.6l-.16.25A2.26,2.26,0,0,1,37,62.65,2.5,2.5,0,0,1,39.71,60a2.49,2.49,0,0,1,2.78,2.51,2,2,0,0,1-1.32,2.07,3.66,3.66,0,0,1-1.23.18Zm.29,2.22a3.9,3.9,0,0,0,1.25-.17c.53-.19.78-.47.78-.86s-.3-.76-.88-1a4.23,4.23,0,0,0-1.15-.21Z"/><path d="M42.47,67.39l-.81,0h-.3a1.78,1.78,0,0,1,1.13,1.48.79.79,0,0,1-.76.85.64.64,0,0,1-.61-.72.41.41,0,0,1,.32-.47c.28-.08.35-.13.35-.29v0c0-.19-.18-.39-.47-.56a2.25,2.25,0,0,0-1.11-.24H38.36c-.9,0-1,.06-1,.8h-.24V65.47h.24c0,.69.11.76,1,.76h2.77c.85,0,1-.09,1-.72h.24Z"/><path d="M37.93,72.94a3.66,3.66,0,0,1-.21,1.58,1.09,1.09,0,0,1-1,.6,1.54,1.54,0,0,1-1.33-.71,3.82,3.82,0,0,1-.44-2c0-1.46.43-2.28,1.21-2.28.42,0,.54.1.94.81a1.2,1.2,0,0,1,.29-.45,1,1,0,0,1,.66-.27c.3,0,.45.1.71.51l.32.51a2.2,2.2,0,0,1,.39-.57,1.59,1.59,0,0,1,1.14-.41,1.93,1.93,0,0,1,1.93,2.16,4.45,4.45,0,0,1-.08.79,3.64,3.64,0,0,0-.06.69s0,.37,0,1.07H42V74a1.83,1.83,0,0,1-2.7,0,2.44,2.44,0,0,1-.46-1.51,3.55,3.55,0,0,1,.11-.89c-.18-.34-.32-.46-.54-.46s-.43.24-.43,1.33Zm-1-1.52c-.05-.22-.25-.32-.61-.32-.79,0-1.19.51-1.19,1.54s.39,1.58,1.05,1.58.76-.44.76-1.57Zm2.07,1c0,.61.53.9,1.61.9s1.63-.29,1.63-.9-.54-.92-1.57-.92S39,71.86,39,72.46Z"/><path d="M39.94,77a3.91,3.91,0,0,0-1.59.26,1.44,1.44,0,0,0-1,1.36,1.86,1.86,0,0,0,1.14,1.65l-.16.25A2.26,2.26,0,0,1,37,78.28a2.5,2.5,0,0,1,2.74-2.61,2.49,2.49,0,0,1,2.78,2.51,2,2,0,0,1-1.32,2.07,3.66,3.66,0,0,1-1.23.18Zm.29,2.22A3.9,3.9,0,0,0,41.48,79c.53-.19.78-.47.78-.86s-.3-.76-.88-1A4.23,4.23,0,0,0,40.23,77Z"/><path d="M41.48,83.09a1.91,1.91,0,0,1,1,1.78,1.42,1.42,0,0,1-.68,1.36,2.22,2.22,0,0,1-1.23.25H38.36c-.89,0-1,.07-1,.76h-.24V84.52h.24c0,.67.12.75,1,.75h2.16c1.08,0,1.53-.26,1.53-.88a1.18,1.18,0,0,0-.66-1,2.32,2.32,0,0,0-1-.27h-2c-.9,0-1,.07-1,.75h-.24V81.11h.24c0,.69.11.76,1,.76h2.77c.85,0,1-.08,1-.74h.24l.13,2Z"/><path d="M38.36,92.66A2.29,2.29,0,0,1,37,90.47a2.5,2.5,0,0,1,2.7-2.57,3.11,3.11,0,0,1,2.16.79,2.5,2.5,0,0,1,.67,1.78c0,1.11-.6,2.06-1.31,2.06-.3,0-.49-.27-.49-.68a.67.67,0,0,1,.18-.51c.08-.06.08-.06.44-.08.6,0,.94-.33.94-.82a1,1,0,0,0-.64-.92,5.48,5.48,0,0,0-1.77-.28,3.85,3.85,0,0,0-1.7.35,1.31,1.31,0,0,0-.79,1.19,1.81,1.81,0,0,0,1.18,1.62Z"/><path d="M40.79,97.15a1.82,1.82,0,0,0,.7.17c.41,0,.59-.23.62-.79h.23v2.18h-.23c-.08-.56-.37-.81-1.5-1.26l-4.32-1.7c-1-.41-1.4-.77-1.4-1.39s.23-.73.69-.73.52.14.52.4a2,2,0,0,1-.05.4,1.89,1.89,0,0,0-.06.42c0,.31.13.45.59.64l.4.15,4.18-1.75c.8-.34.91-.43,1-.9h.23v2.67H42.1c0-.43-.12-.6-.39-.6a1.54,1.54,0,0,0-.58.15l-2.7,1Z"/></svg>