<svg xmlns="http://www.w3.org/2000/svg" viewBox="0 0 45 261"><title>phraseImg</title><path d="M1.31,21.52a32.2,32.2,0,0,0,6.3-7.26C9.2,11.83,10.07,9.94,10.07,9a1.8,1.8,0,0,0-.69-1.23,3.91,3.91,0,0,0-1.14-.72,2.4,2.4,0,0,1,.93-.21A6.18,6.18,0,0,1,12.5,8.17c1.26.81,1.86,1.53,1.86,2.13a1.2,1.2,0,0,1-.57,1,6.34,6.34,0,0,0-1.44,1.62c-2.88,3.93-7.26,7.5-10.89,8.88ZM17.81,6.94a25.76,25.76,0,0,1,7.8,5.46c1.89,2.07,2.52,3.27,2.52,4.89,0,1.86-.84,3.27-1.95,3.27-.66,0-.87-.27-1.32-1.65A25.73,25.73,0,0,0,17.54,7.24Zm3.63-4.17a11.5,11.5,0,0,1,3.21,1.44c1.38.93,2,1.8,2,2.76,0,.69-.36,1.17-.93,1.17-.39,0-.63-.18-1-.87a13.22,13.22,0,0,0-3.54-4ZM24.5.43A10.23,10.23,0,0,1,28,1.75c1.2.78,1.74,1.47,1.74,2.31s-.36,1.2-.9,1.2c-.33,0-.54-.18-1-.81A13.05,13.05,0,0,0,24.26.91Z"/><path d="M28.07,38.38A28.91,28.91,0,0,1,21.74,46,43.82,43.82,0,0,1,13,51.55a4,4,0,0,0-1.47,1.05,1.31,1.31,0,0,1-.9.45c-.93,0-2.82-2.4-2.82-3.6,0-.21,0-.21.18-.72.27-.69.3-1.26.3-4.59s-.12-8.34-.21-9.69c-.15-2.07-.69-2.79-2.55-3.36A2,2,0,0,1,6.8,30.7a8.23,8.23,0,0,1,3.54,1.08c1.26.63,1.83,1.26,1.83,2a1.59,1.59,0,0,1-.18.75,7.49,7.49,0,0,0-.48,2.1c-.27,2.34-.57,8.25-.57,10.92v1a43.12,43.12,0,0,0,10.14-5,38.68,38.68,0,0,0,6.69-5.43Z"/><path d="M5.45,61.21c3.36.54,5.16,1,6.57,1.95a2.82,2.82,0,0,1,1.47,2.58c0,1.41-.69,2.49-1.62,2.49-.51,0-.81-.24-1.26-1A14.07,14.07,0,0,0,5.3,61.54ZM28.25,63a32.1,32.1,0,0,1-6.75,9.3,48.27,48.27,0,0,1-8.7,6.84,6.79,6.79,0,0,0-1.62,1.32,1.64,1.64,0,0,1-1.26.75C9.14,81.16,8,80.32,7,79a5.72,5.72,0,0,1-1.44-3.33,2.33,2.33,0,0,1,.15-.81c.81,1.38,1.8,2.22,2.61,2.22,1.26,0,5.19-2.07,8.76-4.62a58.93,58.93,0,0,0,10.83-9.66Z"/><path d="M4.64,114a37,37,0,0,0,5.88-4,34.38,34.38,0,0,0,5.16-5c-.39-.15-.63-.42-1-1.14A16.73,16.73,0,0,0,10.85,99a26.54,26.54,0,0,1-6.6,4.26L4,102.94a41.05,41.05,0,0,0,7.77-8.82c1.26-1.89,1.71-2.85,1.71-3.51s-.69-1.47-1.8-2a1.81,1.81,0,0,1,.72-.15A7.51,7.51,0,0,1,16,89.8c.93.6,1.32,1.08,1.32,1.56s-.33.9-1.47,2.28a5.36,5.36,0,0,0,.63,0,20.16,20.16,0,0,0,3.57-.48,5.7,5.7,0,0,0,2.1-.57,1.36,1.36,0,0,1,.84-.27c.51,0,1.08.36,2,1.26a3.32,3.32,0,0,1,1.2,1.86c0,.33-.18.6-.6.9a4.8,4.8,0,0,0-1.29,1.74,38.06,38.06,0,0,1-11.19,12.36,28.58,28.58,0,0,1-8.37,3.9ZM17.81,95.35a2.28,2.28,0,0,1-.93.21,2.93,2.93,0,0,1-1.83-1,24.11,24.11,0,0,1-3.63,3.84,13.23,13.23,0,0,1,4.17,2.07A3.18,3.18,0,0,1,17.18,103a1.62,1.62,0,0,1,0,.33,39.42,39.42,0,0,0,5.28-8.91A28,28,0,0,0,17.81,95.35Z"/><path d="M2.78,136.3A55.74,55.74,0,0,0,14,127.39c3.21-3.24,5-5.64,5-6.63,0-.63-.69-1.41-1.8-2a3.51,3.51,0,0,1,1-.12,6,6,0,0,1,3,1c1.38.81,2.19,1.71,2.19,2.4s-.15.72-1.2,1.47c-.12.09-.12.09-2,1.83-2.1,2-2.1,2-4.23,3.78a7.32,7.32,0,0,1,2.07,1.77c.27.42.3.72.33,2.94,0,1.38,0,1.77.21,7.47,0,.42,0,.84,0,1.14,0,1.23-.39,1.83-1.23,1.83-1.11,0-2.76-1.83-2.76-3.09a2.63,2.63,0,0,1,.18-1,34.77,34.77,0,0,0,.66-7.74c0-1.53-.09-2-.51-2.52a49.81,49.81,0,0,1-6.42,4.26,37.14,37.14,0,0,1-5.64,2.37Z"/><path d="M5.45,151c3.36.54,5.16,1.05,6.57,1.95a2.82,2.82,0,0,1,1.47,2.58c0,1.41-.69,2.49-1.62,2.49-.51,0-.81-.24-1.26-1a14.07,14.07,0,0,0-5.31-5.67Zm22.8,1.74A32.1,32.1,0,0,1,21.5,162a48.27,48.27,0,0,1-8.7,6.84,6.79,6.79,0,0,0-1.62,1.32,1.64,1.64,0,0,1-1.26.75c-.78,0-1.89-.84-2.94-2.19a5.72,5.72,0,0,1-1.44-3.33,2.33,2.33,0,0,1,.15-.81c.81,1.38,1.8,2.22,2.61,2.22,1.26,0,5.19-2.07,8.76-4.62a58.93,58.93,0,0,0,10.83-9.66Z"/><path d="M43.09,4.58c1-.36,1.18-.54,1.25-1.18h.26V6.66h-.26c0-.07,0-.14,0-.18,0-.33-.07-.48-.18-.58a.37.37,0,0,0-.27-.11A3.18,3.18,0,0,0,43,6l-4.6,1.59L42.84,9.2a3,3,0,0,0,.94.21A.48.48,0,0,0,44.26,9a2.84,2.84,0,0,0,.08-.57h.26v2.59h-.26a1.1,1.1,0,0,0-.34-.8,3.79,3.79,0,0,0-1.24-.67L37.08,7.52v-.8Z"/><path d="M37.15,15.8c-.07-.59-.12-1.12-.12-1.38s.15-.42.76-.47A2.23,2.23,0,0,1,37,12.24a1.4,1.4,0,0,1,1.47-1.54c.86,0,1.39.53,1.6,1.6a12.16,12.16,0,0,1,.19,1.64h.65c1.06,0,1.37-.18,1.37-.78a.69.69,0,0,0-.34-.67,1.51,1.51,0,0,0-.71-.16c-.36,0-.49-.19-.49-.61s.16-.7.46-.7a1.15,1.15,0,0,1,.93.62,3.06,3.06,0,0,1,.38,1.64,2.13,2.13,0,0,1-.41,1.48,1.58,1.58,0,0,1-1.24.39H38.56c-1.1,0-1.16,0-1.17.68ZM40,13.94c-.11-1.45-.48-2-1.41-2-.71,0-1.18.32-1.18.81a1.09,1.09,0,0,0,.66,1,2.56,2.56,0,0,0,1.16.18Z"/><path d="M37.36,16.37c0,.73.09.79,1,.79h5c.88,0,1-.07,1-.78h.23l.11,2.06c-.74,0-1.38-.06-2.05-.06h-4.3c-.91,0-1,.06-1,.79h-.24v-2.8Z"/><path d="M39.94,21.16a3.91,3.91,0,0,0-1.59.26,1.44,1.44,0,0,0-1,1.36,1.86,1.86,0,0,0,1.14,1.65l-.16.25A2.26,2.26,0,0,1,37,22.48a2.5,2.5,0,0,1,2.74-2.61,2.49,2.49,0,0,1,2.78,2.51,2,2,0,0,1-1.32,2.07,3.66,3.66,0,0,1-1.23.18Zm.29,2.22a3.9,3.9,0,0,0,1.25-.17c.53-.19.78-.47.78-.86s-.3-.76-.88-1a4.23,4.23,0,0,0-1.15-.21Z"/><path d="M41.48,27.29a1.91,1.91,0,0,1,1,1.78,1.42,1.42,0,0,1-.68,1.36,2.22,2.22,0,0,1-1.23.25H38.36c-.89,0-1,.07-1,.76h-.24V28.72h.24c0,.67.12.75,1,.75h2.16c1.08,0,1.53-.26,1.53-.88a1.18,1.18,0,0,0-.66-1,2.32,2.32,0,0,0-1-.27h-2c-.9,0-1,.07-1,.75h-.24V25.31h.24c0,.69.11.76,1,.76h2.77c.85,0,1-.08,1-.74h.24l.13,2Z"/><path d="M38.68,33.85a2.76,2.76,0,0,0-.9.1.54.54,0,0,0-.37.49,1.19,1.19,0,0,0,.31.7l-.25.14a2.05,2.05,0,0,1-.5-1.37,1.2,1.2,0,0,1,.55-1.13,3.07,3.07,0,0,1,1.38-.15H42v-.57h.3a1.06,1.06,0,0,0,.53.95,2.71,2.71,0,0,0,1.07.37l0,.5c-.41,0-.72,0-1.63,0v1.21H42V33.85Z"/><path d="M42.47,37.68c-.6,0-1.3-.06-1.94-.06H38.36c-.89,0-1,.07-1,.78h-.24V35.62h.24c0,.71.11.78,1,.78h2.77c.89,0,1,0,1-.75h.24Zm2.3-.66a.72.72,0,1,1-.72-.72A.72.72,0,0,1,44.77,37Z"/><path d="M41.48,40.93a1.91,1.91,0,0,1,1,1.78,1.42,1.42,0,0,1-.68,1.36,2.22,2.22,0,0,1-1.23.25H38.36c-.89,0-1,.07-1,.76h-.24V42.36h.24c0,.67.12.75,1,.75h2.16c1.08,0,1.53-.26,1.53-.88a1.18,1.18,0,0,0-.66-1,2.32,2.32,0,0,0-1-.27h-2c-.9,0-1,.07-1,.75h-.24V39h.24c0,.69.11.76,1,.76h2.77c.85,0,1-.08,1-.74h.24l.13,2Z"/><path d="M39.94,47a3.91,3.91,0,0,0-1.59.26,1.44,1.44,0,0,0-1,1.36A1.86,1.86,0,0,0,38.5,50.3l-.16.25A2.26,2.26,0,0,1,37,48.35a2.5,2.5,0,0,1,2.74-2.61,2.49,2.49,0,0,1,2.78,2.51,2,2,0,0,1-1.32,2.07,3.66,3.66,0,0,1-1.23.18Zm.29,2.22a3.9,3.9,0,0,0,1.25-.17c.53-.19.78-.47.78-.86s-.3-.76-.88-1A4.23,4.23,0,0,0,40.23,47Z"/><path d="M42,51.62c.25.54.59.85.93.85a.29.29,0,0,0,.19-.07s0,0,.11-.29a.71.71,0,0,1,.71-.54.8.8,0,0,1,.79.84.92.92,0,0,1-1,.9,2.15,2.15,0,0,1-2-1.51Z"/><path d="M38.88,54.6V55a2.35,2.35,0,0,0-1.05.3,1.24,1.24,0,0,0-.63,1.12c0,.61.32,1,.87,1s.71-.26,1.25-1.42A2.86,2.86,0,0,1,40,54.86a1.23,1.23,0,0,1,.9-.35c1,0,1.59.72,1.59,1.85a4.75,4.75,0,0,1-.08.71,2.26,2.26,0,0,0-.06.44,1.31,1.31,0,0,0,.1.48L40.7,57.9v-.37c1-.07,1.56-.49,1.56-1.21a.81.81,0,0,0-.83-.89.7.7,0,0,0-.61.31,4.39,4.39,0,0,0-.58,1.12c-.47,1-.86,1.35-1.61,1.35A1.6,1.6,0,0,1,37,56.41a5.2,5.2,0,0,1,.12-1,2.19,2.19,0,0,0,0-.36,2.12,2.12,0,0,0-.06-.51Z"/><path d="M37.38,62.38c0,.81.12.9,1,.9H43.3c.92,0,1-.1,1-.9h.26v3A5,5,0,0,1,44.05,68,3.24,3.24,0,0,1,41,69.47a3.51,3.51,0,0,1-3.33-1.54,5.32,5.32,0,0,1-.53-2.66V62.38Zm0,2.91a2.71,2.71,0,0,0,.69,2,3.9,3.9,0,0,0,2.71.79,4.4,4.4,0,0,0,2.57-.64,2.56,2.56,0,0,0,.93-2.25v-.6h-6.9Z"/><path d="M37.15,75.52c-.07-.59-.12-1.12-.12-1.38s.15-.42.76-.47A2.23,2.23,0,0,1,37,72a1.4,1.4,0,0,1,1.47-1.54c.86,0,1.39.53,1.6,1.6a12.16,12.16,0,0,1,.19,1.64h.65c1.06,0,1.37-.18,1.37-.78a.69.69,0,0,0-.34-.67,1.51,1.51,0,0,0-.71-.16c-.36,0-.49-.19-.49-.61s.16-.7.46-.7a1.15,1.15,0,0,1,.93.62A3.06,3.06,0,0,1,42.49,73a2.13,2.13,0,0,1-.41,1.48,1.58,1.58,0,0,1-1.24.39H38.56c-1.1,0-1.16,0-1.17.68ZM40,73.66c-.11-1.45-.48-2-1.41-2-.71,0-1.18.32-1.18.81a1.09,1.09,0,0,0,.66,1,2.56,2.56,0,0,0,1.16.18Z"/><path d="M40.79,80.05a1.82,1.82,0,0,0,.7.17c.41,0,.59-.23.62-.79h.23v2.18h-.23c-.08-.56-.37-.81-1.5-1.26l-4.32-1.7c-1-.41-1.4-.77-1.4-1.39s.23-.73.69-.73.52.14.52.4a2,2,0,0,1-.05.4,1.89,1.89,0,0,0-.06.42c0,.31.13.45.59.64l.4.15,4.18-1.75c.8-.34.91-.43,1-.9h.23v2.67H42.1c0-.43-.12-.6-.39-.6a1.54,1.54,0,0,0-.58.15l-2.7,1Z"/></svg>