<svg xmlns="http://www.w3.org/2000/svg" viewBox="0 0 45 261"><title>phraseImg</title><path d="M27.32,26.53a20.43,20.43,0,0,1,1.23-1.89,19.48,19.48,0,0,1,1.8,2.22.48.48,0,0,1,.09.24c0,.09-.09.15-.24.15H9.2a8.44,8.44,0,0,0-2,.21L7,26.35a8.76,8.76,0,0,0,2.19.27h1.59V19.69c0-.36,0-.72,0-1.65a54.41,54.41,0,0,1-7.23,5.34c-.06,1-.21,1.38-.54,1.38s-.3,0-1.68-4.44a26.35,26.35,0,0,0,3.42-.69V10.09H3a6.47,6.47,0,0,0-1.53.18l-.15-1A6.49,6.49,0,0,0,3,9.46H4.73V5.32c0-1.83,0-2.61-.15-4.2,1,.09,1.74.15,2.22.21,2,.18,2.4.3,2.4.66s-.27.42-1.32.69V9.46H8c.33-.6.75-1.29,1.23-2.1.63.9.81,1.2,1.26,2A28.86,28.86,0,0,0,13.43.7c4.29,1,4.8,1.14,4.8,1.53s-.36.45-1.44.57c-.57,1-.72,1.26-1.23,2.07h8l2.28-2.61c1.56,1.2,2,1.59,3.42,2.85a.31.31,0,0,1,.12.24c0,.09-.09.15-.33.15H15.14c-.48.69-.81,1.14-1.35,1.8.84.36,1.23.54,2.4,1.14h6.54c.66-.72.87-1,1.53-1.62,1,.69,1.35.9,2.31,1.59.27.21.39.36.39.54s-.21.42-.93.78v1.5c0,.9,0,1.89.12,3.75,0,.63-.39.78-2.13.78-1.05,0-1.14,0-1.14-.54V14.5h-7v.78c0,.6-.3.69-2,.69-1.11,0-1.23-.06-1.23-.66,0-2.31.06-3.75.06-4.29V8.59a22.2,22.2,0,0,1-3.18,3.15l-.24-.27c.39-.66.54-.9.78-1.38H7.88v8.58c1.23-.39,1.62-.54,2.85-1,0-.63,0-.9-.06-1.77,1.47.69,1.92.9,3.3,1.68H24.14c.69-.72.9-.93,1.59-1.59,1,.72,1.32.93,2.28,1.65.3.21.42.36.42.51s-.21.45-1.11.87ZM15.5,18.19H13.73v8.43H15.5Zm.39-4.32h7V9.07h-7Zm4.05,4.32h-1.8v8.43h1.8Zm4.44,0h-1.8v8.43h1.8Z"/><path d="M1.31,49.9a42.57,42.57,0,0,0,4.56-7.77,28,28,0,0,0,2.7-7.92l2.22.6c1.92.48,2.52.72,2.52,1s-.33.45-1.35.63a35.63,35.63,0,0,1-4,7c2,.33,2.31.42,2.31.72S10,44.71,9.2,45v8.34c0,3.81,0,3.81,0,7.56a.83.83,0,0,1-.18.63,3.14,3.14,0,0,1-2,.39c-1.2,0-1.38-.12-1.38-.78.12-2,.24-5.91.24-7.74V46.09a22.62,22.62,0,0,1-4.41,4Zm16.77-2.13A39.93,39.93,0,0,0,22,43.45a19.33,19.33,0,0,0,2.85-4.62c3.3,2,4.26,2.67,4.26,3s-.27.39-.72.39c-.24,0-.57,0-.9,0a39.65,39.65,0,0,1-9.36,6.51v8.85c0,.45,0,.57.21.66a15.65,15.65,0,0,0,3.45.18,14.35,14.35,0,0,0,3-.24c.63-.24,1-1.11,3.15-7.53l.3,0-.39,6v.39a.55.55,0,0,0,.45.6c.78.27.84.3,1,.51a1.43,1.43,0,0,1,.27.93c0,1.77-1.56,2.19-7.86,2.19-4.17,0-5.22-.12-6.06-.66-.6-.39-.84-1-.87-2.22V55.69c0-.42,0-.42,0-4.53V37.78a27.79,27.79,0,0,0-.15-3.06c1,.09,1.74.18,2.25.24,2,.18,2.49.3,2.49.69s-.33.48-1.26.81Z"/><path d="M7.58,93.79a17.81,17.81,0,0,0,5-6.69,24,24,0,0,0,1.86-8.85A23.05,23.05,0,0,0,7.73,80a2.51,2.51,0,0,1-1.2.36c-.63,0-1.26-.39-2.07-1.29A4.65,4.65,0,0,1,3,76.36a1.9,1.9,0,0,1,.15-.69,3.49,3.49,0,0,0,3,1.74,43.51,43.51,0,0,0,5.61-.72c.87-.12,1.32-.18,2.73-.33a17.32,17.32,0,0,0,.06-2c0-4.14-.36-4.77-3-5.37a2.34,2.34,0,0,1,1.8-.57,10.5,10.5,0,0,1,4.41,1.05,1.31,1.31,0,0,1,.84,1.26,2.19,2.19,0,0,1-.33,1A14.3,14.3,0,0,0,17.81,76c4.74-.39,5.07-.42,6.24-.93a1.55,1.55,0,0,1,.78-.18,4.44,4.44,0,0,1,1.83.54c1.08.57,1.68,1.23,1.68,1.83a1,1,0,0,1-1.14,1,6.13,6.13,0,0,1-1.08-.12,30.55,30.55,0,0,0-5.37-.39c-1,0-1.32,0-3,.12a28.26,28.26,0,0,1-1,6.39c-1.32,4.29-4.26,7.5-8.94,9.81Z"/><path d="M10.64,100.21a8.73,8.73,0,0,1,3.3.87c1.32.66,2,1.29,2,2a1.5,1.5,0,0,1-.27.81,3.82,3.82,0,0,0-.51,2c-.06.6-.12,2.55-.18,4.14a22.44,22.44,0,0,1,7.23,1.47c1.53.69,2.19,1.59,2.19,2.94s-.54,2.13-1.32,2.13c-.45,0-.63-.12-1.41-1a17.1,17.1,0,0,0-6.69-4.68v4.71c0,2.52,0,2.52.09,6.09,0,.51,0,.93,0,1.44a5.51,5.51,0,0,1-.18,1.8,1.09,1.09,0,0,1-1,.75,2.13,2.13,0,0,1-1.62-1.05,4.62,4.62,0,0,1-1.08-2.43,3.09,3.09,0,0,1,.27-1.2c.51-1.47.69-5,.69-12.63,0-4.32-.09-5.46-.54-6.27a3.65,3.65,0,0,0-2.07-1.56A2.07,2.07,0,0,1,10.64,100.21Z"/><path d="M7.64,134.53a8.34,8.34,0,0,1,4,1.35,1.59,1.59,0,0,1,.72,1.23v.06a4.1,4.1,0,0,1-.27,1.05,18.21,18.21,0,0,0-.24,3.72c0,.48,0,1.38.06,2.67,0,.72,0,1.44,0,1.77a9.42,9.42,0,0,1-.09,1.62,1.14,1.14,0,0,1-1.11,1.08c-.54,0-1.14-.48-1.65-1.32a5.35,5.35,0,0,1-.75-2.13,1.64,1.64,0,0,1,.18-.75A16.38,16.38,0,0,0,9,140c0-2.1-.15-3.15-.57-3.78s-.75-.93-1.92-1.44A1.71,1.71,0,0,1,7.64,134.53Zm3.3,23.76a17.45,17.45,0,0,0,6.51-6.69c1.41-2.82,1.77-5.28,1.77-12.15,0-3.39-.09-4.41-.51-5A4,4,0,0,0,16.34,133a1.92,1.92,0,0,1,1.38-.45,10.14,10.14,0,0,1,3.57.87c1.29.6,1.83,1.11,1.83,1.8a1.85,1.85,0,0,1-.21.78c-.3.75-.42,2-.51,6-.09,4.29-.27,5.7-.78,7.41-1.35,4.32-5,7.53-10.5,9.18Z"/><path d="M11.09,191.14a25.64,25.64,0,0,0,8-9.6A28.53,28.53,0,0,0,22,172.6c-.39,0-.72,0-.9,0a49.67,49.67,0,0,0-9.9,1.35,2,2,0,0,1-.51.09,3,3,0,0,1-1.47-.54c.12.39.12.39.15,2.82,0,.93,0,1.56,0,1.89,0,.66.06,1.17.06,1.41,0,1.17-.39,1.77-1.14,1.77s-1.32-.57-1.86-1.59A3.5,3.5,0,0,1,6,178.42a1.5,1.5,0,0,1,.21-.75,6,6,0,0,0,.42-2.76c0-2.16-.66-3.42-2.25-4.29a1.65,1.65,0,0,1,.78-.15c.93,0,2.16.6,3.81,1.8.6,0,.6,0,4.92-.66,0-.48,0-.66,0-1.05,0-3.54-.21-3.93-2.37-4.83a2,2,0,0,1,1.26-.39,10,10,0,0,1,3.48.72c1.08.42,1.59.87,1.59,1.41a1.27,1.27,0,0,1-.27.75,5.21,5.21,0,0,0-.84,3c1.89-.21,3.12-.33,3.72-.39a3.37,3.37,0,0,0,1.8-.51,1.32,1.32,0,0,1,.66-.21,4,4,0,0,1,2.16,1.29c.93.84,1.26,1.29,1.26,1.74a1.06,1.06,0,0,1-.45.9,3.87,3.87,0,0,0-.93,1.71,32.27,32.27,0,0,1-2.55,5.85,22,22,0,0,1-7.2,7.83,17.91,17.91,0,0,1-3.9,2Z"/><path d="M18.62,208.3a25.83,25.83,0,0,1,6.3,5.07c1.35,1.53,1.86,2.61,1.86,3.9,0,1.71-1,3.24-2,3.24-.6,0-.87-.33-1.17-1.44a18.25,18.25,0,0,0-.87-2.82C20,217.09,19,217.36,12.26,219c-1.56.39-2.52.66-3.42.93a2.51,2.51,0,0,0-.87.42,1.54,1.54,0,0,1-.9.3c-.75,0-1.44-.6-2.28-2a6.29,6.29,0,0,1-1.2-3.18,2.07,2.07,0,0,1,.21-.9,4.19,4.19,0,0,0,1.35,1.74,2.47,2.47,0,0,0,1.62.45c.15,0,.39,0,.75-.06,1-2,2.67-6.09,3.87-9.39,1.38-3.75,2-5.88,2-6.75,0-1.05-.54-1.68-2-2.43a2.08,2.08,0,0,1,1.05-.24,8.23,8.23,0,0,1,3.75,1.29c1.14.69,1.77,1.41,1.77,2a1.75,1.75,0,0,1-.57,1.17c-.6.72-.6.72-3.21,5.46-2.13,3.84-3.9,6.9-5.13,8.85,4.23-.3,10.23-1,13.29-1.56a22.5,22.5,0,0,0-4-6.63Z"/><path d="M39.47,3.93v.4c-1.5.14-2.21.74-2.21,1.86A1.29,1.29,0,0,0,38.64,7.6c.68,0,1.09-.39,1.7-1.64a7.82,7.82,0,0,1,.71-1.31,1.81,1.81,0,0,1,1.59-.82A2,2,0,0,1,44.51,5a2.94,2.94,0,0,1,.22,1.28,4.7,4.7,0,0,1-.17,1.22,2.68,2.68,0,0,0,0,.35,1.7,1.7,0,0,0,.15.6l-2.24-.08V8a2.51,2.51,0,0,0,1.25-.34,1.57,1.57,0,0,0,.79-1.38A1.24,1.24,0,0,0,43.17,5a1.15,1.15,0,0,0-.84.33,4.45,4.45,0,0,0-.77,1.3,5.38,5.38,0,0,1-1,1.66,1.91,1.91,0,0,1-1.39.52,2,2,0,0,1-1.61-.7A2.92,2.92,0,0,1,37,6.24a6,6,0,0,1,.17-1.35,2.34,2.34,0,0,0,0-.38,3.23,3.23,0,0,0-.09-.66Z"/><path d="M41.78,10.43a2.57,2.57,0,0,1,.71,1.87,2.5,2.5,0,0,1-2.74,2.59,3,3,0,0,1-2-.66,2.66,2.66,0,0,1-.81-2,2.55,2.55,0,0,1,.76-1.88,3,3,0,0,1,2-.69A3.08,3.08,0,0,1,41.78,10.43Zm-4.59,1.86c0,.87.78,1.26,2.52,1.26s2.55-.4,2.55-1.27a1,1,0,0,0-.58-.93A4.42,4.42,0,0,0,39.74,11C38,11,37.19,11.43,37.19,12.29Z"/><path d="M44.71,20.76c-.75,0-1.27-.06-2-.06h-4c-.81,0-1.08,0-1.2.19s-.07.14-.08.47h-.23L37,19.6l.73,0A2,2,0,0,1,37,17.92a2,2,0,0,1,.6-1.46,2.9,2.9,0,0,1,2-.66c1.77,0,2.9.9,2.9,2.3a1.84,1.84,0,0,1-.57,1.38h1.44c.93,0,1-.06,1-.76h.23Zm-2.49-2.44c0-.76-.89-1.19-2.46-1.19a3.88,3.88,0,0,0-2.12.46.83.83,0,0,0-.36.69c0,.77.94,1.23,2.53,1.23S42.22,19.09,42.22,18.32Z"/><path d="M42.47,23.91c-.6,0-1.3-.06-1.94-.06H38.36c-.89,0-1,.07-1,.78h-.24V21.85h.24c0,.71.11.78,1,.78h2.77c.89,0,1-.05,1-.75h.24Zm2.3-.66a.72.72,0,1,1-.72-.72A.72.72,0,0,1,44.77,23.25Z"/><path d="M37,29.11a9.82,9.82,0,0,1,1-.05A2.17,2.17,0,0,1,37,27.22a1.36,1.36,0,0,1,.75-1.29A2.88,2.88,0,0,1,39,25.74h.14l2,0h.08a1.4,1.4,0,0,0,.73-.11c.12-.09.15-.17.16-.62h.24l.13,2c-.72-.05-1.1-.07-2-.08H39.23a3.4,3.4,0,0,0-1.22.13.67.67,0,0,0-.49.7,1.21,1.21,0,0,0,.84,1.08,2.82,2.82,0,0,0,1.19.19h1.58c.55,0,.75,0,.86-.15s.1-.16.11-.58h.24l.13,2c-1.37-.06-1.37-.06-2-.06H38.39c-.87,0-1,.1-1,.65h-.23Z"/><path d="M41.48,33.43a2,2,0,0,1,1,1.74,1.3,1.3,0,0,1-1.05,1.42,1.87,1.87,0,0,1,1.05,1.72,1.51,1.51,0,0,1-.58,1.3,2.14,2.14,0,0,1-1.35.3h-2.2c-.89,0-1,.07-1,.76h-.24V38h.24c0,.66.11.73,1,.73h2.19c1.06,0,1.48-.24,1.48-.83a1,1,0,0,0-.55-.89,1.77,1.77,0,0,0-1-.31H38.36c-.89,0-1,.07-1,.74h-.24V34.72h.24c0,.66.11.73,1,.73h2.2c1,0,1.47-.26,1.47-.81s-.74-1.21-1.64-1.21h-2c-.9,0-1,.07-1,.73h-.24V31.45h.24c0,.69.1.76,1,.76h2.78c.84,0,1-.08,1-.74h.24l.13,2Z"/><path d="M42.09,50.54A3.22,3.22,0,0,0,43.53,50a2.06,2.06,0,0,0,.93-1.68,1.8,1.8,0,0,0-.88-1.55A5,5,0,0,0,41,46.2c-2.22,0-3.59.9-3.59,2.37a2.43,2.43,0,0,0,1,2,3.43,3.43,0,0,0,.82.44l-.16.29a3,3,0,0,1-2.11-3,3.5,3.5,0,0,1,.94-2.46,4,4,0,0,1,2.88-1c2.41,0,4,1.38,4,3.52a5.17,5.17,0,0,1-.29,1.66,1.48,1.48,0,0,0-.07.42,1.69,1.69,0,0,0,.13.54H42.09Z"/><path d="M41.48,53.83a1.94,1.94,0,0,1,1,1.82,1.47,1.47,0,0,1-.7,1.44,2.62,2.62,0,0,1-1.23.22h-2.2c-.9,0-1,.07-1,.76h-.24V55.34h.24c0,.68.1.75,1,.75h2.13A2.75,2.75,0,0,0,41.57,56a.76.76,0,0,0,.46-.77,1.2,1.2,0,0,0-.69-1.08,2,2,0,0,0-1.06-.27H38.36c-.89,0-1,.07-1,.75h-.24V51.85h.24c0,.69.1.76,1,.76h5c.88,0,1-.07,1-.77h.23l.11,2c-.77,0-1.25-.06-2.05-.06Z"/><path d="M37.36,58.57c0,.73.09.79,1,.79h5c.88,0,1-.07,1-.78h.23l.11,2.06c-.74,0-1.38-.06-2.05-.06h-4.3c-.91,0-1,.06-1,.79h-.24v-2.8Z"/><path d="M41.78,62.81a2.57,2.57,0,0,1,.71,1.87,2.5,2.5,0,0,1-2.74,2.59,3,3,0,0,1-2-.66,2.66,2.66,0,0,1-.81-2,2.55,2.55,0,0,1,.76-1.88,3,3,0,0,1,2-.69A3.08,3.08,0,0,1,41.78,62.81Zm-4.59,1.86c0,.87.78,1.26,2.52,1.26s2.55-.4,2.55-1.27a1,1,0,0,0-.58-.93,4.42,4.42,0,0,0-1.94-.32C38,63.41,37.19,63.81,37.19,64.67Z"/><path d="M42.47,69.88l-.81,0h-.3a1.78,1.78,0,0,1,1.13,1.48.79.79,0,0,1-.76.85.64.64,0,0,1-.61-.72.41.41,0,0,1,.32-.47c.28-.08.35-.13.35-.29v0c0-.19-.18-.39-.47-.56a2.25,2.25,0,0,0-1.11-.24H38.36c-.9,0-1,.06-1,.8h-.24V68h.24c0,.69.11.76,1,.76h2.77c.85,0,1-.09,1-.72h.24Z"/><path d="M42.47,74.58c-.6,0-1.3-.06-1.94-.06H38.36c-.89,0-1,.07-1,.78h-.24V72.52h.24c0,.71.11.78,1,.78h2.77c.89,0,1,0,1-.75h.24Zm2.3-.66a.72.72,0,1,1-.72-.72A.72.72,0,0,1,44.77,73.92Z"/><path d="M44.71,81c-.75,0-1.27-.06-2-.06h-4c-.81,0-1.08,0-1.2.19s-.07.14-.08.47h-.23L37,79.86l.73,0A2,2,0,0,1,37,78.18a2,2,0,0,1,.6-1.46,2.9,2.9,0,0,1,2-.66c1.77,0,2.9.9,2.9,2.3a1.84,1.84,0,0,1-.57,1.38h1.44c.93,0,1-.06,1-.76h.23Zm-2.49-2.44c0-.76-.89-1.19-2.46-1.19a3.88,3.88,0,0,0-2.12.46.83.83,0,0,0-.36.69c0,.77.94,1.23,2.53,1.23S42.22,79.35,42.22,78.58Z"/><path d="M39.94,83.56a3.91,3.91,0,0,0-1.59.26,1.44,1.44,0,0,0-1,1.36,1.86,1.86,0,0,0,1.14,1.65l-.16.25A2.26,2.26,0,0,1,37,84.88a2.5,2.5,0,0,1,2.74-2.61,2.49,2.49,0,0,1,2.78,2.51,2,2,0,0,1-1.32,2.07,3.66,3.66,0,0,1-1.23.18Zm.29,2.22a3.9,3.9,0,0,0,1.25-.17c.53-.19.78-.47.78-.86s-.3-.76-.88-1a4.23,4.23,0,0,0-1.15-.21Z"/></svg>