<svg xmlns="http://www.w3.org/2000/svg" viewBox="0 0 45 261"><title>phraseImg</title><path d="M11.9,13.81c1.56.69,2,.9,3.51,1.68h9.51c.6-.69.81-.9,1.44-1.59,1.08.69,1.41.9,2.37,1.59.33.21.45.39.45.57s-.21.48-.87.9c0,4.29,0,4.29.12,10.71,0,.33-.09.48-.39.57a7.87,7.87,0,0,1-2.07.21c-.63,0-.81-.09-.84-.48V26.59h-10v1.08c0,.42-.15.57-.48.66a13.32,13.32,0,0,1-1.89.15c-.66,0-.87-.15-.87-.6v-.06c.12-3.6.12-4.26.12-8V18a2,2,0,0,1-1.59,1.44c-.42,0-.57-.21-.72-1.17-.33-2.07-.84-3.42-1.41-3.93v6.51c0,1.08,0,3.36.06,6.9-.06.57-.48.72-2.07.72-1,0-1.17-.09-1.2-.6.09-4,.12-6.21.12-6.66V16.6a22.54,22.54,0,0,1-3.78,2.88l-.27-.33A27.77,27.77,0,0,0,5.3,13.69,27.32,27.32,0,0,0,8.24,7.42H3.8a9.85,9.85,0,0,0-2,.15l-.18-1a8.67,8.67,0,0,0,2.16.24H5.12V3.22A12.77,12.77,0,0,0,4.94.91,31.25,31.25,0,0,1,9,1.36c.24.09.39.21.39.36,0,.3-.39.54-1.17.81V6.79H8.9c.57-.69.75-.9,1.35-1.56.93.75,1.2,1,2.07,1.74.24.24.33.39.33.51s-.33.42-1.14.66A23.88,23.88,0,0,1,8.3,13.33v.39c1.86.78,3.27,1.89,3.69,2.88ZM11.6,2.44a9.37,9.37,0,0,0,2.55.27h9.9L26.27.28c1.35,1.08,1.8,1.44,3.18,2.58.09.15.15.21.15.3s-.12.18-.33.18H14.15a12.9,12.9,0,0,0-2.34.15Zm4.86,10.71c-.06.57-.42.69-2.1.69-.87,0-1-.09-1.08-.54.09-3.78.09-3.78.09-5.22a26.48,26.48,0,0,0-.15-3.48,35,35,0,0,1,3.54,1.71h6.75c.66-.75.9-1,1.62-1.71,1.05.75,1.38,1,2.34,1.71.24.21.36.36.36.48s-.15.36-1,.87v.93c0,1.14,0,2.79.09,4.47a.55.55,0,0,1-.21.51,5.21,5.21,0,0,1-2,.27c-.84,0-1-.09-1-.54v-1H16.46Zm2,7.26V16.12H15.14v4.29Zm0,.63H15.14V26h3.33Zm-2-9.36h7.29V6.94H16.46Zm8.67,4.44H21.56v4.29h3.57ZM21.56,21V26h3.57V21Z"/><path d="M6.71,54.52c0,.54,0,1,.09,6.57,0,.45-.15.63-.45.72a8.5,8.5,0,0,1-1.8.15c-1,0-1.29-.12-1.29-.63v-.15c.15-3,.18-7.23.18-16.47,0-5.13-.06-8.1-.24-10.14,1.68.81,2.19,1,3.81,1.86H24.2c.72-.81,1-1.08,1.71-1.86,1.08.81,1.08.81,2.64,2,.24.24.36.36.36.51s-.24.51-1.11.93V51.58q0,.86.09,7.29a2.24,2.24,0,0,1-1.53,2.28,6.7,6.7,0,0,1-2.55.54c-.36,0-.39-.06-.39-.66,0-1.59-.54-2.1-2.64-2.67V58c2,.12,2.07.12,3.39.18.3,0,.36-.09.36-.36V37.06H6.71ZM19.55,44.11c.78-.9,1-1.17,1.77-2.07,1.2,1,1.56,1.26,2.73,2.28a.31.31,0,0,1,.12.24.2.2,0,0,1-.21.18H17V55.3h2.46V49.39a17.9,17.9,0,0,0-.15-2.76,30.74,30.74,0,0,1,3.81.45c.21.06.3.15.3.3,0,.33-.24.48-1.05.75,0,2.07,0,2.91,0,4.11,0,1.59,0,2.4.06,4.2,0,.45-.06.6-.36.75a5.9,5.9,0,0,1-1.74.21c-.69,0-.84-.15-.84-.75v-.72H11.72v1.41c0,.69-.33.84-2,.84-.69,0-1-.15-1-.6V57.4c.15-2.13.18-3,.18-5.34,0-2.67,0-3.9-.15-5.49.78.09,1.44.15,1.8.21,2,.18,2.19.24,2.19.57s-.18.36-1,.69V55.3h2.43V44.74H9.56a14.5,14.5,0,0,0-1.89.15l-.24-1a13.83,13.83,0,0,0,2.4.24H16a25.4,25.4,0,0,0,2.28-6.54C22.4,39,22.49,39,22.49,39.37s-.24.39-1.38.57A54.84,54.84,0,0,1,17,44.11ZM9.71,37.72c3.6,1.53,4.71,2.4,4.71,3.69a2.37,2.37,0,0,1-2,2.19c-.45,0-.69-.24-.84-.87a12.23,12.23,0,0,0-2-4.8Z"/><path d="M13.4,72.49c-.09-3.42-.09-3.42-.18-4.32,4.56.36,5,.45,5,.9s-.27.48-1.29.84v3h6.72L26,70.21c1.62,1.23,2.1,1.62,3.6,2.82.12.15.21.24.21.33s-.15.21-.33.21H4.55a9.85,9.85,0,0,0-2.4.24l-.21-1.2a10.73,10.73,0,0,0,2.61.33H13.4Zm9,5.94c.72-.81,1-1.08,1.74-1.92a27,27,0,0,1,3,2.1.52.52,0,0,1,.24.39c0,.3-.27.57-1.23,1.11v4.47c0,1.47,0,1.47,0,3.45v1.62a2.22,2.22,0,0,1-1.5,2.19,7.07,7.07,0,0,1-2.37.6,2.82,2.82,0,0,1-.36,0h-.06c-.3,0-.39-.12-.42-.48-.09-1.65-.9-2.31-3.51-2.88v-.36l4.35.18a.47.47,0,0,0,.45-.54V79.06H16.94v4.17c0,2.46,0,7.44.09,11.34,0,.9-.36,1.05-2.58,1.05-.87,0-1.08-.12-1.11-.69,0-1.5.06-5.37.12-11.55V79.06H8.24V91.54c0,.45-.12.63-.42.75a8.59,8.59,0,0,1-2.13.21c-.84,0-1-.12-1-.72.12-3.42.15-4.8.15-8.43,0-3.33,0-4.53-.15-6.93,1.74.87,2.25,1.14,3.84,2h5v-.15c0-1.38-.06-3.06-.12-4.08,1,.09,1.71.15,2.19.18,2,.12,2.64.27,2.64.69s-.27.42-1.23.75v2.61Z"/><path d="M38.42,5.8c-.91,0-1,.1-1,.94h-.26V3.61h.26c0,.82.12.9,1,.9H43.3c.92,0,1-.1,1-.9h.26V9.1l-2.07.15,0-.35c1.35-.24,1.81-.79,1.81-2.17V5.8H41.15v.77c0,1.06.22,1.34,1.15,1.44v.32H39.69V8c1-.12,1.17-.36,1.17-1.44V5.8Z"/><path d="M37,13.76a9.82,9.82,0,0,1,1,0A2.17,2.17,0,0,1,37,11.87a1.36,1.36,0,0,1,.75-1.29A2.88,2.88,0,0,1,39,10.39h.14l2,0h.08a1.4,1.4,0,0,0,.73-.11c.12-.09.15-.17.16-.62h.24l.13,2c-.72,0-1.1-.07-2-.08H39.23a3.4,3.4,0,0,0-1.22.13.67.67,0,0,0-.49.7,1.21,1.21,0,0,0,.84,1.08,2.82,2.82,0,0,0,1.19.19h1.58c.55,0,.75,0,.86-.15s.1-.16.11-.58h.24l.13,2c-1.37-.06-1.37-.06-2-.06H38.39c-.87,0-1,.1-1,.65h-.23Z"/><path d="M38.36,18c-.9,0-1,.07-1,.75h-.24V16.06h.24c0,.68.11.75,1,.75h5c.88,0,1-.07,1-.76h.23l.11,2C44,18,43.33,18,42.66,18H39.51l1.54,1.34a1.08,1.08,0,0,0,.63.31c.27,0,.4-.21.43-.69h.23v2.58h-.23a2.23,2.23,0,0,0-.26-.84,3.2,3.2,0,0,0-.81-1l-.41-.37-2.39,1.39c-.62.37-.8.58-.9,1h-.22V20l.89-.44,1.72-1L39.1,18Z"/><path d="M37,26.1a9.82,9.82,0,0,1,1-.05A2.17,2.17,0,0,1,37,24.21a1.36,1.36,0,0,1,.75-1.29A2.88,2.88,0,0,1,39,22.73h.14l2,0h.08a1.4,1.4,0,0,0,.73-.11c.12-.09.15-.17.16-.62h.24l.13,2c-.72-.05-1.1-.07-2-.08H39.23a3.4,3.4,0,0,0-1.22.13.67.67,0,0,0-.49.7,1.21,1.21,0,0,0,.84,1.08,2.82,2.82,0,0,0,1.19.19h1.58c.55,0,.75,0,.86-.15s.1-.16.11-.58h.24l.13,2c-1.37-.06-1.37-.06-2-.06H38.39c-.87,0-1,.1-1,.65h-.23Z"/><path d="M41.78,29.34a2.57,2.57,0,0,1,.71,1.87,2.5,2.5,0,0,1-2.74,2.59,3,3,0,0,1-2-.66,2.66,2.66,0,0,1-.81-2,2.55,2.55,0,0,1,.76-1.88,3,3,0,0,1,2-.69A3.08,3.08,0,0,1,41.78,29.34ZM37.19,31.2c0,.87.78,1.26,2.52,1.26s2.55-.4,2.55-1.27a1,1,0,0,0-.58-.93,4.42,4.42,0,0,0-1.94-.32C38,29.94,37.19,30.34,37.19,31.2Z"/><path d="M38.36,36.42c-.9,0-1,.07-1,.75h-.24V34.46h.24c0,.68.11.75,1,.75h5c.88,0,1-.07,1-.76h.23l.11,2c-.74,0-1.38-.06-2.05-.06H39.51l1.54,1.34a1.08,1.08,0,0,0,.63.31c.27,0,.4-.21.43-.69h.23V40h-.23a2.23,2.23,0,0,0-.26-.84,3.2,3.2,0,0,0-.81-1l-.41-.37-2.39,1.39c-.62.37-.8.58-.9,1h-.22V38.38l.89-.44,1.72-1-.63-.56Z"/><path d="M37.15,45.76c-.07-.59-.12-1.12-.12-1.38s.15-.42.76-.47A2.23,2.23,0,0,1,37,42.2a1.4,1.4,0,0,1,1.47-1.54c.86,0,1.39.53,1.6,1.6a12.16,12.16,0,0,1,.19,1.64h.65c1.06,0,1.37-.18,1.37-.78a.69.69,0,0,0-.34-.67,1.51,1.51,0,0,0-.71-.16c-.36,0-.49-.19-.49-.61s.16-.7.46-.7a1.15,1.15,0,0,1,.93.62,3.06,3.06,0,0,1,.38,1.64,2.13,2.13,0,0,1-.41,1.48,1.58,1.58,0,0,1-1.24.39H38.56c-1.1,0-1.16,0-1.17.68ZM40,43.9c-.11-1.45-.48-2-1.41-2-.71,0-1.18.32-1.18.81a1.09,1.09,0,0,0,.66,1,2.56,2.56,0,0,0,1.16.18Z"/><path d="M42.09,55.7a3.22,3.22,0,0,0,1.44-.53,2.06,2.06,0,0,0,.93-1.68,1.8,1.8,0,0,0-.88-1.55A5,5,0,0,0,41,51.36c-2.22,0-3.59.9-3.59,2.37a2.43,2.43,0,0,0,1,2,3.43,3.43,0,0,0,.82.44l-.16.29a3,3,0,0,1-2.11-3A3.5,3.5,0,0,1,37.9,51a4,4,0,0,1,2.88-1c2.41,0,4,1.38,4,3.52a5.17,5.17,0,0,1-.29,1.66,1.47,1.47,0,0,0-.06.42,1.44,1.44,0,0,0,.13.54H42.09Z"/><path d="M42.47,59.12c-.6,0-1.3-.06-1.94-.06H38.36c-.89,0-1,.07-1,.78h-.24V57.06h.24c0,.71.11.78,1,.78h2.77c.89,0,1-.05,1-.75h.24Zm2.3-.66a.72.72,0,1,1-.72-.72A.72.72,0,0,1,44.77,58.46Z"/><path d="M38.68,62.3a2.76,2.76,0,0,0-.9.1.54.54,0,0,0-.37.49,1.19,1.19,0,0,0,.31.7l-.25.14a2.05,2.05,0,0,1-.5-1.37,1.2,1.2,0,0,1,.55-1.13,3.07,3.07,0,0,1,1.38-.15H42v-.57h.3a1.06,1.06,0,0,0,.53,1,2.71,2.71,0,0,0,1.07.37l0,.5c-.41,0-.72,0-1.63,0v1.21H42V62.3Z"/><path d="M40.79,68a1.82,1.82,0,0,0,.7.17c.41,0,.59-.23.62-.79h.23V69.6h-.23c-.08-.56-.37-.81-1.5-1.26l-4.32-1.7c-1-.41-1.4-.77-1.4-1.39s.23-.73.69-.73.52.14.52.4a2,2,0,0,1-.05.4,1.89,1.89,0,0,0-.06.42c0,.31.13.45.59.64l.4.15,4.18-1.75c.8-.34.91-.43,1-.9h.23v2.67H42.1c0-.43-.12-.6-.39-.6a1.54,1.54,0,0,0-.58.15l-2.7,1Z"/></svg>