<svg xmlns="http://www.w3.org/2000/svg" viewBox="0 0 45 261"><title>phraseImg</title><path d="M28.07,9.4A28.91,28.91,0,0,1,21.74,17,43.82,43.82,0,0,1,13,22.57a4,4,0,0,0-1.47,1.05,1.31,1.31,0,0,1-.9.45c-.93,0-2.82-2.4-2.82-3.6,0-.21,0-.21.18-.72.27-.69.3-1.26.3-4.59s-.12-8.34-.21-9.69C7.94,3.4,7.4,2.68,5.54,2.11A2,2,0,0,1,6.8,1.72,8.23,8.23,0,0,1,10.34,2.8c1.26.63,1.83,1.26,1.83,2a1.59,1.59,0,0,1-.18.75,7.49,7.49,0,0,0-.48,2.1c-.27,2.34-.57,8.25-.57,10.92v1a43.12,43.12,0,0,0,10.14-5,38.68,38.68,0,0,0,6.69-5.43Z"/><path d="M10.25,35.29c3.69,1.47,5,2.55,5,4.14,0,1.14-.72,2.13-1.53,2.13-.45,0-.72-.3-1-1a11.59,11.59,0,0,0-2.67-5Zm3.21,15.9a31.32,31.32,0,0,0,8-9c1.56-2.52,2.79-5.37,2.79-6.45,0-.75-.42-1.23-1.62-1.83a1.25,1.25,0,0,1,.69-.18,6.7,6.7,0,0,1,3.54,1.41c.72.51,1.05,1,1.05,1.41s-.06.45-.45.9a14.1,14.1,0,0,0-1.11,1.77,31.7,31.7,0,0,1-4.44,6.45,22.59,22.59,0,0,1-8.19,5.85ZM15.68,34c3.21,1.14,4.68,2.37,4.68,3.93,0,1.14-.81,2.22-1.65,2.22a.81.81,0,0,1-.72-.48,8.82,8.82,0,0,1-.39-1.32,8.5,8.5,0,0,0-2.13-4.11Z"/><path d="M4.4,63.7a15.82,15.82,0,0,1,5.13,2.88,2.88,2.88,0,0,1,1.17,2.31c0,1.47-.84,2.67-1.86,2.67-.48,0-.75-.3-1-1.14A22.14,22.14,0,0,0,6.5,67.09a10,10,0,0,0-2.28-3.15ZM8.54,83.86A38.9,38.9,0,0,0,19.85,70.63,30.57,30.57,0,0,0,22.25,65a3.61,3.61,0,0,0,.09-.84c0-.84-.63-1.53-2-2.19a2.14,2.14,0,0,1,1-.18A7.53,7.53,0,0,1,25,63.16c1.08.72,1.59,1.32,1.59,2a1.52,1.52,0,0,1-.45,1,12.58,12.58,0,0,0-1.56,2.52,37.33,37.33,0,0,1-5.43,8,28.1,28.1,0,0,1-10.38,7.5ZM11.21,62c4.14,1.62,6,3.15,6,5,0,1.47-1,2.82-2,2.82a.83.83,0,0,1-.78-.54A12.81,12.81,0,0,1,14,67.9,11.94,11.94,0,0,0,11,62.23Z"/><path d="M22.1,106.63c1.14.81,1.68,1.53,1.68,2.19s-.33.87-1,.87a13.23,13.23,0,0,1-1.41-.15,20.62,20.62,0,0,0-2.58-.15A25.48,25.48,0,0,0,9,111.1a2.55,2.55,0,0,1-.72.15c-1.35,0-3.45-2.61-3.45-4.32a4.73,4.73,0,0,1,.09-.69,3.7,3.7,0,0,0,3.18,2,11.72,11.72,0,0,0,1.35-.09c1-.12,2.64-.33,4.77-.57,1.23-.12,2.91-.3,5-.48a95,95,0,0,0,1.26-10.35c0-.42-.18-.54-.69-.54a42.75,42.75,0,0,0-5.49.69,24.75,24.75,0,0,0-4.11,1.14,2.67,2.67,0,0,1-1.17.3c-.75,0-1.65-.69-2.46-1.92a4.28,4.28,0,0,1-.84-2.28,1.9,1.9,0,0,1,.15-.69A4.77,4.77,0,0,0,7.22,95a3.1,3.1,0,0,0,1.92.51,93.64,93.64,0,0,0,9.36-1,4.41,4.41,0,0,0,1.89-.63,1.5,1.5,0,0,1,.75-.21c.54,0,1.2.39,2.43,1.44.93.81,1.41,1.47,1.41,2,0,.33-.09.51-.51.93a5.45,5.45,0,0,0-.75,1.92c-.27,1.14-.42,1.74-1,4Zm.06-17.25a11.11,11.11,0,0,1,3.21,1.44c1.38.93,2,1.8,2,2.76,0,.69-.36,1.17-.9,1.17s-.63-.18-1.05-.87a13.22,13.22,0,0,0-3.54-4ZM25.22,87a10.23,10.23,0,0,1,3.51,1.32c1.2.78,1.74,1.47,1.74,2.31s-.36,1.2-.9,1.2c-.33,0-.54-.18-1-.81A12.66,12.66,0,0,0,25,87.52Z"/><path d="M17.27,137.74c0,6.51-.36,8.07-1.8,8.07a1,1,0,0,1-1-.78c-.39-1-.48-2.28-.48-6.18,0-1.74,0-3.54.09-11V127c0-2.85-.09-3.6-.48-4.26a3,3,0,0,0-1.92-1.26.93.93,0,0,1,.66-.51,2.22,2.22,0,0,1,.54-.09,9.08,9.08,0,0,1,3.39.87c1.2.51,1.68,1,1.68,1.74,0,.33,0,.45-.36,1.05s-.36,1.74-.36,6.78Z"/><path d="M24.29,171.67c.9-.87,1.17-1.14,2-2a31.62,31.62,0,0,1,3,2.19c.09.12.15.18.15.27s-.12.18-.36.18H19a30.67,30.67,0,0,1-4,4.32c4.56-.18,6.63-.3,8.31-.54a19.79,19.79,0,0,0-2.55-2.58l.15-.27c5.19,1.71,6.87,2.79,6.87,4.41,0,1.29-.87,2.61-1.71,2.61-.42,0-.69-.3-1.08-1.32a8.6,8.6,0,0,0-1.05-2,121,121,0,0,1-12.54,2.82c-.15.78-.3,1-.54,1s-.54-.57-1.29-4.23c1.29.09,1.83.12,2.85.12.33,0,.54,0,1.2,0a35.3,35.3,0,0,0,1.41-4.35h-4a3.61,3.61,0,0,1-3.33,2.46c-.3,0-.33-.06-.36-.51,0-1.44-.36-1.92-1.53-2.37v1.89c.06,4.68.06,4.68.09,5.94,0,.72-.39.87-2.1.87-.9,0-1.08-.15-1.11-.81.15-7.35.15-7.35.15-11.16,0-8.79,0-11.64-.18-15.54a22.56,22.56,0,0,1,3.39,1.74H8.51c.6-.72.81-1,1.44-1.68,1.2.87,1.56,1.14,2.67,2,.3.27.39.42.39.57s-.33.42-1.17.6a51.49,51.49,0,0,1-4.5,7.2A12.18,12.18,0,0,1,10,166.36a8.6,8.6,0,0,1,1.38,4.29,5.55,5.55,0,0,1-.12,1Zm-18.42-.24c.93.09,1.47.12,1.8.12.66,0,.87-.51.87-2.28a10.49,10.49,0,0,0-.39-2.7,7,7,0,0,0-1.47-2.91,76.73,76.73,0,0,0,1.92-8.22H5.87Zm2.91-8.13a28.35,28.35,0,0,0,5.28-5.52,21.59,21.59,0,0,0,2.85-5c.93.21,1.65.36,2.1.45,1.95.42,2.25.54,2.25.84s-.3.39-1.08.57A11.49,11.49,0,0,0,24.53,158a16.24,16.24,0,0,0,5.7,1.47v.33a2.94,2.94,0,0,0-1.44,1.38,7,7,0,0,0-.57,1.41c-.09.36-.15.45-.33.45a3.74,3.74,0,0,1-1.26-.57,16.31,16.31,0,0,1-4.5-3.75,17.49,17.49,0,0,1-2.31-3.87,23.68,23.68,0,0,1-5.19,5.37A28.35,28.35,0,0,1,9,163.6Zm10.68,5.16c.69-1.38.87-1.74,1.77-3.9H13.82a11.44,11.44,0,0,0-1.77.12l-.18-.93a13,13,0,0,0,1.92.18h7.32c.78-.69,1-.9,1.8-1.5,1,.66,1.32.87,2.25,1.53.27.21.39.36.39.51s-.3.42-1.23.63c-.57,1.2-.87,1.86-1.62,3.36H24c.75-.84,1-1.08,1.74-1.89,1.23.87,1.59,1.14,2.76,2.07a.92.92,0,0,1,.12.27c0,.12-.12.18-.33.18H14a9.41,9.41,0,0,0-1.92.15l-.18-1a13.6,13.6,0,0,0,2.13.18Zm.12-7.47c.75-.84,1-1.08,1.74-1.89,1.14.87,1.47,1.14,2.55,2.1.12.12.15.18.15.24s-.12.18-.33.18H16.22a11.19,11.19,0,0,0-1.71.12l-.15-.9a10.13,10.13,0,0,0,1.8.15Z"/><path d="M8.63,188.14c.66-.75.9-1,1.62-1.74,1.14.9,1.47,1.17,2.52,2.07.24.24.33.36.33.48s-.18.33-.81.48a61,61,0,0,1-4.77,6.9,9.55,9.55,0,0,1,2.76,2.73,7.6,7.6,0,0,1,1.38,4.41,6.46,6.46,0,0,1-.24,1.86,17,17,0,0,0,2.4-3,17.1,17.1,0,0,0,1.32-2.58H13.67a11.23,11.23,0,0,0-2.31.15l-.18-1.05a12.21,12.21,0,0,0,2.52.27H24.89a28.85,28.85,0,0,1,2-2.22c1.29,1,1.68,1.32,2.91,2.4a.62.62,0,0,1,.15.27c0,.09-.12.18-.3.18H18.86a28.46,28.46,0,0,1-1.8,2.31h8.28c.63-.69.81-.87,1.44-1.5,1,.75,1.35,1,2.34,1.74.27.24.36.39.36.54s-.21.42-1,.87c-.39,4-.6,5.49-1.11,7-.72,2.16-1.44,2.88-3.27,3.27a8,8,0,0,1-1.38.15c-.3,0-.36-.06-.39-.51-.12-1.41-.54-1.8-2.7-2.52l0-.36c1.5.15,2.67.21,3.33.21.9,0,1.2-.24,1.5-1.14a33.65,33.65,0,0,0,1.05-7.08H25a16.83,16.83,0,0,1-2.79,5.07,17.62,17.62,0,0,1-6.09,4.77,25.38,25.38,0,0,1-3.3,1.29l-.18-.33a22.78,22.78,0,0,0,7.2-6.48,20.53,20.53,0,0,0,2.34-4.32H20.51A15.46,15.46,0,0,1,17.3,207a20,20,0,0,1-7.62,4.71l-.18-.3a24,24,0,0,0,5.58-5,15.2,15.2,0,0,0,2.19-3.63h-.78a18,18,0,0,1-5.58,3.72,3.42,3.42,0,0,1-2.4,1.44c-.21,0-.57.06-.66.06-.33,0-.36-.06-.39-.54-.12-1.5-.42-2-1.35-2.13v4.08c0,1.29,0,1.29,0,4,0,.66-.36.78-2.1.84H3.71c-.63,0-.84-.18-.84-.75.18-7.26.18-8.07.18-12.9,0-7.11-.06-11.55-.18-14.19a25.1,25.1,0,0,1,3.45,1.83ZM6.08,204.82c.63,0,1.29.06,1.62.06,1,0,1.23-.54,1.23-2.88a9.26,9.26,0,0,0-.57-3.12,8.33,8.33,0,0,0-1.53-2.49c.78-2.46,1.23-4.2,2-7.62H6.08Zm10.56-7.59a.43.43,0,0,1-.15.39,5.14,5.14,0,0,1-2,.27c-.81,0-1-.15-1-.69.09-1.92.09-2.4.09-5.13,0-3.9,0-4.17-.12-5.76,1.62.75,2.1,1,3.6,1.83h5.94c.66-.81.87-1,1.56-1.83,1.14.75,1.5,1,2.55,1.74.27.21.36.36.36.51s-.18.39-1,.87c0,3.72,0,6.21.06,7.44a1.11,1.11,0,0,1-.06.42c-.15.24-.87.36-2,.36-.93,0-1.08-.09-1.11-.54v-.6H16.64Zm6.63-8.46H16.64v3.09h6.63Zm-6.63,3.72v3.39h6.63v-3.39Z"/><path d="M9.5,225.07a14,14,0,0,1,1.41-1.62c1.08.75,1.38,1,2.28,1.68.18.18.24.27.24.39s-.06.3-.9.84v2.91c.06,2.91.06,2.91.06,3.6-.06.54-.3.6-2.1.6-.78,0-.9-.09-.9-.57v-.78H5.93v4.38H9.44L11,234.82c1,.75,1.35,1,2.25,1.68a.67.67,0,0,1,.3.51c0,.21,0,.21-.9.84v2.79l0,5.19c0,.6-.36.69-2.25.69-.63,0-.78-.09-.81-.48v-1.35H5.93v1.74c0,.33-.12.48-.36.54a9.3,9.3,0,0,1-1.89.18c-.63,0-.84-.12-.87-.57C3,237,3,237,3,230.89q0-1.57-.18-7.65A32.5,32.5,0,0,1,6,225a22.31,22.31,0,0,0,.75-5c4.08.69,4.53.78,4.53,1.17a.31.31,0,0,1-.12.24,7.31,7.31,0,0,1-1.26.48c-.51.63-.51.63-2.73,3.15Zm.09,6.42V225.7H5.93v5.79ZM5.93,244.06H9.59v-6.93H5.93Zm16.74-16.41h2.22c.72-.75,1-1,1.74-1.74a27.86,27.86,0,0,1,2.46,1.89q.27.22.27.36c0,.3-.27.54-1,1v7.77l0,2.94v1.68c0,1.35-.33,2-1.35,2.43a5.44,5.44,0,0,1-2,.45c-.3,0-.39-.09-.42-.48-.12-1.74-.45-2.22-1.86-2.67,0,4.14,0,4.14.09,5.67,0,.42-.15.57-.48.69a6.12,6.12,0,0,1-1.74.18c-.81,0-1-.09-1-.6.06-2.64.06-2.64.12-12.33v-6.57H17.42v7.14c0,2.55,0,3.15.09,8,0,.33-.12.51-.3.6a8.32,8.32,0,0,1-2,.18c-.72,0-.87-.09-.87-.66.12-3.87.15-5.49.15-8,0-3.93-.09-8.37-.18-9.69,1.44.75,1.89,1,3.27,1.77h2.1V223H15.14a7.21,7.21,0,0,0-1.56.18l-.3-1a12.54,12.54,0,0,0,1.86.21h9.42c.9-1.05,1.17-1.38,2.1-2.4,1.44,1.08,1.89,1.44,3.24,2.61.06.09.12.15.12.18a.26.26,0,0,1-.24.24H22.67Zm0,7c0,2.49,0,3.45,0,6.15.78.09.78.09,2.07.15.39-.09.45-.18.45-.51V228.28H22.67Z"/><path d="M37.38,3.61c0,.86.13.95,1,.95H43.3c.91,0,1-.08,1-.91h.26V6.77h-.26c0-.83-.13-.91-1-.91H37.41v.92a2,2,0,0,0,.77,1.76A3.37,3.37,0,0,0,39.51,9l0,.35-2.35-.23V3.61Z"/><path d="M39.94,11.18a3.91,3.91,0,0,0-1.59.26,1.44,1.44,0,0,0-1,1.36,1.86,1.86,0,0,0,1.14,1.65l-.16.25A2.26,2.26,0,0,1,37,12.5a2.5,2.5,0,0,1,2.74-2.61,2.49,2.49,0,0,1,2.78,2.51,2,2,0,0,1-1.32,2.07,3.66,3.66,0,0,1-1.23.18Zm.29,2.22a3.9,3.9,0,0,0,1.25-.17c.53-.19.78-.47.78-.86s-.3-.76-.88-1a4.23,4.23,0,0,0-1.15-.21Z"/><path d="M38.68,17.24a2.76,2.76,0,0,0-.9.1.54.54,0,0,0-.37.49,1.19,1.19,0,0,0,.31.7l-.25.14A2.05,2.05,0,0,1,37,17.3a1.2,1.2,0,0,1,.55-1.13A3.07,3.07,0,0,1,38.9,16H42v-.57h.3a1.06,1.06,0,0,0,.53.95,2.71,2.71,0,0,0,1.07.37l0,.5c-.41,0-.72,0-1.63,0v1.21H42V17.24Z"/><path d="M44.6,20.37l-2.54-.3v-.6l2.54-.31Z"/><path d="M38.88,21.39v.36a2.35,2.35,0,0,0-1.05.3,1.24,1.24,0,0,0-.63,1.12c0,.61.32,1,.87,1s.71-.26,1.25-1.42A2.86,2.86,0,0,1,40,21.65a1.23,1.23,0,0,1,.9-.35c1,0,1.59.72,1.59,1.85a4.75,4.75,0,0,1-.08.71,2.26,2.26,0,0,0-.06.44,1.31,1.31,0,0,0,.1.48l-1.75-.09v-.37c1-.07,1.56-.49,1.56-1.21a.81.81,0,0,0-.83-.89.7.7,0,0,0-.61.31,4.39,4.39,0,0,0-.58,1.12c-.47,1-.86,1.35-1.61,1.35A1.6,1.6,0,0,1,37,23.2a5.2,5.2,0,0,1,.12-1,2.19,2.19,0,0,0,0-.36,2.12,2.12,0,0,0-.06-.51Z"/><path d="M40.61,36.48h-.26c0-.36-.05-.52-.16-.63s-.3-.15-.89-.15h-.85c-.52,0-.68,0-1,0a5.09,5.09,0,0,0-.22-1.18A5.52,5.52,0,0,1,37,32.9c0-2.18,1.4-3.48,3.77-3.48s4,1.4,4,3.57a5.16,5.16,0,0,1-.24,1.54,1.73,1.73,0,0,0,0,.45,1.29,1.29,0,0,0,.13.59H42.27V35.2a3,3,0,0,0,1.36-.5,2,2,0,0,0,.85-1.63,1.84,1.84,0,0,0-1.12-1.74,5.66,5.66,0,0,0-2.43-.47,4.77,4.77,0,0,0-3.18.93,1.77,1.77,0,0,0-.5,1.27,2.58,2.58,0,0,0,.21,1,1,1,0,0,0,.25.41h1.71c.82,0,.91-.09.94-.92h.26Z"/><path d="M41.78,37.9a2.57,2.57,0,0,1,.71,1.87,2.5,2.5,0,0,1-2.74,2.59,3,3,0,0,1-2-.66,2.66,2.66,0,0,1-.81-2,2.55,2.55,0,0,1,.76-1.88,3,3,0,0,1,2-.69A3.08,3.08,0,0,1,41.78,37.9Zm-4.59,1.86c0,.87.78,1.26,2.52,1.26s2.55-.4,2.55-1.27a1,1,0,0,0-.58-.93,4.42,4.42,0,0,0-1.94-.32C38,38.5,37.19,38.9,37.19,39.76Z"/><path d="M43.57,47.51a3.35,3.35,0,0,1,1.18,2.68,3.32,3.32,0,0,1-1.18,2.67,4.76,4.76,0,0,1-5.43,0,3.62,3.62,0,0,1,0-5.35,4.43,4.43,0,0,1,2.72-.85A4.38,4.38,0,0,1,43.57,47.51Zm-5.4,1.12a1.76,1.76,0,0,0,0,3.11,5.72,5.72,0,0,0,2.69.51,5.71,5.71,0,0,0,2.68-.51,1.62,1.62,0,0,0,.93-1.55,1.64,1.64,0,0,0-.93-1.56,5.76,5.76,0,0,0-2.68-.51A5.78,5.78,0,0,0,38.17,48.63Z"/><path d="M41.48,56.52a1.91,1.91,0,0,1,1,1.78,1.42,1.42,0,0,1-.68,1.36,2.22,2.22,0,0,1-1.23.25H38.36c-.89,0-1,.07-1,.76h-.24V58h.24c0,.67.12.75,1,.75h2.16c1.08,0,1.53-.26,1.53-.88a1.18,1.18,0,0,0-.66-1,2.32,2.32,0,0,0-1-.27h-2c-.9,0-1,.07-1,.75h-.24V54.54h.24c0,.69.11.76,1,.76h2.77c.85,0,1-.08,1-.74h.24l.13,1.95Z"/><path d="M41.48,63.15a2,2,0,0,1,1,1.74,1.3,1.3,0,0,1-1.05,1.42A1.87,1.87,0,0,1,42.49,68a1.51,1.51,0,0,1-.58,1.3,2.22,2.22,0,0,1-1.35.29h-2.2c-.89,0-1,.08-1,.76h-.24v-2.7h.24c0,.66.11.73,1,.73h2.19c1.06,0,1.48-.24,1.48-.83a1,1,0,0,0-.55-.89,1.77,1.77,0,0,0-1-.31H38.36c-.89,0-1,.07-1,.74h-.24V64.44h.24c0,.66.11.73,1,.73h2.2c1,0,1.47-.26,1.47-.81s-.74-1.21-1.64-1.21h-2c-.9,0-1,.07-1,.73h-.24V61.17h.24c0,.69.1.76,1,.76h2.78c.84,0,1-.08,1-.74h.24l.13,2Z"/><path d="M40.79,74.85a1.82,1.82,0,0,0,.7.17c.41,0,.59-.23.62-.79h.23v2.18h-.23c-.08-.56-.37-.81-1.5-1.26l-4.32-1.7c-1-.41-1.4-.77-1.4-1.39s.23-.73.69-.73.52.14.52.4a2,2,0,0,1-.05.4,1.89,1.89,0,0,0-.06.42c0,.31.13.45.59.64l.4.15,4.18-1.75c.8-.34.91-.43,1-.9h.23v2.67H42.1c0-.43-.12-.6-.39-.6a1.54,1.54,0,0,0-.58.15l-2.7,1Z"/><path d="M41.78,77.67a2.57,2.57,0,0,1,.71,1.87,2.5,2.5,0,0,1-2.74,2.59,3,3,0,0,1-2-.66,2.66,2.66,0,0,1-.81-2,2.55,2.55,0,0,1,.76-1.88,3,3,0,0,1,2-.69A3.08,3.08,0,0,1,41.78,77.67Zm-4.59,1.86c0,.87.78,1.26,2.52,1.26s2.55-.4,2.55-1.27a1,1,0,0,0-.58-.93,4.42,4.42,0,0,0-1.94-.32C38,78.27,37.19,78.67,37.19,79.53Z"/><path d="M42.47,84.89c-.73,0-1.36-.06-2-.06H37.75A6.47,6.47,0,0,1,36,84.72,1.73,1.73,0,0,1,34.93,83c0-.8.34-1.39.79-1.39s.56.34.56.78a.43.43,0,0,1-.17.4c-.08,0-.08,0-.48.09s-.44.15-.44.35.24.43.75.43h5.19c.9,0,1,0,1-.78h.24Zm2.29-.66a.7.7,0,0,1-.71.72.72.72,0,1,1,.71-.72Z"/><path d="M42.47,88.14c-.6,0-1.3-.06-1.94-.06H38.36c-.89,0-1,.07-1,.78h-.24V86.08h.24c0,.71.11.78,1,.78h2.77c.89,0,1,0,1-.75h.24Zm2.29-.66a.72.72,0,1,1-.71-.72A.71.71,0,0,1,44.76,87.48Z"/></svg>