<?xml version="1.0" encoding="utf-8" standalone="no"?>
<!DOCTYPE svg PUBLIC "-//W3C//DTD SVG 1.1//EN"
  "http://www.w3.org/Graphics/SVG/1.1/DTD/svg11.dtd">
<!-- Created with matplotlib (https://matplotlib.org/) -->
<svg height="345.6pt" version="1.1" viewBox="0 0 460.8 345.6" width="460.8pt" xmlns="http://www.w3.org/2000/svg" xmlns:xlink="http://www.w3.org/1999/xlink">
 <defs>
  <style type="text/css">
*{stroke-linecap:butt;stroke-linejoin:round;}
  </style>
 </defs>
 <g id="figure_1">
  <g id="patch_1">
   <path d="M 0 345.6 
L 460.8 345.6 
L 460.8 0 
L 0 0 
z
" style="fill:none;"/>
  </g>
  <g id="axes_1">
   <g id="patch_2">
    <path d="M 23.04 328.32 
L 437.76 328.32 
L 437.76 17.28 
L 23.04 17.28 
z
" style="fill:none;"/>
   </g>
   <g id="PolyCollection_1">
    <path clip-path="url(#p72d06d3516)" d="M 23.04 561.6 
L 23.04 85.397192 
L 41.071304 90.160067 
L 59.102609 59.302004 
L 77.133913 35.755961 
L 95.165217 53.197475 
L 113.196522 8.252036 
L 131.227826 37.097616 
L 149.25913 48.501683 
L 167.290435 94.117949 
L 185.321739 119.609391 
L 203.353043 56.618695 
L 221.384348 71.980643 
L 239.415652 104.851188 
L 257.446957 75.33478 
L 275.478261 35.755961 
L 293.509565 78.01809 
L 311.54087 65.943196 
L 329.572174 61.247404 
L 347.603478 131.684285 
L 365.634783 124.976011 
L 383.666087 126.317666 
L 401.697391 120.951046 
L 419.728696 108.205325 
L 437.76 113.639027 
L 437.76 561.6 
L 437.76 561.6 
L 419.728696 561.6 
L 401.697391 561.6 
L 383.666087 561.6 
L 365.634783 561.6 
L 347.603478 561.6 
L 329.572174 561.6 
L 311.54087 561.6 
L 293.509565 561.6 
L 275.478261 561.6 
L 257.446957 561.6 
L 239.415652 561.6 
L 221.384348 561.6 
L 203.353043 561.6 
L 185.321739 561.6 
L 167.290435 561.6 
L 149.25913 561.6 
L 131.227826 561.6 
L 113.196522 561.6 
L 95.165217 561.6 
L 77.133913 561.6 
L 59.102609 561.6 
L 41.071304 561.6 
L 23.04 561.6 
z
" style="fill:#f84646;fill-opacity:0.33;stroke:#f84646;stroke-opacity:0.33;"/>
   </g>
   <g id="PolyCollection_2">
    <path clip-path="url(#p72d06d3516)" d="M 23.04 561.6 
L 23.04 86.697652 
L 41.071304 75.213051 
L 59.102609 84.400732 
L 77.133913 98.182253 
L 95.165217 82.869451 
L 113.196522 100.479173 
L 131.227826 98.947893 
L 149.25913 69.930134 
L 167.290435 33.868487 
L 185.321739 22.383886 
L 203.353043 69.930134 
L 221.384348 53.009489 
L 239.415652 111.198134 
L 257.446957 69.930134 
L 275.478261 39.304531 
L 293.509565 59.211173 
L 311.54087 47.650008 
L 329.572174 73.681771 
L 347.603478 59.134609 
L 365.634783 52.243849 
L 383.666087 111.963774 
L 401.697391 64.49409 
L 419.728696 65.25973 
L 437.76 83.635092 
L 437.76 561.6 
L 437.76 561.6 
L 419.728696 561.6 
L 401.697391 561.6 
L 383.666087 561.6 
L 365.634783 561.6 
L 347.603478 561.6 
L 329.572174 561.6 
L 311.54087 561.6 
L 293.509565 561.6 
L 275.478261 561.6 
L 257.446957 561.6 
L 239.415652 561.6 
L 221.384348 561.6 
L 203.353043 561.6 
L 185.321739 561.6 
L 167.290435 561.6 
L 149.25913 561.6 
L 131.227826 561.6 
L 113.196522 561.6 
L 95.165217 561.6 
L 77.133913 561.6 
L 59.102609 561.6 
L 41.071304 561.6 
L 23.04 561.6 
z
" style="fill:#5d99fa;fill-opacity:0.33;stroke:#5d99fa;stroke-opacity:0.33;"/>
   </g>
   <g id="PolyCollection_3">
    <path clip-path="url(#p72d06d3516)" d="M 23.04 561.6 
L 23.04 182.567344 
L 41.071304 217.669907 
L 59.102609 228.470696 
L 77.133913 275.531275 
L 95.165217 245.443364 
L 113.196522 267.816426 
L 131.227826 241.200197 
L 149.25913 236.95703 
L 167.290435 257.787123 
L 185.321739 261.258805 
L 203.353043 315.64849 
L 221.384348 280.545927 
L 239.415652 258.172865 
L 257.446957 250.458016 
L 275.478261 276.30276 
L 293.509565 218.441392 
L 311.54087 249.686531 
L 329.572174 206.483376 
L 347.603478 181.024375 
L 365.634783 221.913074 
L 383.666087 165.594676 
L 401.697391 189.896451 
L 419.728696 189.896451 
L 437.76 167.909131 
L 437.76 561.6 
L 437.76 561.6 
L 419.728696 561.6 
L 401.697391 561.6 
L 383.666087 561.6 
L 365.634783 561.6 
L 347.603478 561.6 
L 329.572174 561.6 
L 311.54087 561.6 
L 293.509565 561.6 
L 275.478261 561.6 
L 257.446957 561.6 
L 239.415652 561.6 
L 221.384348 561.6 
L 203.353043 561.6 
L 185.321739 561.6 
L 167.290435 561.6 
L 149.25913 561.6 
L 131.227826 561.6 
L 113.196522 561.6 
L 95.165217 561.6 
L 77.133913 561.6 
L 59.102609 561.6 
L 41.071304 561.6 
L 23.04 561.6 
z
" style="fill:#f8b840;fill-opacity:0.33;stroke:#f8b840;stroke-opacity:0.33;"/>
   </g>
   <g id="matplotlib.axis_1">
    <g id="xtick_1">
     <g id="line2d_1">
      <defs>
       <path d="M 0 0 
L 0 3.5 
" id="m620a1dc310" style="stroke:#000000;stroke-width:0.8;"/>
      </defs>
      <g>
       <use style="stroke:#000000;stroke-width:0.8;" x="23.04" xlink:href="#m620a1dc310" y="328.32"/>
      </g>
     </g>
    </g>
    <g id="xtick_2">
     <g id="line2d_2">
      <g>
       <use style="stroke:#000000;stroke-width:0.8;" x="113.196522" xlink:href="#m620a1dc310" y="328.32"/>
      </g>
     </g>
    </g>
    <g id="xtick_3">
     <g id="line2d_3">
      <g>
       <use style="stroke:#000000;stroke-width:0.8;" x="203.353043" xlink:href="#m620a1dc310" y="328.32"/>
      </g>
     </g>
    </g>
    <g id="xtick_4">
     <g id="line2d_4">
      <g>
       <use style="stroke:#000000;stroke-width:0.8;" x="293.509565" xlink:href="#m620a1dc310" y="328.32"/>
      </g>
     </g>
    </g>
    <g id="xtick_5">
     <g id="line2d_5">
      <g>
       <use style="stroke:#000000;stroke-width:0.8;" x="383.666087" xlink:href="#m620a1dc310" y="328.32"/>
      </g>
     </g>
    </g>
   </g>
   <g id="matplotlib.axis_2">
    <g id="ytick_1">
     <g id="line2d_6">
      <defs>
       <path d="M 0 0 
L -3.5 0 
" id="m87334938bb" style="stroke:#000000;stroke-width:0.8;"/>
      </defs>
      <g>
       <use style="stroke:#000000;stroke-width:0.8;" x="23.04" xlink:href="#m87334938bb" y="328.32"/>
      </g>
     </g>
    </g>
    <g id="ytick_2">
     <g id="line2d_7">
      <g>
       <use style="stroke:#000000;stroke-width:0.8;" x="23.04" xlink:href="#m87334938bb" y="289.44"/>
      </g>
     </g>
    </g>
    <g id="ytick_3">
     <g id="line2d_8">
      <g>
       <use style="stroke:#000000;stroke-width:0.8;" x="23.04" xlink:href="#m87334938bb" y="250.56"/>
      </g>
     </g>
    </g>
    <g id="ytick_4">
     <g id="line2d_9">
      <g>
       <use style="stroke:#000000;stroke-width:0.8;" x="23.04" xlink:href="#m87334938bb" y="211.68"/>
      </g>
     </g>
    </g>
    <g id="ytick_5">
     <g id="line2d_10">
      <g>
       <use style="stroke:#000000;stroke-width:0.8;" x="23.04" xlink:href="#m87334938bb" y="172.8"/>
      </g>
     </g>
    </g>
    <g id="ytick_6">
     <g id="line2d_11">
      <g>
       <use style="stroke:#000000;stroke-width:0.8;" x="23.04" xlink:href="#m87334938bb" y="133.92"/>
      </g>
     </g>
    </g>
    <g id="ytick_7">
     <g id="line2d_12">
      <g>
       <use style="stroke:#000000;stroke-width:0.8;" x="23.04" xlink:href="#m87334938bb" y="95.04"/>
      </g>
     </g>
    </g>
    <g id="ytick_8">
     <g id="line2d_13">
      <g>
       <use style="stroke:#000000;stroke-width:0.8;" x="23.04" xlink:href="#m87334938bb" y="56.16"/>
      </g>
     </g>
    </g>
    <g id="ytick_9">
     <g id="line2d_14">
      <g>
       <use style="stroke:#000000;stroke-width:0.8;" x="23.04" xlink:href="#m87334938bb" y="17.28"/>
      </g>
     </g>
    </g>
   </g>
   <g id="patch_3">
    <path d="M 23.04 328.32 
L 23.04 17.28 
" style="fill:none;stroke:#000000;stroke-linecap:square;stroke-linejoin:miter;stroke-width:0.8;"/>
   </g>
   <g id="patch_4">
    <path d="M 23.04 328.32 
L 437.76 328.32 
" style="fill:none;stroke:#000000;stroke-linecap:square;stroke-linejoin:miter;stroke-width:0.8;"/>
   </g>
  </g>
 </g>
 <defs>
  <clipPath id="p72d06d3516">
   <rect height="311.04" width="414.72" x="23.04" y="17.28"/>
  </clipPath>
 </defs>
</svg>
