<?xml version="1.0" encoding="utf-8" standalone="no"?>
<!DOCTYPE svg PUBLIC "-//W3C//DTD SVG 1.1//EN"
  "http://www.w3.org/Graphics/SVG/1.1/DTD/svg11.dtd">
<!-- Created with matplotlib (https://matplotlib.org/) -->
<svg height="345.6pt" version="1.1" viewBox="0 0 460.8 345.6" width="460.8pt" xmlns="http://www.w3.org/2000/svg" xmlns:xlink="http://www.w3.org/1999/xlink">
 <defs>
  <style type="text/css">
*{stroke-linecap:butt;stroke-linejoin:round;}
  </style>
 </defs>
 <g id="figure_1">
  <g id="patch_1">
   <path d="M 0 345.6 
L 460.8 345.6 
L 460.8 0 
L 0 0 
z
" style="fill:none;"/>
  </g>
  <g id="axes_1">
   <g id="patch_2">
    <path d="M 23.04 328.32 
L 437.76 328.32 
L 437.76 17.28 
L 23.04 17.28 
z
" style="fill:none;"/>
   </g>
   <g id="PolyCollection_1">
    <path clip-path="url(#pb7498f0af0)" d="M 23.04 561.6 
L 23.04 267.191428 
L 41.071304 158.517383 
L 59.102609 249.749915 
L 77.133913 186.021308 
L 95.165217 190.784183 
L 113.196522 169.250622 
L 131.227826 177.971379 
L 149.25913 175.288069 
L 167.290435 149.125799 
L 185.321739 137.721732 
L 203.353043 210.841923 
L 221.384348 196.08372 
L 239.415652 259.812326 
L 257.446957 216.87937 
L 275.478261 148.052475 
L 293.509565 239.016676 
L 311.54087 274.637613 
L 329.572174 201.450339 
L 347.603478 220.233507 
L 365.634783 228.954264 
L 383.666087 147.784144 
L 401.697391 214.866888 
L 419.728696 261.153981 
L 437.76 246.395778 
L 437.76 561.6 
L 437.76 561.6 
L 419.728696 561.6 
L 401.697391 561.6 
L 383.666087 561.6 
L 365.634783 561.6 
L 347.603478 561.6 
L 329.572174 561.6 
L 311.54087 561.6 
L 293.509565 561.6 
L 275.478261 561.6 
L 257.446957 561.6 
L 239.415652 561.6 
L 221.384348 561.6 
L 203.353043 561.6 
L 185.321739 561.6 
L 167.290435 561.6 
L 149.25913 561.6 
L 131.227826 561.6 
L 113.196522 561.6 
L 95.165217 561.6 
L 77.133913 561.6 
L 59.102609 561.6 
L 41.071304 561.6 
L 23.04 561.6 
z
" style="fill:#f84646;fill-opacity:0.33;stroke:#f84646;stroke-opacity:0.33;"/>
   </g>
   <g id="PolyCollection_2">
    <path clip-path="url(#pb7498f0af0)" d="M 23.04 561.6 
L 23.04 142.589377 
L 41.071304 104.307374 
L 59.102609 116.634179 
L 77.133913 111.198134 
L 95.165217 161.730379 
L 113.196522 59.900249 
L 131.227826 196.184182 
L 149.25913 259.732309 
L 167.290435 201.620227 
L 185.321739 180.105741 
L 203.353043 147.183218 
L 221.384348 177.043181 
L 239.415652 251.310268 
L 257.446957 154.839618 
L 275.478261 163.567915 
L 293.509565 119.696739 
L 311.54087 104.307374 
L 329.572174 122.759299 
L 347.603478 212.339188 
L 365.634783 226.809785 
L 383.666087 166.32422 
L 401.697391 200.778023 
L 419.728696 254.372828 
L 437.76 150.245778 
L 437.76 561.6 
L 437.76 561.6 
L 419.728696 561.6 
L 401.697391 561.6 
L 383.666087 561.6 
L 365.634783 561.6 
L 347.603478 561.6 
L 329.572174 561.6 
L 311.54087 561.6 
L 293.509565 561.6 
L 275.478261 561.6 
L 257.446957 561.6 
L 239.415652 561.6 
L 221.384348 561.6 
L 203.353043 561.6 
L 185.321739 561.6 
L 167.290435 561.6 
L 149.25913 561.6 
L 131.227826 561.6 
L 113.196522 561.6 
L 95.165217 561.6 
L 77.133913 561.6 
L 59.102609 561.6 
L 41.071304 561.6 
L 23.04 561.6 
z
" style="fill:#5d99fa;fill-opacity:0.33;stroke:#5d99fa;stroke-opacity:0.33;"/>
   </g>
   <g id="PolyCollection_3">
    <path clip-path="url(#pb7498f0af0)" d="M 23.04 561.6 
L 23.04 121.234294 
L 41.071304 120.46281 
L 59.102609 200.311497 
L 77.133913 318.348688 
L 95.165217 391.254011 
L 113.196522 240.814455 
L 131.227826 174.466753 
L 149.25913 88.446186 
L 167.290435 93.460838 
L 185.321739 143.221614 
L 203.353043 119.691325 
L 221.384348 129.720628 
L 239.415652 192.982391 
L 257.446957 150.164978 
L 275.478261 164.707469 
L 293.509565 95.775293 
L 311.54087 163.280222 
L 329.572174 121.620037 
L 347.603478 60.325561 
L 365.634783 68.811895 
L 383.666087 102.371489 
L 401.697391 2.425619 
L 419.728696 82.274307 
L 437.76 131.649341 
L 437.76 561.6 
L 437.76 561.6 
L 419.728696 561.6 
L 401.697391 561.6 
L 383.666087 561.6 
L 365.634783 561.6 
L 347.603478 561.6 
L 329.572174 561.6 
L 311.54087 561.6 
L 293.509565 561.6 
L 275.478261 561.6 
L 257.446957 561.6 
L 239.415652 561.6 
L 221.384348 561.6 
L 203.353043 561.6 
L 185.321739 561.6 
L 167.290435 561.6 
L 149.25913 561.6 
L 131.227826 561.6 
L 113.196522 561.6 
L 95.165217 561.6 
L 77.133913 561.6 
L 59.102609 561.6 
L 41.071304 561.6 
L 23.04 561.6 
z
" style="fill:#f8b840;fill-opacity:0.33;stroke:#f8b840;stroke-opacity:0.33;"/>
   </g>
   <g id="matplotlib.axis_1">
    <g id="xtick_1">
     <g id="line2d_1">
      <defs>
       <path d="M 0 0 
L 0 3.5 
" id="m370764090a" style="stroke:#000000;stroke-width:0.8;"/>
      </defs>
      <g>
       <use style="stroke:#000000;stroke-width:0.8;" x="23.04" xlink:href="#m370764090a" y="328.32"/>
      </g>
     </g>
    </g>
    <g id="xtick_2">
     <g id="line2d_2">
      <g>
       <use style="stroke:#000000;stroke-width:0.8;" x="113.196522" xlink:href="#m370764090a" y="328.32"/>
      </g>
     </g>
    </g>
    <g id="xtick_3">
     <g id="line2d_3">
      <g>
       <use style="stroke:#000000;stroke-width:0.8;" x="203.353043" xlink:href="#m370764090a" y="328.32"/>
      </g>
     </g>
    </g>
    <g id="xtick_4">
     <g id="line2d_4">
      <g>
       <use style="stroke:#000000;stroke-width:0.8;" x="293.509565" xlink:href="#m370764090a" y="328.32"/>
      </g>
     </g>
    </g>
    <g id="xtick_5">
     <g id="line2d_5">
      <g>
       <use style="stroke:#000000;stroke-width:0.8;" x="383.666087" xlink:href="#m370764090a" y="328.32"/>
      </g>
     </g>
    </g>
   </g>
   <g id="matplotlib.axis_2">
    <g id="ytick_1">
     <g id="line2d_6">
      <defs>
       <path d="M 0 0 
L -3.5 0 
" id="mb4f57cfb03" style="stroke:#000000;stroke-width:0.8;"/>
      </defs>
      <g>
       <use style="stroke:#000000;stroke-width:0.8;" x="23.04" xlink:href="#mb4f57cfb03" y="328.32"/>
      </g>
     </g>
    </g>
    <g id="ytick_2">
     <g id="line2d_7">
      <g>
       <use style="stroke:#000000;stroke-width:0.8;" x="23.04" xlink:href="#mb4f57cfb03" y="289.44"/>
      </g>
     </g>
    </g>
    <g id="ytick_3">
     <g id="line2d_8">
      <g>
       <use style="stroke:#000000;stroke-width:0.8;" x="23.04" xlink:href="#mb4f57cfb03" y="250.56"/>
      </g>
     </g>
    </g>
    <g id="ytick_4">
     <g id="line2d_9">
      <g>
       <use style="stroke:#000000;stroke-width:0.8;" x="23.04" xlink:href="#mb4f57cfb03" y="211.68"/>
      </g>
     </g>
    </g>
    <g id="ytick_5">
     <g id="line2d_10">
      <g>
       <use style="stroke:#000000;stroke-width:0.8;" x="23.04" xlink:href="#mb4f57cfb03" y="172.8"/>
      </g>
     </g>
    </g>
    <g id="ytick_6">
     <g id="line2d_11">
      <g>
       <use style="stroke:#000000;stroke-width:0.8;" x="23.04" xlink:href="#mb4f57cfb03" y="133.92"/>
      </g>
     </g>
    </g>
    <g id="ytick_7">
     <g id="line2d_12">
      <g>
       <use style="stroke:#000000;stroke-width:0.8;" x="23.04" xlink:href="#mb4f57cfb03" y="95.04"/>
      </g>
     </g>
    </g>
    <g id="ytick_8">
     <g id="line2d_13">
      <g>
       <use style="stroke:#000000;stroke-width:0.8;" x="23.04" xlink:href="#mb4f57cfb03" y="56.16"/>
      </g>
     </g>
    </g>
    <g id="ytick_9">
     <g id="line2d_14">
      <g>
       <use style="stroke:#000000;stroke-width:0.8;" x="23.04" xlink:href="#mb4f57cfb03" y="17.28"/>
      </g>
     </g>
    </g>
   </g>
   <g id="patch_3">
    <path d="M 23.04 328.32 
L 23.04 17.28 
" style="fill:none;stroke:#000000;stroke-linecap:square;stroke-linejoin:miter;stroke-width:0.8;"/>
   </g>
   <g id="patch_4">
    <path d="M 23.04 328.32 
L 437.76 328.32 
" style="fill:none;stroke:#000000;stroke-linecap:square;stroke-linejoin:miter;stroke-width:0.8;"/>
   </g>
  </g>
 </g>
 <defs>
  <clipPath id="pb7498f0af0">
   <rect height="311.04" width="414.72" x="23.04" y="17.28"/>
  </clipPath>
 </defs>
</svg>
