<?xml version="1.0" encoding="utf-8" standalone="no"?>
<!DOCTYPE svg PUBLIC "-//W3C//DTD SVG 1.1//EN"
  "http://www.w3.org/Graphics/SVG/1.1/DTD/svg11.dtd">
<!-- Created with matplotlib (https://matplotlib.org/) -->
<svg height="345.6pt" version="1.1" viewBox="0 0 460.8 345.6" width="460.8pt" xmlns="http://www.w3.org/2000/svg" xmlns:xlink="http://www.w3.org/1999/xlink">
 <defs>
  <style type="text/css">
*{stroke-linecap:butt;stroke-linejoin:round;}
  </style>
 </defs>
 <g id="figure_1">
  <g id="patch_1">
   <path d="M 0 345.6 
L 460.8 345.6 
L 460.8 0 
L 0 0 
z
" style="fill:none;"/>
  </g>
  <g id="axes_1">
   <g id="patch_2">
    <path d="M 23.04 328.32 
L 437.76 328.32 
L 437.76 17.28 
L 23.04 17.28 
z
" style="fill:none;"/>
   </g>
   <g id="PolyCollection_1">
    <path clip-path="url(#p9e09bf5909)" d="M 23.04 561.6 
L 23.04 279.266322 
L 41.071304 171.933932 
L 59.102609 154.492418 
L 77.133913 72.651471 
L 95.165217 151.809109 
L 113.196522 129.000976 
L 131.227826 192.125838 
L 149.25913 206.146131 
L 167.290435 226.270954 
L 185.321739 110.955717 
L 203.353043 210.841923 
L 221.384348 248.207012 
L 239.415652 213.525233 
L 257.446957 248.40826 
L 275.478261 266.587684 
L 293.509565 84.055537 
L 311.54087 88.080502 
L 329.572174 151.205364 
L 347.603478 103.509533 
L 365.634783 124.976011 
L 383.666087 146.442489 
L 401.697391 145.100834 
L 419.728696 147.784144 
L 437.76 120.951046 
L 437.76 561.6 
L 437.76 561.6 
L 419.728696 561.6 
L 401.697391 561.6 
L 383.666087 561.6 
L 365.634783 561.6 
L 347.603478 561.6 
L 329.572174 561.6 
L 311.54087 561.6 
L 293.509565 561.6 
L 275.478261 561.6 
L 257.446957 561.6 
L 239.415652 561.6 
L 221.384348 561.6 
L 203.353043 561.6 
L 185.321739 561.6 
L 167.290435 561.6 
L 149.25913 561.6 
L 131.227826 561.6 
L 113.196522 561.6 
L 95.165217 561.6 
L 77.133913 561.6 
L 59.102609 561.6 
L 41.071304 561.6 
L 23.04 561.6 
z
" style="fill:#f84646;fill-opacity:0.33;stroke:#f84646;stroke-opacity:0.33;"/>
   </g>
   <g id="PolyCollection_2">
    <path clip-path="url(#p9e09bf5909)" d="M 23.04 561.6 
L 23.04 240.591307 
L 41.071304 119.696739 
L 59.102609 118.854535 
L 77.133913 165.558579 
L 95.165217 199.246743 
L 113.196522 205.371863 
L 131.227826 251.310268 
L 149.25913 195.495106 
L 167.290435 193.963826 
L 185.321739 179.340101 
L 203.353043 161.730379 
L 221.384348 134.932976 
L 239.415652 213.028264 
L 257.446957 186.230861 
L 275.478261 164.792939 
L 293.509565 224.512865 
L 311.54087 148.714498 
L 329.572174 191.590342 
L 347.603478 161.730379 
L 365.634783 215.325184 
L 383.666087 213.793904 
L 401.697391 184.776145 
L 419.728696 131.94698 
L 437.76 123.448375 
L 437.76 561.6 
L 437.76 561.6 
L 419.728696 561.6 
L 401.697391 561.6 
L 383.666087 561.6 
L 365.634783 561.6 
L 347.603478 561.6 
L 329.572174 561.6 
L 311.54087 561.6 
L 293.509565 561.6 
L 275.478261 561.6 
L 257.446957 561.6 
L 239.415652 561.6 
L 221.384348 561.6 
L 203.353043 561.6 
L 185.321739 561.6 
L 167.290435 561.6 
L 149.25913 561.6 
L 131.227826 561.6 
L 113.196522 561.6 
L 95.165217 561.6 
L 77.133913 561.6 
L 59.102609 561.6 
L 41.071304 561.6 
L 23.04 561.6 
z
" style="fill:#5d99fa;fill-opacity:0.33;stroke:#5d99fa;stroke-opacity:0.33;"/>
   </g>
   <g id="PolyCollection_3">
    <path clip-path="url(#p9e09bf5909)" d="M 23.04 561.6 
L 23.04 117.801187 
L 41.071304 177.938435 
L 59.102609 236.571288 
L 77.133913 235.028318 
L 95.165217 227.313469 
L 113.196522 213.040998 
L 131.227826 169.837843 
L 149.25913 138.592705 
L 167.290435 183.338829 
L 185.321739 143.221614 
L 203.353043 142.450129 
L 221.384348 181.680137 
L 239.415652 153.250918 
L 257.446957 98.861232 
L 275.478261 145.574643 
L 293.509565 125.477461 
L 311.54087 140.135675 
L 329.572174 97.704005 
L 347.603478 113.133703 
L 365.634783 86.131731 
L 383.666087 56.04382 
L 401.697391 76.48817 
L 419.728696 107.347566 
L 437.76 108.890536 
L 437.76 561.6 
L 437.76 561.6 
L 419.728696 561.6 
L 401.697391 561.6 
L 383.666087 561.6 
L 365.634783 561.6 
L 347.603478 561.6 
L 329.572174 561.6 
L 311.54087 561.6 
L 293.509565 561.6 
L 275.478261 561.6 
L 257.446957 561.6 
L 239.415652 561.6 
L 221.384348 561.6 
L 203.353043 561.6 
L 185.321739 561.6 
L 167.290435 561.6 
L 149.25913 561.6 
L 131.227826 561.6 
L 113.196522 561.6 
L 95.165217 561.6 
L 77.133913 561.6 
L 59.102609 561.6 
L 41.071304 561.6 
L 23.04 561.6 
z
" style="fill:#f8b840;fill-opacity:0.33;stroke:#f8b840;stroke-opacity:0.33;"/>
   </g>
   <g id="matplotlib.axis_1">
    <g id="xtick_1">
     <g id="line2d_1">
      <defs>
       <path d="M 0 0 
L 0 3.5 
" id="m5407954f4c" style="stroke:#000000;stroke-width:0.8;"/>
      </defs>
      <g>
       <use style="stroke:#000000;stroke-width:0.8;" x="23.04" xlink:href="#m5407954f4c" y="328.32"/>
      </g>
     </g>
    </g>
    <g id="xtick_2">
     <g id="line2d_2">
      <g>
       <use style="stroke:#000000;stroke-width:0.8;" x="113.196522" xlink:href="#m5407954f4c" y="328.32"/>
      </g>
     </g>
    </g>
    <g id="xtick_3">
     <g id="line2d_3">
      <g>
       <use style="stroke:#000000;stroke-width:0.8;" x="203.353043" xlink:href="#m5407954f4c" y="328.32"/>
      </g>
     </g>
    </g>
    <g id="xtick_4">
     <g id="line2d_4">
      <g>
       <use style="stroke:#000000;stroke-width:0.8;" x="293.509565" xlink:href="#m5407954f4c" y="328.32"/>
      </g>
     </g>
    </g>
    <g id="xtick_5">
     <g id="line2d_5">
      <g>
       <use style="stroke:#000000;stroke-width:0.8;" x="383.666087" xlink:href="#m5407954f4c" y="328.32"/>
      </g>
     </g>
    </g>
   </g>
   <g id="matplotlib.axis_2">
    <g id="ytick_1">
     <g id="line2d_6">
      <defs>
       <path d="M 0 0 
L -3.5 0 
" id="m84cc9955eb" style="stroke:#000000;stroke-width:0.8;"/>
      </defs>
      <g>
       <use style="stroke:#000000;stroke-width:0.8;" x="23.04" xlink:href="#m84cc9955eb" y="328.32"/>
      </g>
     </g>
    </g>
    <g id="ytick_2">
     <g id="line2d_7">
      <g>
       <use style="stroke:#000000;stroke-width:0.8;" x="23.04" xlink:href="#m84cc9955eb" y="289.44"/>
      </g>
     </g>
    </g>
    <g id="ytick_3">
     <g id="line2d_8">
      <g>
       <use style="stroke:#000000;stroke-width:0.8;" x="23.04" xlink:href="#m84cc9955eb" y="250.56"/>
      </g>
     </g>
    </g>
    <g id="ytick_4">
     <g id="line2d_9">
      <g>
       <use style="stroke:#000000;stroke-width:0.8;" x="23.04" xlink:href="#m84cc9955eb" y="211.68"/>
      </g>
     </g>
    </g>
    <g id="ytick_5">
     <g id="line2d_10">
      <g>
       <use style="stroke:#000000;stroke-width:0.8;" x="23.04" xlink:href="#m84cc9955eb" y="172.8"/>
      </g>
     </g>
    </g>
    <g id="ytick_6">
     <g id="line2d_11">
      <g>
       <use style="stroke:#000000;stroke-width:0.8;" x="23.04" xlink:href="#m84cc9955eb" y="133.92"/>
      </g>
     </g>
    </g>
    <g id="ytick_7">
     <g id="line2d_12">
      <g>
       <use style="stroke:#000000;stroke-width:0.8;" x="23.04" xlink:href="#m84cc9955eb" y="95.04"/>
      </g>
     </g>
    </g>
    <g id="ytick_8">
     <g id="line2d_13">
      <g>
       <use style="stroke:#000000;stroke-width:0.8;" x="23.04" xlink:href="#m84cc9955eb" y="56.16"/>
      </g>
     </g>
    </g>
    <g id="ytick_9">
     <g id="line2d_14">
      <g>
       <use style="stroke:#000000;stroke-width:0.8;" x="23.04" xlink:href="#m84cc9955eb" y="17.28"/>
      </g>
     </g>
    </g>
   </g>
   <g id="patch_3">
    <path d="M 23.04 328.32 
L 23.04 17.28 
" style="fill:none;stroke:#000000;stroke-linecap:square;stroke-linejoin:miter;stroke-width:0.8;"/>
   </g>
   <g id="patch_4">
    <path d="M 23.04 328.32 
L 437.76 328.32 
" style="fill:none;stroke:#000000;stroke-linecap:square;stroke-linejoin:miter;stroke-width:0.8;"/>
   </g>
  </g>
 </g>
 <defs>
  <clipPath id="p9e09bf5909">
   <rect height="311.04" width="414.72" x="23.04" y="17.28"/>
  </clipPath>
 </defs>
</svg>
