<?xml version="1.0" encoding="utf-8" standalone="no"?>
<!DOCTYPE svg PUBLIC "-//W3C//DTD SVG 1.1//EN"
  "http://www.w3.org/Graphics/SVG/1.1/DTD/svg11.dtd">
<!-- Created with matplotlib (https://matplotlib.org/) -->
<svg height="345.6pt" version="1.1" viewBox="0 0 460.8 345.6" width="460.8pt" xmlns="http://www.w3.org/2000/svg" xmlns:xlink="http://www.w3.org/1999/xlink">
 <defs>
  <style type="text/css">
*{stroke-linecap:butt;stroke-linejoin:round;}
  </style>
 </defs>
 <g id="figure_1">
  <g id="patch_1">
   <path d="M 0 345.6 
L 460.8 345.6 
L 460.8 0 
L 0 0 
z
" style="fill:none;"/>
  </g>
  <g id="axes_1">
   <g id="patch_2">
    <path d="M 23.04 328.32 
L 437.76 328.32 
L 437.76 17.28 
L 23.04 17.28 
z
" style="fill:none;"/>
   </g>
   <g id="PolyCollection_1">
    <path clip-path="url(#p2fd3d9b62f)" d="M 23.04 561.6 
L 23.04 115.584427 
L 41.071304 67.351934 
L 59.102609 96.197514 
L 77.133913 27.035205 
L 95.165217 55.209957 
L 113.196522 67.955678 
L 131.227826 106.192843 
L 149.25913 60.643659 
L 167.290435 108.876152 
L 185.321739 103.509533 
L 203.353043 110.217807 
L 221.384348 169.921449 
L 239.415652 85.397192 
L 257.446957 184.075908 
L 275.478261 114.242772 
L 293.509565 135.70925 
L 311.54087 135.038423 
L 329.572174 159.859038 
L 347.603478 177.300551 
L 365.634783 294.024526 
L 383.666087 191.387928 
L 401.697391 281.278805 
L 419.728696 233.650056 
L 437.76 261.824809 
L 437.76 561.6 
L 437.76 561.6 
L 419.728696 561.6 
L 401.697391 561.6 
L 383.666087 561.6 
L 365.634783 561.6 
L 347.603478 561.6 
L 329.572174 561.6 
L 311.54087 561.6 
L 293.509565 561.6 
L 275.478261 561.6 
L 257.446957 561.6 
L 239.415652 561.6 
L 221.384348 561.6 
L 203.353043 561.6 
L 185.321739 561.6 
L 167.290435 561.6 
L 149.25913 561.6 
L 131.227826 561.6 
L 113.196522 561.6 
L 95.165217 561.6 
L 77.133913 561.6 
L 59.102609 561.6 
L 41.071304 561.6 
L 23.04 561.6 
z
" style="fill:#f84646;fill-opacity:0.33;stroke:#f84646;stroke-opacity:0.33;"/>
   </g>
   <g id="PolyCollection_2">
    <path clip-path="url(#p2fd3d9b62f)" d="M 23.04 561.6 
L 23.04 131.870416 
L 41.071304 167.8555 
L 59.102609 93.588412 
L 77.133913 138.761177 
L 95.165217 123.448375 
L 113.196522 140.292457 
L 131.227826 184.699581 
L 149.25913 227.651989 
L 167.290435 115.791975 
L 185.321739 148.714498 
L 203.353043 174.74626 
L 221.384348 154.073978 
L 239.415652 155.605258 
L 257.446957 136.464257 
L 275.478261 169.38678 
L 293.509565 200.778023 
L 311.54087 177.043181 
L 329.572174 180.871381 
L 347.603478 151.011418 
L 365.634783 279.63895 
L 383.666087 193.121622 
L 401.697391 207.668784 
L 419.728696 196.184182 
L 437.76 174.74626 
L 437.76 561.6 
L 437.76 561.6 
L 419.728696 561.6 
L 401.697391 561.6 
L 383.666087 561.6 
L 365.634783 561.6 
L 347.603478 561.6 
L 329.572174 561.6 
L 311.54087 561.6 
L 293.509565 561.6 
L 275.478261 561.6 
L 257.446957 561.6 
L 239.415652 561.6 
L 221.384348 561.6 
L 203.353043 561.6 
L 185.321739 561.6 
L 167.290435 561.6 
L 149.25913 561.6 
L 131.227826 561.6 
L 113.196522 561.6 
L 95.165217 561.6 
L 77.133913 561.6 
L 59.102609 561.6 
L 41.071304 561.6 
L 23.04 561.6 
z
" style="fill:#5d99fa;fill-opacity:0.33;stroke:#5d99fa;stroke-opacity:0.33;"/>
   </g>
   <g id="PolyCollection_3">
    <path clip-path="url(#p2fd3d9b62f)" d="M 23.04 561.6 
L 23.04 135.892508 
L 41.071304 153.675235 
L 59.102609 193.368133 
L 77.133913 174.08101 
L 95.165217 255.086925 
L 113.196522 187.967739 
L 131.227826 154.793888 
L 149.25913 134.388112 
L 167.290435 183.377403 
L 185.321739 182.567344 
L 203.353043 222.684559 
L 221.384348 206.869119 
L 239.415652 172.190872 
L 257.446957 154.832462 
L 275.478261 201.082982 
L 293.509565 173.695268 
L 311.54087 172.538041 
L 329.572174 132.420826 
L 347.603478 179.481405 
L 365.634783 145.921811 
L 383.666087 122.391522 
L 401.697391 135.892508 
L 419.728696 143.221614 
L 437.76 152.90375 
L 437.76 561.6 
L 437.76 561.6 
L 419.728696 561.6 
L 401.697391 561.6 
L 383.666087 561.6 
L 365.634783 561.6 
L 347.603478 561.6 
L 329.572174 561.6 
L 311.54087 561.6 
L 293.509565 561.6 
L 275.478261 561.6 
L 257.446957 561.6 
L 239.415652 561.6 
L 221.384348 561.6 
L 203.353043 561.6 
L 185.321739 561.6 
L 167.290435 561.6 
L 149.25913 561.6 
L 131.227826 561.6 
L 113.196522 561.6 
L 95.165217 561.6 
L 77.133913 561.6 
L 59.102609 561.6 
L 41.071304 561.6 
L 23.04 561.6 
z
" style="fill:#f8b840;fill-opacity:0.33;stroke:#f8b840;stroke-opacity:0.33;"/>
   </g>
   <g id="matplotlib.axis_1">
    <g id="xtick_1">
     <g id="line2d_1">
      <defs>
       <path d="M 0 0 
L 0 3.5 
" id="m200fb38102" style="stroke:#000000;stroke-width:0.8;"/>
      </defs>
      <g>
       <use style="stroke:#000000;stroke-width:0.8;" x="23.04" xlink:href="#m200fb38102" y="328.32"/>
      </g>
     </g>
    </g>
    <g id="xtick_2">
     <g id="line2d_2">
      <g>
       <use style="stroke:#000000;stroke-width:0.8;" x="113.196522" xlink:href="#m200fb38102" y="328.32"/>
      </g>
     </g>
    </g>
    <g id="xtick_3">
     <g id="line2d_3">
      <g>
       <use style="stroke:#000000;stroke-width:0.8;" x="203.353043" xlink:href="#m200fb38102" y="328.32"/>
      </g>
     </g>
    </g>
    <g id="xtick_4">
     <g id="line2d_4">
      <g>
       <use style="stroke:#000000;stroke-width:0.8;" x="293.509565" xlink:href="#m200fb38102" y="328.32"/>
      </g>
     </g>
    </g>
    <g id="xtick_5">
     <g id="line2d_5">
      <g>
       <use style="stroke:#000000;stroke-width:0.8;" x="383.666087" xlink:href="#m200fb38102" y="328.32"/>
      </g>
     </g>
    </g>
   </g>
   <g id="matplotlib.axis_2">
    <g id="ytick_1">
     <g id="line2d_6">
      <defs>
       <path d="M 0 0 
L -3.5 0 
" id="mce9a959379" style="stroke:#000000;stroke-width:0.8;"/>
      </defs>
      <g>
       <use style="stroke:#000000;stroke-width:0.8;" x="23.04" xlink:href="#mce9a959379" y="328.32"/>
      </g>
     </g>
    </g>
    <g id="ytick_2">
     <g id="line2d_7">
      <g>
       <use style="stroke:#000000;stroke-width:0.8;" x="23.04" xlink:href="#mce9a959379" y="289.44"/>
      </g>
     </g>
    </g>
    <g id="ytick_3">
     <g id="line2d_8">
      <g>
       <use style="stroke:#000000;stroke-width:0.8;" x="23.04" xlink:href="#mce9a959379" y="250.56"/>
      </g>
     </g>
    </g>
    <g id="ytick_4">
     <g id="line2d_9">
      <g>
       <use style="stroke:#000000;stroke-width:0.8;" x="23.04" xlink:href="#mce9a959379" y="211.68"/>
      </g>
     </g>
    </g>
    <g id="ytick_5">
     <g id="line2d_10">
      <g>
       <use style="stroke:#000000;stroke-width:0.8;" x="23.04" xlink:href="#mce9a959379" y="172.8"/>
      </g>
     </g>
    </g>
    <g id="ytick_6">
     <g id="line2d_11">
      <g>
       <use style="stroke:#000000;stroke-width:0.8;" x="23.04" xlink:href="#mce9a959379" y="133.92"/>
      </g>
     </g>
    </g>
    <g id="ytick_7">
     <g id="line2d_12">
      <g>
       <use style="stroke:#000000;stroke-width:0.8;" x="23.04" xlink:href="#mce9a959379" y="95.04"/>
      </g>
     </g>
    </g>
    <g id="ytick_8">
     <g id="line2d_13">
      <g>
       <use style="stroke:#000000;stroke-width:0.8;" x="23.04" xlink:href="#mce9a959379" y="56.16"/>
      </g>
     </g>
    </g>
    <g id="ytick_9">
     <g id="line2d_14">
      <g>
       <use style="stroke:#000000;stroke-width:0.8;" x="23.04" xlink:href="#mce9a959379" y="17.28"/>
      </g>
     </g>
    </g>
   </g>
   <g id="patch_3">
    <path d="M 23.04 328.32 
L 23.04 17.28 
" style="fill:none;stroke:#000000;stroke-linecap:square;stroke-linejoin:miter;stroke-width:0.8;"/>
   </g>
   <g id="patch_4">
    <path d="M 23.04 328.32 
L 437.76 328.32 
" style="fill:none;stroke:#000000;stroke-linecap:square;stroke-linejoin:miter;stroke-width:0.8;"/>
   </g>
  </g>
 </g>
 <defs>
  <clipPath id="p2fd3d9b62f">
   <rect height="311.04" width="414.72" x="23.04" y="17.28"/>
  </clipPath>
 </defs>
</svg>
