<?xml version="1.0" encoding="utf-8" standalone="no"?>
<!DOCTYPE svg PUBLIC "-//W3C//DTD SVG 1.1//EN"
  "http://www.w3.org/Graphics/SVG/1.1/DTD/svg11.dtd">
<!-- Created with matplotlib (https://matplotlib.org/) -->
<svg height="345.6pt" version="1.1" viewBox="0 0 460.8 345.6" width="460.8pt" xmlns="http://www.w3.org/2000/svg" xmlns:xlink="http://www.w3.org/1999/xlink">
 <defs>
  <style type="text/css">
*{stroke-linecap:butt;stroke-linejoin:round;}
  </style>
 </defs>
 <g id="figure_1">
  <g id="patch_1">
   <path d="M 0 345.6 
L 460.8 345.6 
L 460.8 0 
L 0 0 
z
" style="fill:none;"/>
  </g>
  <g id="axes_1">
   <g id="patch_2">
    <path d="M 23.04 328.32 
L 437.76 328.32 
L 437.76 17.28 
L 23.04 17.28 
z
" style="fill:none;"/>
   </g>
   <g id="PolyCollection_1">
    <path clip-path="url(#p4b72342df7)" d="M 23.04 561.6 
L 23.04 221.575162 
L 41.071304 178.642206 
L 59.102609 165.225657 
L 77.133913 123.634356 
L 95.165217 65.272369 
L 113.196522 148.052475 
L 131.227826 103.509533 
L 149.25913 171.933932 
L 167.290435 239.687503 
L 185.321739 157.175728 
L 203.353043 96.197514 
L 221.384348 179.313034 
L 239.415652 200.108684 
L 257.446957 155.834073 
L 275.478261 99.484568 
L 293.509565 96.801258 
L 311.54087 161.87152 
L 329.572174 142.417524 
L 347.603478 157.175728 
L 365.634783 267.258511 
L 383.666087 211.512751 
L 401.697391 206.146131 
L 419.728696 135.105505 
L 437.76 237.004193 
L 437.76 561.6 
L 437.76 561.6 
L 419.728696 561.6 
L 401.697391 561.6 
L 383.666087 561.6 
L 365.634783 561.6 
L 347.603478 561.6 
L 329.572174 561.6 
L 311.54087 561.6 
L 293.509565 561.6 
L 275.478261 561.6 
L 257.446957 561.6 
L 239.415652 561.6 
L 221.384348 561.6 
L 203.353043 561.6 
L 185.321739 561.6 
L 167.290435 561.6 
L 149.25913 561.6 
L 131.227826 561.6 
L 113.196522 561.6 
L 95.165217 561.6 
L 77.133913 561.6 
L 59.102609 561.6 
L 41.071304 561.6 
L 23.04 561.6 
z
" style="fill:#f84646;fill-opacity:0.33;stroke:#f84646;stroke-opacity:0.33;"/>
   </g>
   <g id="PolyCollection_2">
    <path clip-path="url(#p4b72342df7)" d="M 23.04 561.6 
L 23.04 156.447463 
L 41.071304 143.355017 
L 59.102609 116.634179 
L 77.133913 95.885333 
L 95.165217 197.715463 
L 113.196522 160.505355 
L 131.227826 201.543663 
L 149.25913 244.419507 
L 167.290435 49.946928 
L 185.321739 118.854535 
L 203.353043 185.465221 
L 221.384348 278.10767 
L 239.415652 228.341066 
L 257.446957 147.183218 
L 275.478261 209.200064 
L 293.509565 219.153385 
L 311.54087 136.464257 
L 329.572174 162.572583 
L 347.603478 153.308338 
L 365.634783 190.135626 
L 383.666087 142.665941 
L 401.697391 138.072101 
L 419.728696 121.151455 
L 437.76 190.059062 
L 437.76 561.6 
L 437.76 561.6 
L 419.728696 561.6 
L 401.697391 561.6 
L 383.666087 561.6 
L 365.634783 561.6 
L 347.603478 561.6 
L 329.572174 561.6 
L 311.54087 561.6 
L 293.509565 561.6 
L 275.478261 561.6 
L 257.446957 561.6 
L 239.415652 561.6 
L 221.384348 561.6 
L 203.353043 561.6 
L 185.321739 561.6 
L 167.290435 561.6 
L 149.25913 561.6 
L 131.227826 561.6 
L 113.196522 561.6 
L 95.165217 561.6 
L 77.133913 561.6 
L 59.102609 561.6 
L 41.071304 561.6 
L 23.04 561.6 
z
" style="fill:#5d99fa;fill-opacity:0.33;stroke:#5d99fa;stroke-opacity:0.33;"/>
   </g>
   <g id="PolyCollection_3">
    <path clip-path="url(#p4b72342df7)" d="M 23.04 561.6 
L 23.04 157.494085 
L 41.071304 170.995071 
L 59.102609 253.929698 
L 77.133913 249.300789 
L 95.165217 218.441392 
L 113.196522 306.159226 
L 131.227826 192.210906 
L 149.25913 182.953087 
L 167.290435 242.743167 
L 185.321739 200.311497 
L 203.353043 190.667936 
L 221.384348 128.177659 
L 239.415652 175.276812 
L 257.446957 203.397437 
L 275.478261 150.589295 
L 293.509565 132.806568 
L 311.54087 198.768527 
L 329.572174 155.17963 
L 347.603478 178.362752 
L 365.634783 120.848552 
L 383.666087 149.007751 
L 401.697391 128.949143 
L 419.728696 135.506765 
L 437.76 132.806568 
L 437.76 561.6 
L 437.76 561.6 
L 419.728696 561.6 
L 401.697391 561.6 
L 383.666087 561.6 
L 365.634783 561.6 
L 347.603478 561.6 
L 329.572174 561.6 
L 311.54087 561.6 
L 293.509565 561.6 
L 275.478261 561.6 
L 257.446957 561.6 
L 239.415652 561.6 
L 221.384348 561.6 
L 203.353043 561.6 
L 185.321739 561.6 
L 167.290435 561.6 
L 149.25913 561.6 
L 131.227826 561.6 
L 113.196522 561.6 
L 95.165217 561.6 
L 77.133913 561.6 
L 59.102609 561.6 
L 41.071304 561.6 
L 23.04 561.6 
z
" style="fill:#f8b840;fill-opacity:0.33;stroke:#f8b840;stroke-opacity:0.33;"/>
   </g>
   <g id="matplotlib.axis_1">
    <g id="xtick_1">
     <g id="line2d_1">
      <defs>
       <path d="M 0 0 
L 0 3.5 
" id="maf82ded80e" style="stroke:#000000;stroke-width:0.8;"/>
      </defs>
      <g>
       <use style="stroke:#000000;stroke-width:0.8;" x="23.04" xlink:href="#maf82ded80e" y="328.32"/>
      </g>
     </g>
    </g>
    <g id="xtick_2">
     <g id="line2d_2">
      <g>
       <use style="stroke:#000000;stroke-width:0.8;" x="113.196522" xlink:href="#maf82ded80e" y="328.32"/>
      </g>
     </g>
    </g>
    <g id="xtick_3">
     <g id="line2d_3">
      <g>
       <use style="stroke:#000000;stroke-width:0.8;" x="203.353043" xlink:href="#maf82ded80e" y="328.32"/>
      </g>
     </g>
    </g>
    <g id="xtick_4">
     <g id="line2d_4">
      <g>
       <use style="stroke:#000000;stroke-width:0.8;" x="293.509565" xlink:href="#maf82ded80e" y="328.32"/>
      </g>
     </g>
    </g>
    <g id="xtick_5">
     <g id="line2d_5">
      <g>
       <use style="stroke:#000000;stroke-width:0.8;" x="383.666087" xlink:href="#maf82ded80e" y="328.32"/>
      </g>
     </g>
    </g>
   </g>
   <g id="matplotlib.axis_2">
    <g id="ytick_1">
     <g id="line2d_6">
      <defs>
       <path d="M 0 0 
L -3.5 0 
" id="m9f7e863b98" style="stroke:#000000;stroke-width:0.8;"/>
      </defs>
      <g>
       <use style="stroke:#000000;stroke-width:0.8;" x="23.04" xlink:href="#m9f7e863b98" y="328.32"/>
      </g>
     </g>
    </g>
    <g id="ytick_2">
     <g id="line2d_7">
      <g>
       <use style="stroke:#000000;stroke-width:0.8;" x="23.04" xlink:href="#m9f7e863b98" y="289.44"/>
      </g>
     </g>
    </g>
    <g id="ytick_3">
     <g id="line2d_8">
      <g>
       <use style="stroke:#000000;stroke-width:0.8;" x="23.04" xlink:href="#m9f7e863b98" y="250.56"/>
      </g>
     </g>
    </g>
    <g id="ytick_4">
     <g id="line2d_9">
      <g>
       <use style="stroke:#000000;stroke-width:0.8;" x="23.04" xlink:href="#m9f7e863b98" y="211.68"/>
      </g>
     </g>
    </g>
    <g id="ytick_5">
     <g id="line2d_10">
      <g>
       <use style="stroke:#000000;stroke-width:0.8;" x="23.04" xlink:href="#m9f7e863b98" y="172.8"/>
      </g>
     </g>
    </g>
    <g id="ytick_6">
     <g id="line2d_11">
      <g>
       <use style="stroke:#000000;stroke-width:0.8;" x="23.04" xlink:href="#m9f7e863b98" y="133.92"/>
      </g>
     </g>
    </g>
    <g id="ytick_7">
     <g id="line2d_12">
      <g>
       <use style="stroke:#000000;stroke-width:0.8;" x="23.04" xlink:href="#m9f7e863b98" y="95.04"/>
      </g>
     </g>
    </g>
    <g id="ytick_8">
     <g id="line2d_13">
      <g>
       <use style="stroke:#000000;stroke-width:0.8;" x="23.04" xlink:href="#m9f7e863b98" y="56.16"/>
      </g>
     </g>
    </g>
    <g id="ytick_9">
     <g id="line2d_14">
      <g>
       <use style="stroke:#000000;stroke-width:0.8;" x="23.04" xlink:href="#m9f7e863b98" y="17.28"/>
      </g>
     </g>
    </g>
   </g>
   <g id="patch_3">
    <path d="M 23.04 328.32 
L 23.04 17.28 
" style="fill:none;stroke:#000000;stroke-linecap:square;stroke-linejoin:miter;stroke-width:0.8;"/>
   </g>
   <g id="patch_4">
    <path d="M 23.04 328.32 
L 437.76 328.32 
" style="fill:none;stroke:#000000;stroke-linecap:square;stroke-linejoin:miter;stroke-width:0.8;"/>
   </g>
  </g>
 </g>
 <defs>
  <clipPath id="p4b72342df7">
   <rect height="311.04" width="414.72" x="23.04" y="17.28"/>
  </clipPath>
 </defs>
</svg>
