<svg xmlns="http://www.w3.org/2000/svg" viewBox="0 0 230 230"><defs><style>.a{fill:#f84646;}.b{fill:#f8b840;}.c{fill:#5d99fa;}.d{fill:#fff;}</style></defs><title>円グラフ</title><path class="a" d="M115,1.12A113.88,113.88,0,0,0,32.25,193.24L115,115Z"/><path class="b" d="M32.25,193.24a113.88,113.88,0,0,0,162.39,3.16L115,115Z"/><path class="c" d="M194.64,196.4A113.87,113.87,0,0,0,115,1.12V115Z"/><path class="d" d="M160.31,90a6.71,6.71,0,0,1-3,5.58,12.3,12.3,0,0,1-7.55,2.24,8.78,8.78,0,0,1-4.94-1.2A3.8,3.8,0,0,1,143,93.26a3.06,3.06,0,0,1,.84-2.22,3,3,0,0,1,2.2-.86c1.7,0,2.55.78,2.55,2.33,0,1.2-.81,2-2.44,2.52-.57.17-.86.37-.86.6s.35.56,1.07.86a5.42,5.42,0,0,0,2.12.45,5.25,5.25,0,0,0,4.28-1.84A7.78,7.78,0,0,0,154.34,90q0-3.2-1.85-4.54a4.77,4.77,0,0,0-2.93-.91h-1.39q-.45,0-.45-.3a.33.33,0,0,1,.17-.33,9.86,9.86,0,0,1,1.3-.27,3.85,3.85,0,0,0,2.57-1.81,6.32,6.32,0,0,0,1-3.58,4.62,4.62,0,0,0-1.24-3.35,4.26,4.26,0,0,0-3.23-1.29,4.47,4.47,0,0,0-2.25.56,1.61,1.61,0,0,0-1,1.32c0,.22.17.36.5.41,1.92.35,2.88,1.18,2.88,2.48a2.22,2.22,0,0,1-.6,1.6,2.16,2.16,0,0,1-1.59.62,2.75,2.75,0,0,1-2.08-.79,3,3,0,0,1-.76-2.14,4.61,4.61,0,0,1,2-3.89,8.47,8.47,0,0,1,5.19-1.49,10.22,10.22,0,0,1,5.93,1.56,4.71,4.71,0,0,1,.55,7.65,9.43,9.43,0,0,1-4.53,2.18l0,.19a9.44,9.44,0,0,1,4.88,1.35A5.29,5.29,0,0,1,160.31,90Z"/><path class="d" d="M183,90.59a6.19,6.19,0,0,1-2.18,4.7,10,10,0,0,1-7,2.52,11.34,11.34,0,0,1-6.84-2,5.89,5.89,0,0,1-2.7-5A5.68,5.68,0,0,1,167,85.67a14.6,14.6,0,0,1,3.72-1.43l0-.19q-5.34-1.35-5.34-5.56A5.52,5.52,0,0,1,167.6,74a8.82,8.82,0,0,1,5.68-1.77,9.56,9.56,0,0,1,6,1.73,5.48,5.48,0,0,1,2.26,4.55c0,2.56-1.62,4.42-4.85,5.6v.15Q183,85.64,183,90.59Zm-6.13,1.13a14.93,14.93,0,0,0-.73-5.6,2.84,2.84,0,0,0-5.07-.11,11.27,11.27,0,0,0-.77,4.88,9.75,9.75,0,0,0,.88,4.79A3.05,3.05,0,0,0,174,97.17a2.3,2.3,0,0,0,2.2-1.26A9.85,9.85,0,0,0,176.88,91.72Zm-1-12.55a12.69,12.69,0,0,0-.83-5.34,1.69,1.69,0,0,0-1.62-1q-2.47,0-2.48,5.57t2.75,5.52a1.72,1.72,0,0,0,1.69-1A9.9,9.9,0,0,0,175.91,79.17Z"/><path class="d" d="M207.29,70.79,193,97.28h-2.14l13.76-25.21a6.56,6.56,0,0,1-4.13,1.27,7.68,7.68,0,0,1-3.65-.86,6.67,6.67,0,0,1,2.37,4.92,5.75,5.75,0,0,1-.81,2.89,6.65,6.65,0,0,1-2.16,2.31,6.35,6.35,0,0,1-3.53.89,6.9,6.9,0,0,1-4.91-1.82,6.06,6.06,0,0,1-1.93-4.61,5.94,5.94,0,0,1,1.89-4.47,6.52,6.52,0,0,1,4.67-1.8,14.33,14.33,0,0,1,4.24,1,11.53,11.53,0,0,0,3.75.72,8.86,8.86,0,0,0,5-1.69Zm-12.41,5.93a11,11,0,0,0-.64-4,1.71,1.71,0,0,0-1.69-1.24q-2.45,0-2.44,5.52c0,3.88.86,5.83,2.59,5.83.78,0,1.34-.57,1.69-1.7A14.92,14.92,0,0,0,194.88,76.72Zm17.4,14.74a5.94,5.94,0,0,1-2.93,5.26,6.5,6.5,0,0,1-3.53.9,6.94,6.94,0,0,1-4.92-1.82,6,6,0,0,1-2-4.61,5.86,5.86,0,0,1,1.92-4.51,6.9,6.9,0,0,1,4.85-1.76,6.22,6.22,0,0,1,4.43,1.54A6.53,6.53,0,0,1,212.28,91.46ZM208,90.82a10.86,10.86,0,0,0-.64-4,1.72,1.72,0,0,0-1.69-1.24q-2.44,0-2.44,5.56c0,3.86.85,5.78,2.55,5.78.8,0,1.38-.56,1.73-1.69A15.41,15.41,0,0,0,208,90.82Z"/><path class="d" d="M52.85,65.86a6.71,6.71,0,0,1-3,5.58,12.24,12.24,0,0,1-7.55,2.24,8.78,8.78,0,0,1-4.94-1.2,3.79,3.79,0,0,1-1.79-3.31A3.07,3.07,0,0,1,36.41,67a3,3,0,0,1,2.2-.86c1.7,0,2.55.78,2.55,2.33,0,1.2-.81,2-2.44,2.52-.58.17-.86.37-.86.6s.35.56,1.07.86a5.42,5.42,0,0,0,2.12.45A5.29,5.29,0,0,0,45.34,71a7.81,7.81,0,0,0,1.54-5.15c0-2.12-.62-3.64-1.84-4.54a4.88,4.88,0,0,0-2.94-.9H40.71q-.45,0-.45-.3a.33.33,0,0,1,.17-.34,9,9,0,0,1,1.3-.26A3.86,3.86,0,0,0,44.3,57.7a6.3,6.3,0,0,0,1-3.58,4.67,4.67,0,0,0-1.24-3.35,4.3,4.3,0,0,0-3.24-1.29,4.47,4.47,0,0,0-2.25.56,1.61,1.61,0,0,0-1,1.32c0,.22.17.36.49.41C40.05,52.12,41,53,41,54.25a2.2,2.2,0,0,1-.6,1.6,2.16,2.16,0,0,1-1.59.62,2.71,2.71,0,0,1-2.08-.79A3,3,0,0,1,36,53.54a4.63,4.63,0,0,1,2-3.89,8.47,8.47,0,0,1,5.19-1.48,10.29,10.29,0,0,1,5.93,1.55,4.71,4.71,0,0,1,.55,7.65,9.43,9.43,0,0,1-4.53,2.18l0,.19A9.44,9.44,0,0,1,50,61.09,5.29,5.29,0,0,1,52.85,65.86Z"/><path class="d" d="M76.19,48.8a10,10,0,0,1-1.28,2q-3.12,4.44-5.11,7.67a12.62,12.62,0,0,0-2.07,6.69,19.93,19.93,0,0,0,.57,3.94,8.65,8.65,0,0,1,.22,1.77,2.92,2.92,0,0,1-.68,2,2,2,0,0,1-1.61.81,2.41,2.41,0,0,1-2-1.15,4.84,4.84,0,0,1-.81-2.87q0-3.21,3.36-8.32L72.2,53.2H61.46a2.21,2.21,0,0,0-1.83.55,6.86,6.86,0,0,0-.84,2.68c0,.33-.15.49-.3.49s-.34-.17-.34-.53a7.1,7.1,0,0,1,.11-1c.08-.44.25-1.62.53-3.55.07-.6.19-1.48.34-2.63a1.38,1.38,0,0,1,.33-.79q3.57.23,6.09.22l3.52,0q3-.06,4.71-.06h1.88C76,48.54,76.19,48.63,76.19,48.8Z"/><path class="d" d="M99.83,46.7,85.51,73.19H83.37L97.12,48A6.56,6.56,0,0,1,93,49.25a7.57,7.57,0,0,1-3.65-.86,6.67,6.67,0,0,1,2.37,4.92,5.75,5.75,0,0,1-.81,2.89,6.65,6.65,0,0,1-2.16,2.31,6.35,6.35,0,0,1-3.53.89,6.9,6.9,0,0,1-4.91-1.82A6.06,6.06,0,0,1,78.37,53a6,6,0,0,1,1.89-4.47,6.52,6.52,0,0,1,4.67-1.8,14.42,14.42,0,0,1,4.24,1,11.77,11.77,0,0,0,3.75.71,8.86,8.86,0,0,0,5-1.69ZM87.42,52.64a11,11,0,0,0-.64-4.06,1.71,1.71,0,0,0-1.69-1.24q-2.45,0-2.44,5.52c0,3.89.87,5.83,2.59,5.83.78,0,1.34-.57,1.69-1.69A15,15,0,0,0,87.42,52.64Zm17.4,14.73a5.93,5.93,0,0,1-2.93,5.26,6.5,6.5,0,0,1-3.53.9,6.94,6.94,0,0,1-4.92-1.82,6,6,0,0,1-2-4.61,5.87,5.87,0,0,1,1.92-4.51,6.9,6.9,0,0,1,4.85-1.76,6.22,6.22,0,0,1,4.43,1.54A6.53,6.53,0,0,1,104.82,67.37Zm-4.28-.64a11.14,11.14,0,0,0-.64-4,1.72,1.72,0,0,0-1.69-1.24q-2.44,0-2.44,5.56,0,5.79,2.55,5.79c.8,0,1.38-.57,1.73-1.7A15.06,15.06,0,0,0,100.54,66.73Z"/><path d="M75,83.35c0,.08-.08.19-.24.34a2.32,2.32,0,0,1-1.62.6,1.29,1.29,0,0,1-.91-.26,1.55,1.55,0,0,1-.37-.94A2.1,2.1,0,0,1,70,84.34a1.43,1.43,0,0,1-1.06-.41,1.49,1.49,0,0,1-.41-1.07c0-1.29,1.1-2,3.3-2.28v-.32a8.56,8.56,0,0,0-.11-1.88v-.07a1,1,0,0,0-1.09-.77,1.12,1.12,0,0,0-.8.29.8.8,0,0,0-.31.57c0,.1.12.16.37.18s.55.25.55.67a.79.79,0,0,1-.22.56.78.78,0,0,1-.58.22,1,1,0,0,1-.72-.27.88.88,0,0,1-.29-.68,1.54,1.54,0,0,1,.66-1.19A2.69,2.69,0,0,1,71,77.36a3.36,3.36,0,0,1,2.21.56,2.2,2.2,0,0,1,.51,1.65v2.62c0,.5,0,.8,0,.88.05.43.2.64.44.64a1.07,1.07,0,0,0,.65-.36c0-.06.09-.08.12-.08S75,83.3,75,83.35Zm-3.19-1.82v-.75a1.59,1.59,0,0,0-1.48,1.68c0,.71.24,1.07.73,1.07a.59.59,0,0,0,.58-.46A4.69,4.69,0,0,0,71.83,81.53Z"/><path d="M83.35,84.06c0,.09-.13.13-.38.13H79.7c-.15,0-.22,0-.22-.12s.06-.1.18-.1h.12c.26,0,.42,0,.46-.1a1.65,1.65,0,0,0,.07-.68v-3a5.08,5.08,0,0,0-.21-2,.73.73,0,0,0-.65-.28,1.06,1.06,0,0,0-.76.29,1,1,0,0,0-.31.74v4.61a.35.35,0,0,0,.13.24,1.71,1.71,0,0,0,.5.07q.12,0,.12.09a.09.09,0,0,1-.1.1c-.07,0-.33,0-.77,0l-1.08,0q-.84,0-1.71,0c-.12,0-.19,0-.19-.11s.16-.12.47-.12.49-.06.54-.19l0-.21v-3.5c0-1,0-1.5,0-1.54s-.17-.23-.42-.23h-.51c-.17,0-.25,0-.25-.1s.06-.1.18-.11A5.53,5.53,0,0,0,78,77.36a.46.46,0,0,1,.16-.06q.12,0,.12.24v.87a2.51,2.51,0,0,1,2.08-1,1.64,1.64,0,0,1,1.71.92,2.72,2.72,0,0,1,.21.85c0,.32,0,1,0,2V83.3a1.17,1.17,0,0,0,.07.56.91.91,0,0,0,.5.08Q83.35,83.94,83.35,84.06Z"/><path d="M92,78.35q0,.81-.78.81t-.72-.66a.6.6,0,0,1,.06-.24.8.8,0,0,0,0-.2c0-.17-.09-.26-.28-.26A.51.51,0,0,0,90,78a.5.5,0,0,0-.16.36,1,1,0,0,0,.12.34,2.32,2.32,0,0,1,.29,1,2.29,2.29,0,0,1-1,1.91,3.29,3.29,0,0,1-2,.58,3.69,3.69,0,0,1-1.13-.2,1,1,0,0,0-.28,0,.78.78,0,0,0-.5.17.57.57,0,0,0-.21.45c0,.37.29.55.87.55a15.39,15.39,0,0,0,2-.18,4.55,4.55,0,0,1,.61,0,2.26,2.26,0,0,1,1.59.52,1.86,1.86,0,0,1,.56,1.44,2.84,2.84,0,0,1-1.15,2.38,5,5,0,0,1-3.11.89,4.14,4.14,0,0,1-2.18-.49,1.48,1.48,0,0,1-.8-1.32q0-1.26,1.86-1.53c-.74-.29-1.11-.74-1.11-1.34a1.71,1.71,0,0,1,1.43-1.67,2.22,2.22,0,0,1-1.4-2A2.15,2.15,0,0,1,85.08,78a3.41,3.41,0,0,1,2.18-.7,3.08,3.08,0,0,1,2.3.82,1.72,1.72,0,0,1,1.38-.75C91.63,77.4,92,77.72,92,78.35Zm-2.12,7.39c0-.75-.45-1.13-1.33-1.13a11.27,11.27,0,0,0-1.68.17,7.77,7.77,0,0,1-1.12.12H85.5a2,2,0,0,0-.43,1.29c0,1.08.71,1.62,2.11,1.62a3,3,0,0,0,1.9-.6A1.8,1.8,0,0,0,89.86,85.74Zm-1.49-5.88c0-1.56-.37-2.33-1.11-2.33s-1.12.7-1.12,2.11a4.46,4.46,0,0,0,.28,1.83,1,1,0,0,0,.91.55.83.83,0,0,0,.82-.47A4.38,4.38,0,0,0,88.37,79.86Z"/><path d="M97.55,78.5a1,1,0,0,1-.26.73.85.85,0,0,1-.67.28c-.55,0-.82-.25-.82-.76a.81.81,0,0,1,.2-.52.19.19,0,0,0,0-.11C96,78,96,78,95.85,78c-.35,0-.61.27-.79.81A9.73,9.73,0,0,0,94.91,81v2.45a.4.4,0,0,0,.41.45h.58c.12,0,.17,0,.17.11s0,.12-.14.12h-4c-.11,0-.17,0-.17-.1s.08-.1.22-.1a1.4,1.4,0,0,0,.75-.13c.09-.07.13-.3.13-.67V79.05a1.23,1.23,0,0,0-.15-.71c-.09-.14-.31-.22-.65-.25l-.45,0s0,0,0-.1,0-.09.12-.09h.57a7.39,7.39,0,0,0,2.53-.49,3,3,0,0,1,.08.71v.64a2.58,2.58,0,0,1,.63-1,1.28,1.28,0,0,1,.9-.31,1.15,1.15,0,0,1,.84.32A1.1,1.1,0,0,1,97.55,78.5Z"/><path d="M104.76,77.65c0,.07,0,.11-.06.13a2.72,2.72,0,0,1-.43,0,1.32,1.32,0,0,0-.48,0l-.1.17-.18.53c-.08.24-.26.74-.55,1.48,0,.06-.24.69-.67,1.88q-1.52,4.23-2,5.12c-.36.73-.83,1.1-1.4,1.1a1.1,1.1,0,0,1-.79-.29,1,1,0,0,1-.3-.77c0-.5.28-.75.83-.75a.58.58,0,0,1,.44.19,2,2,0,0,1,.26.43.34.34,0,0,0,.29.15c.21,0,.4-.17.59-.51a14.56,14.56,0,0,0,.77-1.94c-.08-.16-.24-.52-.47-1.08-.31-.77-.72-1.79-1.23-3-.12-.31-.39-1-.82-2a1.38,1.38,0,0,0-.37-.64,1.51,1.51,0,0,0-.7-.12c-.12,0-.18,0-.18-.11s.06-.11.18-.11h3.74c.12,0,.17,0,.17.11s-.15.13-.46.12-.46.06-.46.2a1.34,1.34,0,0,0,.13.47q.17.44.18.51c.5,1.38.91,2.44,1.22,3.16A24,24,0,0,0,103.37,78c0-.11-.11-.16-.35-.16-.49,0-.73,0-.73-.14s.06-.14.18-.14l.31,0c.19,0,.46,0,.79,0l.45,0,.51,0h.09C104.72,77.54,104.76,77.58,104.76,77.65Z"/><path d="M169,106.2a2.24,2.24,0,0,1-.63,1.66,2.16,2.16,0,0,1-1.61.64,3.57,3.57,0,0,1-1.16-.25,2.93,2.93,0,0,0-.71-.2.37.37,0,0,0-.38.22c-.06.15-.11.23-.14.23s-.09,0-.09-.11,0-.16,0-.29a8.14,8.14,0,0,0,0-1v-.75c0-.12,0-.17.08-.17s.1.07.13.23a2.18,2.18,0,0,0,.78,1.35,2.14,2.14,0,0,0,1.43.54,1.06,1.06,0,0,0,1.12-1.13.87.87,0,0,0-.29-.67,3.92,3.92,0,0,0-1.14-.51,3.94,3.94,0,0,1-1.66-.92,1.93,1.93,0,0,1-.51-1.38,2.1,2.1,0,0,1,.61-1.53,2,2,0,0,1,1.5-.62,5.59,5.59,0,0,1,1.16.21l.18,0a.55.55,0,0,0,.5-.41s.05-.08.08-.08.11.06.11.18l0,.29a1.28,1.28,0,0,0,0,.22,11.22,11.22,0,0,0,.07,1.28v.08q0,.12-.09.12c-.05,0-.09,0-.12-.14a1.82,1.82,0,0,0-1.8-1.56,1.29,1.29,0,0,0-.84.28.86.86,0,0,0-.32.7.77.77,0,0,0,.27.63,4.19,4.19,0,0,0,1.07.52,5.28,5.28,0,0,1,1.88,1A1.87,1.87,0,0,1,169,106.2Z"/><path d="M176.59,107.5c0,.09-.08.2-.25.34a2.25,2.25,0,0,1-1.62.61,1.31,1.31,0,0,1-.9-.26,1.56,1.56,0,0,1-.38-1,2.08,2.08,0,0,1-1.88,1.26,1.4,1.4,0,0,1-1.06-.42,1.45,1.45,0,0,1-.4-1.07c0-1.28,1.1-2,3.3-2.27v-.32a9.22,9.22,0,0,0-.11-1.88l0-.08a1,1,0,0,0-1.08-.76,1.09,1.09,0,0,0-.81.29.82.82,0,0,0-.31.56c0,.11.13.17.37.19s.55.25.55.67a.76.76,0,0,1-.22.56.81.81,0,0,1-.57.22,1,1,0,0,1-.73-.27.88.88,0,0,1-.28-.68,1.53,1.53,0,0,1,.66-1.19,2.6,2.6,0,0,1,1.72-.53,3.33,3.33,0,0,1,2.22.56,2.24,2.24,0,0,1,.5,1.65v2.61a7.75,7.75,0,0,0,0,.89c.05.43.19.64.44.64a1.05,1.05,0,0,0,.64-.37.19.19,0,0,1,.12-.07C176.56,107.43,176.59,107.45,176.59,107.5Zm-3.19-1.81v-.75a1.59,1.59,0,0,0-1.49,1.68c0,.71.25,1.07.74,1.07a.61.61,0,0,0,.58-.46A5,5,0,0,0,173.4,105.69Z"/><path d="M184.55,108c0,.07-.11.11-.31.11h-.69a3.73,3.73,0,0,0-1.57.35l-.11,0q-.13,0-.15-.27a1.65,1.65,0,0,0-.05-.39,2.07,2.07,0,0,1-1.61.66,2.82,2.82,0,0,1-2.22-1A3.68,3.68,0,0,1,177,105a3.57,3.57,0,0,1,.89-2.52,3.05,3.05,0,0,1,2.33-1,1.94,1.94,0,0,1,1.55.7v-2.14a5.28,5.28,0,0,0-.13-1.62q-.12-.25-.81-.24c-.26,0-.39,0-.39-.11s.06-.1.18-.1a8.79,8.79,0,0,0,2.68-.41.81.81,0,0,1,.27-.07c.11,0,.17.13.17.37v9.52a.59.59,0,0,0,.07.35q.1.14.54.12C184.47,107.89,184.55,107.93,184.55,108Zm-2.81-1.37v-3.33a1.8,1.8,0,0,0-.24-1,.92.92,0,0,0-.81-.42c-1,0-1.48,1.08-1.48,3.25a5.4,5.4,0,0,0,.38,2.25,1.17,1.17,0,0,0,1,.79,1,1,0,0,0,.75-.36A1.61,1.61,0,0,0,181.74,106.65Z"/><path d="M193.21,108.22q0,.12-.39.12h-3.26c-.15,0-.22,0-.22-.11s.06-.1.18-.1h.12c.26,0,.41,0,.46-.1a2,2,0,0,0,.07-.68v-3a5,5,0,0,0-.21-2,.71.71,0,0,0-.65-.28,1.08,1.08,0,0,0-.77.29,1,1,0,0,0-.3.73v4.62a.35.35,0,0,0,.13.24,1.78,1.78,0,0,0,.5.06q.12,0,.12.09c0,.07,0,.1-.11.11s-.32,0-.76,0H187q-.84,0-1.71,0c-.13,0-.19,0-.19-.1s.16-.13.47-.13.49-.06.54-.18l0-.21v-3.51q0-1.47,0-1.53c0-.16-.17-.23-.42-.23h-.52c-.16,0-.24,0-.24-.1s.06-.11.18-.12a5.6,5.6,0,0,0,2.72-.71.39.39,0,0,1,.17-.07c.08,0,.12.09.12.25v.87a2.51,2.51,0,0,1,2.08-1,1.66,1.66,0,0,1,1.71.91,2.86,2.86,0,0,1,.21.86q0,.46,0,1.95v2.22a1.07,1.07,0,0,0,.08.55c.05.06.22.09.5.09S193.21,108.14,193.21,108.22Z"/><path d="M200,106.45a1.64,1.64,0,0,1-.4.88,2.62,2.62,0,0,1-2.23,1.18,3.45,3.45,0,0,1-2.53-1,3.32,3.32,0,0,1-1-2.5,3.44,3.44,0,0,1,1-2.5,3.17,3.17,0,0,1,2.39-1,3.05,3.05,0,0,1,1.67.43,2.15,2.15,0,0,1,1,1.36,4.86,4.86,0,0,1,.09.65c-.23,0-1.17,0-2.82.07-.26,0-.58,0-1,0,0,.36,0,.67,0,.92a3.49,3.49,0,0,0,.75,2.53A1.47,1.47,0,0,0,198,108a1.67,1.67,0,0,0,1-.37,2.33,2.33,0,0,0,.76-.94c.08-.2.15-.29.2-.29S200,106.39,200,106.45Zm-1.93-2.67a4.92,4.92,0,0,0-.16-1.63.66.66,0,0,0-.64-.45c-.63,0-1,.69-1.08,2.08h1.88Z"/><path d="M205.73,106.2a2.27,2.27,0,0,1-.62,1.66,2.2,2.2,0,0,1-1.62.64,3.52,3.52,0,0,1-1.15-.25,3.08,3.08,0,0,0-.72-.2.38.38,0,0,0-.38.22c-.06.15-.11.23-.14.23s-.09,0-.09-.11a2.16,2.16,0,0,1,0-.29q0-.3,0-1v-.75c0-.12,0-.17.08-.17s.1.07.14.23a2.27,2.27,0,0,0,2.2,1.89,1.06,1.06,0,0,0,.81-.31,1.11,1.11,0,0,0,.32-.82.9.9,0,0,0-.29-.67,4.18,4.18,0,0,0-1.15-.51,4,4,0,0,1-1.66-.92,1.93,1.93,0,0,1-.51-1.38,2.1,2.1,0,0,1,.61-1.53,2,2,0,0,1,1.5-.62,5.59,5.59,0,0,1,1.16.21l.18,0a.55.55,0,0,0,.51-.41s0-.08.07-.08.11.06.11.18l0,.29a1.28,1.28,0,0,0,0,.22,9.36,9.36,0,0,0,.08,1.28v.08c0,.08,0,.12-.1.12s-.09,0-.12-.14a1.8,1.8,0,0,0-1.8-1.56,1.26,1.26,0,0,0-.83.28.87.87,0,0,0-.33.7.77.77,0,0,0,.27.63,4.38,4.38,0,0,0,1.07.52,5.19,5.19,0,0,1,1.88,1A1.83,1.83,0,0,1,205.73,106.2Z"/><path d="M211.44,106.2a2.23,2.23,0,0,1-.62,1.66,2.18,2.18,0,0,1-1.61.64,3.52,3.52,0,0,1-1.16-.25,3.08,3.08,0,0,0-.72-.2.38.38,0,0,0-.38.22c-.06.15-.1.23-.14.23s-.09,0-.09-.11a2.16,2.16,0,0,1,0-.29c0-.2,0-.54,0-1v-.75c0-.12,0-.17.07-.17s.11.07.14.23a2.21,2.21,0,0,0,.77,1.35,2.18,2.18,0,0,0,1.43.54A1.1,1.1,0,0,0,210,108a1.14,1.14,0,0,0,.31-.82.9.9,0,0,0-.29-.67,4,4,0,0,0-1.15-.51,4,4,0,0,1-1.65-.92,1.89,1.89,0,0,1-.52-1.38,2.15,2.15,0,0,1,.61-1.53,2,2,0,0,1,1.5-.62,5.59,5.59,0,0,1,1.16.21l.19,0a.55.55,0,0,0,.5-.41s0-.08.08-.08.1.06.1.18v.29a1.09,1.09,0,0,0,0,.22,11.28,11.28,0,0,0,.08,1.28v.08q0,.12-.09.12s-.09,0-.12-.14a1.82,1.82,0,0,0-1.81-1.56,1.28,1.28,0,0,0-.83.28.87.87,0,0,0-.33.7.75.75,0,0,0,.28.63,4.19,4.19,0,0,0,1.07.52,5.38,5.38,0,0,1,1.88,1A1.87,1.87,0,0,1,211.44,106.2Z"/><path class="d" d="M87.39,173.89a3.27,3.27,0,0,1-.08.71,74.91,74.91,0,0,0-.86,7.7c-3-.09-5.94-.15-8.79-.15l-.9,0c-.61,0-1.11,0-1.51,0l-5,.09-.56,0h-.3c-.9,0-1.35-.14-1.35-.44s.18-.46.56-.76A64.1,64.1,0,0,0,76.36,174a12.61,12.61,0,0,0,3.18-8.8,7.83,7.83,0,0,0-1.69-5.4,4.6,4.6,0,0,0-6-.36,2.69,2.69,0,0,0-1.1,2,.69.69,0,0,0,.52.75,10.59,10.59,0,0,0,1.08.12,2.66,2.66,0,0,1,1.86.84,2.76,2.76,0,0,1,.71,1.94,2.71,2.71,0,0,1-.68,1.9,2.28,2.28,0,0,1-1.75.73,2.83,2.83,0,0,1-2.3-1.09,4.51,4.51,0,0,1-.87-2.9,5.94,5.94,0,0,1,2.08-4.82,8.62,8.62,0,0,1,5.73-1.75,8.93,8.93,0,0,1,6.13,2.08,6.83,6.83,0,0,1,2.37,5.38q0,6.49-12,13.06h4.66c2.73,0,4.5-.09,5.3-.19a3.47,3.47,0,0,0,2.18-.76,5.05,5.05,0,0,0,.71-2q.22-1.29.6-1.29C87.28,173.36,87.39,173.54,87.39,173.89Z"/><path class="d" d="M108.28,174.23a7.56,7.56,0,0,1-2.82,6.05,10.79,10.79,0,0,1-7.17,2.36,8.9,8.9,0,0,1-5.08-1.26,4,4,0,0,1-1.84-3.47,2.93,2.93,0,0,1,.85-2.18,3.07,3.07,0,0,1,2.24-.83,2.06,2.06,0,0,1,2.36,2.29c0,1.11-.76,1.92-2.29,2.45-.63.2-.94.41-.94.64s.42.71,1.26,1.09a6.09,6.09,0,0,0,2.46.56,4.08,4.08,0,0,0,3.55-2,9.72,9.72,0,0,0,1.34-5.41A8.25,8.25,0,0,0,101,169.7,3.89,3.89,0,0,0,97.61,168a7.11,7.11,0,0,0-4.21,1.5c0-.7.09-1.58.12-2.66q.15-8.09.45-8.76c.15-.33,1.52-.48,4.13-.45h6.73c.55,0,.86-.33.94-1,0-.35.13-.53.33-.53s.27.17.27.49a15.83,15.83,0,0,1-.42,4.14,1.68,1.68,0,0,1-1,1.23,5.5,5.5,0,0,1-1.73.19H94.49q-.15,2.07-.22,5.83a11.15,11.15,0,0,1,5.26-1.2,9.52,9.52,0,0,1,6.37,2A6.76,6.76,0,0,1,108.28,174.23Z"/><path class="d" d="M133.69,155.7l-14.32,26.49h-2.14L131,157a6.56,6.56,0,0,1-4.13,1.27,7.57,7.57,0,0,1-3.65-.86,6.67,6.67,0,0,1,2.37,4.92,5.75,5.75,0,0,1-.81,2.89,6.65,6.65,0,0,1-2.16,2.31,6.26,6.26,0,0,1-3.53.89,6.88,6.88,0,0,1-4.9-1.82,6,6,0,0,1-1.94-4.61,6,6,0,0,1,1.89-4.47,6.54,6.54,0,0,1,4.68-1.8,14.49,14.49,0,0,1,4.24,1,11.67,11.67,0,0,0,3.75.71,8.85,8.85,0,0,0,5-1.69Zm-12.4,5.94a11.26,11.26,0,0,0-.64-4.06,1.72,1.72,0,0,0-1.69-1.24q-2.44,0-2.45,5.52,0,5.83,2.6,5.83c.77,0,1.34-.57,1.69-1.69A15.32,15.32,0,0,0,121.29,161.64Zm17.39,14.73a5.91,5.91,0,0,1-2.93,5.26,6.5,6.5,0,0,1-3.53.9,6.94,6.94,0,0,1-4.92-1.82,6.05,6.05,0,0,1-2-4.61,5.84,5.84,0,0,1,1.92-4.5,6.87,6.87,0,0,1,4.85-1.77,6.22,6.22,0,0,1,4.43,1.54A6.53,6.53,0,0,1,138.68,176.37Zm-4.28-.64a10.93,10.93,0,0,0-.64-4,1.71,1.71,0,0,0-1.69-1.24q-2.44,0-2.44,5.56,0,5.79,2.55,5.79c.81,0,1.38-.57,1.73-1.7A15.06,15.06,0,0,0,134.4,175.73Z"/><path d="M83.06,193.22c0,.06,0,.09-.14.09H81.7c-.88,0-1.42,0-1.62,0h-.24l-.37,0c-.13,0-.2,0-.2-.11s0-.1.08-.1h.35c.22,0,.35,0,.38-.18s0-.59,0-1.53v-2.27a5.25,5.25,0,0,0-.14-1.69.76.76,0,0,0-.75-.39,1,1,0,0,0-.91.53,2.7,2.7,0,0,0-.15,1.13v4.18q0,.24.63.24c.09,0,.13,0,.13.09s-.07.1-.2.1H78.6a1.18,1.18,0,0,0-.37,0H76.71l-.91,0h-.45c-.16,0-.23,0-.23-.09a.06.06,0,0,1,0-.06h.14a2.62,2.62,0,0,0,.68-.05c.07,0,.12-.15.14-.35s0-.73,0-1.83v-5.61a15.06,15.06,0,0,0-.06-1.9c0-.17-.27-.25-.65-.25s-.45,0-.45-.09.18-.11.52-.13a9.54,9.54,0,0,0,2.2-.39,1.22,1.22,0,0,1,.29-.06c.08,0,.12.28.12.85v4.22a2.79,2.79,0,0,1,.87-.86,2.42,2.42,0,0,1,1.14-.23A1.75,1.75,0,0,1,82,187.69a4.41,4.41,0,0,1,.14,1.29v3.56c0,.26,0,.42.13.49a1.38,1.38,0,0,0,.65.09C83,193.12,83.06,193.15,83.06,193.22Z"/><path d="M90.5,192.46c0,.08-.08.2-.25.34a2.25,2.25,0,0,1-1.62.61,1.26,1.26,0,0,1-.9-.27,1.53,1.53,0,0,1-.38-.94,2.07,2.07,0,0,1-1.88,1.25A1.39,1.39,0,0,1,84,192c0-1.28,1.1-2,3.3-2.27v-.33a9.16,9.16,0,0,0-.11-1.87l0-.08a1,1,0,0,0-1.08-.76,1.09,1.09,0,0,0-.81.29.82.82,0,0,0-.31.56c0,.1.13.16.37.18s.55.26.55.68a.72.72,0,0,1-.22.55.77.77,0,0,1-.57.22,1,1,0,0,1-.73-.26.9.9,0,0,1-.28-.68,1.53,1.53,0,0,1,.65-1.19,2.65,2.65,0,0,1,1.73-.54,3.33,3.33,0,0,1,2.22.57,2.21,2.21,0,0,1,.5,1.65v2.61c0,.51,0,.8,0,.88.06.43.2.65.45.65a1.11,1.11,0,0,0,.64-.37c0-.05.09-.08.12-.08A.07.07,0,0,1,90.5,192.46Zm-3.19-1.82v-.75a1.61,1.61,0,0,0-1.49,1.68c0,.72.25,1.07.74,1.07a.6.6,0,0,0,.58-.46A4.94,4.94,0,0,0,87.31,190.64Z"/><path d="M98.32,189.84a3.84,3.84,0,0,1-.89,2.59,2.77,2.77,0,0,1-2.2,1,2,2,0,0,1-1.62-.8v3.43a1.89,1.89,0,0,0,0,.54.26.26,0,0,0,.2.14,6.76,6.76,0,0,0,.81.05c.11,0,.17,0,.17.14s-.07.12-.2.12H90.79c-.23,0-.34,0-.34-.13s.18-.1.55-.1.48,0,.51-.09a1.54,1.54,0,0,0,.06-.58v-8.47a.34.34,0,0,0-.25-.39,1.77,1.77,0,0,0-.52-.05h-.29q-.12,0-.12-.09t.18-.09a7.28,7.28,0,0,0,2.84-.61.43.43,0,0,1,.08.24l0,.38,0,.26a2.26,2.26,0,0,1,.81-.69,2.29,2.29,0,0,1,1-.19,2.69,2.69,0,0,1,2.11.95A3.51,3.51,0,0,1,98.32,189.84Zm-2.25-.06c0-1.94-.43-2.91-1.3-2.91a1.17,1.17,0,0,0-1,.55,1.57,1.57,0,0,0-.18.87v3a2.39,2.39,0,0,0,.25,1.32,1.06,1.06,0,0,0,.94.52C95.65,193.13,96.07,192,96.07,189.78Z"/><path d="M106.78,189.84a3.84,3.84,0,0,1-.88,2.59,2.8,2.8,0,0,1-2.21,1,1.92,1.92,0,0,1-1.61-.8v3.43a2,2,0,0,0,0,.54.26.26,0,0,0,.2.14,6.76,6.76,0,0,0,.81.05c.11,0,.17,0,.17.14s-.07.12-.2.12H99.25c-.22,0-.34,0-.34-.13s.19-.1.55-.1.48,0,.51-.09a1.54,1.54,0,0,0,.06-.58v-8.47a.34.34,0,0,0-.25-.39,1.77,1.77,0,0,0-.52-.05H99q-.12,0-.12-.09c0-.08.06-.11.19-.09a7.32,7.32,0,0,0,2.84-.61.52.52,0,0,1,.07.24l0,.38,0,.26a2.26,2.26,0,0,1,.81-.69,2.29,2.29,0,0,1,1-.19,2.67,2.67,0,0,1,2.11.95A3.51,3.51,0,0,1,106.78,189.84Zm-2.25-.06c0-1.94-.43-2.91-1.3-2.91a1.14,1.14,0,0,0-1,.55,1.57,1.57,0,0,0-.18.87v3a2.51,2.51,0,0,0,.24,1.32,1.06,1.06,0,0,0,.94.52C104.11,193.13,104.53,192,104.53,189.78Z"/><path d="M111.87,193.18c0,.07-.05.1-.14.1h-3.85q-.18,0-.18-.09c0-.05.11-.08.35-.09a.53.53,0,0,0,.7-.72V188c0-.39,0-.62-.1-.69s-.27-.12-.6-.12a2.18,2.18,0,0,1-.38,0s0,0,0-.1.08-.11.23-.11a7.43,7.43,0,0,0,2.87-.52c0,.12,0,.46.08,1v4.81c0,.42,0,.66.11.73s.34.11.79.11C111.81,193.07,111.87,193.11,111.87,193.18Zm-1.07-9.69a1,1,0,0,1-.3.74,1,1,0,0,1-.72.3,1,1,0,0,1-1-1,.89.89,0,0,1,.3-.7,1,1,0,0,1,.76-.28,1,1,0,0,1,.71.28A.94.94,0,0,1,110.8,183.49Z"/><path d="M120.5,193.18q0,.12-.39.12h-3.27c-.14,0-.21,0-.21-.11s.06-.1.18-.1h.12c.26,0,.41,0,.46-.1a2,2,0,0,0,.07-.69v-3a5.2,5.2,0,0,0-.21-2,.72.72,0,0,0-.65-.28,1.08,1.08,0,0,0-.77.29,1,1,0,0,0-.3.73v4.62c0,.12.06.2.13.23a1.37,1.37,0,0,0,.5.07q.12,0,.12.09c0,.06,0,.1-.11.11h-.76l-1.09,0q-.84,0-1.71,0c-.12,0-.18,0-.18-.11s.16-.12.47-.12.49-.06.54-.18l0-.22v-3.5c0-1,0-1.5,0-1.54s-.16-.23-.41-.23h-.52c-.16,0-.24,0-.24-.1s.06-.1.18-.11a5.49,5.49,0,0,0,2.72-.72.49.49,0,0,1,.17-.06c.08,0,.12.08.12.25v.87a2.49,2.49,0,0,1,2.08-1.06,1.67,1.67,0,0,1,1.71.92,2.52,2.52,0,0,1,.2.85c0,.32,0,1,0,2v2.21a1.09,1.09,0,0,0,.08.56c0,.06.21.08.5.08S120.5,193.1,120.5,193.18Z"/><path d="M127.31,191.41a1.67,1.67,0,0,1-.4.88,2.62,2.62,0,0,1-2.23,1.18,3.49,3.49,0,0,1-2.54-1,3.37,3.37,0,0,1-1-2.5,3.46,3.46,0,0,1,1-2.5,3.19,3.19,0,0,1,2.4-1,3.07,3.07,0,0,1,1.67.43,2.13,2.13,0,0,1,1,1.35,5.28,5.28,0,0,1,.09.66q-.35,0-2.82.06l-1,0c0,.37,0,.68,0,.93a3.49,3.49,0,0,0,.75,2.53,1.47,1.47,0,0,0,1.08.44,1.73,1.73,0,0,0,1-.37,2.3,2.3,0,0,0,.76-1c.08-.19.15-.29.2-.29S127.31,191.34,127.31,191.41Zm-1.93-2.68a4.53,4.53,0,0,0-.17-1.62.64.64,0,0,0-.64-.45c-.62,0-1,.69-1.07,2.07h1.88Z"/><path d="M133,191.16a2.25,2.25,0,0,1-.63,1.66,2.15,2.15,0,0,1-1.61.63,3.58,3.58,0,0,1-1.16-.24,2.93,2.93,0,0,0-.71-.2.37.37,0,0,0-.38.22c-.06.15-.11.22-.14.22s-.09,0-.09-.11,0-.15,0-.29a7.85,7.85,0,0,0,0-1v-.75c0-.12,0-.17.08-.17s.1.07.13.22a2.28,2.28,0,0,0,.78,1.36,2.16,2.16,0,0,0,1.43.54,1.13,1.13,0,0,0,.81-.31,1.12,1.12,0,0,0,.31-.82.85.85,0,0,0-.29-.67,3.65,3.65,0,0,0-1.14-.51,4,4,0,0,1-1.66-.92,1.93,1.93,0,0,1-.51-1.38,2.1,2.1,0,0,1,.61-1.53,2,2,0,0,1,1.5-.63,5.16,5.16,0,0,1,1.16.22l.18,0c.23,0,.39-.14.51-.42,0-.05,0-.07.07-.07s.11.06.11.18l0,.29a1.16,1.16,0,0,0,0,.22,11.35,11.35,0,0,0,.07,1.28v.07c0,.09,0,.13-.09.13s-.09-.05-.12-.14a1.8,1.8,0,0,0-1.8-1.56,1.21,1.21,0,0,0-.83.28.86.86,0,0,0-.33.7.77.77,0,0,0,.27.62,3.75,3.75,0,0,0,1.07.52,5.34,5.34,0,0,1,1.88,1A1.83,1.83,0,0,1,133,191.16Z"/><path d="M138.73,191.16a2.29,2.29,0,0,1-.62,1.66,2.19,2.19,0,0,1-1.62.63,3.48,3.48,0,0,1-1.15-.24,3.08,3.08,0,0,0-.72-.2.37.37,0,0,0-.38.22c-.06.15-.11.22-.14.22s-.09,0-.09-.11a2.32,2.32,0,0,1,0-.29c0-.19,0-.53,0-1v-.75c0-.12,0-.17.08-.17s.11.07.14.22a2.26,2.26,0,0,0,.77,1.36,2.16,2.16,0,0,0,1.43.54,1.1,1.1,0,0,0,.81-.31,1.12,1.12,0,0,0,.32-.82.88.88,0,0,0-.29-.67,3.89,3.89,0,0,0-1.15-.51,4.07,4.07,0,0,1-1.66-.92,1.93,1.93,0,0,1-.51-1.38,2.15,2.15,0,0,1,.61-1.53,2,2,0,0,1,1.5-.63,5.16,5.16,0,0,1,1.16.22l.18,0q.34,0,.51-.42c0-.05,0-.07.07-.07s.11.06.11.18v.29a1,1,0,0,0,0,.22,11.42,11.42,0,0,0,.08,1.28v.07c0,.09,0,.13-.09.13s-.1-.05-.13-.14a1.8,1.8,0,0,0-1.8-1.56,1.23,1.23,0,0,0-.83.28.86.86,0,0,0-.33.7.77.77,0,0,0,.27.62,3.75,3.75,0,0,0,1.07.52,5.34,5.34,0,0,1,1.88,1A1.83,1.83,0,0,1,138.73,191.16Z"/></svg>