<svg xmlns="http://www.w3.org/2000/svg" width="259.278" height="14" viewBox="0 0 259.278 14">
  <g id="グループ_116" data-name="グループ 116" transform="translate(-14 -3269)">
    <g id="グループ_62" data-name="グループ 62" transform="translate(126 3283) rotate(-90)">
      <path id="パス_221" data-name="パス 221" d="M483.164,330.081a13.785,13.785,0,0,0-1.764-1.8c-.416-.376-.8-.792-1.215-1.166a7.5,7.5,0,0,0-2.03-1.592,5.217,5.217,0,0,0,.591,1.051,23.759,23.759,0,0,0,1.711,1.7,29.465,29.465,0,0,1,3.476,3.659,3.526,3.526,0,0,1,.867,2.421,1.984,1.984,0,0,0,.037.523.672.672,0,0,0,.7.522.58.58,0,0,0,.521-.568,1.73,1.73,0,0,0-.242-1.216,5.368,5.368,0,0,1-.822-2.473,2.871,2.871,0,0,0-.129-.439l-.695.332A8.564,8.564,0,0,1,483.164,330.081Z" transform="translate(-472.349 -319.327)"/>
      <path id="パス_222" data-name="パス 222" d="M478.05,325.355c0,.012,0,.022,0,.034l0,0,.036.017c-.007-.014-.014-.028-.021-.042Z" transform="translate(-472.276 -319.217)"/>
      <path id="パス_223" data-name="パス 223" d="M475.435,319.549c-.256.123-.19.307-.167.463a3.033,3.033,0,0,0,.9,1.454A2.751,2.751,0,0,0,475.435,319.549Z" transform="translate(-470.399 -315.327)"/>
      <path id="パス_224" data-name="パス 224" d="M484.466,320.129a3.859,3.859,0,0,1,2.548,2.162c.341.758.616,1.546.924,2.319.008.02.059.024.121.046a.8.8,0,0,0,.082-.26,5.635,5.635,0,0,0-2.8-4.543,2.336,2.336,0,0,0-2.059-.117,1.66,1.66,0,0,0,.361.221C483.916,320.03,484.2,320.05,484.466,320.129Z" transform="translate(-475.786 -315.334)"/>
      <path id="パス_225" data-name="パス 225" d="M478.026,334.606l-.051.165,0,.012.006,0,0-.008Z" transform="translate(-472.229 -325.414)"/>
      <path id="パス_226" data-name="パス 226" d="M474.928,347.976a.561.561,0,0,1,.819-.6c.295.1.571.262.87.349a.485.485,0,0,0,.364-.132.3.3,0,0,0,.028-.289,3.417,3.417,0,0,0-1.316-1.364c-.327.209-.588.377-.851.543a.982.982,0,0,0-.474.881,2.091,2.091,0,0,0,.1.72c.2.538.449,1.06.679,1.588-.032-.291-.064-.579-.1-.867A7.9,7.9,0,0,1,474.928,347.976Z" transform="translate(-469.813 -333.004)"/>
      <path id="パス_227" data-name="パス 227" d="M475.606,358.934c.233.349.445.713.655,1.076a1.363,1.363,0,0,0,.638.67.427.427,0,0,0,.568-.3,1.062,1.062,0,0,0-.008-.414,2.782,2.782,0,0,0-.236-.582,9.728,9.728,0,0,0-1.574-1.826,1.672,1.672,0,0,0-.439-.251l0,0h0l.011-.018-.018-.041c0,.02,0,.039.007.059-.124.2-.255.4-.366.609a2.7,2.7,0,0,0-.3.664,4.238,4.238,0,0,0,.563,3.1c-.034-.485-.131-.959-.187-1.438a2.04,2.04,0,0,1,.164-1.233A.307.307,0,0,1,475.606,358.934Z" transform="translate(-469.87 -340.576)"/>
      <path id="パス_228" data-name="パス 228" d="M476.2,342.652c-.033-.045-.116-.052-.176-.077-.021.06-.076.137-.056.176.072.142.169.27.342.532A.709.709,0,0,0,476.2,342.652Z" transform="translate(-470.883 -330.752)"/>
      <path id="パス_229" data-name="パス 229" d="M474.1,336.709c.808-.109.811-.112,1.3.382.173.174.331.363.5.545.61.676,1.217,1.356,1.833,2.027a11.686,11.686,0,0,1,1.143,1.228,23.825,23.825,0,0,0,1.988,2.443c.2.228.377.548.764.419.232-.077.189-.458-.175-.91-.681-.845-1.4-1.663-2.1-2.49-.521-.614-1.081-1.2-1.558-1.845-.665-.9-1.266-1.848-1.9-2.772a1.2,1.2,0,0,0-.7-.588.7.7,0,0,1,.093.8c-.167-.085-.317-.153-.46-.236-.269-.156-.546-.412-.85-.133-.273.25-.161.584-.049.883A1.079,1.079,0,0,0,474.1,336.709Z" transform="translate(-469.434 -325.777)"/>
      <path id="パス_230" data-name="パス 230" d="M474.332,310.132c.046-.48.064-.86.122-1.234a.623.623,0,0,1,.909-.545c.229.084.444.211.675.287a.914.914,0,0,0,.408.013c.255-.039.415-.391.245-.565a10.816,10.816,0,0,0-1.146-1.07,1.532,1.532,0,0,0-.781-.254.859.859,0,0,0-.927.806c-.023.593-.021,1.189,0,1.782A.749.749,0,0,0,474.332,310.132Z" transform="translate(-469.446 -306.761)"/>
      <path id="パス_231" data-name="パス 231" d="M475.26,591.152a.422.422,0,0,1,.346.148c.188.251.336.53.5.8a6.339,6.339,0,0,0,.386.621.524.524,0,1,0,.908-.519,3.7,3.7,0,0,0-1.612-2,.751.751,0,0,0-1.229.465,3.153,3.153,0,0,0-.057,1.864c.214.772.5,1.523.773,2.278.025.07.136.109.363.28a6.073,6.073,0,0,0-.3-.819,4.192,4.192,0,0,1-.471-1.917,3.425,3.425,0,0,1,.119-.927A.438.438,0,0,1,475.26,591.152Z" transform="translate(-469.826 -496.519)"/>
      <path id="パス_232" data-name="パス 232" d="M474.663,743.772c.272-1.325.272-1.327,0-2.094Z" transform="translate(-470.01 -598.1)"/>
      <path id="パス_233" data-name="パス 233" d="M477.444,631.084a.3.3,0,0,0-.4-.215,1.706,1.706,0,0,0-.171.12c-.68.522-.858.489-1.258-.228a1.685,1.685,0,0,1-.286-.994,1.794,1.794,0,0,1,.151-.428c.543-.045.6.512,1.185.714-.148-.451-.235-.742-.339-1.026a1.166,1.166,0,0,0-.945-.743.545.545,0,0,0-.717.542,1.3,1.3,0,0,0,.02.521,19.256,19.256,0,0,0,.729,1.851,2.525,2.525,0,0,0,.622.7.67.67,0,0,0,.866.122A.963.963,0,0,0,477.444,631.084Z" transform="translate(-469.999 -522.128)"/>
      <path id="パス_234" data-name="パス 234" d="M475.152,618.688a6.376,6.376,0,0,1,.192-.689.55.55,0,0,1,.657-.382c.206.025.407.091.613.116a.416.416,0,0,0,.487-.291.478.478,0,0,0-.235-.534,3.5,3.5,0,0,0-.666-.29,1.052,1.052,0,0,0-1.459,1.161A1.2,1.2,0,0,0,475.152,618.688Z" transform="translate(-470.057 -514.278)"/>
      <path id="パス_235" data-name="パス 235" d="M474.339,751.072c-.07.073-.1.094-.116.124-.071.166-.108.332.061.466a.141.141,0,0,0,.1,0c.032-.158.06-.318.079-.478C474.463,751.166,474.413,751.14,474.339,751.072Z" transform="translate(-469.675 -604.393)"/>
      <path id="パス_236" data-name="パス 236" d="M474.23,725.051c-.012.836-.041,1.672-.035,2.508a2.937,2.937,0,0,0,.16.666c.46-1,.012-2.14.62-3.134l1.046.361a2.482,2.482,0,0,0-.566-1.761C474.355,723.931,474.245,724.06,474.23,725.051Z" transform="translate(-469.696 -586.05)"/>
      <path id="パス_237" data-name="パス 237" d="M477.325,703.6a7.005,7.005,0,0,1-.965-1.092.644.644,0,0,1-.121-.774c.112-.168.368-.1.737.184.138.107.258.238.4.345.106.081.225.187.431-.044-.485-1.088-1.5-1.857-2.047-3.03a1.794,1.794,0,0,0-.3,2.416,7.681,7.681,0,0,0,1.842,2.657.93.93,0,0,1,.148.149.96.96,0,0,1,0,1.167.773.773,0,0,1-1.049.074,3.154,3.154,0,0,1-.532-.5c-.119-.126-.2-.287-.329-.4-.065-.06-.225-.113-.274-.076-.1.07-.21.213-.2.313a2.828,2.828,0,0,0,.653,1.663c.453.028.832.063,1.212.074a1.115,1.115,0,0,0,1.277-1.1,2.415,2.415,0,0,0-.1-.925A2.455,2.455,0,0,0,477.325,703.6Z" transform="translate(-470.274 -569.636)"/>
      <path id="パス_238" data-name="パス 238" d="M467.173,600.543a23.225,23.225,0,0,0,2.235,2.2c.039.038.131.02.264.037.028-.114.115-.258.076-.35a4.1,4.1,0,0,0-.476-.929c-.68-.89-1.392-1.756-2.1-2.628a.367.367,0,0,0-.154-.081c.062.243.271.472.074.769-.107-.038-.231-.044-.287-.108a37.816,37.816,0,0,0-2.675-2.819c-.025-.024-.043-.055-.067-.081-.908-.976-1.813-1.955-2.727-2.926-.16-.17-.311-.4-.607-.311-.254.208-.164.452-.055.67a9.911,9.911,0,0,0,2.12,2.73.947.947,0,0,0,.45.253,2.037,2.037,0,0,1,1.185.813c.3.343.654.634.977.956A22.5,22.5,0,0,1,467.173,600.543Z" transform="translate(-460.568 -498.706)"/>
      <path id="パス_239" data-name="パス 239" d="M483.395,400.154a4.114,4.114,0,0,0-.374-1.09,12.457,12.457,0,0,0-1.567-2.49,15.086,15.086,0,0,0-2.684-2.661,1.79,1.79,0,0,0-1.163-.419,2,2,0,0,1-1.087-.338,9.593,9.593,0,0,0-1.247-.556.837.837,0,0,0-1.016.352,2.522,2.522,0,0,0-.329.653,7.222,7.222,0,0,0,0,2.84.984.984,0,0,1,.944.506,6.375,6.375,0,0,0,.894,1.032.891.891,0,0,0,1.165.008.774.774,0,0,0,.308-1.012,3.2,3.2,0,0,0-2.214-2.2,2.593,2.593,0,0,1-.4-.133.451.451,0,0,1-.2-.541.818.818,0,0,1,.8-.571,2.414,2.414,0,0,1,1.923,1.276c.079.194.122.4.2.6a.526.526,0,0,0,.563.379,1.17,1.17,0,0,1,.35.089,2.4,2.4,0,0,1-.054.269c-.192.545-.172.721.215.987a.62.62,0,0,0,.477.051.4.4,0,0,0,.188-.337,3.406,3.406,0,0,0-.21-.8c-.162-.42-.356-.828-.573-1.326.236-.041.309-.075.365-.059a.806.806,0,0,1,.279.14,16.515,16.515,0,0,1,3.457,3.939,3.215,3.215,0,0,1,.405,1.511.668.668,0,0,1-.488.724.709.709,0,0,1-.883-.368c-.09-.15-.146-.321-.243-.466a2.952,2.952,0,0,0-1.394-1.08.47.47,0,0,0-.575.117.5.5,0,0,0-.029.591,1.162,1.162,0,0,0,.242.34,16.462,16.462,0,0,0,1.281,1.091,2.4,2.4,0,0,0,1.38.462A1.22,1.22,0,0,0,483.395,400.154Zm-8.338-4.387c.04-.069.257-.084.375-.051a1.846,1.846,0,0,1,1.262,1.274c.081.231-.167.507-.527.465a1.657,1.657,0,0,1-.518-.293,4.606,4.606,0,0,1-.649-.929A.568.568,0,0,1,475.057,395.767Z" transform="translate(-469.423 -364.224)"/>
      <path id="パス_240" data-name="パス 240" d="M480,609.761l.02-.023-.031-.048C480,609.714,480,609.737,480,609.761Z" transform="translate(-473.58 -509.685)"/>
      <path id="パス_241" data-name="パス 241" d="M479.379,608.625l.2.316q-.029-.186-.059-.369Z" transform="translate(-473.169 -508.935)"/>
      <path id="パス_242" data-name="パス 242" d="M475.905,642.364a7.834,7.834,0,0,0-.013-1.021,1.145,1.145,0,0,0-.277-.533.338.338,0,0,0-.542.057,2.964,2.964,0,0,0-.524,1.779,6.538,6.538,0,0,0,1.059,2.932,1.842,1.842,0,0,0,1.094.768.505.505,0,0,0,.634-.6c-.058-.416-.261-.583-.7-.574-.659.013-.983-.189-1.152-.8a4.163,4.163,0,0,1-.159-1.669Z" transform="translate(-469.926 -530.457)"/>
      <path id="パス_243" data-name="パス 243" d="M484.059,700a3.875,3.875,0,0,0-.043-2.569A7.829,7.829,0,0,0,484.059,700Z" transform="translate(-476.213 -568.46)"/>
      <path id="パス_244" data-name="パス 244" d="M477.173,445.7l.026-.107-.006-.007C477.184,445.64,477.175,445.691,477.173,445.7Z" transform="translate(-471.691 -399.758)"/>
      <path id="パス_245" data-name="パス 245" d="M490.233,492.229a.624.624,0,0,0,.26-.223c.017-.026-.1-.138-.2-.271a1.264,1.264,0,0,0-.23.314C490.048,492.091,490.2,492.242,490.233,492.229Z" transform="translate(-480.324 -430.67)"/>
      <path id="パス_246" data-name="パス 246" d="M484.226,491.823a5.727,5.727,0,0,0-.146-2.372A3.462,3.462,0,0,0,484.226,491.823Z" transform="translate(-476.231 -429.14)"/>
      <path id="パス_247" data-name="パス 247" d="M474.661,449.349a4.519,4.519,0,0,0,1.3,2.8.722.722,0,0,0,.856.221,1,1,0,0,0,.634-.893.36.36,0,0,0-.136-.263.319.319,0,0,0-.287-.021c-.173.114-.3.305-.483.4a.59.59,0,0,1-.484.018,1.962,1.962,0,0,1-.7-1.771.282.282,0,0,1,.418-.165c.229.2.443.411.7.649a1.738,1.738,0,0,0-.617-1.6.8.8,0,0,0-.889-.1A.663.663,0,0,0,474.661,449.349Z" transform="translate(-470.001 -401.724)"/>
      <path id="パス_248" data-name="パス 248" d="M478.557,466.863a3.792,3.792,0,0,1-.577-1.89q-.036-.523-.1-1.044c0-.039-.1-.066-.193-.12l-.37.772c-.805-.489-1.083-1.333-1.729-2.052a5.4,5.4,0,0,0,.321,1.108,4.625,4.625,0,0,1,.08.568,2.218,2.218,0,0,1-.28.046c-.729,0-.984.2-1.032.854a3.034,3.034,0,0,0,.054.732c.131.759.278,1.515.43,2.329a2.844,2.844,0,0,0-.31.482,1.632,1.632,0,0,0-.172.694,6.076,6.076,0,0,0,.437,1.707c.057-.542.079-.872.131-1.2a.308.308,0,0,1,.423-.188c.308.228.6.481.892.726.148.123.225.371.534.268.054-.269-.137-.454-.3-.614a6.787,6.787,0,0,1-1.591-4.249.467.467,0,0,1,.815-.365c.376.311.7.688,1.045,1.036a1.6,1.6,0,0,1,.479,1.134c.021.738.062,1.475.1,2.212.009.163-.037.36.243.465a4.424,4.424,0,0,0,.178-1.237,2.5,2.5,0,0,1,0-.525.492.492,0,0,1,.2-.334.421.421,0,0,1,.359.108c.175.169.3.391.465.57.23.247.385.583.728.707.218-.258.047-.44-.047-.609C479.378,468.253,479,467.538,478.557,466.863Z" transform="translate(-470.013 -411.106)"/>
      <path id="パス_249" data-name="パス 249" d="M477.264,510.811a.575.575,0,0,0-.073-.594,2.211,2.211,0,0,0-.257-.331c-.275-.317-.551-.633-.836-.941-.027-.029-.113,0-.186,0l.242.851c-.219.062-.316.1-.417.117s-.211.01-.312.037a.469.469,0,0,0-.4.529,1.729,1.729,0,0,0,.123.507c.193.411.411.809.617,1.214.142.279.324.554.1.913-.106.032-.237.071-.368.113-.515.167-.647.318-.655.8a3.258,3.258,0,0,0,.792,2.126c-.084-.542-.183-.982-.21-1.427a.433.433,0,0,1,.628-.452c.2.068.382.177.582.234a.392.392,0,0,0,.483-.49,2.47,2.47,0,0,0-.145-.394c-.3-.67-.616-1.334-.9-2.012a2.163,2.163,0,0,1-.051-.614c.291.028.5.055.7.065A.518.518,0,0,0,477.264,510.811Z" transform="translate(-470.129 -442.189)"/>
      <path id="パス_250" data-name="パス 250" d="M474.649,494.25a4.606,4.606,0,0,0,1.215,2.624,1.538,1.538,0,0,0,.422.306.682.682,0,0,0,.405.04,1.041,1.041,0,0,0,.747-.915.361.361,0,0,0-.125-.268.441.441,0,0,0-.29-.045c-.06.006-.114.076-.169.118-.672.525-.877.5-1.244-.239a3.592,3.592,0,0,1-.29-.994c-.024-.14.1-.305.142-.432.539-.041.6.511,1.073.683a2.734,2.734,0,0,0-.381-1.273,1.282,1.282,0,0,0-.3-.287.866.866,0,0,0-.89-.148A.708.708,0,0,0,474.649,494.25Z" transform="translate(-469.986 -431.751)"/>
      <path id="パス_251" data-name="パス 251" d="M474.124,537.541a10.587,10.587,0,0,0,.553,1.8,3.543,3.543,0,0,1,.406,1.817,2.665,2.665,0,0,0,.331,1.523c.1.171.245.244.437.022-.041-.215-.1-.452-.126-.693-.02-.207-.084-.486.019-.614a2.6,2.6,0,0,0,.356-1.507,9.394,9.394,0,0,0,.854-.415c.1-.059.206-.25.178-.336a.588.588,0,0,0-.318-.351,1.417,1.417,0,0,0-.619.01c-.24.043-.47.168-.709.186a.544.544,0,0,1-.444-.176,2.471,2.471,0,0,1-.268-2.119.776.776,0,0,1,1.167-.5,4.5,4.5,0,0,1,1.554,1.232,1.9,1.9,0,0,1,.469.923c.126.507.315,1,.476,1.5.052.161.1.322.161.516-.286.145-.542.25-.771.4a.461.461,0,0,0-.193.557,2.728,2.728,0,0,0,1.655,1.793,1.373,1.373,0,0,0,1.727-1.413,4.705,4.705,0,0,0-.85-2.243,17.708,17.708,0,0,0-3-3.237,3.084,3.084,0,0,0-1.6-.751,1.007,1.007,0,0,0-1.082.483A1.975,1.975,0,0,0,474.124,537.541Zm5.569,2.589c.413.17.542.573.677.954a.74.74,0,0,1-.092.857c-.205-.529-.709-.792-1.066-1.138C479.185,540.417,479.387,540.259,479.693,540.13Zm-.63,1.717c.465.487.535.5,1.2.147a.519.519,0,0,1-.3.453.805.805,0,0,1-.793-.028.937.937,0,0,1-.618-.829C478.888,541.442,478.936,541.713,479.063,541.847Z" transform="translate(-469.613 -459.952)"/>
      <path id="パス_252" data-name="パス 252" d="M490.325,700.648a1.141,1.141,0,0,0-.3.182c.052.073.1.208.156.208a1.3,1.3,0,0,0,.377-.138C490.442,700.768,490.365,700.637,490.325,700.648Z" transform="translate(-480.302 -570.614)"/>
      <path id="パス_253" data-name="パス 253" d="M479.74,669.814c-.4-.7-.78-1.415-1.219-2.091a3.668,3.668,0,0,1-.56-1.785c-.029-.384-.061-.767-.106-1.148,0-.044-.1-.078-.165-.125l-.445.77a2.555,2.555,0,0,1-.9-.964,6.927,6.927,0,0,1-1.193-3.006.619.619,0,0,1,.2-.667c.262-.164.468.027.651.186.212.183.4.4.607.583a4.151,4.151,0,0,0,.465.292,2.4,2.4,0,0,0-.171-.524c-.331-.453-.679-.895-1.022-1.339a1.272,1.272,0,0,0-.143-.154.671.671,0,0,0-.767-.182.633.633,0,0,0-.334.612,2.742,2.742,0,0,0,.078.624,16.16,16.16,0,0,0,1,3.208,1.271,1.271,0,0,1,.222.963,1.727,1.727,0,0,1-.254.048c-.729.008-.976.205-1.035.854a1.964,1.964,0,0,0,.016.524c.119.655.232,1.312.388,1.958a.91.91,0,0,1-.154.974.893.893,0,0,0-.258.773,6.751,6.751,0,0,0,.458,1.706c.043-.524.053-.827.1-1.125a.324.324,0,0,1,.491-.221c.355.281.682.6,1.024.9.107.094.222.185.393-.025a3.131,3.131,0,0,0-.31-.491,6.793,6.793,0,0,1-1.583-3.61,2.668,2.668,0,0,1-.019-.731.448.448,0,0,1,.77-.318c.4.335.751.732,1.119,1.107a1.5,1.5,0,0,1,.439,1.04c.024.737.063,1.473.1,2.209.009.164-.04.361.222.485a3.384,3.384,0,0,0,.2-1.215,4.7,4.7,0,0,1,.013-.628.343.343,0,0,1,.175-.234.315.315,0,0,1,.283.047c.2.2.355.433.545.639.229.247.385.584.79.708A.653.653,0,0,0,479.74,669.814Z" transform="translate(-469.986 -543.12)"/>
      <path id="パス_254" data-name="パス 254" d="M490.32,671.473a1.169,1.169,0,0,0,.145-.356c0-.049-.14-.147-.213-.143a.2.2,0,0,0-.2.275C490.075,671.32,490.185,671.364,490.32,671.473Z" transform="translate(-480.311 -550.737)"/>
      <path id="パス_255" data-name="パス 255" d="M480.023,609.861a.317.317,0,0,0,.031.012c0-.012-.008-.024-.01-.037Z" transform="translate(-473.601 -509.783)"/>
      <path id="パス_256" data-name="パス 256" d="M481.757,564.376a5.1,5.1,0,0,0-1.774-1.447,1.536,1.536,0,0,0-1.776.144c-.194.152-.377.317-.58.456a.838.838,0,0,1-1.283-.2,8.63,8.63,0,0,1-.7-1.292.673.673,0,0,1,.22-.848c.107-.09.237-.15.349-.235.534-.4.516-.777-.069-1.124a2.828,2.828,0,0,0-.673-.292.581.581,0,0,0-.8.576,8.82,8.82,0,0,1-.438,2.478,4.6,4.6,0,0,0-.081,2.284,5.969,5.969,0,0,1,.132.938,2.514,2.514,0,0,0,1.163,2.023,9.554,9.554,0,0,0,5.12,2,1.05,1.05,0,0,1,1.069,1.193,2.728,2.728,0,0,0-.064.381c0,.2.109.365.3.356a.829.829,0,0,0,.435-.219.4.4,0,0,0,.091-.293,4.048,4.048,0,0,0-.091-.832.844.844,0,0,1,.282-.942,1.659,1.659,0,0,0,.674-1.262,5.15,5.15,0,0,0-.136-1.143A7.06,7.06,0,0,0,481.757,564.376Zm-2.123,4.5a6.17,6.17,0,0,1-.936-.14c-.884-.216-1.688-.545-1.887-1.544-.118-.027-.194-.071-.247-.052-.733.267-.927.228-1.322-.338-.221-.317-.421-.649-.61-.986a.973.973,0,0,1-.162-.491c.052-.805.121-1.61.218-2.411.041-.339.364-.41.632-.176a4.865,4.865,0,0,1,1.343,2.229,4.272,4.272,0,0,1,.016,1.167c.961-.576,1-.565,1.59.119.3.343.643.647.934,1a11.723,11.723,0,0,1,.795,1.1,1.185,1.185,0,0,1,.063.432A1.587,1.587,0,0,1,479.634,568.878Zm2.927-.468a.758.758,0,0,1-1.31.35c-1.028-1.2-2.059-2.39-3.11-3.564-.447-.5-.307-.947.209-1.328a1.226,1.226,0,0,1,1.476-.067,6.092,6.092,0,0,1,1.9,1.635,7.872,7.872,0,0,0,.508.672,1.82,1.82,0,0,1,.447,1.366A8.379,8.379,0,0,1,482.561,568.41Z" transform="translate(-469.597 -476.065)"/>
      <path id="パス_257" data-name="パス 257" d="M475.545,423.415a.845.845,0,0,0-.595.992,1.78,1.78,0,0,0,.747,1.442l.006.008a1.864,1.864,0,0,1-.138-1.132.453.453,0,0,1,.495-.437c.279-.006.561.023.836-.008a.423.423,0,0,0,.324-.563,2.351,2.351,0,0,0-.3-.548c-.166-.225-.384-.414-.542-.643a1.261,1.261,0,0,1-.353-1.1c.3-.044.61-.074.91-.138a.536.536,0,0,0,.434-.628,5.017,5.017,0,0,0-.26-.8c-.1-.257-.217-.506-.381-.882a2.049,2.049,0,0,0,.361-.212c.437-.393.5-.656.2-1.075-.344-.488-.722-.951-1.09-1.421-.037-.047-.112-.063-.27-.148.079.23.119.387.185.531.117.255.264.5.373.755s-.083.482-.374.466-.574-.308-.967-.06a2.245,2.245,0,0,0,.176.431c.37.554.777,1.084,1.126,1.651.247.4.087.687-.362.748-.173.024-.353,0-.525.034a.5.5,0,0,0-.408.708,7.649,7.649,0,0,0,.513.912c.154.264.421.485.3.911A3.455,3.455,0,0,1,475.545,423.415Z" transform="translate(-470.196 -380.02)"/>
    </g>
    <text id="_2019_JOJI_MANABE" data-name="©︎  2019  JOJI MANABE" transform="translate(14 3278)" font-size="10" font-family="BodoniSvtyTwoITCTT-Bold, 'Bodoni 72'" font-weight="700" letter-spacing="0.01em"><tspan x="0" y="0" xml:space="preserve">©︎  2019  JOJI MANABE</tspan></text>
  </g>
</svg>
