<svg xmlns="http://www.w3.org/2000/svg" width="100.927" height="269.559" viewBox="0 0 100.927 269.559">
  <g id="グループ_38" data-name="グループ 38" transform="translate(-36.377 -117.914)">
    <g id="グループ_27" data-name="グループ 27" transform="translate(36.377 117.914)">
      <g id="グループ_22" data-name="グループ 22" transform="translate(0)">
        <path id="パス_263" data-name="パス 263" d="M371.351,320.8a1.282,1.282,0,0,1-.164-.011l-49.2-6.448a1.261,1.261,0,0,1,0-2.5l49.2-6.449a1.276,1.276,0,0,1,.328,0l49.2,6.449a1.261,1.261,0,0,1,0,2.5l-49.2,6.448A1.285,1.285,0,0,1,371.351,320.8Zm-39.5-7.709,39.5,5.177,39.5-5.177-39.5-5.177Z" transform="translate(-320.888 -305.381)" fill="#313131"/>
      </g>
      <g id="グループ_23" data-name="グループ 23" transform="translate(0 66.162)">
        <path id="パス_264" data-name="パス 264" d="M371.351,445.536a1.241,1.241,0,0,1-.164-.011l-49.2-6.448a1.261,1.261,0,0,1,.328-2.5L371.351,443l49.038-6.427a1.261,1.261,0,0,1,.328,2.5l-49.2,6.448A1.243,1.243,0,0,1,371.351,445.536Z" transform="translate(-320.888 -436.566)" fill="#313131"/>
      </g>
      <g id="グループ_24" data-name="グループ 24" transform="translate(0 6.449)">
        <path id="パス_265" data-name="パス 265" d="M322.149,380.4a1.261,1.261,0,0,1-1.261-1.261V319.428a1.261,1.261,0,1,1,2.522,0v59.713A1.261,1.261,0,0,1,322.149,380.4Z" transform="translate(-320.888 -318.167)" fill="#313131"/>
      </g>
      <g id="グループ_25" data-name="グループ 25" transform="translate(98.405 6.449)">
        <path id="パス_266" data-name="パス 266" d="M517.263,380.4A1.261,1.261,0,0,1,516,379.141V319.428a1.261,1.261,0,1,1,2.522,0v59.713A1.261,1.261,0,0,1,517.263,380.4Z" transform="translate(-516.002 -318.167)" fill="#313131"/>
      </g>
      <g id="グループ_26" data-name="グループ 26" transform="translate(49.203 12.897)">
        <path id="パス_267" data-name="パス 267" d="M419.706,393.188a1.261,1.261,0,0,1-1.261-1.261V332.213a1.261,1.261,0,1,1,2.522,0v59.714A1.261,1.261,0,0,1,419.706,393.188Z" transform="translate(-418.445 -330.952)" fill="#313131"/>
      </g>
    </g>
    <g id="グループ_34" data-name="グループ 34" transform="translate(48.428 221.76)">
      <g id="グループ_28" data-name="グループ 28" transform="translate(0)">
        <path id="パス_268" data-name="パス 268" d="M383.2,547.068a232.778,232.778,0,0,1-26.42-1.322c-11.064-1.335-11.991-2.981-11.991-4.42,0-2.745,6.19-3.721,11.991-4.421a264.672,264.672,0,0,1,52.84,0c11.065,1.334,11.991,2.982,11.991,4.421,0,2.744-6.189,3.72-11.991,4.42A232.78,232.78,0,0,1,383.2,547.068Zm-35.481-5.742c2.889,1.451,15.7,3.22,35.481,3.22s32.591-1.769,35.481-3.22c-2.89-1.451-15.7-3.221-35.481-3.221S350.6,539.875,347.714,541.326Zm71.475.354h0Z" transform="translate(-344.784 -535.583)" fill="#313131"/>
      </g>
      <g id="グループ_29" data-name="グループ 29" transform="translate(33.11 54.641)">
        <path id="パス_269" data-name="パス 269" d="M418.785,656.98a4.464,4.464,0,0,1-2.52-.992,15.067,15.067,0,0,1-3.375-3.539c-2.154-3.054-3.453-6.753-1.5-8.133s5,1.085,7.159,4.138a15.08,15.08,0,0,1,2.2,4.366c.637,2.254-.032,3.293-.706,3.767A2.147,2.147,0,0,1,418.785,656.98Zm-5.839-10.461a12.761,12.761,0,0,0,5.55,7.867,12.766,12.766,0,0,0-5.55-7.867Z" transform="translate(-410.433 -643.924)" fill="#313131"/>
      </g>
      <g id="グループ_30" data-name="グループ 30" transform="translate(0 4.481)">
        <path id="パス_270" data-name="パス 270" d="M379.14,579.4a1.251,1.251,0,0,1-.682-.2c-1.012-.653-24.869-16.172-33.533-32.89a1.261,1.261,0,0,1,2.239-1.16c8.358,16.128,32.419,31.776,32.661,31.932a1.261,1.261,0,0,1-.685,2.32Z" transform="translate(-344.783 -544.469)" fill="#313131"/>
      </g>
      <g id="グループ_31" data-name="グループ 31" transform="translate(41.208 4.481)">
        <path id="パス_271" data-name="パス 271" d="M427.751,579.4a1.261,1.261,0,0,1-.684-2.32c.242-.156,24.3-15.813,32.657-31.932a1.261,1.261,0,1,1,2.239,1.161c-8.664,16.718-32.518,32.238-33.529,32.89A1.254,1.254,0,0,1,427.751,579.4Z" transform="translate(-426.49 -544.468)" fill="#313131"/>
      </g>
      <g id="グループ_32" data-name="グループ 32" transform="translate(33.097 36.892)">
        <path id="パス_272" data-name="パス 272" d="M411.668,629.787a1.261,1.261,0,0,1-1.261-1.261V609.993a1.261,1.261,0,0,1,2.522,0v18.533A1.261,1.261,0,0,1,411.668,629.787Z" transform="translate(-410.407 -608.732)" fill="#313131"/>
      </g>
      <g id="グループ_33" data-name="グループ 33" transform="translate(41.208 36.892)">
        <path id="パス_273" data-name="パス 273" d="M427.75,638.391a1.261,1.261,0,0,1-1.261-1.261V609.993a1.261,1.261,0,0,1,2.522,0V637.13A1.261,1.261,0,0,1,427.75,638.391Z" transform="translate(-426.489 -608.732)" fill="#313131"/>
      </g>
    </g>
    <g id="グループ_37" data-name="グループ 37" transform="translate(78.848 313.852)">
      <g id="グループ_35" data-name="グループ 35" transform="translate(0.043 1.987)">
        <path id="パス_274" data-name="パス 274" d="M413.207,808.606a7.124,7.124,0,0,1-7.129-7.13V741.458a3.994,3.994,0,0,0-.352-1.99l-.354-.574a1.261,1.261,0,0,1,2.148-1.322l.354.574a6.123,6.123,0,0,1,.726,3.311v60.018a4.558,4.558,0,0,0,.079.854,4.61,4.61,0,0,0,9.065-.032,4.676,4.676,0,0,0,.073-.823V741.291a6.13,6.13,0,0,1,.533-2.975l.359-.674a1.261,1.261,0,0,1,2.226,1.184l-.359.675a4.226,4.226,0,0,0-.237,1.79v60.185a7.228,7.228,0,0,1-.112,1.27,7.133,7.133,0,0,1-7.018,5.861Z" transform="translate(-405.185 -736.972)" fill="#313131"/>
      </g>
      <g id="グループ_36" data-name="グループ 36" transform="translate(0 0)">
        <path id="パス_275" data-name="パス 275" d="M413.091,739.492c-1.335,0-7.992-.156-7.992-3.229s6.657-3.23,7.992-3.23,7.992.156,7.992,3.23S414.425,739.492,413.091,739.492Zm-4.951-3.229a17.684,17.684,0,0,0,9.9,0,17.662,17.662,0,0,0-9.9,0Zm10.523.341h0Z" transform="translate(-405.099 -733.033)" fill="#313131"/>
      </g>
    </g>
  </g>
</svg>
