<svg xmlns="http://www.w3.org/2000/svg" width="274.651" height="203.111" viewBox="0 0 274.651 203.111">
  <g id="グループ_109" data-name="グループ 109" transform="translate(-60.228 -1860.889)">
    <g id="グループ_61" data-name="グループ 61" transform="translate(-173.286 1603.169)">
      <g id="レイヤー_2" data-name="レイヤー 2" transform="translate(236.715 271.461)">
        <path id="パス_277" data-name="パス 277" d="M502.535,377.1l-11.508,19.975L479.519,377.1H456.5L445,397.072l-11.508-39.95H421.979l-11.508,39.95H398.964L387.456,377.1l-11.508,19.975-11.508-39.95L352.932,377.1l-11.508-99.876-11.508,39.95H306.9L295.392,297.2l-11.508,59.926-11.508-19.975-11.508-19.975H249.361l-11.345,19.975v99.512l264.519.122Z" transform="translate(-237.946 -277.221)" fill="#f84646" stroke="#f84646" stroke-linejoin="round" stroke-width="1"/>
        <path id="パス_278" data-name="パス 278" d="M238.108,384.769l11.253,39.793,11.508-59.926,11.508,19.975h23.016L306.9,364.636l11.508-19.975,11.508,39.95,11.508,39.95,11.508-82.119,11.508,22.194,11.508-19.975,11.508,19.975,11.508-39.95h11.508l11.508,39.95,11.508,19.975L445,324.686h23.016l11.508,39.95,11.508-59.926,11.508,39.95V444.3l-264.519-.123Z" transform="translate(-237.946 -284.736)" fill="#5d99fa" stroke="#5d99fa" stroke-linejoin="round" stroke-width="1"/>
        <path id="パス_279" data-name="パス 279" d="M502.509,434.646v39.586H237.919V434.646l11.415-19.975,11.508,19.975H272.35l11.508-19.975h23.016l11.508,19.975,11.508,19.975H341.4l11.508-19.975h11.508l11.508-19.975h11.508l11.508,19.975h23.016l11.508-19.975,23.016,39.95h11.508l11.508-39.95L491,454.621Z" transform="translate(-237.919 -314.795)" fill="#f8b840" stroke="#f8b840" stroke-linejoin="round" stroke-width="1"/>
      </g>
      <g id="レイヤー_1" data-name="レイヤー 1" transform="translate(233.514 261.358)">
        <path id="パス_280" data-name="パス 280" d="M238.015,263.316V432.857H508.637" transform="translate(-234.745 -263.316)" fill="none" stroke="#231815" stroke-linecap="round" stroke-miterlimit="10" stroke-width="1.518"/>
        <g id="グループ_57" data-name="グループ 57" transform="translate(14.616 169.663)">
          <line id="線_13" data-name="線 13" y2="6.108" fill="none" stroke="#231815" stroke-miterlimit="10" stroke-width="0.759"/>
          <line id="線_14" data-name="線 14" y2="6.108" transform="translate(11.508)" fill="none" stroke="#231815" stroke-miterlimit="10" stroke-width="0.759"/>
          <line id="線_15" data-name="線 15" y2="6.108" transform="translate(23.016)" fill="none" stroke="#231815" stroke-miterlimit="10" stroke-width="0.759"/>
          <line id="線_16" data-name="線 16" y2="6.108" transform="translate(34.524)" fill="none" stroke="#231815" stroke-miterlimit="10" stroke-width="0.759"/>
          <line id="線_17" data-name="線 17" y2="6.108" transform="translate(46.032)" fill="none" stroke="#231815" stroke-miterlimit="10" stroke-width="0.759"/>
          <line id="線_18" data-name="線 18" y2="6.108" transform="translate(57.54)" fill="none" stroke="#231815" stroke-miterlimit="10" stroke-width="0.759"/>
          <line id="線_19" data-name="線 19" y2="6.108" transform="translate(69.047)" fill="none" stroke="#231815" stroke-miterlimit="10" stroke-width="0.759"/>
          <line id="線_20" data-name="線 20" y2="6.108" transform="translate(80.555)" fill="none" stroke="#231815" stroke-miterlimit="10" stroke-width="0.759"/>
          <line id="線_21" data-name="線 21" y2="6.108" transform="translate(92.063)" fill="none" stroke="#231815" stroke-miterlimit="10" stroke-width="0.759"/>
          <line id="線_22" data-name="線 22" y2="6.108" transform="translate(103.571)" fill="none" stroke="#231815" stroke-miterlimit="10" stroke-width="0.759"/>
          <line id="線_23" data-name="線 23" y2="6.108" transform="translate(115.079)" fill="none" stroke="#231815" stroke-miterlimit="10" stroke-width="0.759"/>
          <line id="線_24" data-name="線 24" y2="6.108" transform="translate(126.587)" fill="none" stroke="#231815" stroke-miterlimit="10" stroke-width="0.759"/>
          <line id="線_25" data-name="線 25" y2="6.108" transform="translate(138.095)" fill="none" stroke="#231815" stroke-miterlimit="10" stroke-width="0.759"/>
          <line id="線_26" data-name="線 26" y2="6.108" transform="translate(149.603)" fill="none" stroke="#231815" stroke-miterlimit="10" stroke-width="0.759"/>
          <line id="線_27" data-name="線 27" y2="6.108" transform="translate(161.111)" fill="none" stroke="#231815" stroke-miterlimit="10" stroke-width="0.759"/>
          <line id="線_28" data-name="線 28" y2="6.108" transform="translate(172.619)" fill="none" stroke="#231815" stroke-miterlimit="10" stroke-width="0.759"/>
          <line id="線_29" data-name="線 29" y2="6.108" transform="translate(184.127)" fill="none" stroke="#231815" stroke-miterlimit="10" stroke-width="0.759"/>
          <line id="線_30" data-name="線 30" y2="6.108" transform="translate(195.634)" fill="none" stroke="#231815" stroke-miterlimit="10" stroke-width="0.759"/>
          <line id="線_31" data-name="線 31" y2="6.108" transform="translate(207.142)" fill="none" stroke="#231815" stroke-miterlimit="10" stroke-width="0.759"/>
          <line id="線_32" data-name="線 32" y2="6.108" transform="translate(218.65)" fill="none" stroke="#231815" stroke-miterlimit="10" stroke-width="0.759"/>
          <line id="線_33" data-name="線 33" y2="6.108" transform="translate(230.158)" fill="none" stroke="#231815" stroke-miterlimit="10" stroke-width="0.759"/>
          <line id="線_34" data-name="線 34" y2="6.108" transform="translate(241.666)" fill="none" stroke="#231815" stroke-miterlimit="10" stroke-width="0.759"/>
          <line id="線_35" data-name="線 35" y2="6.108" transform="translate(253.174)" fill="none" stroke="#231815" stroke-miterlimit="10" stroke-width="0.759"/>
        </g>
        <g id="グループ_58" data-name="グループ 58" transform="translate(0 10.104)">
          <line id="線_36" data-name="線 36" x2="3.1" transform="translate(0 139.826)" fill="none" stroke="#231815" stroke-miterlimit="10" stroke-width="0.759"/>
          <line id="線_37" data-name="線 37" x2="3.1" transform="translate(0 119.851)" fill="none" stroke="#231815" stroke-miterlimit="10" stroke-width="0.759"/>
          <line id="線_38" data-name="線 38" x2="3.1" transform="translate(0 99.876)" fill="none" stroke="#231815" stroke-miterlimit="10" stroke-width="0.759"/>
          <line id="線_39" data-name="線 39" x2="3.1" transform="translate(0 79.901)" fill="none" stroke="#231815" stroke-miterlimit="10" stroke-width="0.759"/>
          <line id="線_40" data-name="線 40" x2="3.1" transform="translate(0 59.925)" fill="none" stroke="#231815" stroke-miterlimit="10" stroke-width="0.759"/>
          <line id="線_41" data-name="線 41" x2="3.1" transform="translate(0 39.95)" fill="none" stroke="#231815" stroke-miterlimit="10" stroke-width="0.759"/>
          <line id="線_42" data-name="線 42" x2="3.1" transform="translate(0 19.975)" fill="none" stroke="#231815" stroke-miterlimit="10" stroke-width="0.759"/>
          <line id="線_43" data-name="線 43" x2="3.1" fill="none" stroke="#231815" stroke-miterlimit="10" stroke-width="0.759"/>
        </g>
      </g>
    </g>
    <text id="Vertical_:_Percentage" data-name="Vertical : Percentage" transform="translate(120 2060)" font-size="12" font-family="BodoniSvtyTwoITCTT-Bold, 'Bodoni 72'" font-weight="700" letter-spacing="0.04em"><tspan x="0" y="0">Vertical : Percentage</tspan></text>
    <text id="Horizontal_:_Time" data-name="Horizontal : Time" transform="translate(241 2060)" font-size="12" font-family="BodoniSvtyTwoITCTT-Bold, 'Bodoni 72'" font-weight="700" letter-spacing="0.04em"><tspan x="0" y="0">Horizontal : Time</tspan></text>
    <path id="パス_281" data-name="パス 281" d="M-413.049,1711.813l9.029,8.864v17.161h-45.819" transform="translate(-1541.438 1457.369) rotate(-90)" fill="none" stroke="#231815" stroke-width="1"/>
    <path id="パス_282" data-name="パス 282" d="M36.79,26.025l9.029-8.864V0H0" transform="translate(287.376 1927.208) rotate(-90)" fill="none" stroke="#231815" stroke-width="1"/>
    <path id="パス_283" data-name="パス 283" d="M36.79,26.025l9.029-8.864V0H0" transform="translate(193.401 1979.389) rotate(90)" fill="none" stroke="#231815" stroke-width="1"/>
    <text id="_80.3_" data-name="80.3%" transform="translate(199.5 1872.5) rotate(90)" font-size="12" font-family="BodoniSvtyTwoITCTT-Bold, 'Bodoni 72'" font-weight="700" letter-spacing="0.04em"><tspan x="0" y="0">80.3%</tspan></text>
    <text id="_71.5_" data-name="71.5%" transform="translate(290.5 1893.5) rotate(90)" font-size="12" font-family="BodoniSvtyTwoITCTT-Bold, 'Bodoni 72'" font-weight="700" letter-spacing="0.04em"><tspan x="0" y="0">71.5%</tspan></text>
    <text id="_11.2_" data-name="11.2%" transform="translate(196.5 1978.5) rotate(90)" font-size="12" font-family="BodoniSvtyTwoITCTT-Bold, 'Bodoni 72'" font-weight="700" letter-spacing="0.04em"><tspan x="0" y="0">11.2%</tspan></text>
  </g>
</svg>
